<?xml version="1.0" standalone="no"?>
<!DOCTYPE svg PUBLIC "-//W3C//DTD SVG 1.1//EN" "http://www.w3.org/Graphics/SVG/1.1/DTD/svg11.dtd" >
<svg>
<metadata>
Created by FontForge 20090914 at Wed Mar 30 18:45:11 2016
 By www-data
&#194;&#169; 2008 Microsoft Corporation. All Rights Reserved.
</metadata>
<defs>
<font id="Candara-Bold" horiz-adv-x="1033" >
  <font-face 
    font-family="Candara"
    font-weight="700"
    font-stretch="normal"
    units-per-em="2048"
    panose-1="2 14 7 2 3 3 3 2 2 4"
    ascent="1484"
    descent="-564"
    x-height="950"
    cap-height="1302"
    bbox="-1016 -569 2376 1950"
    underline-thickness="20"
    underline-position="-123"
    unicode-range="U+000D-U+FB04"
  />
<missing-glyph horiz-adv-x="932" 
d="M932 1308v-1308h-932v1308h932zM841 91v1126h-750v-1126h750zM409 426l-1.99902 31c0 82.667 12.833 141 38.5 175s48.5 60.333 68.5 79c38 38.667 62.5 68 73.5 88s16.5 41 16.5 63c0 44 -13.833 81.167 -41.5 111.5s-59.834 45.5 -96.501 45.5
c-38.667 0 -71.5 -13.667 -98.5 -41s-44.167 -71 -51.5 -131l-90 14c8 86.667 34.833 150 80.5 190s101.5 60 167.5 60c62.667 0 115.667 -22.167 159 -66.5s65 -102.166 65 -173.499c0 -38 -7.5 -72.333 -22.5 -103s-45.5 -68 -91.5 -112
c-45.333 -40.667 -71.833 -73.834 -79.5 -99.501s-11.5 -69.167 -11.5 -130.5h-84zM389.001 272c0 18.667 6.33301 34.334 19 47.001s28 19 46 19c18.667 0 34.334 -6.33301 47.001 -19s19 -28.334 19 -47.001c0 -18 -6.33301 -33.167 -19 -45.5
s-28.334 -18.5 -47.001 -18.5c-18 0 -33.333 6.16699 -46 18.5s-19 27.5 -19 45.5z" />
    <glyph glyph-name="uniFB00" unicode="ff" horiz-adv-x="1346" 
d="M1342 1419l-36 -178.003c-38.667 9.33301 -77.667 14 -117 14c-47.333 -1.33301 -80 -23.666 -98 -66.999s-27 -128.333 -27 -255c59.333 0 141 2.66699 245 8l-8 -199c-104 4 -183 6 -237 6c0 -251.333 5 -500.666 15 -747.999h-264c10 244 15 493.333 15 748h-371
c0 -251.333 4.66699 -500.666 14 -747.999h-264c9.33301 244.667 14 494 14 748c-38 0 -96 -2.33301 -174 -7l8 199c71.333 -4 126.666 -6 165.999 -6c0 176 35 300.333 105 373s181.333 109 334 109c112.667 0 210.667 -19.667 294 -59c60.667 52.667 130.667 79 210 79
c68.667 0 127.334 -5.66699 176.001 -17zM861 1201c-58.667 29.333 -122 44 -190 44c-82 0 -137.833 -21 -167.5 -63s-44.5 -124.667 -44.5 -248h371c0 108 10.333 197 31 267z" />
    <glyph glyph-name="uniFB01" unicode="fi" horiz-adv-x="1195" 
d="M1112 1338l-76.999 -198.001c-128 76.667 -249.333 115 -364 115c-82 0 -137.833 -21 -167.5 -63s-44.5 -128 -44.5 -258c194.667 0 401 12.333 619 37c-8 -130 -12 -295.333 -12 -496c0 -172 4.66699 -330.333 14 -475h-270c9.33301 138 14 296.333 14 475
c0 121.333 -2.33301 217.333 -7 288c-36 -4 -87.5 -7.5 -154.5 -10.5s-134.833 -4.5 -203.5 -4.5c0 -251.333 4.66699 -500.666 14 -747.999h-264c9.33301 244.667 14 494 14 748c-38 0 -96 -2.33301 -174 -7l8 199c71.333 -4 126.666 -6 165.999 -6
c0 189.333 35 320.333 105 393s181.333 109 334 109c182.667 0 332.667 -32.667 450 -98z" />
    <glyph glyph-name="uniFB02" unicode="fl" horiz-adv-x="1198" 
d="M1079 0l-273.001 -0.00195312c10 228.667 15 476.334 15 743.001c0 187.333 -5.33301 354.333 -16 501c-58 14 -119.667 21 -185 21c-72 0 -117 -23.667 -135 -71s-27 -134.333 -27 -261c59.333 0 141 2.66699 245 8l-8 -199c-104 4 -183 6 -237 6
c0 -251.333 5 -500.666 15 -747.999h-264c10 244 15 493.333 15 748c-39.333 0 -97.666 -2 -174.999 -6l8 198c70.667 -4.66699 126.334 -7 167.001 -7c0 188 31.667 318.833 95 392.5s153.666 110.5 270.999 110.5c75.333 0 142 -10 200 -30l289 16
c-10 -188.667 -15 -415 -15 -679c0 -268 5 -515.667 15 -743z" />
    <glyph glyph-name="uniFB03" unicode="ffi" horiz-adv-x="1800" 
d="M1717 1338l-77.001 -198.002c-128 76.667 -249.333 115 -364 115c-82 0 -137.833 -21 -167.5 -63s-44.5 -128 -44.5 -258c194.667 0 401 12.333 619 37c-8 -130 -12 -295.333 -12 -496c0 -172 4.66699 -330.333 14 -475h-270c9.33301 138 14 296.333 14 475
c0 121.333 -2.33301 217.333 -7 288c-36 -4 -87.5 -7.5 -154.5 -10.5s-134.833 -4.5 -203.5 -4.5c0 -251.333 4.66699 -500.666 14 -747.999h-264c8.66699 238 13.334 487.333 14.001 748h-369c0 -251.333 4.66699 -500.666 14 -747.999h-264c9.33301 244.667 14 494 14 748
c-38 0 -96 -2.33301 -174 -7l8 199c71.333 -4 126.666 -6 165.999 -6c0 176 35 300.333 105 373s181.333 109 334 109c112.667 0 209.667 -23.333 291 -70c70.667 60 175.334 90 314.001 90c182.667 0 332.667 -32.667 450 -98zM861.999 1200c-59.333 30 -123 45 -191 45
c-82 0 -137.833 -21 -167.5 -63s-44.5 -124.667 -44.5 -248h369c0 107.333 11.333 196 34 266z" />
    <glyph glyph-name="uniFB04" unicode="ffl" horiz-adv-x="1803" 
d="M1685 0l-272.999 -0.00292969c10 228.667 15 476.334 15 743.001c0 187.333 -5.33301 354.333 -16 501c-58 14 -119.667 21 -185 21c-72 0 -117 -23.667 -135 -71s-27 -134.333 -27 -261c59.333 0 141 2.66699 245 8l-8 -199c-104 4 -183 6 -237 6
c0 -251.333 5 -500.666 15 -747.999h-264c10 244 15 493.333 15 748h-371c0 -251.333 4.66699 -500.666 14 -747.999h-264c9.33301 244.667 14 494 14 748c-38 0 -96 -2.33301 -174 -7l8 199c71.333 -4 126.666 -6 165.999 -6c0 176 35 300.333 105 373s181.333 109 334 109
c112.667 0 210.667 -19.667 294 -59c60.667 52.667 140.667 79 240 79c75.333 0 142 -10 200 -30l289 16c-10 -188.667 -15 -415 -15 -679c0 -268 5 -515.667 15 -743zM861.001 1201c-58.667 29.333 -122 44 -190 44c-82 0 -137.833 -21 -167.5 -63
s-44.5 -124.667 -44.5 -248h371c0 108 10.333 197 31 267z" />
    <glyph glyph-name="f_b.liga" unicode="fb" horiz-adv-x="1840" 
d="M1771 516c0 -144.667 -41.166 -271.668 -123.499 -381.001s-196.166 -164 -341.499 -164c-106 0 -181.667 22.667 -227 68h-12l-21 -39h-240c10.667 228 16 475.667 16 743c-1.33301 188 -7.33301 355.333 -18 502c-58 14 -119.667 21 -185 21
c-72 0 -117 -23.667 -135 -71s-27 -134.333 -27 -261c59.333 0 141 2.66699 245 8l-8 -199c-104 4 -182.333 6 -235 6c0 -252 4.66699 -501.667 14 -749h-264c9.33301 244.667 14 494 14 748c-38 0 -96 -2.33301 -174 -7l8 199c71.333 -4 126.666 -6 165.999 -6
c0 188 31.667 318.833 95 392.5s153.666 110.5 270.999 110.5c75.333 0 142 -10 200 -30l289 16c-6 -155.333 -9 -331.666 -9 -528.999l12 1c67.333 58.667 158.333 88 273 88c128 0 229.5 -46 304.5 -138s112.5 -201.667 112.5 -329zM1505 488.999
c0 83.333 -21.1689 155.833 -63.502 217.5s-100.166 92.5 -173.499 92.5c-93.333 0 -161 -27.333 -203 -82c0 -228 4.66699 -399.333 14 -514c42.667 -32.667 97.334 -49 164.001 -49c88.667 0 154.5 32.667 197.5 98s64.5 144.333 64.5 237z" />
    <glyph glyph-name="f_f_b.liga" unicode="ffb" horiz-adv-x="2445" 
d="M2376 516c0 -144.667 -41.167 -271.669 -123.5 -381.002s-196.166 -164 -341.499 -164c-106 0 -181.667 22.667 -227 68h-12l-21 -39h-240c10.667 228 16 475.667 16 743c0 187.333 -5.33301 354.333 -16 501c-58 14 -119.667 21 -185 21c-72 0 -117 -23.667 -135 -71
s-27 -134.333 -27 -261c59.333 0 141 2.66699 245 8l-8 -199c-104 4 -183 6 -237 6c0 -251.333 5 -500.666 15 -747.999h-264c10 244 15 493.333 15 748h-371c0 -251.333 4.66699 -500.666 14 -747.999h-264c9.33301 244.667 14 494 14 748c-38 0 -96 -2.33301 -174 -7
l8 199c71.333 -4 126.666 -6 165.999 -6c0 176 35 300.333 105 373s181.333 109 334 109c112.667 0 210.667 -19.667 294 -59c60.667 52.667 140.667 79 240 79c75.333 0 142 -10 200 -30l288 15c-6.66699 -154 -10 -329.667 -10 -527l12 1c67.333 58.667 158.333 88 273 88
c128 0 229.5 -46 304.5 -138s112.5 -201.667 112.5 -329zM2110 488.998c0 83.333 -21.1689 155.833 -63.502 217.5s-100.166 92.5 -173.499 92.5c-93.333 0 -161 -27.333 -203 -82c0 -228 4.66699 -399.333 14 -514c42.667 -32.667 97.334 -49 164.001 -49
c88.667 0 154.5 32.667 197.5 98s64.5 144.333 64.5 237zM860.998 1201c-58.667 29.333 -122 44 -190 44c-82 0 -137.833 -21 -167.5 -63s-44.5 -124.667 -44.5 -248h371c0 108 10.333 197 31 267z" />
    <glyph glyph-name="f_h.liga" unicode="fh" horiz-adv-x="1834" 
d="M1723 0l-265.998 -0.00195312c15.333 169.333 23 340 23 512c0 108 -15.833 179.667 -47.5 215s-80.167 53 -145.5 53c-72 0 -143.667 -23.667 -215 -71c0 -284 3.33301 -520.333 10 -709h-276c10.667 228 16 475.667 16 743c0 187.333 -5.33301 354.333 -16 501
c-58 14 -119.667 21 -185 21c-72 0 -117 -23.667 -135 -71s-27 -134.333 -27 -261c59.333 0 141 2.66699 245 8l-8 -199c-104 4 -183 6 -237 6c0 -251.333 4.66699 -500.666 14 -747.999h-264c9.33301 244.667 14 494 14 748c-38 0 -96 -2.33301 -174 -7l8 199
c71.333 -4 126.666 -6 165.999 -6c1.33301 187.333 33.666 317.833 96.999 391.5s153.666 110.5 270.999 110.5c75.333 0 142 -10 200 -30l289 15c-9.33301 -214 -14 -400.667 -14 -560l12 1c88.667 80.667 186.334 121 293.001 121c112 0 198.667 -24.167 260 -72.5
s92 -134.166 92 -257.499c0 -12 -0.666992 -37.833 -2 -77.5s-2 -65.5 -2 -77.5c0 -110.667 1.33301 -276.667 4 -498z" />
    <glyph glyph-name="f_f_h.liga" unicode="ffh" horiz-adv-x="2439" 
d="M2328 0l-266 -0.00292969c15.333 169.333 23 340 23 512c0 108 -15.833 179.667 -47.5 215s-80.167 53 -145.5 53c-72 0 -143.667 -23.667 -215 -71c0 -284 3.33301 -520.333 10 -709h-276c10.667 228 16 475.667 16 743c0 187.333 -5.33301 354.333 -16 501
c-58 14 -119.667 21 -185 21c-72 0 -117 -23.667 -135 -71s-27 -134.333 -27 -261c59.333 0 141 2.66699 245 8l-8 -199c-104 4 -183 6 -237 6c0 -251.333 5 -500.666 15 -747.999h-264c10 244 15 493.333 15 748h-371c0 -251.333 4.66699 -500.666 14 -747.999h-264
c9.33301 244.667 14 494 14 748c-38 0 -96 -2.33301 -174 -7l8 199c71.333 -4 126.666 -6 165.999 -6c0 176 35 300.333 105 373s181.333 109 334 109c112.667 0 210.667 -19.667 294 -59c60.667 52.667 140.667 79 240 79c75.333 0 142 -10 200 -30l289 15
c-9.33301 -214 -14 -400.667 -14 -560l12 1c88.667 80.667 186.334 121 293.001 121c112 0 198.667 -24.167 260 -72.5s92 -134.166 92 -257.499c0 -12 -0.666992 -38 -2 -78c-1.33301 -39.333 -2 -65 -2 -77c0 -110.667 1.33301 -276.667 4 -498zM861 1201
c-58.667 29.333 -122 44 -190 44c-82 0 -137.833 -21 -167.5 -63s-44.5 -124.667 -44.5 -248h371c0 108 10.333 197 31 267z" />
    <glyph glyph-name="f_j.liga" unicode="fj" horiz-adv-x="1196" 
d="M1036 1140c-128 76.667 -249.332 115 -363.999 115c-82 0 -137.833 -21 -167.5 -63s-44.5 -128 -44.5 -258c194.667 0 401 12.333 619 37c-8 -202 -12 -402.667 -12 -602c0 -52 1 -123.5 3 -214.5s3 -152.167 3 -183.5c0 -245.333 -98.333 -388 -295 -428l-72 142
c46.667 38 77.667 88.333 93 151c18.667 83.333 28 243.666 28 480.999c0 204 -3.33301 353 -10 447c-35.333 -4.66699 -86.5 -8.5 -153.5 -11.5s-134.833 -4.5 -203.5 -4.5c0 -251.333 4.66699 -500.666 14 -747.999h-264c9.33301 244.667 14 494 14 748
c-38 0 -96 -2.33301 -174 -7l8 199c71.333 -4 126.666 -6 165.999 -6c0 189.333 35 320.333 105 393s181.333 109 334 109c182.667 0 332.667 -32.667 450 -98z" />
    <glyph glyph-name="f_f_j.liga" unicode="ffj" horiz-adv-x="1801" 
d="M1717 1338l-77.002 -198.001c-128 76.667 -249.333 115 -364 115c-82 0 -137.833 -21 -167.5 -63s-44.5 -128 -44.5 -258c194.667 0 401.334 12.333 620.001 37c-8 -202 -12 -402.667 -12 -602c0 -52 1 -123.5 3 -214.5s3 -152.167 3 -183.5
c0 -245.333 -98.333 -388 -295 -428l-72 142c46.667 38 77.667 88.333 93 151c18.667 83.333 28 243.666 28 480.999c0 203.333 -3.33301 352 -10 446c-36 -4 -87.5 -7.5 -154.5 -10.5s-134.833 -4.5 -203.5 -4.5c0 -251.333 4.66699 -500.666 14 -747.999h-264
c8.66699 238 13.334 487.333 14.001 748h-369c0 -251.333 4.66699 -500.666 14 -747.999h-264c9.33301 244.667 14 494 14 748c-38 0 -96 -2.33301 -174 -7l8 199c71.333 -4 126.666 -6 165.999 -6c0 176 35 300.333 105 373s181.333 109 334 109
c112.667 0 209.667 -23.333 291 -70c70.667 60 175.334 90 314.001 90c182.667 0 332.667 -32.667 450 -98zM861.998 1200c-59.333 30 -123 45 -191 45c-82 0 -137.833 -21 -167.5 -63s-44.5 -124.667 -44.5 -248h369c0 107.333 11.333 196 34 266z" />
    <glyph glyph-name="f_k.liga" unicode="fk" horiz-adv-x="1743" 
d="M1727 0l-304.997 -0.000976562c0 24.667 -49.667 107.334 -149 248.001c-104 144.667 -169.667 217 -197 217h-12c0 -138 3.33301 -293 10 -465h-268c10.667 228 16 475.667 16 743c-1.33301 188 -7.33301 355.333 -18 502c-58 14 -119.667 21 -185 21
c-72 0 -117 -23.667 -135 -71s-27 -134.333 -27 -261c59.333 0 141 2.66699 245 8l-8 -199c-104 4 -182.333 5.66699 -235 5c0 -251.333 4.66699 -500.666 14 -747.999h-264c9.33301 244.667 14 494 14 748c-38 0 -96 -2.33301 -174 -7l8 199
c71.333 -4 126.666 -6 165.999 -6c0 188 31.667 318.833 95 392.5s153.666 110.5 270.999 110.5c75.333 0 142 -10 200 -30l289 16c-10.667 -254 -16 -480.667 -16 -680v-148l14 1c19.333 0 72.666 53.667 159.999 161s131 171.666 131 192.999h297
c0 -20 -45.333 -77.5 -136 -172.5s-164 -160.167 -220 -195.5v-17c62.667 -42 150 -142.333 262 -301c104.667 -148.667 157 -236.667 157 -264z" />
    <glyph glyph-name="f_f_k.liga" unicode="ffk" horiz-adv-x="2349" 
d="M2333 0l-305.999 -0.000976562c0 24.667 -49.667 107.334 -149 248.001c-104 144.667 -169.667 217 -197 217h-14c0 -138 4 -293 12 -465h-268c10.667 228 16 475.667 16 743c0 187.333 -5.33301 354.333 -16 501c-58 14 -119.667 21 -185 21
c-72 0 -117 -23.667 -135 -71s-27 -134.333 -27 -261c59.333 0 141 2.66699 245 8l-8 -199c-104 4 -183 6 -237 6c0 -251.333 5 -500.666 15 -747.999h-264c10 244 15 493.333 15 748h-371c0 -251.333 4.66699 -500.666 14 -747.999h-264c9.33301 244.667 14 494 14 748
c-38 0 -96 -2.33301 -174 -7l8 199c71.333 -4 126.666 -6 165.999 -6c0 176 35 300.333 105 373s181.333 109 334 109c112.667 0 210.667 -19.667 294 -59c60.667 52.667 140.667 79 240 79c75.333 0 142 -10 200 -30l283 15c-8 -252.667 -12 -478.667 -12 -678v-147l14 1
c19.333 -0.666992 72.333 52.666 159 159.999s130 171.666 130 192.999h299c0 -20 -45.333 -77.5 -136 -172.5s-164 -160.167 -220 -195.5v-17c62.667 -42 150 -142.333 262 -301c105.333 -148.667 158 -236.667 158 -264zM861.001 1201c-58.667 29.333 -122 44 -190 44
c-82 0 -137.833 -21 -167.5 -63s-44.5 -124.667 -44.5 -248h371c0 108 10.333 197 31 267z" />
    <glyph glyph-name=".notdef" horiz-adv-x="932" 
d="M932 1308v-1308h-932v1308h932zM841 91v1126h-750v-1126h750zM409 426l-1.99902 31c0 82.667 12.833 141 38.5 175s48.5 60.333 68.5 79c38 38.667 62.5 68 73.5 88s16.5 41 16.5 63c0 44 -13.833 81.167 -41.5 111.5s-59.834 45.5 -96.501 45.5
c-38.667 0 -71.5 -13.667 -98.5 -41s-44.167 -71 -51.5 -131l-90 14c8 86.667 34.833 150 80.5 190s101.5 60 167.5 60c62.667 0 115.667 -22.167 159 -66.5s65 -102.166 65 -173.499c0 -38 -7.5 -72.333 -22.5 -103s-45.5 -68 -91.5 -112
c-45.333 -40.667 -71.833 -73.834 -79.5 -99.501s-11.5 -69.167 -11.5 -130.5h-84zM389.001 272c0 18.667 6.33301 34.334 19 47.001s28 19 46 19c18.667 0 34.334 -6.33301 47.001 -19s19 -28.334 19 -47.001c0 -18 -6.33301 -33.167 -19 -45.5
s-28.334 -18.5 -47.001 -18.5c-18 0 -33.333 6.16699 -46 18.5s-19 27.5 -19 45.5z" />
    <glyph glyph-name="glyph1" horiz-adv-x="1024" 
 />
    <glyph glyph-name="glyph1" horiz-adv-x="1024" 
 />
    <glyph glyph-name="uni000D" unicode="&#xd;" horiz-adv-x="444" 
 />
    <glyph glyph-name="space" unicode=" " horiz-adv-x="444" 
 />
    <glyph glyph-name="space" unicode="&#xa0;" horiz-adv-x="444" 
 />
    <glyph glyph-name="exclam" unicode="!" horiz-adv-x="516" 
d="M427 1154c0 -130 -39 -335.667 -117 -617h-102c-57.333 290 -86 493.667 -86 611c0 126.667 53.333 190 160 190c96.667 0 145 -61.333 145 -184zM430 174c0 -48.667 -16.833 -91.501 -50.5 -128.501s-80.167 -55.5 -139.5 -55.5c-50 0 -89 16 -117 48
s-42 70.333 -42 115c0 48.667 16.833 90.834 50.5 126.501s80.5 53.5 140.5 53.5c50.667 0 89.667 -15.5 117 -46.5s41 -68.5 41 -112.5z" />
    <glyph glyph-name="quotedbl" unicode="&#x22;" horiz-adv-x="936" 
d="M410 1262c0 -143.333 -48.668 -330.001 -146.001 -560.001h-84c-47.333 248 -71 434.667 -71 560c0 44.667 14.333 82.334 43 113.001s67.334 46 116.001 46c94.667 0 142 -53 142 -159zM820.999 1262c0 -143.333 -48.668 -330.001 -146.001 -560.001h-84
c-47.333 248 -71 434.667 -71 560c0 44.667 14.333 82.334 43 113.001s67.334 46 116.001 46c94.667 0 142 -53 142 -159z" />
    <glyph glyph-name="numbersign" unicode="#" 
d="M998 916l-0.00195312 -180.001h-212l-25 -66l-48 -128h285v-180h-353c-75.333 -203.333 -117.666 -324 -126.999 -362h-150l141 362h-195c-75.333 -203.333 -117.666 -324 -126.999 -362h-150l141 362h-144v180h214l33 84l42 110h-289v180h357
c78 211.333 119.333 342 124 392h148c-5.33301 -27.333 -52 -158 -140 -392h199c78 212.667 119.333 343.334 124 392.001h148c-5.33301 -26 -52 -156.667 -140 -392h144zM653.998 735.999h-199l-25 -68l-48 -126h197l33 86z" />
    <glyph glyph-name="dollar" unicode="$" horiz-adv-x="909" 
d="M816 319c0 -164.667 -97.668 -260.998 -293.001 -288.998c0 -116.667 2.66699 -214.334 8 -293.001h-143c4 78.667 6 173 6 283c-100.667 0 -202.667 11 -306 33l33 193c83.333 -28.667 166.333 -43 249 -43c74.667 0 127.334 6.83301 158.001 20.5s46 37.5 46 71.5
c0 46 -52.667 91 -158 135c-98 41.333 -167.667 79 -209 113c-64.667 53.333 -97 118 -97 194c0 74 24.167 137.167 72.5 189.5s119.5 85.166 213.5 98.499c0 136.667 -2.66699 237.667 -8 303h143c-5.33301 -64.667 -8 -163.334 -8 -296.001
c110.667 -1.33301 194.667 -11.666 252 -30.999l-34 -194c-76 30 -157.667 45 -245 45c-97.333 0 -146 -28.667 -146 -86c0 -27.333 12.667 -50.333 38 -69c20.667 -16 61.334 -35.667 122.001 -59c97.333 -38 167.666 -75.333 210.999 -112
c63.333 -54.667 95 -123.667 95 -207zM470.999 1077z" />
    <glyph glyph-name="percent" unicode="%" 
d="M563 1068c0 -65.333 -21.333 -120.666 -64 -165.999c-47.333 -50.667 -111.333 -76 -192 -76s-144.667 25 -192 75c-42.667 44.667 -64 99.667 -64 165s21.333 120.666 64 165.999c47.333 50.667 111.333 76 192 76s144.667 -25 192 -75
c42.667 -44.667 64 -99.667 64 -165zM987 231c0 -65.333 -21.333 -120.666 -64 -165.999c-47.333 -50 -111.333 -75 -192 -75s-145 24.667 -193 74c-42.667 45.333 -64 100.333 -64 165c0 65.333 21.667 120.666 65 165.999c47.333 50.667 111.333 76 192 76
s144.667 -25 192 -75c42.667 -44.667 64 -99.667 64 -165zM960 1292c0 -59.333 -125 -270.332 -375 -632.999s-375 -582.334 -375 -659.001l-148 10c0 64.667 125 279 375 643s375 580.333 375 649zM420 1064c0 36.667 -9.33398 68 -28.001 94c-20 28.667 -47.333 43 -82 43
c-34 0 -61.333 -14.333 -82 -43c-18.667 -26 -28 -57.333 -28 -94c0 -36 9 -66.333 27 -91c20.667 -27.333 48.334 -41 83.001 -41c35.333 0 63 13.667 83 41c18 24.667 27 55 27 91zM843.999 227.001c0 36.667 -9.33398 68 -28.001 94c-20 28.667 -47.333 43 -82 43
c-34 0 -61.333 -14.333 -82 -43c-18.667 -26 -28 -57.333 -28 -94c0 -36 9 -66.333 27 -91c20.667 -27.333 48.334 -41 83.001 -41c35.333 0 63 13.667 83 41c18 24.667 27 55 27 91z" />
    <glyph glyph-name="ampersand" unicode="&#x26;" horiz-adv-x="1396" 
d="M1373 0h-296.001c0 19.333 -15.333 55.5 -46 108.5s-57.667 91.833 -81 116.5h-15c-126.667 -169.333 -283.334 -254 -470.001 -254c-124 0 -222.167 31.333 -294.5 94s-108.5 147.667 -108.5 255c0 86 24.333 165.833 73 239.5s119.334 130.167 212.001 169.5v14
c-118 90 -177 184 -177 282c0 94.667 38.167 168.167 114.5 220.5s164.833 78.5 265.5 78.5c96 0 179 -24.167 249 -72.5s105 -116.5 105 -204.5c0 -122 -65.333 -212.667 -196 -272v-15c60.667 -32.667 145.334 -103 254.001 -211h15c27.333 44.667 41 115.667 41 213h251
c0 -27.333 -21 -79 -63 -155s-80.667 -131.667 -116 -167v-14c53.333 -49.333 113.833 -125 181.5 -227s101.5 -168.333 101.5 -199zM856.999 338l-0.000976562 14.999c-40 45.333 -93.167 99.833 -159.5 163.5s-137.166 113.167 -212.499 148.5
c-112.667 -51.333 -169 -143.666 -169 -276.999c0 -68.667 20.333 -124 61 -166c42 -44 99.333 -66 172 -66c104 0 206.667 60.667 308 182zM697.998 1008c0 48 -13.668 85.667 -41.001 113s-62.666 41 -105.999 41c-42 0 -77.5 -12.167 -106.5 -36.5
s-43.5 -55.5 -43.5 -93.5c0 -79.333 58.333 -145.333 175 -198c81.333 38 122 96 122 174z" />
    <glyph glyph-name="quotesingle" unicode="'" horiz-adv-x="516" 
d="M410 1262c0 -143.333 -48.668 -330.001 -146.001 -560.001h-84c-47.333 248 -71 434.667 -71 560c0 44.667 14.333 82.334 43 113.001s67.334 46 116.001 46c94.667 0 142 -53 142 -159z" />
    <glyph glyph-name="parenleft" unicode="(" horiz-adv-x="723" 
d="M651 -349l-73 -137.001c-97.333 44.667 -180.333 106.334 -249 185.001c-166.667 188.667 -250 446 -250 772c0 350.667 85 631 255 841c70.667 87.333 155.667 157 255 209l51 -136c-66.667 -50 -124 -113.667 -172 -191c-114.667 -186.667 -172 -427.667 -172 -723
c0 -254 59.333 -466.667 178 -638c48.667 -72 107.667 -132.667 177 -182z" />
    <glyph glyph-name="parenright" unicode=")" horiz-adv-x="723" 
d="M651 564c0 -350.667 -85.001 -630.999 -255.001 -840.999c-71.333 -87.333 -156.666 -157 -255.999 -209l-51 137c67.333 49.333 125 113 173 191c114.667 186 172 426.667 172 722c0 254 -59 467 -177 639c-49.333 72 -108.666 132.667 -177.999 182l72 136
c97.333 -44.667 180.666 -106.334 249.999 -185.001c166.667 -188.667 250 -446 250 -772z" />
    <glyph glyph-name="asterisk" unicode="*" 
d="M940 1058c0 -42 -27.3301 -68.667 -81.9971 -80c-21.333 -4.66699 -66.333 -7 -135 -7c-28.667 0 -66 0.666992 -112 2l-8 -26c131.333 -112.667 197 -188 197 -226c0 -27.333 -14.667 -54.5 -44 -81.5s-58.333 -40.5 -87 -40.5c-54.667 0 -105 97.333 -151 292h-29
c-70 -175.333 -129 -263 -177 -263c-28 0 -57.333 11.833 -88 35.5s-46 49.167 -46 76.5c0 48 77.333 119.333 232 214l-7 29c-66.667 8 -156.334 23.333 -269.001 46c-26 8.66699 -39 33.334 -39 74.001c0 32 7.66699 61.667 23 89s36.666 41 63.999 41
c38.667 0 126 -52 262 -156l23 16c-28.667 135.333 -43 225.666 -43 270.999c0 20.667 11.5 37.5 34.5 50.5s49.167 19.5 78.5 19.5c66 0 99 -23.333 99 -70c0 -52.667 -23.667 -145 -71 -277l22 -20c133.333 83.333 220 125 260 125c25.333 0 47.166 -15.333 65.499 -46
s27.5 -60 27.5 -88z" />
    <glyph glyph-name="plus" unicode="+" 
d="M926 409h-319v-340h-180v340h-320v180h320v340h180v-340h319v-180z" />
    <glyph glyph-name="comma" unicode="," horiz-adv-x="516" 
d="M428 156c0 -174 -106.667 -359.001 -320 -555.001l-89 76c90.667 100.667 136 209.667 136 327c-50.667 30.667 -76 80.334 -76 149.001c0 48 17 90 51 126s81 54 141 54c49.333 0 87.833 -18 115.5 -54s41.5 -77 41.5 -123zM240 -10.001z" />
    <glyph glyph-name="hyphen" unicode="-" horiz-adv-x="516" 
d="M479 605l-12 -180l-428 -15l9 180z" />
    <glyph glyph-name="hyphen" unicode="&#x2010;" horiz-adv-x="516" 
d="M479 605l-12 -180l-428 -15l9 180z" />
    <glyph glyph-name="hyphen" unicode="&#xad;" horiz-adv-x="516" 
d="M479 605l-12 -180l-428 -15l9 180z" />
    <glyph glyph-name="period" unicode="." horiz-adv-x="516" 
d="M430 174c0 -48.667 -16.833 -91.501 -50.5 -128.501s-80.167 -55.5 -139.5 -55.5c-50 0 -89 16 -117 48s-42 70.333 -42 115c0 48.667 16.833 90.834 50.5 126.501s80.5 53.5 140.5 53.5c50.667 0 89.667 -15.5 117 -46.5s41 -68.5 41 -112.5z" />
    <glyph glyph-name="slash" unicode="/" horiz-adv-x="547" 
d="M542 1455c0 -46 -59.333 -322.167 -178 -828.5s-178 -815.833 -178 -928.5h-181c0 43.333 59.667 315.5 179 816.5s179 814.5 179 940.5h179z" />
    <glyph glyph-name="zero" unicode="0" horiz-adv-x="1094" 
d="M1004 529c0 -190.667 -40 -333.167 -120 -427.5s-196 -141.5 -348 -141.5c-147.333 0 -258.5 41.5 -333.5 124.5s-112.5 214.833 -112.5 395.5c0 186 40.5 332 121.5 438s197.5 159 349.5 159c146 0 256.333 -47.167 331 -141.5s112 -229.833 112 -406.5zM757 466
c0 122 -17 222.333 -51 301s-90 118 -168 118c-132 0 -198 -112.667 -198 -338c0 -134 17.167 -233.167 51.5 -297.5s89.833 -96.5 166.5 -96.5c132.667 0 199 104.333 199 313z" />
    <glyph glyph-name="one" unicode="1" horiz-adv-x="685" 
d="M525 0h-267c7.33301 172 11 310.667 11 416c0 107.333 -2.33301 222 -7 344l-160 -70l-52 96l351 270h124c-7.33301 -274.667 -11 -488 -11 -640c0 -102 3.66699 -240.667 11 -416z" />
    <glyph glyph-name="two" unicode="2" horiz-adv-x="982" 
d="M882 214l-20.999 -214h-761l21 201c281.333 156.667 422 314 422 472c0 131.333 -91 197 -273 197c-48.667 0 -100.334 -4.66699 -155.001 -14l19 186c58 14.667 140.333 22 247 22c136 0 239.667 -29 311 -87s107 -137 107 -237c0 -125.333 -46.5 -233 -139.5 -323
s-191.5 -158.333 -295.5 -205v-13c147.333 0 320 5 518 15z" />
    <glyph glyph-name="three" unicode="3" horiz-adv-x="964" 
d="M874 147c0 -135.333 -64.334 -252.667 -193.001 -352c-147.333 -114 -352 -178.667 -614 -194l-27 167c175.333 11.333 314 47 416 107c106 61.333 159 140.333 159 237c0 158.667 -148.667 238 -446 238l21 161c110 0 199.833 18.833 269.5 56.5
s104.5 85.834 104.5 144.501c0 106.667 -83.333 160 -250 160c-74.667 0 -141 -6 -199 -18l18 185c46.667 16.667 142 25 286 25c126 0 223 -25.667 291 -77c62.667 -48.667 94 -114.334 94 -197.001c0 -65.333 -23.667 -125.333 -71 -180
c-43.333 -50 -96.333 -85 -159 -105v-15c88.667 -14.667 160.834 -53 216.501 -115s83.5 -138 83.5 -228z" />
    <glyph glyph-name="four" unicode="4" horiz-adv-x="1099" 
d="M1009 346l-20.999 -217h-159c0 -124.667 4 -277.667 12 -459h-264c6 168.667 9 321.667 9 459h-515l-21 189c0 12 85.833 133.667 257.5 365s258.167 355.333 259.5 372h274c-8.66699 -224 -13 -463.333 -13 -718c59.333 0 119.666 3 180.999 9zM610.001 838h-14.001
c0 -14 -57.167 -98.333 -171.5 -253s-171.5 -236.667 -171.5 -246v-13c84.667 0 198 1.66699 340 5c4.66699 186.667 10.334 355.667 17.001 507z" />
    <glyph glyph-name="five" unicode="5" horiz-adv-x="969" 
d="M879 174c0 -138 -64 -257.003 -192 -357.003c-140.667 -110.667 -329.334 -171.667 -566.001 -183l-28 164c162.667 12.667 289.5 48.334 380.5 107.001s136.5 133.334 136.5 224.001c0 96.667 -40.167 166.334 -120.5 209.001s-213.5 64 -399.5 64
c39.333 311.333 59 529 59 653h650l-9 -218c-127.333 14 -284.666 21 -471.999 21c-14.667 -96 -22 -188.333 -22 -277c388.667 0 583 -135.667 583 -407z" />
    <glyph glyph-name="six" unicode="6" horiz-adv-x="1083" 
d="M993 419c0 -122 -38.001 -226.334 -114.001 -313.001c-84.667 -97.333 -197 -146 -337 -146c-125.333 0 -228.666 40.667 -309.999 122c-94.667 95.333 -142 234 -142 416c0 540.667 244.333 822.667 733 846l19 -163c-303.333 -32.667 -471.333 -188.667 -504 -468h16
c55.333 68 141 102 257 102c121.333 0 217 -40.667 287 -122c63.333 -73.333 95 -164.666 95 -273.999zM754.999 383.999c0 72.667 -19 133.666 -57 182.999c-43.333 56 -103.666 84 -180.999 84c-74.667 0 -136.334 -27.667 -185.001 -83c0 -287.333 72.667 -431 218 -431
c63.333 0 114.333 25.667 153 77c34.667 46.667 52 103.334 52 170.001z" />
    <glyph glyph-name="seven" unicode="7" horiz-adv-x="952" 
d="M882 1055c0 -127.333 -43.667 -290.333 -131 -489l-243 -498c-87.333 -181.333 -131 -314 -131 -398l-266 21c0 80 90.333 275.167 271 585.5s271 502.833 271 577.5c-137.333 0 -338.333 -6.66699 -603 -20l9 221h823z" />
    <glyph glyph-name="eight" unicode="8" horiz-adv-x="1098" 
d="M1008 373c0 -116 -43.667 -211.168 -131 -285.501s-199 -111.5 -335 -111.5c-134 0 -242.833 34.833 -326.5 104.5s-125.5 159.834 -125.5 270.501c0 80 22.333 152.333 67 217c48 70 116.667 123 206 159v16c-132 76.667 -198 179 -198 307c0 93.333 38 170 114 230
c75.333 58 170 87 284 87c111.333 0 202 -27.167 272 -81.5s105 -124.166 105 -209.499c0 -62.667 -17 -120.334 -51 -173.001c-37.333 -58.667 -89.333 -101.667 -156 -129v-16c183.333 -94 275 -222.333 275 -385zM758 353.999c0 129.333 -83.667 231.332 -251 305.999
c-52.667 -19.333 -95.667 -55.166 -129 -107.499s-50 -108.5 -50 -168.5c0 -70 20.667 -125.833 62 -167.5s94.333 -62.5 159 -62.5c60.667 0 110.667 18.5 150 55.5s59 85.167 59 144.5zM727 1041c0 52.667 -16.168 94.499 -48.501 125.499s-74.166 46.5 -125.499 46.5
c-50 0 -90.833 -13.167 -122.5 -39.5s-47.5 -61.166 -47.5 -104.499c0 -99.333 69.333 -182 208 -248c90.667 46 136 119.333 136 220z" />
    <glyph glyph-name="nine" unicode="9" horiz-adv-x="1081" 
d="M991 496c0 -278 -63.333 -494.668 -190 -650.001c-129.333 -157.333 -315.666 -241.333 -558.999 -252l-28 165c169.333 10 299.333 71.667 390 185c76.667 96 121 220.667 133 374h-10c-60.667 -70.667 -146.334 -106 -257.001 -106c-120 0 -215 41.333 -285 124
c-63.333 75.333 -95 168 -95 278c0 120.667 37 223.334 111 308.001c83.333 94.667 195.333 142 336 142c124 0 227.667 -44.667 311 -134c95.333 -102 143 -246.667 143 -434zM745 464.999c0 143.333 -23.668 252 -71.001 326c-39.333 62 -90.666 93 -153.999 93
c-60.667 0 -109 -25 -145 -75c-33.333 -46 -50 -102 -50 -168c0 -72 19.333 -133.333 58 -184c44 -56.667 103 -85 177 -85c78 0 139.667 31 185 93z" />
    <glyph glyph-name="colon" unicode=":" horiz-adv-x="516" 
d="M430 174c0 -48.667 -16.833 -91.501 -50.5 -128.501s-80.167 -55.5 -139.5 -55.5c-50 0 -89 16 -117 48s-42 70.333 -42 115c0 48.667 16.833 90.834 50.5 126.501s80.5 53.5 140.5 53.5c50.667 0 89.667 -15.5 117 -46.5s41 -68.5 41 -112.5zM430 797.999
c0 -48.667 -16.833 -91.501 -50.5 -128.501s-80.167 -55.5 -139.5 -55.5c-50 0 -89 16 -117 48s-42 70.333 -42 115c0 48.667 16.833 90.834 50.5 126.501s80.5 53.5 140.5 53.5c50.667 0 89.667 -15.5 117 -46.5s41 -68.5 41 -112.5z" />
    <glyph glyph-name="semicolon" unicode=";" horiz-adv-x="516" 
d="M428 156c0 -174 -106.667 -359.001 -320 -555.001l-89 76c90.667 100.667 136 209.667 136 327c-50.667 30.667 -76 80.334 -76 149.001c0 48 17 90 51 126s81 54 141 54c49.333 0 87.833 -18 115.5 -54s41.5 -77 41.5 -123zM430 797.999
c0 -48.667 -16.833 -91.501 -50.5 -128.501s-80.167 -55.5 -139.5 -55.5c-50 0 -89 16 -117 48s-42 70.333 -42 115c0 48.667 16.833 90.834 50.5 126.501s80.5 53.5 140.5 53.5c50.667 0 89.667 -15.5 117 -46.5s41 -68.5 41 -112.5z" />
    <glyph glyph-name="less" unicode="&#x3c;" 
d="M926 203l-83 -188l-736 418v139l736 418l83 -187l-585 -290v-23z" />
    <glyph glyph-name="equal" unicode="=" 
d="M926 619h-819v180h819v-180zM926 200h-819v180h819v-180z" />
    <glyph glyph-name="greater" unicode="&#x3e;" 
d="M926 433l-736 -418l-83 188l584 288v23l-584 289l83 187l736 -418v-139z" />
    <glyph glyph-name="question" unicode="?" horiz-adv-x="723" 
d="M681 1033c0 -144 -93 -259 -279 -345l-21 -151h-133l-38 213c143.333 42 215 111.333 215 208c0 118 -123.667 180.667 -371 188l23 189c207.333 0 359.833 -21.833 457.5 -65.5s146.5 -122.5 146.5 -236.5zM472 174c0 -48.667 -16.833 -91.501 -50.5 -128.501
s-80.167 -55.5 -139.5 -55.5c-50 0 -89 16 -117 48s-42 70.333 -42 115c0 48.667 16.833 90.834 50.5 126.501s80.5 53.5 140.5 53.5c50.667 0 89.667 -15.5 117 -46.5s41 -68.5 41 -112.5z" />
    <glyph glyph-name="at" unicode="@" horiz-adv-x="2066" 
d="M1938 607c0 -174.667 -43.333 -324.332 -130 -448.999s-202 -187 -346 -187c-87.333 0 -154.333 20.167 -201 60.5s-70 91.166 -70 152.499h-12c-72.667 -142 -172.667 -213 -300 -213c-90 0 -159.333 37.667 -208 113s-73 168.666 -73 279.999
c0 154 41.667 289.667 125 407s198 176 344 176c81.333 0 141 -24.667 179 -74h13l17 46l196 21c-49.333 -303.333 -74 -495 -74 -575c0 -74.667 10 -129.5 30 -164.5s55.333 -52.5 106 -52.5c52 0 96.167 41.167 132.5 123.5s54.5 180.5 54.5 294.5
c0 204.667 -58 375.667 -174 513s-286 206 -510 206c-206 0 -370.167 -79.5 -492.5 -238.5s-183.5 -349.167 -183.5 -570.5c0 -210.667 58.667 -391.5 176 -542.5s284 -226.5 500 -226.5c112 0 215.333 17.333 310 52l24 -195c-95.333 -26 -208 -39 -338 -39
c-286.667 0 -508.667 94.5 -666 283.5s-236 414.5 -236 676.5c0 272.667 81.333 505.834 244 699.501s382 290.5 658 290.5c285.333 0 507.5 -84 666.5 -252s238.5 -373.333 238.5 -616zM1222 727.002c-38 33.333 -84.001 50 -138.001 50
c-83.333 0 -149.166 -39.833 -197.499 -119.5s-72.5 -169.5 -72.5 -269.5c0 -67.333 12 -123.5 36 -168.5s58.333 -67.5 103 -67.5c74.667 0 138.167 55.833 190.5 167.5s78.5 247.5 78.5 407.5z" />
    <glyph glyph-name="A" unicode="A" horiz-adv-x="1290" 
d="M1279 0l-320 -0.000976562c0 44 -30.333 168.667 -91 374h-462c-62.667 -202 -94 -326.667 -94 -374h-301c0 26 77.833 239.333 233.5 640s233.5 621.334 233.5 662.001h378c0 -38 70.5 -255.5 211.5 -652.5s211.5 -613.5 211.5 -649.5zM817 564.999
c-114 344 -171 530 -171 558h-16c0 -26 -59 -212 -177 -558h364z" />
    <glyph glyph-name="B" unicode="B" horiz-adv-x="1224" 
d="M1147 392c0 -265.333 -217.001 -398.001 -651.001 -398.001c-75.333 0 -192.666 2 -351.999 6c8.66699 201.333 13 428.333 13 681c0 242.667 -4.33301 449.667 -13 621h162c30.667 0 82.167 1 154.5 3s128.833 3 169.5 3c295.333 0 443 -96 443 -288
c0 -148 -75.667 -246 -227 -294v-15c80.667 -12.667 151 -44.167 211 -94.5s90 -125.166 90 -224.499zM876.999 380.999c0 132.667 -116.332 198.999 -348.999 198.999c-46 0 -85.667 -1.66699 -119 -5c0 -139.333 3 -267.666 9 -384.999c22.667 -5.33301 56.667 -8 102 -8
c123.333 0 213.666 14.833 270.999 44.5s86 81.167 86 154.5zM804 940.998c0 119.333 -74.667 179 -224 179c-68.667 0 -129.667 -5 -183 -15c7.33301 -67.333 11 -183 11 -347c25.333 -1.33301 52 -2 80 -2c210.667 0 316 61.667 316 185z" />
    <glyph glyph-name="C" unicode="C" horiz-adv-x="1131" 
d="M1076 237l-16.998 -229.999c-94.667 -22.667 -188 -34 -280 -34c-228.667 0 -402.834 63.167 -522.501 189.5s-179.5 279.833 -179.5 460.5c0 187.333 63.5 350.333 190.5 489s301.167 208 522.5 208c81.333 0 158.333 -9.33301 231 -28l-35 -231
c-78.667 25.333 -154 38 -226 38c-135.333 0 -236 -42.833 -302 -128.5s-99 -189.834 -99 -312.501c0 -125.333 39.167 -234 117.5 -326s188.166 -138 329.499 -138c82.667 0 172.667 14.333 270 43z" />
    <glyph glyph-name="D" unicode="D" horiz-adv-x="1321" 
d="M1244 696c0 -189.333 -60.668 -354.667 -182.001 -496s-291.333 -212 -510 -212c-98.667 0 -234.667 4 -408 12c8.66699 201.333 13 428.333 13 681c0 242.667 -4.33301 449.667 -13 621h175c28.667 0 71.334 1 128.001 3s93.667 3 111 3
c240.667 0 415.167 -60 523.5 -180s162.5 -264 162.5 -432zM970.999 652.999c0 128 -37.332 235.832 -111.999 323.499s-188.667 131.5 -342 131.5c-28.667 0 -68 -3 -118 -9c6.66699 -133.333 10 -272.666 10 -417.999c0 -159.333 3.33301 -317.333 10 -474
c43.333 -8.66699 86.666 -13 129.999 -13c143.333 0 249.5 44.5 318.5 133.5s103.5 197.5 103.5 325.5z" />
    <glyph glyph-name="E" unicode="E" horiz-adv-x="1080" 
d="M1003 220l-8.00098 -220h-851c8.66699 201.333 13 428.333 13 681c0 242.667 -4.33301 449.667 -13 621h812l-11 -219c-200 10.667 -381.333 16 -544 16c6.66699 -92.667 10 -202 10 -328c139.333 0 288.333 3.66699 447 11v-209c-156 6.66699 -305 10 -447 10
c0 -135.333 2.66699 -262 8 -380c182.667 0 377.334 5.66699 584.001 17z" />
    <glyph glyph-name="F" unicode="F" horiz-adv-x="1005" 
d="M972 1302l-9 -219c-208 10.667 -396.333 16 -565 16c8.66699 -114 13 -240.333 13 -379c128.667 0 274.667 3.33301 438 10v-207c-165.333 6 -311.333 9 -438 9c0 -188.667 3 -366 9 -532h-276c8.66699 201.333 13 428.333 13 681c0 242.667 -4.33301 449.667 -13 621
h828z" />
    <glyph glyph-name="G" unicode="G" horiz-adv-x="1273" 
d="M1174 34c-158.667 -40.667 -291.335 -61.001 -398.002 -61.001c-229.333 0 -403.166 62.833 -521.499 188.5s-177.5 278.167 -177.5 457.5c0 188.667 64.5 352.667 193.5 492s307.833 209 536.5 209c107.333 0 202 -9.66699 284 -29l-33 -236
c-104.667 27.333 -198.667 41 -282 41c-140.667 0 -245.667 -43.167 -315 -129.5s-104 -191.833 -104 -316.5c0 -127.333 38.833 -238.333 116.5 -333s184.834 -142 321.501 -142c38 0 82 4 132 12c-10 74 -15 146.667 -15 218c0 72 -7 153 -21 243h283
c-5.33301 -102.667 -8 -206 -8 -310c0 -75.333 2.66699 -176.666 8 -303.999z" />
    <glyph glyph-name="H" unicode="H" horiz-adv-x="1338" 
d="M1194 0l-283 -0.00195312c6.66699 220.667 10 412 10 574h-504c0 -145.333 3.33301 -336.666 10 -573.999h-283c8.66699 220 13 447 13 681c0 236.667 -4.33301 443.667 -13 621h283c-8 -187.333 -12 -360.666 -12 -519.999h508c0 140.667 -4 314 -12 520h283
c-9.33301 -169.333 -14 -376.333 -14 -621c0 -255.333 4.66699 -482.333 14 -681z" />
    <glyph glyph-name="I" unicode="I" horiz-adv-x="571" 
d="M427 0h-283c8.66699 206.667 13 433.667 13 681c0 243.333 -4.33301 450.333 -13 621h283c-8.66699 -168 -13 -375 -13 -621c0 -251.333 4.33301 -478.333 13 -681z" />
    <glyph glyph-name="J" unicode="J" horiz-adv-x="818" 
d="M696 1302c-8 -198.667 -12.001 -444 -12.001 -736c0 -222 -45.667 -379.667 -137 -473c-77.333 -80 -197.666 -120 -360.999 -120c-58.667 0 -117 7 -175 21l18 215c44.667 -20 89.334 -30 134.001 -30c87.333 0 150.666 19 189.999 57c56.667 54.667 85 158 85 310
c0 304.667 -5 556.667 -15 756h273z" />
    <glyph glyph-name="K" unicode="K" horiz-adv-x="1207" 
d="M1196 0l-327 0.000976562c0 30.667 -56.333 136.334 -169 317.001c-120 192.667 -205 289 -255 289h-30c0 -152 3.66699 -354 11 -606h-282c8.66699 201.333 13 428.333 13 681c0 242.667 -4.33301 449.667 -13 621h282c-7.33301 -184.667 -11 -358 -11 -520h22
c29.333 0 103.333 82 222 246c115.333 159.333 173 250.666 173 273.999h298c0 -22 -61 -105 -183 -249c-126 -148.667 -218 -243.334 -276 -284.001v-15c68 -35.333 175 -167 321 -395c136 -212 204 -331.667 204 -359z" />
    <glyph glyph-name="L" unicode="L" horiz-adv-x="994" 
d="M983 218l-8 -218h-831c8 180.667 12 407.667 12 681c0 250.667 -4 457.667 -12 621h281c-8 -151.333 -12 -358.333 -12 -621c0 -200.667 -4.33301 -360 -13 -478c184 0 378.333 5 583 15z" />
    <glyph glyph-name="M" unicode="M" horiz-adv-x="1769" 
d="M1647 0l-290.998 -0.00195312c0 113.333 -7 304.5 -21 573.5s-21.333 436.833 -22 503.5h-15c-6.66699 -40 -24.334 -114 -53.001 -222s-82.5 -267.167 -161.5 -477.5s-118.5 -336.166 -118.5 -377.499h-221c0 42.667 -37.833 169.667 -113.5 381
s-125.167 359.333 -148.5 444s-42 168.667 -56 252h-15c-0.666992 -83.333 -8.83398 -262 -24.501 -536s-23.5 -454.333 -23.5 -541h-264c0 20 24.167 220.333 72.5 601s72.5 614.334 72.5 701.001h387c0 -74.667 40.833 -239.334 122.5 -494.001s122.5 -417.667 122.5 -489
h15c0 72 46.5 235.333 139.5 490s139.5 419 139.5 493h384c0 -138 15.5 -384.167 46.5 -738.5s46.5 -542.166 46.5 -563.499z" />
    <glyph glyph-name="N" unicode="N" horiz-adv-x="1361" 
d="M1217 0l-247 0.00292969c0 27.333 -91.667 171.666 -275 432.999c-192 275.333 -301.333 463.666 -328 564.999h-16c16.667 -146 25 -278 25 -396c0 -164.667 4.66699 -365.334 14 -602.001h-246c10 206.667 15 433.667 15 681c0 243.333 -5 450.333 -15 621h297
c0 -35.333 82.333 -176.333 247 -423c175.333 -262 276 -439.667 302 -533h15c-16 148.667 -24 282 -24 400c0 180.667 -4.66699 366 -14 556h250c-9.33301 -165.333 -14 -372.333 -14 -621c0 -250.667 4.66699 -477.667 14 -681z" />
    <glyph glyph-name="O" unicode="O" horiz-adv-x="1427" 
d="M1350 675c0 -204.667 -62.667 -374.336 -188 -509.003s-280.333 -202 -465 -202c-176 0 -323.333 61.833 -442 185.5s-178 280.834 -178 471.501c0 204.667 62.667 374.334 188 509.001s280.333 202 465 202c176 0 323.333 -61.667 442 -185s178 -280.666 178 -471.999z
M1074 645.998c0 139.333 -35.667 252.331 -107 338.998s-159.333 130 -264 130c-97.333 0 -180 -43.667 -248 -131s-102 -197.666 -102 -330.999c0 -138.667 35.833 -251.5 107.5 -338.5s159.5 -130.5 263.5 -130.5c97.333 0 180 43.833 248 131.5s102 197.834 102 330.501z
" />
    <glyph glyph-name="P" unicode="P" horiz-adv-x="1138" 
d="M1094 961c0 -159.333 -59.168 -277.001 -177.501 -353.001s-263.5 -114 -435.5 -114c-31.333 0 -53.666 0.666992 -66.999 2c0 -125.333 3.66699 -290.666 11 -495.999h-281c8.66699 192.667 13 419.667 13 681c0 240 -4.33301 447 -13 621h174c24.667 0 72 1 142 3
s130.667 3 182 3c126.667 0 233.667 -28.667 321 -86s131 -144.333 131 -261zM835.999 905.999c0 142.667 -94.667 214 -284 214c-47.333 0 -97.333 -5 -150 -15c7.33301 -126 11 -268.667 11 -428c16.667 -1.33301 36 -2 58 -2c243.333 0 365 77 365 231z" />
    <glyph glyph-name="Q" unicode="Q" horiz-adv-x="1427" 
d="M1389 -432l-293.002 -12.002c-37.333 171.333 -78.5 282.166 -123.5 332.499s-136.833 75.5 -275.5 75.5c-176 0 -323.333 61.833 -442 185.5s-178 280.834 -178 471.501c0 204.667 62.667 374.334 188 509.001s280.333 202 465 202c176 0 323.333 -61.667 442 -185
s178 -280.666 178 -471.999c0 -137.333 -30 -260.833 -90 -370.5s-141.333 -194.5 -244 -254.5v-16c108.667 -13.333 189.334 -51.5 242.001 -114.5s96.334 -180.167 131.001 -351.5zM1074 645.998c0 139.333 -36 252.331 -108 338.998s-159.667 130 -263 130
c-97.333 0 -180 -43.667 -248 -131s-102 -197.666 -102 -330.999c0 -138.667 36.167 -251.5 108.5 -338.5s159.833 -130.5 262.5 -130.5c97.333 0 180 43.833 248 131.5s102 197.834 102 330.501z" />
    <glyph glyph-name="R" unicode="R" horiz-adv-x="1220" 
d="M1198 0h-296.001c-77.333 236 -136.666 381.667 -177.999 437s-108 83 -200 83c-38.667 0 -75.667 -0.333008 -111 -1c0 -171.333 3 -344.333 9 -519h-278c8.66699 201.333 13 428.333 13 681c0 242.667 -4.33301 449.667 -13 621h173c20 0 61.833 1 125.5 3
s122.5 3 176.5 3c306 0 459 -104.667 459 -314c0 -166 -87.333 -281.667 -262 -347v-15c67.333 -18.667 126.333 -71.167 177 -157.5s119 -244.5 205 -474.5zM822.999 920c0 132.667 -85.333 199 -256 199c-62.667 0 -118 -4.66699 -166 -14
c7.33301 -103.333 11 -238 11 -404c36.667 -1.33301 67.667 -2 93 -2c212 0 318 73.667 318 221z" />
    <glyph glyph-name="S" unicode="S" horiz-adv-x="1071" 
d="M994 355c0 -260.667 -187.337 -391.002 -562.004 -391.002c-127.333 0 -245.666 15.333 -354.999 46l49 223c108 -37.333 210 -56 306 -56c106.667 0 183.334 10.333 230.001 31s70 55.334 70 104.001c0 50.667 -22 93.334 -66 128.001c-38 30.667 -115 70.667 -231 120
c-105.333 45.333 -183.666 94.666 -234.999 147.999c-64.667 67.333 -97 150.333 -97 249c0 114.667 42.5 204.334 127.5 269.001s207.167 97 366.5 97c130.667 0 240.334 -11 329.001 -33l-37 -222c-90 32.667 -187.333 49 -292 49c-157.333 0 -236 -42 -236 -126
c0 -44.667 18.333 -81 55 -109c32 -24 101.667 -57.667 209 -101c114 -46 199.333 -96.667 256 -152c75.333 -74 113 -165.333 113 -274z" />
    <glyph glyph-name="T" unicode="T" horiz-adv-x="1077" 
d="M1055 1302l-7 -215c-133.333 10 -259 15 -377 15c-1.33301 -126 -2 -266.333 -2 -421c0 -240 3.66699 -467 11 -681h-280c8.66699 212 13 439 13 681c0 152 -1.33301 292.333 -4 421c-94 0 -223 -5.33301 -387 -16l8 216h1025z" />
    <glyph glyph-name="U" unicode="U" horiz-adv-x="1347" 
d="M1225 1302c-6 -224 -9 -448.001 -9 -672.001c0 -442.667 -181.333 -664 -544 -664c-179.333 0 -314.333 49 -405 147s-136 274 -136 528c0 224 -3 444.333 -9 661h283c-8.66699 -225.333 -13 -442.666 -13 -651.999c0 -183.333 23.333 -309 70 -377
s118.667 -102 216 -102c102 0 175.667 33.833 221 101.5s68 194.167 68 379.5c0 203.333 -4.33301 420 -13 650h271z" />
    <glyph glyph-name="V" unicode="V" horiz-adv-x="1175" 
d="M1164 1302c0 -54.667 -76.167 -271.999 -228.5 -651.999s-228.5 -596.667 -228.5 -650h-275c0 51.333 -70.167 269 -210.5 653s-210.5 600.333 -210.5 649h317c0 -48.667 44.667 -221.334 134 -518.001s134 -465 134 -505h17c0 38.667 44.833 201 134.5 487
s134.5 464.667 134.5 536h282z" />
    <glyph glyph-name="W" unicode="W" horiz-adv-x="1877" 
d="M1866 1302c0 -62 -66.666 -281.998 -199.999 -659.998s-200 -592 -200 -642h-264c0 52.667 -40.333 201 -121 445c-86 261.333 -134.333 433.666 -145 516.999h-17c-10.667 -84 -55.334 -257.667 -134.001 -521c-73.333 -246 -110 -393 -110 -441h-270
c0 62.667 -65.667 285.667 -197 669s-197 594.333 -197 633h317c0 -42 38 -209.333 114 -502s114 -466.334 114 -521.001h16c0 54.667 40.667 225.167 122 511.5s122 456.833 122 511.5h285c0 -50 40.667 -223.5 122 -520.5s122 -464.5 122 -502.5h16
c0 48 36.833 211 110.5 489s110.5 456 110.5 534h284z" />
    <glyph glyph-name="X" unicode="X" horiz-adv-x="1203" 
d="M1192 0l-335.001 0.000976562c0 23.333 -38 109 -114 257c-74 144.667 -127 239 -159 283h-16c-28.667 -39.333 -76.667 -131.666 -144 -276.999c-69.333 -148.667 -104 -236.334 -104 -263.001h-309c0 20 64.833 132.333 194.5 337s212.834 325 249.501 361v15
c-36 41.333 -107 142.666 -213 303.999c-109.333 168.667 -164 263.667 -164 285h322c0 -21.333 31 -93 93 -215s105.667 -198.333 131 -229h16c24.667 31.333 66.5 107.666 125.5 228.999s88.5 193 88.5 215h296c0 -18.667 -57.167 -111.167 -171.5 -277.5
s-187.5 -265.166 -219.5 -296.499v-15c44 -48 127.167 -172.667 249.5 -374s183.5 -314.333 183.5 -339z" />
    <glyph glyph-name="Y" unicode="Y" horiz-adv-x="1130" 
d="M1119 1302c0 -27.333 -38 -101.001 -114 -221.001c-116.667 -183.333 -187.667 -297.333 -213 -342c-76 -135.333 -114 -235.666 -114 -300.999c0 -146.667 4 -292.667 12 -438h-284c7.33301 146 11 293 11 441c0 68 -35 171 -105 309c-32.667 64 -98 178.333 -196 343
c-70 118 -105 187.667 -105 209h314c0 -24 41.833 -125.167 125.5 -303.5s125.5 -293.5 125.5 -345.5h16c0 48 40.833 157.333 122.5 328s122.5 277.667 122.5 321h282z" />
    <glyph glyph-name="Z" unicode="Z" horiz-adv-x="1054" 
d="M977 226l-7.00195 -226h-893l15 205c72.667 96 180.334 255.333 323.001 478c154.667 241.333 232 377 232 407v16c-159.333 0 -343.666 -7.66699 -552.999 -23l6 219h856l-14 -207c-73.333 -101.333 -176 -258 -308 -470c-149.333 -240 -224 -375.667 -224 -407v-15
c140 0 329 7.66699 567 23z" />
    <glyph glyph-name="bracketleft" unicode="[" horiz-adv-x="723" 
d="M599 -274l-9.99902 -212l-471 11c8 334 12 649.333 12 946c0 311.333 -4 657 -12 1037l481 13l-10 -211c-120.667 4 -207.667 6 -261 6c-6 -316.667 -9 -598.334 -9 -845.001c0 -185.333 3 -439.666 9 -762.999c49.333 1.33301 139.666 7.33301 270.999 18z" />
    <glyph glyph-name="backslash" unicode="\" horiz-adv-x="547" 
d="M543 -302h-191c0 112.667 -57.667 422.167 -173 928.5s-173 782.5 -173 828.5h189c0 -126 58 -439.5 174 -940.5s174 -773.167 174 -816.5z" />
    <glyph glyph-name="bracketright" unicode="]" horiz-adv-x="723" 
d="M600 -472l-481.001 -13l10 211c120.667 -4 207.667 -6 261 -6c6 316.667 9 598.334 9 845.001c0 185.333 -3 439.666 -9 762.999c-49.333 -1.33301 -139.666 -7.33301 -270.999 -18l10 212l471 -11c-8 -334 -12 -649.333 -12 -946c0 -311.333 4 -657 12 -1037z" />
    <glyph glyph-name="asciicircum" unicode="^" 
d="M1004 682l-179 -83l-298 593h-23l-295 -593l-180 83l418 735h139z" />
    <glyph glyph-name="underscore" unicode="_" 
d="M1033 -512h-1033v180h1033v-180z" />
    <glyph glyph-name="grave" unicode="`" horiz-adv-x="562" 
d="M512 1086l-175 -0.000976562c0 10.667 -46 65.334 -138 164.001s-138 152 -138 160h271c0 -7.33301 30 -60.5 90 -159.5s90 -153.833 90 -164.5z" />
    <glyph glyph-name="a" unicode="a" horiz-adv-x="1006" 
d="M925 1l-236.001 -7.99902c-10.667 28 -16 53.333 -16 76h-13c-73.333 -62.667 -172.333 -94 -297 -94c-83.333 0 -152.5 23.167 -207.5 69.5s-82.5 107.833 -82.5 184.5c0 101.333 42.833 184.333 128.5 249s235.834 99 450.501 103c1.33301 12 2 23.333 2 34
c0 72 -17.333 119.5 -52 142.5s-98.334 34.5 -191.001 34.5c-100.667 0 -199 -13.333 -295 -40l22 184c90.667 31.333 218.667 47 384 47c120.667 0 213.834 -25.333 279.501 -76s98.5 -139.334 98.5 -266.001c0 -28 -1.16699 -79 -3.5 -153s-3.5 -123.333 -3.5 -148
c0 -138 10.667 -251 32 -339zM657.999 209.001c-4 90 -6.00098 167.667 -6.00098 233c-227.333 0 -341 -57.667 -341 -173c0 -79.333 50 -119 150 -119c78.667 0 144.334 19.667 197.001 59z" />
    <glyph glyph-name="b" unicode="b" horiz-adv-x="1136" 
d="M1067 516c0 -144.667 -41.332 -271.668 -123.999 -381.001s-196.334 -164 -341.001 -164c-106.667 0 -182 22.667 -226 68h-13l-20 -39h-235c8.66699 234 13 481.667 13 743c0 246 -11 467 -33 663l287 16c-6.66699 -155.333 -10 -331 -10 -527h12
c67.333 59.333 158.333 89 273 89c128 0 229.5 -46.167 304.5 -138.5s112.5 -202.166 112.5 -329.499zM801.001 489.999c0 83.333 -21.167 155.5 -63.5 216.5s-100.5 91.5 -174.5 91.5c-92 0 -159.333 -27 -202 -81c0 -228 5 -399.667 15 -515
c42 -32.667 96.333 -49 163 -49c88.667 0 154.5 32.833 197.5 98.5s64.5 145.167 64.5 238.5z" />
    <glyph glyph-name="c" unicode="c" horiz-adv-x="912" 
d="M868 210l-16.998 -190.999c-60.667 -32 -143 -48 -247 -48c-172 0 -304.167 48 -396.5 144s-138.5 211.333 -138.5 346c0 140 48.333 262.167 145 366.5s229 156.5 397 156.5c82 0 155 -9.33301 219 -28l-34 -204c-61.333 25.333 -130 38 -206 38
c-80.667 0 -144.334 -28.5 -191.001 -85.5s-70 -127.167 -70 -210.5c0 -90.667 27.667 -167.334 83 -230.001s133.666 -94 234.999 -94c59.333 0 133 13.333 221 40z" />
    <glyph glyph-name="d" unicode="d" horiz-adv-x="1127" 
d="M1027 1l-237 -7.99902c-4.66699 23.333 -7 47.666 -7 72.999h-15c-73.333 -63.333 -167 -95 -281 -95c-128 0 -229.667 46.333 -305 139s-113 202.667 -113 330c0 146 41 273.167 123 381.5s196 162.5 342 162.5c94.667 0 165.667 -17.667 213 -53h14
c0 157.333 -7.66699 315.666 -23 474.999l283 8c-10.667 -155.333 -16 -378.666 -16 -669.999c0 -295.333 7.33301 -543 22 -743zM776 228.001c0 212.667 -4.99902 388.667 -14.999 528c-46 32 -101 48 -165 48c-88 0 -153.333 -32.667 -196 -98s-64 -145.333 -64 -240
c0 -84 20.667 -156.5 62 -217.5s98.666 -91.5 171.999 -91.5c98 0 166.667 23.667 206 71z" />
    <glyph glyph-name="e" unicode="e" horiz-adv-x="1049" 
d="M980 577c0 -34 -1.99902 -78.332 -5.99902 -132.999l-644 -11c9.33301 -75.333 41.666 -138 96.999 -188s128 -75 218 -75c100 0 206.333 15 319 45l-20 -194c-92 -33.333 -206 -50 -342 -50c-172 0 -303.833 48.333 -395.5 145s-137.5 213 -137.5 349
c0 142 43.5 265.167 130.5 369.5s207.833 156.5 362.5 156.5c141.333 0 246.333 -38.333 315 -115s103 -176.334 103 -299.001zM746.001 586.001c0 153.333 -65.333 230 -196 230c-124.667 0 -198.667 -79.333 -222 -238z" />
    <glyph glyph-name="f" unicode="f" horiz-adv-x="741" 
d="M737 1419l-36.001 -178.001c-38 9.33301 -77 14 -117 14c-48 0 -81 -22 -99 -66s-27 -129.333 -27 -256c59.333 0 141 2.66699 245 8l-8 -199c-104 4 -183 6 -237 6c0 -251.333 5 -500.666 15 -747.999h-264c10 244 15 493.333 15 748c-39.333 0 -97.666 -2 -174.999 -6
l8 198c70.667 -4.66699 126.334 -7 167.001 -7c0 335.333 112.667 503 338 503c67.333 0 125.666 -5.66699 174.999 -17zM346.999 949.999z" />
    <glyph glyph-name="g" unicode="g" horiz-adv-x="1128" 
d="M1109 1088l-22.001 -185.999c-104 0 -169 -15 -195 -45v-13c39.333 -50 59 -106 59 -168c0 -95.333 -35.167 -176.666 -105.5 -243.999s-175.166 -101 -314.499 -101c-68 0 -123.667 5.33301 -167 16c-35.333 -16 -53 -37 -53 -63c0 -40.667 21.167 -69.167 63.5 -85.5
s140.833 -24.5 295.5 -24.5c267.333 0 401 -91 401 -273c0 -128 -55.667 -229.667 -167 -305s-246.666 -113 -405.999 -113c-312 0 -468 98 -468 294c0 60.667 17.5 112.167 52.5 154.5s75.5 68.166 121.5 77.499v15c-56 35.333 -84 89.333 -84 162
c0 73.333 38.333 134.666 115 183.999v14c-108 54 -162 138.333 -162 253c0 98 37.167 180 111.5 246s189.166 99 344.499 99c106 0 192 -20 258 -60h14c19.333 126 84 189 194 189c43.333 0 81.333 -7.66699 114 -23zM823.999 -172.999
c0 49.333 -18.832 85.001 -56.499 107.001s-102.5 33 -194.5 33c-74.667 0 -150 3.33301 -226 10c-58.667 -34.667 -88 -86.334 -88 -155.001c0 -128 85.333 -192 256 -192c95.333 0 170.666 18 225.999 54s83 83.667 83 143zM706 650.002c0 60 -19.334 105.667 -58.001 137
s-83 47 -133 47s-93.833 -15.167 -131.5 -45.5s-56.5 -74.833 -56.5 -133.5c0 -59.333 19.333 -104.333 58 -135s83.667 -46 135 -46c48.667 0 91.834 14.833 129.501 44.5s56.5 73.5 56.5 131.5z" />
    <glyph glyph-name="h" unicode="h" horiz-adv-x="1126" 
d="M1015 0l-266 0.000976562c14.667 168.667 22 332.667 22 492c0 118.667 -15 196.5 -45 233.5s-79.333 55.5 -148 55.5c-72.667 0 -144 -24.333 -214 -73c0 -283.333 3.33301 -519.333 10 -708h-266c7.33301 206.667 11 454.334 11 743.001c0 266 -10.333 487 -31 663
l283 16c-10 -214.667 -15 -401.334 -15 -560.001h13c88 80.667 188.667 121 302 121c107.333 0 191.5 -24.333 252.5 -73s91.5 -134.334 91.5 -257.001c0 -12.667 -0.833008 -38.5 -2.5 -77.5s-2.5 -64.833 -2.5 -77.5c0 -111.333 1.66699 -277.333 5 -498z" />
    <glyph glyph-name="i" unicode="i" horiz-adv-x="510" 
d="M395 0h-269c9.33301 138 14 296.333 14 475c0 177.333 -11.333 332.666 -34 465.999l288 29c-8.66699 -129.333 -13 -294.333 -13 -495c0 -171.333 4.66699 -329.666 14 -474.999zM441 1252c0 -45.333 -15.5 -84.998 -46.5 -118.998s-74.167 -51 -129.5 -51
c-46.667 0 -83.167 14.667 -109.5 44s-39.5 64.666 -39.5 105.999c0 45.333 15.5 84.666 46.5 117.999s74.5 50 130.5 50c47.333 0 83.833 -14.5 109.5 -43.5s38.5 -63.833 38.5 -104.5z" />
    <glyph glyph-name="j" unicode="j" horiz-adv-x="510" 
d="M394 971c-9.33301 -202 -14 -402.669 -14 -602.002c0 -52 1.33301 -123.5 4 -214.5s4 -151.833 4 -182.5c0 -246 -98.333 -388.667 -295 -428l-73 140c47.333 38 79.5 93.833 96.5 167.5s25.5 228.834 25.5 465.501c0 268.667 -12 477.334 -36 626.001zM438 1253
c0 -45.333 -15.668 -84.998 -47.001 -118.998s-74.666 -51 -129.999 -51c-46.667 0 -83.167 14.667 -109.5 44s-39.5 64.666 -39.5 105.999c0 45.333 15.667 84.666 47 117.999s75 50 131 50c47.333 0 83.833 -14.5 109.5 -43.5s38.5 -63.833 38.5 -104.5z" />
    <glyph glyph-name="k" unicode="k" horiz-adv-x="1045" 
d="M1029 0l-306 0.000976562c0 24.667 -50.667 108.167 -152 250.5s-166 213.5 -194 213.5h-13c0 -136.667 4 -291.334 12 -464.001h-265c8 311.333 12 559 12 743c0 254.667 -10.333 475.667 -31 663l284 16c-9.33301 -253.333 -14 -479.666 -14 -678.999
c0 -25.333 0.333008 -74.666 1 -147.999h14c18.667 0 71.667 53.833 159 161.5s131 172.167 131 193.5h298c0 -20.667 -45.333 -78.334 -136 -173.001s-164 -160 -220 -196v-15c62 -43.333 147.5 -141.833 256.5 -295.5s163.5 -243.834 163.5 -270.501z" />
    <glyph glyph-name="l" unicode="l" horiz-adv-x="528" 
d="M410 0l-273 -0.000976562c10 228.667 15 476.334 15 743.001c0 260 -10.333 481 -31 663l289 16c-10 -188.667 -15 -415 -15 -679c0 -268 5 -515.667 15 -743z" />
    <glyph glyph-name="m" unicode="m" horiz-adv-x="1704" 
d="M1593 0l-265.002 0.000976562c14 168.667 21 332.667 21 492c0 119.333 -15.333 197.333 -46 234s-79.667 55 -147 55c-54 0 -111 -19.667 -171 -59c-2.66699 -83.333 -4 -158 -4 -224c0 -111.333 2 -277.333 6 -498h-268c14.667 182.667 22 360.334 22 533.001
c0 89.333 -12.5 153 -37.5 191s-76.833 57 -155.5 57c-72.667 0 -133 -24.333 -181 -73c3.33301 -264 5 -500 5 -708h-269c12 208 18 372 18 492c0 156 -16.333 306.333 -49 451l256 28l17 -106h16c86.667 78.667 184.334 118 293.001 118c136 0 231.667 -39.333 287 -118
h16c98.667 78.667 196.334 118 293.001 118c113.333 0 198.833 -24.5 256.5 -73.5s86.5 -137.833 86.5 -266.5c0 -12.667 -0.666992 -36.834 -2 -72.501s-2 -59.834 -2 -72.501c0 -111.333 1.33301 -277.333 4 -498z" />
    <glyph glyph-name="n" unicode="n" horiz-adv-x="1126" 
d="M1015 0l-266.001 -0.000976562c14.667 168.667 22 339.334 22 512.001c0 104.667 -15.5 175.667 -46.5 213s-78.167 56 -141.5 56c-76 0 -148 -26 -216 -78c3.33301 -260 5 -494.333 5 -703h-269c12 208.667 18 372.667 18 492c0 159.333 -16.333 309.666 -49 450.999
l256 28l17 -106h16c91.333 78.667 196.333 118 315 118c102.667 0 184.834 -24.167 246.501 -72.5s92.5 -137.5 92.5 -267.5c0 -19.333 -0.833008 -45.166 -2.5 -77.499s-2.5 -65.5 -2.5 -99.5c0 -90 1.66699 -245.333 5 -466z" />
    <glyph glyph-name="o" unicode="o" horiz-adv-x="1144" 
d="M1075 497c0 -168 -51.668 -299.333 -155.001 -394s-225 -142 -365 -142c-133.333 0 -247.666 43.167 -342.999 129.5s-143 207.833 -143 364.5c0 168.667 52 300.667 156 396s226 143 366 143c132.667 0 246.5 -43.5 341.5 -130.5s142.5 -209.167 142.5 -366.5z
M813.999 467c0 96.667 -22.667 177.834 -68 243.501s-104.333 98.5 -177 98.5c-70.667 0 -128.167 -30.667 -172.5 -92s-66.5 -138 -66.5 -230c0 -96.667 22.667 -177.834 68 -243.501s104.333 -98.5 177 -98.5c70.667 0 128.167 30.667 172.5 92s66.5 138 66.5 230z" />
    <glyph glyph-name="p" unicode="p" horiz-adv-x="1146" 
d="M1076 516c0 -144.667 -41.333 -271.669 -124 -381.002s-195.667 -164 -339 -164c-106.667 0 -180 22.667 -220 68h-12c0 -163.333 2.33301 -328.666 7 -495.999h-272c12 191.333 18 412 18 662c0 322.667 -17.333 568.667 -52 738l256 28l15 -86h16
c71.333 66 168.333 99 291 99c128 0 229.333 -46.167 304 -138.5s112 -202.166 112 -329.499zM810 489.998c0 84 -21.001 156.333 -63.001 217s-100 91 -174 91c-92 0 -159.333 -27 -202 -81c10 -187.333 15 -359 15 -515c42 -32.667 96.333 -49 163 -49
c88.667 0 154.334 32.833 197.001 98.5s64 145.167 64 238.5z" />
    <glyph glyph-name="q" unicode="q" horiz-adv-x="1136" 
d="M1033 -455l-265.998 -0.000976562c7.33301 182.667 11 356.334 11 521.001h-16c-68.667 -63.333 -160.334 -95 -275.001 -95c-128 0 -229.667 46.333 -305 139s-113 202.667 -113 330c0 146.667 41.667 274 125 382s196.666 162 339.999 162c106 0 186 -19.667 240 -59
h14l35 25l210 16c-8.66699 -209.333 -13 -436 -13 -680c0 -279.333 4.33301 -526.333 13 -741zM778.002 238.999c0 219.333 -3.66602 391.333 -10.999 516c-50 32.667 -107 49 -171 49c-87.333 0 -152.5 -32.5 -195.5 -97.5s-64.5 -145.167 -64.5 -240.5
c0 -84 20.667 -156.5 62 -217.5s98.666 -91.5 171.999 -91.5c98 0 167.333 27.333 208 82z" />
    <glyph glyph-name="r" unicode="r" horiz-adv-x="789" 
d="M771 950l-58 -234c-49.333 20 -99.333 30 -150 30c-98 0 -162.667 -44 -194 -132c0 -266 2 -470.667 6 -614h-266c11.333 200.667 17 364.667 17 492c0 158.667 -16.667 309 -50 451l255 28c11.333 -73.333 17 -116.333 17 -129h16c61.333 94 143 141 245 141
c48 0 102 -11 162 -33z" />
    <glyph glyph-name="s" unicode="s" horiz-adv-x="859" 
d="M791 273c0 -200 -148.001 -300.001 -444.001 -300.001c-108 0 -202.333 11.667 -283 35l34 197c83.333 -30 166.333 -45 249 -45c80 0 135.5 6.66699 166.5 20s46.5 35.666 46.5 66.999c0 48.667 -56 95 -168 139c-98 38.667 -169.333 76.667 -214 114
c-61.333 52 -92 115.667 -92 191c0 88.667 33 160 99 214s162 81 288 81c118 0 210.667 -10.333 278 -31l-34 -198c-75.333 29.333 -156.666 44 -243.999 44c-106.667 0 -160 -27.333 -160 -82c0 -28 11.333 -50.5 34 -67.5s69 -38.5 139 -64.5
c96.667 -35.333 167 -71.666 211 -108.999c62.667 -53.333 94 -121.666 94 -204.999z" />
    <glyph glyph-name="t" unicode="t" horiz-adv-x="743" 
d="M704 187l-17.001 -177.999c-46.667 -20 -105.334 -30 -176.001 -30c-108 0 -189.333 29.333 -244 88s-82 171.667 -82 339c0 100.667 0.666992 214.667 2 342c-34 0 -80 -2 -138 -6l7 197c51.333 -4 99 -6 143 -6c0.666992 35.333 3.33398 128.333 8.00098 279l237 29
c-10 -132.667 -15 -235.334 -15 -308.001c56 0 139.667 2.66699 251 8l-8 -199c-101.333 4 -183.666 6 -246.999 6c-1.33301 -88.667 -2 -181.667 -2 -279c0 -118.667 12 -198.167 36 -238.5s66.333 -60.5 127 -60.5c36.667 0 76 5.66699 118 17zM326.999 950.001z" />
    <glyph glyph-name="u" unicode="u" horiz-adv-x="1107" 
d="M1005 1l-233.999 -8c-10.667 36 -16 64.667 -16 86h-16c-87.333 -72 -189.333 -108 -306 -108c-110 0 -192.833 28.833 -248.5 86.5s-83.5 172.834 -83.5 345.501c0 20.667 0.5 49.667 1.5 87s1.5 70 1.5 98c0 74 -6.33301 192 -19 354l279 10
c-10.667 -128 -16 -249.333 -16 -364c0 -163.333 12.167 -273.333 36.5 -330s72.166 -85 143.499 -85c78 0 145.333 18.667 202 56c0 350.667 -4 588.667 -12 714l270 9c-6.66699 -126 -10 -289.333 -10 -490c0 -148.667 9 -302.334 27 -461.001z" />
    <glyph glyph-name="v" unicode="v" horiz-adv-x="1002" 
d="M976 950c0 -38.667 -59.667 -197.001 -179 -475.001s-179 -436.333 -179 -475h-273c0 42.667 -53 204.834 -159 486.501s-159 436.167 -159 463.5h292c0 -30 32.833 -145.833 98.5 -347.5s98.5 -320.167 98.5 -355.5h13c0 32 31.333 144 94 336s94 314.333 94 367h259z
" />
    <glyph glyph-name="w" unicode="w" horiz-adv-x="1613" 
d="M1581 950c0 -38 -55.501 -193.999 -166.501 -467.999s-166.5 -434.667 -166.5 -482h-233c0 30.667 -27.333 125 -82 283c-68 197.333 -111.333 331.666 -130 402.999h-16c-17.333 -68.667 -58.666 -201.334 -123.999 -398.001c-52.667 -156 -79 -252 -79 -288h-234
c0 40.667 -52.833 202.834 -158.5 486.501s-158.5 438.167 -158.5 463.5h288c0 -27.333 29.167 -141.833 87.5 -343.5s87.5 -321.5 87.5 -359.5h15c0 46 33.333 165.5 100 358.5s100 307.833 100 344.5h235c0 -25.333 32.5 -140.333 97.5 -345s97.5 -324 97.5 -358h14
c0 37.333 29.5 150.833 88.5 340.5s88.5 310.5 88.5 362.5h249z" />
    <glyph glyph-name="x" unicode="x" horiz-adv-x="1055" 
d="M1023 0l-312.999 -0.000976562c0 18 -27.333 78 -82 180c-52 96.667 -91.667 164.334 -119 203.001h-14c-22 -30 -58 -96.667 -108 -200s-75 -164.333 -75 -183h-278c0 16 48.167 94 144.5 234s163.5 229.333 201.5 268v15c-32 34.667 -90 109.667 -174 225
c-89.333 123.333 -134 192.666 -134 207.999h311c0 -17.333 22.333 -69 67 -155c43.333 -83.333 76.666 -140.666 99.999 -171.999h12c20.667 26 51.5 82.5 92.5 169.5s61.5 139.5 61.5 157.5h268c0 -12.667 -44.5 -79.334 -133.5 -200.001s-147.5 -194 -175.5 -220v-15
c38 -42 104.667 -132.333 200 -271c98.667 -143.333 148 -224.666 148 -243.999z" />
    <glyph glyph-name="y" unicode="y" horiz-adv-x="1002" 
d="M968 950c0 -43.333 -47.668 -180.669 -143.001 -412.002c-108.667 -266 -175.667 -447.333 -201 -544c-43.333 -166.667 -101.666 -281.667 -174.999 -345c-70.667 -61.333 -176.667 -92 -318 -92l-20 193c82.667 0 150.667 23.5 204 70.5s80 109.833 80 188.5
c0 79.333 -60 252.833 -180 520.5s-180 407.834 -180 420.501h309c0 -23.333 30.333 -136.333 91 -339s91 -326.667 91 -372h14c0 38.667 27.5 152.834 82.5 342.501s82.5 312.5 82.5 368.5h263z" />
    <glyph glyph-name="z" unicode="z" horiz-adv-x="890" 
d="M834 200l-4.99902 -200h-756l14 191c33.333 30 111.666 122.667 234.999 278c132 166 198 261 198 285v16c-158.667 0 -304.667 -5.66699 -438 -17l5 197h726l-15 -192c-42 -46 -117 -139.333 -225 -280c-126 -164 -189 -258 -189 -282v-15
c151.333 0 301.333 6.33301 450 19z" />
    <glyph glyph-name="braceleft" unicode="{" horiz-adv-x="723" 
d="M692 -330l-68.002 -159.997c-288 60 -432 166.333 -432 319c0 49.333 14.5 130.666 43.5 243.999s43.5 185.333 43.5 216c0 46.667 -25.167 82.167 -75.5 106.5s-103.166 38.5 -158.499 42.5v149c161.333 23.333 242 75 242 155c0 30.667 -15.833 100.5 -47.5 209.5
s-47.5 185.833 -47.5 230.5c0 130.667 74.333 226.334 223 287.001c61.333 25.333 135.333 42.666 222 51.999l45 -156c-196 -25.333 -294 -117 -294 -275c0 -34.667 15.667 -94.667 47 -180s47 -140 47 -164c0 -75.333 -31 -134 -93 -176
c-45.333 -31.333 -90.666 -47 -135.999 -47v-15c45.333 0 94.833 -17.833 148.5 -53.5s80.5 -90.834 80.5 -165.501c0 -26.667 -15.667 -85.834 -47 -177.501s-47 -152.5 -47 -182.5c0 -124.667 101.333 -211 304 -259z" />
    <glyph glyph-name="bar" unicode="|" horiz-adv-x="516" 
d="M365 -517h-213c8.66699 377.333 13 706.666 13 987.999c0 276.667 -4.33301 636.334 -13 1079h213c-8 -430 -12 -789.667 -12 -1079c0 -288.667 4 -618 12 -988z" />
    <glyph glyph-name="braceright" unicode="}" horiz-adv-x="723" 
d="M692 441c-156.667 -39.333 -234.999 -90.002 -234.999 -152.002c0 -30.667 14.833 -102 44.5 -214s44.5 -192 44.5 -240c0 -111.333 -72.667 -199 -218 -263c-60.667 -26.667 -133.334 -47.334 -218.001 -62.001l-60 159c190.667 38.667 286 125.334 286 260.001
c0 31.333 -13.5 92.5 -40.5 183.5s-40.5 149.5 -40.5 175.5c0 74.667 31 132.334 93 173.001c45.333 29.333 91 44 137 44v14c-44.667 0 -94.167 18.833 -148.5 56.5s-81.5 94.167 -81.5 169.5c0 24.667 13.5 79.834 40.5 165.501s40.5 145.167 40.5 178.5
c0 147.333 -94 239 -282 275l51 157c86 -12 159.667 -31 221 -57c146.667 -62 220 -154 220 -276c0 -46 -15.5 -124.167 -46.5 -234.5s-46.5 -180.833 -46.5 -211.5c0 -46 25.833 -81.667 77.5 -107s105.5 -40.333 161.5 -45v-149z" />
    <glyph glyph-name="asciitilde" unicode="~" 
d="M1029 611c-99.333 -176 -211.668 -264 -337.001 -264c-45.333 0 -101.5 11.167 -168.5 33.5s-121.833 33.5 -164.5 33.5c-78.667 0 -155.334 -42.667 -230.001 -128l-123 90c98 184 209.667 276 335 276c45.333 0 103.833 -10.667 175.5 -32s128.834 -32 171.501 -32
c78.667 0 151.334 37.333 218.001 112z" />
    <glyph glyph-name="exclamdown" unicode="&#xa1;" horiz-adv-x="516" 
d="M394 -181c0 -126.667 -53.333 -190 -160 -190c-96.667 0 -145 61.333 -145 184c0 130 39 335.667 117 617h102c57.333 -290 86 -493.667 86 -611zM435 814c0 -48 -16.833 -90 -50.5 -126s-80.5 -54 -140.5 -54c-50.667 0 -89.667 15.5 -117 46.5s-41 68.5 -41 112.5
c0 49.333 16.833 92.333 50.5 129s80.167 55 139.5 55c50 0 89 -16 117 -48s42 -70.333 42 -115z" />
    <glyph glyph-name="cent" unicode="&#xa2;" 
d="M900 241l-16.999 -190.998c-20 -8 -41 -14.667 -63 -20c-53.333 -13.333 -108.666 -20.666 -165.999 -21.999c0 -105.333 3 -199 9 -281h-139c2 36.667 4 132.667 6 288c-134 18.667 -236.833 73.5 -308.5 164.5s-107.5 196.5 -107.5 316.5
c0 123.333 37 234.666 111 333.999s176.333 160.333 307 183c-0.666992 108 -3.33398 209.667 -8.00098 305h139c-5.33301 -98.667 -8 -197 -8 -295c76 -0.666992 146.667 -10.334 212 -29.001l-34 -200c-61.333 23.333 -124.666 35 -189.999 35
c-82.667 0 -147.834 -29.833 -195.501 -89.5s-71.5 -130.5 -71.5 -212.5c0 -86.667 27.167 -161.834 81.5 -225.501s131.5 -95.5 231.5 -95.5c55.333 0 125.666 11.667 210.999 35zM586.001 -39.998z" />
    <glyph glyph-name="sterling" unicode="&#xa3;" horiz-adv-x="909" 
d="M853 179l-19 -179.002h-776v159c35.333 13.333 65 32.333 89 57s36 65.334 36 122.001c0 41.333 -4.33301 93 -13 155c-43.333 0 -89 -1.66699 -137 -5l6 147c32.667 -2.66699 72 -4 118 -4c-4.66699 46.667 -7 90 -7 130c0 143.333 31 248.666 93 315.999
s151 101 267 101c68 0 127.667 -4.33301 179 -13l-25 -170c-39.333 8.66699 -75.666 13 -108.999 13c-60 0 -103 -16.167 -129 -48.5s-39 -82.833 -39 -151.5c0 -48 3.66699 -107 11 -177c49.333 0 114 1.66699 194 5l-7 -147c-56 2.66699 -112.333 4 -169 4
c4 -31.333 6 -60.666 6 -87.999c0 -111.333 -36.667 -189.666 -110 -234.999v-10c137.333 0 317.666 6.33301 540.999 19z" />
    <glyph glyph-name="currency" unicode="&#xa4;" horiz-adv-x="1000" 
d="M889 774l-111.001 -106c31.333 -48 47 -107 47 -177c0 -73.333 -15.333 -136 -46 -188l94 -88l-102 -102l-86 91c-60 -42.667 -128.333 -64 -205 -64c-68 0 -128.333 16.333 -181 49l-87 -92l-101 101l92 87c-26.667 46 -40 101 -40 165c0 86 20.333 157.667 61 215
l-97 92l102 102l97 -104c54.667 32.667 115.334 49 182.001 49c63.333 0 120 -14.667 170 -44l110 115zM672.999 467c0 54 -16.165 102.833 -48.498 146.5s-76.5 65.5 -132.5 65.5c-54.667 0 -97.834 -20.667 -129.501 -62s-47.5 -88 -47.5 -140
c0 -54 16.167 -102.833 48.5 -146.5s76.166 -65.5 131.499 -65.5s98.833 20.667 130.5 62s47.5 88 47.5 140z" />
    <glyph glyph-name="yen" unicode="&#xa5;" horiz-adv-x="909" 
d="M934 1068c0 -18 -26.0039 -69.167 -78.0039 -153.5l-156 -252.5c36.667 1.33301 89 3 157 5v-122c-110.667 -0.666992 -186 -0.666992 -226 0c-15.333 -29.333 -26.666 -53.333 -33.999 -72h260v-122c-112 4.66699 -207.333 7 -286 7
c0.666992 -104.667 3.33398 -224 8.00098 -358h-275c2.66699 66 5.33398 185.333 8.00098 358c-61.333 0 -148.666 -2.33301 -261.999 -7v122h237c-10.667 28 -20.667 52 -30 72h-207v122c74.667 -3.33301 122.667 -5 144 -5l-117.5 205
c-67 116.667 -100.5 183.667 -100.5 201h312c0 -18 30.833 -97 92.5 -237s92.5 -229 92.5 -267h14c0 36.667 29 124.5 87 263.5s87 219.167 87 240.5h273z" />
    <glyph glyph-name="brokenbar" unicode="&#xa6;" horiz-adv-x="500" 
d="M354 -500h-208c8 222.667 12 363.334 12 422.001c0 58 -4 209.333 -12 454h208c-8 -222.667 -12 -363.334 -12 -422.001c0 -58 4 -209.333 12 -454zM354 624h-208c8 222.667 12 363.334 12 422.001c0 58 -4 209.333 -12 454h208c-8 -222.667 -12 -363.334 -12 -422.001
c0 -58 4 -209.333 12 -454z" />
    <glyph glyph-name="section" unicode="&#xa7;" horiz-adv-x="859" 
d="M791 -109c0 -216.667 -148.001 -325.002 -444.001 -325.002c-108 0 -202.333 11.667 -283 35l34 197c83.333 -30 166.333 -45 249 -45c142 0 213 36 213 108c0 42.667 -41 100.667 -123 174c-141.333 126 -217.333 194.667 -228 206c-82 88.667 -123 173 -123 253
c0 134 66 222 198 264c-132 117.333 -198 229 -198 335c0 91.333 31.833 167.5 95.5 228.5s157.167 91.5 280.5 91.5c118 0 214.333 -10 289 -30l-34 -199c-82.667 29.333 -167.667 44 -255 44c-98 0 -147 -35.333 -147 -106c0 -43.333 41 -99.666 123 -168.999
c134.667 -112.667 211.334 -178.667 230.001 -198c82 -88 123 -176.333 123 -265c0 -134 -62 -221.333 -186 -262c124 -111.333 186 -223.666 186 -336.999zM578.999 452.998c0 48 -52.333 113.668 -157 197.001c-39.333 0 -69.5 -11.5 -90.5 -34.5
s-31.5 -51.167 -31.5 -84.5c0 -46.667 53.667 -110.334 161 -191.001c38.667 0 68 11.167 88 33.5s30 48.833 30 79.5z" />
    <glyph glyph-name="dieresis" unicode="&#xa8;" horiz-adv-x="836" 
d="M753 1251c0 -38.667 -13.168 -72.499 -39.501 -101.499s-63.166 -43.5 -110.499 -43.5c-40 0 -71.167 12.5 -93.5 37.5s-33.5 55.167 -33.5 90.5c0 38 13.5 71.333 40.5 100s64.167 43 111.5 43c40 0 70.833 -12.333 92.5 -37s32.5 -54.334 32.5 -89.001zM357.999 1251
c0 -38.667 -13.1689 -72.499 -39.502 -101.499s-63.166 -43.5 -110.499 -43.5c-39.333 0 -70.166 12.5 -92.499 37.5s-33.5 55.167 -33.5 90.5c0 38.667 13.333 72.167 40 100.5s63.667 42.5 111 42.5c40 0 70.833 -12.333 92.5 -37s32.5 -54.334 32.5 -89.001z" />
    <glyph glyph-name="copyright" unicode="&#xa9;" horiz-adv-x="1353" 
d="M1277 608c0 -168.667 -59.5 -312.167 -178.5 -430.5s-262.833 -177.5 -431.5 -177.5s-312.834 59.333 -432.501 178s-179.5 262 -179.5 430c0 168.667 59.833 312.834 179.5 432.501s263.834 179.5 432.501 179.5s312.5 -59.833 431.5 -179.5
s178.5 -263.834 178.5 -432.501zM1183 610c0 143.333 -50.333 265.666 -151 366.999s-222.334 152 -365.001 152c-143.333 0 -265.5 -50.667 -366.5 -152s-151.5 -223.666 -151.5 -366.999s50.5 -265.5 151.5 -366.5s223.167 -151.5 366.5 -151.5
c142.667 0 264.334 50.5 365.001 151.5s151 223.167 151 366.5zM892 415l-8 -114.999c-54.667 -11.333 -101.334 -17 -140.001 -17c-115.333 0 -202.666 31.667 -261.999 95s-89 140 -89 230c0 93.333 31.833 174.666 95.5 243.999s150.5 104 260.5 104
c40.667 0 79.334 -4.66699 116.001 -14l-18 -115c-38.667 12.667 -76.334 19 -113.001 19c-66.667 0 -116.667 -21.333 -150 -64s-50 -95 -50 -157c0 -62.667 19.5 -117 58.5 -163s93.833 -69 164.5 -69c41.333 0 86.333 7.33301 135 22z" />
    <glyph glyph-name="ordfeminine" unicode="&#xaa;" horiz-adv-x="574" 
d="M521 759l-157.998 -7.00195c-4 8 -6 23 -6 45h-7c-32.667 -34 -81.667 -51 -147 -51c-50 0 -91.333 12.667 -124 38s-49 65 -49 119c0 64 28.833 114.333 86.5 151s135.167 55 232.5 55c-0.666992 34.667 -6.83398 57.5 -18.501 68.5s-41.834 16.5 -90.501 16.5
c-44 0 -105.333 -11 -184 -33l16 133c64 20.667 130.333 31 199 31c35.333 0 66.5 -3.16699 93.5 -9.5s51.333 -17 73 -32s38.5 -35.667 50.5 -62s18 -57.166 18 -92.499c0 -43.333 -0.5 -75.833 -1.5 -97.5s-1.5 -51.167 -1.5 -88.5c0 -61.333 6 -122.666 18 -183.999z
M349.002 897.998v2c-1.33301 21.333 -2 54.333 -2 99c-106 -6 -159 -32 -159 -78c0 -32 21 -48 63 -48c38 0 70.667 8.33301 98 25z" />
    <glyph glyph-name="guillemotleft" unicode="&#xab;" horiz-adv-x="929" 
d="M446 244l-82 -118l-294 261v201l294 259l82 -117l-201 -242zM859 244l-82 -118l-294 261v201l294 259l82 -117l-201 -242z" />
    <glyph glyph-name="logicalnot" unicode="&#xac;" 
d="M926 160h-159v457h-660v192h819v-649z" />
    <glyph glyph-name="registered" unicode="&#xae;" horiz-adv-x="1353" 
d="M1277 771c0 -168.667 -59.5 -312.167 -178.5 -430.5s-262.833 -177.5 -431.5 -177.5s-312.834 59.333 -432.501 178s-179.5 262 -179.5 430c0 168.667 59.833 312.834 179.5 432.501s263.834 179.5 432.501 179.5s312.5 -59.833 431.5 -179.5
s178.5 -263.834 178.5 -432.501zM1183 773c0 143.333 -50.333 265.5 -151 366.5s-222.334 151.5 -365.001 151.5c-143.333 0 -265.5 -50.5 -366.5 -151.5s-151.5 -223.167 -151.5 -366.5s50.5 -265.666 151.5 -366.999s223.167 -152 366.5 -152
c142.667 0 264.334 50.667 365.001 152s151 223.666 151 366.999zM963 466l-148.001 -0.00195312c-38.667 118 -68.334 190.833 -89.001 218.5s-54 41.5 -100 41.5c-19.333 0 -37.666 -0.333008 -54.999 -1c0 -85.333 1.33301 -171.666 4 -258.999h-139
c4.66699 100.667 7 214 7 340c0 121.333 -2.33301 225 -7 311h87c10 0 30.833 0.5 62.5 1.5s61.167 1.5 88.5 1.5c152.667 0 229 -52.333 229 -157c0 -83.333 -43.667 -141.333 -131 -174v-7c33.333 -9.33301 62.833 -35.666 88.5 -78.999s59.834 -122.333 102.501 -237z
M775.999 925.998c0 66 -42.667 99 -128 99c-31.333 0 -59 -2.33301 -83 -7c3.33301 -52 5 -119.333 5 -202c18 -0.666992 33.667 -1 47 -1c106 0 159 37 159 111z" />
    <glyph glyph-name="macron" unicode="&#xaf;" horiz-adv-x="500" 
d="M497 1335l-12 -174h-484l11 174h485z" />
    <glyph glyph-name="macron" unicode="&#x2c9;" horiz-adv-x="500" 
d="M497 1335l-12 -174h-484l11 174h485z" />
    <glyph glyph-name="degree" unicode="&#xb0;" horiz-adv-x="547" 
d="M531 1281c0 -74.667 -26 -140.333 -78 -197s-124.333 -85 -217 -85c-78 0 -138.833 24.833 -182.5 74.5s-65.5 108.5 -65.5 176.5c0 74.667 25.667 139.667 77 195s124 83 218 83c78.667 0 139.667 -24.333 183 -73s65 -106.667 65 -174zM411 1273
c0 37.333 -12.333 69.332 -37 95.999s-59 40 -103 40c-52 0 -92.333 -15.167 -121 -45.5s-43 -66.166 -43 -107.499c0 -38 12 -70.5 36 -97.5s57.667 -40.5 101 -40.5c52 0 92.833 15.5 122.5 46.5s44.5 67.167 44.5 108.5z" />
    <glyph glyph-name="plusminus" unicode="&#xb1;" 
d="M926 619h-319v-290h-180v290h-320v180h320v290h180v-290h319v-180zM926 45h-819v180h819v-180z" />
    <glyph glyph-name="uni00B2" unicode="&#xb2;" horiz-adv-x="547" 
d="M506 738l-15.9971 -131.002h-435l13 109c34 23.333 65.333 48.833 94 76.5s54.5 56.334 77.5 86.001s40.667 60.834 53 93.501s18.5 65 18.5 97c0 80 -42.667 120 -128 120c-42.667 0 -83.334 -5.66699 -122.001 -17l15 124c39.333 13.333 88.666 20 147.999 20
c88 0 152.167 -20.667 192.5 -62s60.5 -95.333 60.5 -162c0 -120.667 -70.667 -238 -212 -352v-10c101.333 0 181.666 2.66699 240.999 8z" />
    <glyph glyph-name="uni00B3" unicode="&#xb3;" horiz-adv-x="547" 
d="M504 833c0 -36 -9 -70.168 -27 -102.501s-44.833 -62.5 -80.5 -90.5s-83.5 -51 -143.5 -69s-129.667 -29 -209 -33l-25 107c108 12 187.333 32.333 238 61s76 65 76 109c0 74 -81.333 111 -244 111l18 110c78 0 132 5.66699 162 17s45 33.333 45 66
c0 24 -8.66699 41.667 -26 53s-47.333 17 -90 17c-28.667 0 -75.667 -7 -141 -21l9 126c54.667 14.667 118 22 190 22c60 0 111.167 -12.667 153.5 -38s63.5 -66 63.5 -122c0 -66 -33.667 -112.667 -101 -140v-8c38 -11.333 69.5 -30.166 94.5 -56.499
s37.5 -65.833 37.5 -118.5z" />
    <glyph glyph-name="acute" unicode="&#xb4;" horiz-adv-x="562" 
d="M510 1410c0 -8 -46 -61.332 -138 -159.999s-138 -153.334 -138 -164.001h-175c0 10.667 30 65.5 90 164.5s90 152.167 90 159.5h271z" />
    <glyph glyph-name="uni00B5" unicode="&#xb5;" horiz-adv-x="1128" 
d="M1020 -1l-235 -7.99902c-12.667 45.333 -19 79.666 -19 102.999h-16c-56.667 -62.667 -128.334 -94 -215.001 -94c-90.667 -0 -160 31.333 -208 94h-16c0 -179.333 19 -362.333 57 -549l-262 -20c8.66699 266.667 13 514.334 13 743.001c0 266 -11 489.333 -33 670
l290 11c-6 -138.667 -9 -261.667 -9 -369c0 -159.333 14.833 -266 44.5 -320s80.834 -81 153.501 -81c70 0 129.667 22.333 179 67c0 338 -4 569.333 -12 694l268 10c-7.33301 -154.667 -11 -300.334 -11 -437.001c0 -154.667 10.333 -326 31 -514z" />
    <glyph glyph-name="paragraph" unicode="&#xb6;" horiz-adv-x="1371" 
d="M1199 -413l-271.002 -0.000976562c5.33301 346 8 722 8 1128c0 174.667 -3 339 -9 493c-21.333 2 -65.666 4 -132.999 6c-7.33301 -352 -11 -636 -11 -852c0 -331.333 4.33301 -617.333 13 -858h-186c8 243.333 12 529.333 12 858c0 56.667 -0.333008 124.334 -1 203.001
c-164 2 -287.667 36.667 -371 104s-125 179.333 -125 336c0 129.333 44.833 229.333 134.5 300s195.834 106 318.501 106c49.333 0 112 -1 188 -3s130.667 -3 164 -3h269c-8.66699 -183.333 -13 -420.333 -13 -711c0 -399.333 4.33301 -768.333 13 -1107z" />
    <glyph glyph-name="periodcentered" unicode="&#xb7;" horiz-adv-x="516" 
d="M430 613c0 -48.667 -16.833 -91.501 -50.5 -128.501s-80.167 -55.5 -139.5 -55.5c-50 0 -89 16 -117 48s-42 70.333 -42 115c0 48.667 16.833 90.834 50.5 126.501s80.5 53.5 140.5 53.5c50.667 0 89.667 -15.5 117 -46.5s41 -68.5 41 -112.5z" />
    <glyph glyph-name="periodcentered" unicode="&#x2219;" horiz-adv-x="516" 
d="M430 613c0 -48.667 -16.833 -91.501 -50.5 -128.501s-80.167 -55.5 -139.5 -55.5c-50 0 -89 16 -117 48s-42 70.333 -42 115c0 48.667 16.833 90.834 50.5 126.501s80.5 53.5 140.5 53.5c50.667 0 89.667 -15.5 117 -46.5s41 -68.5 41 -112.5z" />
    <glyph glyph-name="cedilla" unicode="&#xb8;" horiz-adv-x="470" 
d="M421 -287c0 -151.333 -82 -227 -246 -227l-24 112c26.667 0 49.667 9.83301 69 29.5s29 41.5 29 65.5c0 67.333 -43 109 -129 125l41 234l87 -14l-16 -130c126 -31.333 189 -96.333 189 -195z" />
    <glyph glyph-name="uni00B9" unicode="&#xb9;" horiz-adv-x="547" 
d="M427 1304c-3.33301 -116 -5 -233 -5 -351c0 -128 1.66699 -243.333 5 -346h-170c4 108.667 6 224 6 346c0 54 -1 107.667 -3 161l-190 -99l-38 96l291 193h104z" />
    <glyph glyph-name="ordmasculine" unicode="&#xba;" horiz-adv-x="637" 
d="M600 1047c0 -94.667 -28.334 -169.832 -85.001 -225.499s-125.667 -83.5 -207 -83.5c-74.667 0 -138.5 25 -191.5 75s-79.5 118.333 -79.5 205c0 97.333 28.167 173.666 84.5 228.999s125.833 83 208.5 83c74.667 0 138.334 -24.833 191.001 -74.5s79 -119.167 79 -208.5
zM436.999 1030c0 50.667 -11.499 93 -34.499 127s-51.167 51 -84.5 51c-37.333 0 -66.333 -15.333 -87 -46s-31 -71.667 -31 -123c0 -49.333 11.5 -91.333 34.5 -126s51.5 -52 85.5 -52c37.333 0 66.166 15 86.499 45s30.5 71.333 30.5 124z" />
    <glyph glyph-name="guillemotright" unicode="&#xbb;" horiz-adv-x="929" 
d="M446 387l-293 -261l-83 118l202 242l-202 244l83 117l293 -259v-201zM859 387l-293 -261l-83 118l202 242l-202 244l83 117l293 -259v-201z" />
    <glyph glyph-name="onequarter" unicode="&#xbc;" horiz-adv-x="1550" 
d="M457 1304c-3.33301 -116 -5 -233 -5 -351c0 -128 1.66699 -243.333 5 -346h-170c4 108.667 6 224 6 346c0 54 -1 107.667 -3 161l-190 -99l-38 96l291 193h104zM1330 1315c0 -44 -165.833 -265.999 -497.5 -665.999s-497.5 -630.333 -497.5 -691l-165 20
c0 47.333 165.667 269.166 497 665.499s497 626.833 497 691.5zM1440 339.001l-16 -131.999h-82c0 -31.333 0.833008 -68 2.5 -110s3.5 -84 5.5 -126h-170c2 42.667 3.5 83.334 4.5 122.001s1.5 76.667 1.5 114h-273l-13 96c0 6.66699 12.333 28.167 37 64.5
s65.667 93.666 123 171.999s92 131.166 104 158.499h187c-2 -35.333 -4 -82.333 -6 -141s-3 -134 -3 -226c29.333 0 62 2.66699 98 8zM1190 551.002h-5.00098c-6.66699 -27.333 -52.667 -99 -138 -215v-9h52c38.667 0 67.667 0.333008 87 1
c0.666992 18.667 1.33398 47 2.00098 85c1.33301 65.333 2 111.333 2 138z" />
    <glyph glyph-name="onehalf" unicode="&#xbd;" horiz-adv-x="1550" 
d="M488 1304c-3.33301 -116 -5 -233 -5 -351c0 -128 1.66699 -243.333 5 -346h-170c4 108.667 6 224 6 346c0 54 -1 107.667 -3 161l-190 -99l-38 96l291 193h104zM1355 1315c0 -44 -165.833 -265.999 -497.5 -665.999s-497.5 -630.333 -497.5 -691l-165 20
c0 47.333 165.667 269.166 497 665.499s497 626.833 497 691.5zM1420 132.001l-15.9971 -131.002h-435l13 109c34 23.333 65.333 48.833 94 76.5s54.5 56.334 77.5 86.001s40.667 60.834 53 93.501s18.5 65 18.5 97c0 80 -42.667 120 -128 120
c-42.667 0 -83.334 -5.66699 -122.001 -17l15 124c39.333 13.333 88.666 20 147.999 20c88 0 152.167 -20.667 192.5 -62s60.5 -95.333 60.5 -162c0 -120.667 -70.667 -238 -212 -352v-10c101.333 0 181.666 2.66699 240.999 8z" />
    <glyph glyph-name="threequarters" unicode="&#xbe;" horiz-adv-x="1550" 
d="M563 833c0 -36 -9 -70.168 -27 -102.501s-44.833 -62.5 -80.5 -90.5s-83.5 -51 -143.5 -69s-129.667 -29 -209 -33l-25 107c108 12 187.333 32.333 238 61s76 65 76 109c0 74 -81.333 111 -244 111l18 110c78 0 132 5.66699 162 17s45 33.333 45 66
c0 24 -8.66699 41.667 -26 53s-47.333 17 -90 17c-28.667 0 -75.667 -7 -141 -21l9 126c54.667 14.667 118 22 190 22c60 0 111.167 -12.667 153.5 -38s63.5 -66 63.5 -122c0 -66 -33.667 -112.667 -101 -140v-8c38 -11.333 69.5 -30.166 94.5 -56.499
s37.5 -65.833 37.5 -118.5zM1358 1315c0 -44 -165.833 -265.999 -497.5 -665.999s-497.5 -630.333 -497.5 -691l-165 20c0 47.333 165.667 269.166 497 665.499s497 626.833 497 691.5zM1428 339l-16 -131.999h-82c0 -31.333 0.833008 -68 2.5 -110s3.5 -84 5.5 -126h-170
c2 42.667 3.5 83.334 4.5 122.001s1.5 76.667 1.5 114h-273l-13 96c0 6.66699 12.333 28.167 37 64.5s65.667 93.666 123 171.999s92 131.166 104 158.499h187c-2 -35.333 -4 -82.333 -6 -141s-3 -134 -3 -226c29.333 0 62 2.66699 98 8zM1178 551.001h-5.00098
c-6.66699 -27.333 -52.667 -99 -138 -215v-9h52c38.667 0 67.667 0.333008 87 1c0.666992 18.667 1.33398 47 2.00098 85c1.33301 65.333 2 111.333 2 138z" />
    <glyph glyph-name="questiondown" unicode="&#xbf;" horiz-adv-x="723" 
d="M669 -172l-23 -189.001c-207.333 0 -359.833 21.833 -457.5 65.5s-146.5 122.5 -146.5 236.5c0 144 93 259 279 345l21 151h133l38 -213c-143.333 -41.333 -215 -110.666 -215 -207.999c0 -118 123.667 -180.667 371 -188zM600 820.999c0 -48 -16.833 -90 -50.5 -126
s-80.5 -54 -140.5 -54c-50.667 0 -89.667 15.5 -117 46.5s-41 68.5 -41 112.5c0 49.333 16.667 92.333 50 129s80 55 140 55c50 0 89 -16 117 -48s42 -70.333 42 -115z" />
    <glyph glyph-name="Agrave" unicode="&#xc0;" horiz-adv-x="1290" 
d="M1279 0l-320 -0.000976562c0 44 -30.333 168.667 -91 374h-462c-62.667 -202 -94 -326.667 -94 -374h-301c0 26 77.833 239.333 233.5 640s233.5 621.334 233.5 662.001h378c0 -38 70.5 -255.5 211.5 -652.5s211.5 -613.5 211.5 -649.5zM817 564.999
c-114 344 -171 530 -171 558h-16c0 -26 -59 -212 -177 -558h364zM787 1416l-174.999 -0.000976562c-6.66699 10.667 -54.334 57 -143.001 139s-133 127 -133 135h291c0 -7.33301 26.667 -52.166 80 -134.499s80 -128.833 80 -139.5z" />
    <glyph glyph-name="Aacute" unicode="&#xc1;" horiz-adv-x="1290" 
d="M1279 0l-320 -0.000976562c0 44 -30.333 168.667 -91 374h-462c-62.667 -202 -94 -326.667 -94 -374h-301c0 26 77.833 239.333 233.5 640s233.5 621.334 233.5 662.001h378c0 -38 70.5 -255.5 211.5 -652.5s211.5 -613.5 211.5 -649.5zM817 564.999
c-114 344 -171 530 -171 558h-16c0 -26 -59 -212 -177 -558h364zM987 1690c0 -8 -44.332 -52.999 -132.999 -134.999s-136.334 -128.333 -143.001 -139h-175c0 10.667 26.667 57.167 80 139.5s80 127.166 80 134.499h291z" />
    <glyph glyph-name="Acircumflex" unicode="&#xc2;" horiz-adv-x="1290" 
d="M1279 0l-320 -0.000976562c0 44 -30.333 168.667 -91 374h-462c-62.667 -202 -94 -326.667 -94 -374h-301c0 26 77.833 239.333 233.5 640s233.5 621.334 233.5 662.001h378c0 -38 70.5 -255.5 211.5 -652.5s211.5 -613.5 211.5 -649.5zM817 564.999
c-114 344 -171 530 -171 558h-16c0 -26 -59 -212 -177 -558h364zM994 1416h-155c-6.66699 10.667 -62 55.334 -166 134.001c-104 -78.667 -159.333 -123.334 -166 -134.001h-155c0 10.667 33.333 57.167 100 139.5s100 127.166 100 134.499h242
c0 -7.33301 33.333 -52.166 100 -134.499s100 -128.833 100 -139.5z" />
    <glyph glyph-name="Atilde" unicode="&#xc3;" horiz-adv-x="1290" 
d="M1279 0l-320 -0.000976562c0 44 -30.333 168.667 -91 374h-462c-62.667 -202 -94 -326.667 -94 -374h-301c0 26 77.833 239.333 233.5 640s233.5 621.334 233.5 662.001h378c0 -38 70.5 -255.5 211.5 -652.5s211.5 -613.5 211.5 -649.5zM817 564.999
c-114 344 -171 530 -171 558h-16c0 -26 -59 -212 -177 -558h364zM1051 1625c-74.667 -130.667 -159.999 -196 -255.999 -196c-30.667 0 -71.167 7.66699 -121.5 23s-88.833 23 -115.5 23c-60.667 0 -119.334 -22.333 -176.001 -67l-89 75c74.667 124 160 186 256 186
c33.333 0 74.666 -7.66699 123.999 -23s87 -23 113 -23c60.667 0 119.334 25.667 176.001 77z" />
    <glyph glyph-name="Adieresis" unicode="&#xc4;" horiz-adv-x="1290" 
d="M1279 0l-320 -0.000976562c0 44 -30.333 168.667 -91 374h-462c-62.667 -202 -94 -326.667 -94 -374h-301c0 26 77.833 239.333 233.5 640s233.5 621.334 233.5 662.001h378c0 -38 70.5 -255.5 211.5 -652.5s211.5 -613.5 211.5 -649.5zM817 564.999
c-114 344 -171 530 -171 558h-16c0 -26 -59 -212 -177 -558h364zM997 1567c0 -38.667 -13.168 -72.499 -39.501 -101.499s-63.166 -43.5 -110.499 -43.5c-40 0 -71.167 12.5 -93.5 37.5s-33.5 55.167 -33.5 90.5c0 38 13.5 71.333 40.5 100s64.167 43 111.5 43
c40 0 70.833 -12.333 92.5 -37s32.5 -54.334 32.5 -89.001zM601.999 1567c0 -38.667 -13.1689 -72.499 -39.502 -101.499s-63.166 -43.5 -110.499 -43.5c-39.333 0 -70.166 12.5 -92.499 37.5s-33.5 55.167 -33.5 90.5c0 38.667 13.333 72.167 40 100.5
s63.667 42.5 111 42.5c40 0 70.833 -12.333 92.5 -37s32.5 -54.334 32.5 -89.001z" />
    <glyph glyph-name="Aring" unicode="&#xc5;" horiz-adv-x="1290" 
d="M1279 0l-320 -0.000976562c0 44 -30.333 168.667 -91 374h-462c-62.667 -202 -94 -326.667 -94 -374h-301c0 26 77.833 239.333 233.5 640s233.5 621.334 233.5 662.001h378c0 -38 70.5 -255.5 211.5 -652.5s211.5 -613.5 211.5 -649.5zM817 564.999
c-114 344 -171 530 -171 558h-16c0 -26 -59 -212 -177 -558h364zM919 1605c0 -76.667 -25.833 -137.5 -77.5 -182.5s-110.834 -67.5 -177.501 -67.5c-60 0 -111.833 19.167 -155.5 57.5s-65.5 92.833 -65.5 163.5c0 76 25.833 136 77.5 180s110.834 66 177.501 66
c60 0 111.833 -18.833 155.5 -56.5s65.5 -91.167 65.5 -160.5zM805 1596c0 40 -11.167 70.668 -33.5 92.001s-49.5 32 -81.5 32c-34.667 0 -65.334 -12.333 -92.001 -37s-40 -58.334 -40 -101.001c0 -40 11.167 -70.833 33.5 -92.5s49.5 -32.5 81.5 -32.5
c34.667 0 65.334 12.5 92.001 37.5s40 58.833 40 101.5z" />
    <glyph glyph-name="AE" unicode="&#xc6;" horiz-adv-x="1695" 
d="M1618 220l-8 -219.999h-860c7.33301 123.333 11 248 11 374h-371c-60.667 -193.333 -91 -318 -91 -374h-288c0 25.333 78 238 234 638s234 621.333 234 664h1091l-9 -219c-209.333 10.667 -395.333 16 -558 16c8 -94 12 -203.333 12 -328
c129.333 0 282.666 2.66699 459.999 8v-206c-164.667 6.66699 -318 10 -460 10c0 -128.667 2.33301 -255.334 7 -380.001c184.667 0 383.334 5.66699 596.001 17zM763 565.001c0 216.667 -3.33301 394.667 -10 534h-131c0 -26 -61.667 -204 -185 -534h326z" />
    <glyph glyph-name="Ccedilla" unicode="&#xc7;" horiz-adv-x="1131" 
d="M1076 237l-16.999 -230c-94.667 -22.667 -188 -34 -280 -34c-34.667 0 -67.667 1.66699 -99 5l-9 -70c126 -31.333 189 -96.333 189 -195c0 -151.333 -82 -227 -246 -227l-24 112c26.667 0 49.667 9.83301 69 29.5s29 41.5 29 65.5c0 67.333 -43 109 -129 125l30 173
c-140.667 27.333 -261.167 94.333 -361.5 201s-150.5 250.334 -150.5 431.001c0 186 63.667 348.667 191 488s301.333 209 522 209c81.333 0 158.333 -9.33301 231 -28l-35 -231c-78.667 25.333 -154 38 -226 38c-134 0 -234.333 -42.833 -301 -128.5
s-100 -189.834 -100 -312.501c0 -125.333 39.167 -234 117.5 -326s188.166 -138 329.499 -138c82.667 0 172.667 14.333 270 43z" />
    <glyph glyph-name="Egrave" unicode="&#xc8;" horiz-adv-x="1080" 
d="M1003 220l-8.00098 -220h-851c8.66699 201.333 13 428.333 13 681c0 242.667 -4.33301 449.667 -13 621h812l-11 -219c-200 10.667 -381.333 16 -544 16c6.66699 -92.667 10 -202 10 -328c139.333 0 288.333 3.66699 447 11v-209c-156 6.66699 -305 10 -447 10
c0 -135.333 2.66699 -262 8 -380c182.667 0 377.334 5.66699 584.001 17zM716.999 1416l-174.999 -0.000976562c-6.66699 10.667 -54.334 57 -143.001 139s-133 127 -133 135h291c0 -7.33301 26.667 -52.166 80 -134.499s80 -128.833 80 -139.5z" />
    <glyph glyph-name="Eacute" unicode="&#xc9;" horiz-adv-x="1080" 
d="M1003 220l-8.00098 -220h-851c8.66699 201.333 13 428.333 13 681c0 242.667 -4.33301 449.667 -13 621h812l-11 -219c-200 10.667 -381.333 16 -544 16c6.66699 -92.667 10 -202 10 -328c139.333 0 288.333 3.66699 447 11v-209c-156 6.66699 -305 10 -447 10
c0 -135.333 2.66699 -262 8 -380c182.667 0 377.334 5.66699 584.001 17zM918.999 1690c0 -8 -44.332 -52.999 -132.999 -134.999s-136.334 -128.333 -143.001 -139h-175c0 10.667 26.667 57.167 80 139.5s80 127.166 80 134.499h291z" />
    <glyph glyph-name="Ecircumflex" unicode="&#xca;" horiz-adv-x="1080" 
d="M1003 220l-8.00098 -220h-851c8.66699 201.333 13 428.333 13 681c0 242.667 -4.33301 449.667 -13 621h812l-11 -219c-200 10.667 -381.333 16 -544 16c6.66699 -92.667 10 -202 10 -328c139.333 0 288.333 3.66699 447 11v-209c-156 6.66699 -305 10 -447 10
c0 -135.333 2.66699 -262 8 -380c182.667 0 377.334 5.66699 584.001 17zM914.999 1416h-155c-6.66699 10.667 -62 55.334 -166 134.001c-104 -78.667 -159.333 -123.334 -166 -134.001h-155c0 10.667 33.333 57.167 100 139.5s100 127.166 100 134.499h242
c0 -7.33301 33.333 -52.166 100 -134.499s100 -128.833 100 -139.5z" />
    <glyph glyph-name="Edieresis" unicode="&#xcb;" horiz-adv-x="1080" 
d="M1003 220l-8.00098 -220h-851c8.66699 201.333 13 428.333 13 681c0 242.667 -4.33301 449.667 -13 621h812l-11 -219c-200 10.667 -381.333 16 -544 16c6.66699 -92.667 10 -202 10 -328c139.333 0 288.333 3.66699 447 11v-209c-156 6.66699 -305 10 -447 10
c0 -135.333 2.66699 -262 8 -380c182.667 0 377.334 5.66699 584.001 17zM901.999 1567c0 -38.667 -13.168 -72.499 -39.501 -101.499s-63.166 -43.5 -110.499 -43.5c-40 0 -71.167 12.5 -93.5 37.5s-33.5 55.167 -33.5 90.5c0 38 13.5 71.333 40.5 100s64.167 43 111.5 43
c40 0 70.833 -12.333 92.5 -37s32.5 -54.334 32.5 -89.001zM506.998 1567c0 -38.667 -13.1689 -72.499 -39.502 -101.499s-63.166 -43.5 -110.499 -43.5c-39.333 0 -70.166 12.5 -92.499 37.5s-33.5 55.167 -33.5 90.5c0 38.667 13.333 72.167 40 100.5
s63.667 42.5 111 42.5c40 0 70.833 -12.333 92.5 -37s32.5 -54.334 32.5 -89.001z" />
    <glyph glyph-name="Igrave" unicode="&#xcc;" horiz-adv-x="571" 
d="M427 0h-283c8.66699 206.667 13 433.667 13 681c0 243.333 -4.33301 450.333 -13 621h283c-8.66699 -168 -13 -375 -13 -621c0 -251.333 4.33301 -478.333 13 -681zM413 1416l-174.999 -0.000976562c-6.66699 10.667 -54.334 57 -143.001 139s-133 127 -133 135h291
c0 -7.33301 26.667 -52.166 80 -134.499s80 -128.833 80 -139.5z" />
    <glyph glyph-name="Iacute" unicode="&#xcd;" horiz-adv-x="571" 
d="M427 0h-283c8.66699 206.667 13 433.667 13 681c0 243.333 -4.33301 450.333 -13 621h283c-8.66699 -168 -13 -375 -13 -621c0 -251.333 4.33301 -478.333 13 -681zM630 1690c0 -8 -44.332 -52.999 -132.999 -134.999s-136.334 -128.333 -143.001 -139h-175
c0 10.667 26.667 57.167 80 139.5s80 127.166 80 134.499h291z" />
    <glyph glyph-name="Icircumflex" unicode="&#xce;" horiz-adv-x="571" 
d="M427 0h-283c8.66699 206.667 13 433.667 13 681c0 243.333 -4.33301 450.333 -13 621h283c-8.66699 -168 -13 -375 -13 -621c0 -251.333 4.33301 -478.333 13 -681zM608 1416h-155c-6.66699 10.667 -62 55.334 -166 134.001
c-104 -78.667 -159.333 -123.334 -166 -134.001h-155c0 10.667 33.333 57.167 100 139.5s100 127.166 100 134.499h242c0 -7.33301 33.333 -52.166 100 -134.499s100 -128.833 100 -139.5z" />
    <glyph glyph-name="Idieresis" unicode="&#xcf;" horiz-adv-x="571" 
d="M427 0h-283c8.66699 206.667 13 433.667 13 681c0 243.333 -4.33301 450.333 -13 621h283c-8.66699 -168 -13 -375 -13 -621c0 -251.333 4.33301 -478.333 13 -681zM622 1567c0 -38.667 -13.168 -72.499 -39.501 -101.499s-63.166 -43.5 -110.499 -43.5
c-40 0 -71.167 12.5 -93.5 37.5s-33.5 55.167 -33.5 90.5c0 38 13.5 71.333 40.5 100s64.167 43 111.5 43c40 0 70.833 -12.333 92.5 -37s32.5 -54.334 32.5 -89.001zM226.999 1567c0 -38.667 -13.1689 -72.499 -39.502 -101.499s-63.166 -43.5 -110.499 -43.5
c-39.333 0 -70.166 12.5 -92.499 37.5s-33.5 55.167 -33.5 90.5c0 38.667 13.333 72.167 40 100.5s63.667 42.5 111 42.5c40 0 70.833 -12.333 92.5 -37s32.5 -54.334 32.5 -89.001z" />
    <glyph glyph-name="Eth" unicode="&#xd0;" horiz-adv-x="1321" 
d="M1244 696c0 -188 -60.3311 -353 -180.998 -495s-288 -213 -502 -213c-104.667 0 -243.667 4 -417 12c8.66699 165.333 13 359.333 13 582c-37.333 -2.66699 -86 -7.33398 -146 -14.001l9 179c53.333 -0.666992 99 -1 137 -1c0 204.667 -4.33301 390 -13 556h175
c29.333 0 72.666 1 129.999 3s100.333 3 129 3c223.333 0 390.166 -58.667 500.499 -176s165.5 -262.666 165.5 -435.999zM971.002 653c0 126 -38.332 233.334 -114.999 322.001s-189.667 133 -339 133c-34 0 -73.333 -2.66699 -118 -8
c8 -92.667 11.667 -208.334 11 -347.001c66 3.33301 175.667 12 329 26l-9 -176c-46.667 0 -153.334 -2.33301 -320.001 -7c0 -149.333 3 -279 9 -389c43.333 -8.66699 88.333 -13 135 -13c140 0 244.5 44.5 313.5 133.5s103.5 197.5 103.5 325.5z" />
    <glyph glyph-name="Ntilde" unicode="&#xd1;" horiz-adv-x="1361" 
d="M1217 0l-247 0.00292969c0 27.333 -91.667 171.666 -275 432.999c-192 275.333 -301.333 463.666 -328 564.999h-16c16.667 -146 25 -278 25 -396c0 -164.667 4.66699 -365.334 14 -602.001h-246c10 206.667 15 433.667 15 681c0 243.333 -5 450.333 -15 621h297
c0 -35.333 82.333 -176.333 247 -423c175.333 -262 276 -439.667 302 -533h15c-16 148.667 -24 282 -24 400c0 180.667 -4.66699 366 -14 556h250c-9.33301 -165.333 -14 -372.333 -14 -621c0 -250.667 4.66699 -477.667 14 -681zM1063 1625
c-74.667 -130.667 -159.999 -196 -255.999 -196c-30.667 0 -71.167 7.66699 -121.5 23s-88.833 23 -115.5 23c-60.667 0 -119.334 -22.333 -176.001 -67l-89 75c74.667 124 160 186 256 186c33.333 0 74.666 -7.66699 123.999 -23s87 -23 113 -23
c60.667 0 119.334 25.667 176.001 77z" />
    <glyph glyph-name="Ograve" unicode="&#xd2;" horiz-adv-x="1427" 
d="M1350 675c0 -204.667 -62.667 -374.336 -188 -509.003s-280.333 -202 -465 -202c-176 0 -323.333 61.833 -442 185.5s-178 280.834 -178 471.501c0 204.667 62.667 374.334 188 509.001s280.333 202 465 202c176 0 323.333 -61.667 442 -185s178 -280.666 178 -471.999z
M1074 645.998c0 139.333 -35.667 252.331 -107 338.998s-159.333 130 -264 130c-97.333 0 -180 -43.667 -248 -131s-102 -197.666 -102 -330.999c0 -138.667 35.833 -251.5 107.5 -338.5s159.5 -130.5 263.5 -130.5c97.333 0 180 43.833 248 131.5s102 197.834 102 330.501z
M839 1416l-174.999 -0.000976562c-6.66699 10.667 -54.334 57 -143.001 139s-133 127 -133 135h291c0 -7.33301 26.667 -52.166 80 -134.499s80 -128.833 80 -139.5z" />
    <glyph glyph-name="Oacute" unicode="&#xd3;" horiz-adv-x="1427" 
d="M1350 675c0 -204.667 -62.667 -374.336 -188 -509.003s-280.333 -202 -465 -202c-176 0 -323.333 61.833 -442 185.5s-178 280.834 -178 471.501c0 204.667 62.667 374.334 188 509.001s280.333 202 465 202c176 0 323.333 -61.667 442 -185s178 -280.666 178 -471.999z
M1074 645.998c0 139.333 -35.667 252.331 -107 338.998s-159.333 130 -264 130c-97.333 0 -180 -43.667 -248 -131s-102 -197.666 -102 -330.999c0 -138.667 35.833 -251.5 107.5 -338.5s159.5 -130.5 263.5 -130.5c97.333 0 180 43.833 248 131.5s102 197.834 102 330.501z
M1106 1690c0 -8 -44.332 -52.999 -132.999 -134.999s-136.334 -128.333 -143.001 -139h-175c0 10.667 26.667 57.167 80 139.5s80 127.166 80 134.499h291z" />
    <glyph glyph-name="Ocircumflex" unicode="&#xd4;" horiz-adv-x="1427" 
d="M1350 675c0 -204.667 -62.667 -374.336 -188 -509.003s-280.333 -202 -465 -202c-176 0 -323.333 61.833 -442 185.5s-178 280.834 -178 471.501c0 204.667 62.667 374.334 188 509.001s280.333 202 465 202c176 0 323.333 -61.667 442 -185s178 -280.666 178 -471.999z
M1074 645.998c0 139.333 -35.667 252.331 -107 338.998s-159.333 130 -264 130c-97.333 0 -180 -43.667 -248 -131s-102 -197.666 -102 -330.999c0 -138.667 35.833 -251.5 107.5 -338.5s159.5 -130.5 263.5 -130.5c97.333 0 180 43.833 248 131.5s102 197.834 102 330.501z
M1042 1416h-155c-6.66699 10.667 -62 55.334 -166 134.001c-104 -78.667 -159.333 -123.334 -166 -134.001h-155c0 10.667 33.333 57.167 100 139.5s100 127.166 100 134.499h242c0 -7.33301 33.333 -52.166 100 -134.499s100 -128.833 100 -139.5z" />
    <glyph glyph-name="Otilde" unicode="&#xd5;" horiz-adv-x="1427" 
d="M1350 675c0 -204.667 -62.667 -374.336 -188 -509.003s-280.333 -202 -465 -202c-176 0 -323.333 61.833 -442 185.5s-178 280.834 -178 471.501c0 204.667 62.667 374.334 188 509.001s280.333 202 465 202c176 0 323.333 -61.667 442 -185s178 -280.666 178 -471.999z
M1074 645.998c0 139.333 -35.667 252.331 -107 338.998s-159.333 130 -264 130c-97.333 0 -180 -43.667 -248 -131s-102 -197.666 -102 -330.999c0 -138.667 35.833 -251.5 107.5 -338.5s159.5 -130.5 263.5 -130.5c97.333 0 180 43.833 248 131.5s102 197.834 102 330.501z
M1145 1625c-74.667 -130.667 -159.999 -196 -255.999 -196c-30.667 0 -71.167 7.66699 -121.5 23s-88.833 23 -115.5 23c-60.667 0 -119.334 -22.333 -176.001 -67l-89 75c74.667 124 160 186 256 186c33.333 0 74.666 -7.66699 123.999 -23s87 -23 113 -23
c60.667 0 119.334 25.667 176.001 77z" />
    <glyph glyph-name="Odieresis" unicode="&#xd6;" horiz-adv-x="1427" 
d="M1350 675c0 -204.667 -62.667 -374.336 -188 -509.003s-280.333 -202 -465 -202c-176 0 -323.333 61.833 -442 185.5s-178 280.834 -178 471.501c0 204.667 62.667 374.334 188 509.001s280.333 202 465 202c176 0 323.333 -61.667 442 -185s178 -280.666 178 -471.999z
M1074 645.998c0 139.333 -35.667 252.331 -107 338.998s-159.333 130 -264 130c-97.333 0 -180 -43.667 -248 -131s-102 -197.666 -102 -330.999c0 -138.667 35.833 -251.5 107.5 -338.5s159.5 -130.5 263.5 -130.5c97.333 0 180 43.833 248 131.5s102 197.834 102 330.501z
M1067 1567c0 -38.667 -13.168 -72.499 -39.501 -101.499s-63.166 -43.5 -110.499 -43.5c-40 0 -71.167 12.5 -93.5 37.5s-33.5 55.167 -33.5 90.5c0 38 13.5 71.333 40.5 100s64.167 43 111.5 43c40 0 70.833 -12.333 92.5 -37s32.5 -54.334 32.5 -89.001zM671.999 1567
c0 -38.667 -13.1689 -72.499 -39.502 -101.499s-63.166 -43.5 -110.499 -43.5c-39.333 0 -70.166 12.5 -92.499 37.5s-33.5 55.167 -33.5 90.5c0 38.667 13.333 72.167 40 100.5s63.667 42.5 111 42.5c40 0 70.833 -12.333 92.5 -37s32.5 -54.334 32.5 -89.001z" />
    <glyph glyph-name="multiply" unicode="&#xd7;" horiz-adv-x="1024" 
d="M880 739l-241 -240l226 -226l-127 -127l-226 226l-240 -241l-128 128l241 240l-227 226l128 128l226 -227l240 241z" />
    <glyph glyph-name="Oslash" unicode="&#xd8;" horiz-adv-x="1427" 
d="M1360 1322c0 -28.667 -48 -103.668 -144 -225.001c90.667 -118 136 -258.667 136 -422c0 -204.667 -62.667 -374.334 -188 -509.001s-280.333 -202 -465 -202c-133.333 0 -252 37.667 -356 113c-86.667 -107.333 -130 -172.666 -130 -195.999l-147 42
c0 26.667 57 109.667 171 249c-105.333 121.333 -158 271 -158 449c0 204.667 62.667 374.334 188 509.001s280.333 202 465 202c145.333 0 272.333 -43.667 381 -131c65.333 84 98 136.667 98 158zM954 1004c-68 74 -151 110.999 -249 110.999
c-97.333 0 -180 -43.667 -248 -131s-102 -197.666 -102 -330.999c0 -100.667 20.333 -189.667 61 -267zM1076 645.998c0 84 -14.333 159.666 -43 226.999l-529 -603c64 -57.333 138 -86 222 -86c97.333 0 180 43.833 248 131.5s102 197.834 102 330.501z" />
    <glyph glyph-name="Ugrave" unicode="&#xd9;" horiz-adv-x="1347" 
d="M1225 1302c-6 -224 -9 -448.001 -9 -672.001c0 -442.667 -181.333 -664 -544 -664c-179.333 0 -314.333 49 -405 147s-136 274 -136 528c0 224 -3 444.333 -9 661h283c-8.66699 -225.333 -13 -442.666 -13 -651.999c0 -183.333 23.333 -309 70 -377
s118.667 -102 216 -102c102 0 175.667 33.833 221 101.5s68 194.167 68 379.5c0 203.333 -4.33301 420 -13 650h271zM804 1416l-174.999 -0.000976562c-6.66699 10.667 -54.334 57 -143.001 139s-133 127 -133 135h291c0 -7.33301 26.667 -52.166 80 -134.499
s80 -128.833 80 -139.5z" />
    <glyph glyph-name="Uacute" unicode="&#xda;" horiz-adv-x="1347" 
d="M1225 1302c-6 -224 -9 -448.001 -9 -672.001c0 -442.667 -181.333 -664 -544 -664c-179.333 0 -314.333 49 -405 147s-136 274 -136 528c0 224 -3 444.333 -9 661h283c-8.66699 -225.333 -13 -442.666 -13 -651.999c0 -183.333 23.333 -309 70 -377
s118.667 -102 216 -102c102 0 175.667 33.833 221 101.5s68 194.167 68 379.5c0 203.333 -4.33301 420 -13 650h271zM1025 1690c0 -8 -44.332 -52.999 -132.999 -134.999s-136.334 -128.333 -143.001 -139h-175c0 10.667 26.667 57.167 80 139.5s80 127.166 80 134.499h291z
" />
    <glyph glyph-name="Ucircumflex" unicode="&#xdb;" horiz-adv-x="1347" 
d="M1225 1302c-6 -224 -9 -448.001 -9 -672.001c0 -442.667 -181.333 -664 -544 -664c-179.333 0 -314.333 49 -405 147s-136 274 -136 528c0 224 -3 444.333 -9 661h283c-8.66699 -225.333 -13 -442.666 -13 -651.999c0 -183.333 23.333 -309 70 -377
s118.667 -102 216 -102c102 0 175.667 33.833 221 101.5s68 194.167 68 379.5c0 203.333 -4.33301 420 -13 650h271zM997 1416h-155c-6.66699 10.667 -62 55.334 -166 134.001c-104 -78.667 -159.333 -123.334 -166 -134.001h-155c0 10.667 33.333 57.167 100 139.5
s100 127.166 100 134.499h242c0 -7.33301 33.333 -52.166 100 -134.499s100 -128.833 100 -139.5z" />
    <glyph glyph-name="Udieresis" unicode="&#xdc;" horiz-adv-x="1347" 
d="M1225 1302c-6 -224 -9 -448.001 -9 -672.001c0 -442.667 -181.333 -664 -544 -664c-179.333 0 -314.333 49 -405 147s-136 274 -136 528c0 224 -3 444.333 -9 661h283c-8.66699 -225.333 -13 -442.666 -13 -651.999c0 -183.333 23.333 -309 70 -377
s118.667 -102 216 -102c102 0 175.667 33.833 221 101.5s68 194.167 68 379.5c0 203.333 -4.33301 420 -13 650h271zM1018 1567c0 -38.667 -13.168 -72.499 -39.501 -101.499s-63.166 -43.5 -110.499 -43.5c-40 0 -71.167 12.5 -93.5 37.5s-33.5 55.167 -33.5 90.5
c0 38 13.5 71.333 40.5 100s64.167 43 111.5 43c40 0 70.833 -12.333 92.5 -37s32.5 -54.334 32.5 -89.001zM622.999 1567c0 -38.667 -13.1689 -72.499 -39.502 -101.499s-63.166 -43.5 -110.499 -43.5c-39.333 0 -70.166 12.5 -92.499 37.5s-33.5 55.167 -33.5 90.5
c0 38.667 13.333 72.167 40 100.5s63.667 42.5 111 42.5c40 0 70.833 -12.333 92.5 -37s32.5 -54.334 32.5 -89.001z" />
    <glyph glyph-name="Yacute" unicode="&#xdd;" horiz-adv-x="1130" 
d="M1119 1302c0 -27.333 -38 -101.001 -114 -221.001c-116.667 -183.333 -187.667 -297.333 -213 -342c-76 -135.333 -114 -235.666 -114 -300.999c0 -146.667 4 -292.667 12 -438h-284c7.33301 146 11 293 11 441c0 68 -35 171 -105 309c-32.667 64 -98 178.333 -196 343
c-70 118 -105 187.667 -105 209h314c0 -24 41.833 -125.167 125.5 -303.5s125.5 -293.5 125.5 -345.5h16c0 48 40.833 157.333 122.5 328s122.5 277.667 122.5 321h282zM944 1690c0 -8 -44.332 -52.999 -132.999 -134.999s-136.334 -128.333 -143.001 -139h-175
c0 10.667 26.667 57.167 80 139.5s80 127.166 80 134.499h291z" />
    <glyph glyph-name="Thorn" unicode="&#xde;" horiz-adv-x="1138" 
d="M1094 798c0 -157.333 -59.5 -274.501 -178.5 -351.501s-270.5 -115.5 -454.5 -115.5h-47c0 -83.333 2.66699 -193.666 8 -330.999h-278c8 211.333 12 439.333 12 684c0 238 -4 444 -12 618h284c-4 -48 -7 -102 -9 -162c76.667 3.33301 151 5 223 5
c126.667 0 233.667 -28.667 321 -86s131 -144.333 131 -261zM836 742.999c0 142.667 -94.667 213.999 -284 213.999c-44 0 -89.333 -5 -136 -15c-1.33301 -127.333 -2 -270.666 -2 -429.999h57c243.333 0 365 77 365 231z" />
    <glyph glyph-name="germandbls" unicode="&#xdf;" horiz-adv-x="1112" 
d="M1046 270c0 -90.667 -35.832 -162 -107.499 -214s-160.167 -78 -265.5 -78c-74 0 -139 8 -195 24l21 176c50.667 -18.667 106 -28 166 -28c91.333 0 137 30.667 137 92c0 41.333 -43.667 103 -131 185c-98 92 -147 179 -147 261c0 57.333 21.667 115 65 173l121 136
c43.333 50 65 94 65 132c0 87.333 -63.333 131 -190 131c-66.667 0 -122.667 -27.333 -168 -82s-68 -141.667 -68 -261c0 -346 5 -651.667 15 -917h-265c6.66699 221.333 10 520 10 896c0 178 50.833 312.5 152.5 403.5s218.167 136.5 349.5 136.5
c111.333 0 200.666 -24 267.999 -72s101 -116.667 101 -206c0 -55.333 -20.333 -110 -61 -164l-113 -123c-40.667 -45.333 -61 -85.333 -61 -120c0 -42 39.667 -98 119 -168c121.333 -106.667 182 -211 182 -313z" />
    <glyph glyph-name="agrave" unicode="&#xe0;" horiz-adv-x="1006" 
d="M925 1l-236.001 -7.99902c-10.667 28 -16 53.333 -16 76h-13c-73.333 -62.667 -172.333 -94 -297 -94c-83.333 0 -152.5 23.167 -207.5 69.5s-82.5 107.833 -82.5 184.5c0 101.333 42.833 184.333 128.5 249s235.834 99 450.501 103c1.33301 12 2 23.333 2 34
c0 72 -17.333 119.5 -52 142.5s-98.334 34.5 -191.001 34.5c-100.667 0 -199 -13.333 -295 -40l22 184c90.667 31.333 218.667 47 384 47c120.667 0 213.834 -25.333 279.501 -76s98.5 -139.334 98.5 -266.001c0 -28 -1.16699 -79 -3.5 -153s-3.5 -123.333 -3.5 -148
c0 -138 10.667 -251 32 -339zM657.999 209.001c-4 90 -6.00098 167.667 -6.00098 233c-227.333 0 -341 -57.667 -341 -173c0 -79.333 50 -119 150 -119c78.667 0 144.334 19.667 197.001 59zM611.998 1086l-175 -0.000976562c0 10.667 -46 65.334 -138 164.001
s-138 152 -138 160h271c0 -7.33301 30 -60.5 90 -159.5s90 -153.833 90 -164.5z" />
    <glyph glyph-name="aacute" unicode="&#xe1;" horiz-adv-x="1006" 
d="M925 1l-236.001 -7.99902c-10.667 28 -16 53.333 -16 76h-13c-73.333 -62.667 -172.333 -94 -297 -94c-83.333 0 -152.5 23.167 -207.5 69.5s-82.5 107.833 -82.5 184.5c0 101.333 42.833 184.333 128.5 249s235.834 99 450.501 103c1.33301 12 2 23.333 2 34
c0 72 -17.333 119.5 -52 142.5s-98.334 34.5 -191.001 34.5c-100.667 0 -199 -13.333 -295 -40l22 184c90.667 31.333 218.667 47 384 47c120.667 0 213.834 -25.333 279.501 -76s98.5 -139.334 98.5 -266.001c0 -28 -1.16699 -79 -3.5 -153s-3.5 -123.333 -3.5 -148
c0 -138 10.667 -251 32 -339zM657.999 209.001c-4 90 -6.00098 167.667 -6.00098 233c-227.333 0 -341 -57.667 -341 -173c0 -79.333 50 -119 150 -119c78.667 0 144.334 19.667 197.001 59zM829.998 1410c0 -8 -46 -61.332 -138 -159.999s-138 -153.334 -138 -164.001h-175
c0 10.667 30 65.5 90 164.5s90 152.167 90 159.5h271z" />
    <glyph glyph-name="acircumflex" unicode="&#xe2;" horiz-adv-x="1006" 
d="M925 1l-236.001 -7.99902c-10.667 28 -16 53.333 -16 76h-13c-73.333 -62.667 -172.333 -94 -297 -94c-83.333 0 -152.5 23.167 -207.5 69.5s-82.5 107.833 -82.5 184.5c0 101.333 42.833 184.333 128.5 249s235.834 99 450.501 103c1.33301 12 2 23.333 2 34
c0 72 -17.333 119.5 -52 142.5s-98.334 34.5 -191.001 34.5c-100.667 0 -199 -13.333 -295 -40l22 184c90.667 31.333 218.667 47 384 47c120.667 0 213.834 -25.333 279.501 -76s98.5 -139.334 98.5 -266.001c0 -28 -1.16699 -79 -3.5 -153s-3.5 -123.333 -3.5 -148
c0 -138 10.667 -251 32 -339zM657.999 209.001c-4 90 -6.00098 167.667 -6.00098 233c-227.333 0 -341 -57.667 -341 -173c0 -79.333 50 -119 150 -119c78.667 0 144.334 19.667 197.001 59zM800.998 1086h-155c0 10.667 -55.333 75.334 -166 194.001
c-110.667 -118.667 -166 -183.334 -166 -194.001h-155c0 10.667 31.667 65.5 95 164.5s95 152.167 95 159.5h262c0 -7.33301 31.667 -60.5 95 -159.5s95 -153.833 95 -164.5z" />
    <glyph glyph-name="atilde" unicode="&#xe3;" horiz-adv-x="1006" 
d="M925 1l-236.001 -7.99902c-10.667 28 -16 53.333 -16 76h-13c-73.333 -62.667 -172.333 -94 -297 -94c-83.333 0 -152.5 23.167 -207.5 69.5s-82.5 107.833 -82.5 184.5c0 101.333 42.833 184.333 128.5 249s235.834 99 450.501 103c1.33301 12 2 23.333 2 34
c0 72 -17.333 119.5 -52 142.5s-98.334 34.5 -191.001 34.5c-100.667 0 -199 -13.333 -295 -40l22 184c90.667 31.333 218.667 47 384 47c120.667 0 213.834 -25.333 279.501 -76s98.5 -139.334 98.5 -266.001c0 -28 -1.16699 -79 -3.5 -153s-3.5 -123.333 -3.5 -148
c0 -138 10.667 -251 32 -339zM657.999 209.001c-4 90 -6.00098 167.667 -6.00098 233c-227.333 0 -341 -57.667 -341 -173c0 -79.333 50 -119 150 -119c78.667 0 144.334 19.667 197.001 59zM899.998 1355c-74.667 -150.667 -159.999 -226 -255.999 -226
c-30.667 0 -71.167 7.66699 -121.5 23s-88.833 23 -115.5 23c-60.667 0 -119.334 -35.667 -176.001 -107l-89 75c74.667 150.667 160 226 256 226c33.333 0 74.666 -7.66699 123.999 -23s87 -23 113 -23c60.667 0 119.334 35.667 176.001 107z" />
    <glyph glyph-name="adieresis" unicode="&#xe4;" horiz-adv-x="1006" 
d="M925 1l-236.001 -7.99902c-10.667 28 -16 53.333 -16 76h-13c-73.333 -62.667 -172.333 -94 -297 -94c-83.333 0 -152.5 23.167 -207.5 69.5s-82.5 107.833 -82.5 184.5c0 101.333 42.833 184.333 128.5 249s235.834 99 450.501 103c1.33301 12 2 23.333 2 34
c0 72 -17.333 119.5 -52 142.5s-98.334 34.5 -191.001 34.5c-100.667 0 -199 -13.333 -295 -40l22 184c90.667 31.333 218.667 47 384 47c120.667 0 213.834 -25.333 279.501 -76s98.5 -139.334 98.5 -266.001c0 -28 -1.16699 -79 -3.5 -153s-3.5 -123.333 -3.5 -148
c0 -138 10.667 -251 32 -339zM657.999 209.001c-4 90 -6.00098 167.667 -6.00098 233c-227.333 0 -341 -57.667 -341 -173c0 -79.333 50 -119 150 -119c78.667 0 144.334 19.667 197.001 59zM832.998 1251c0 -38.667 -13.168 -72.499 -39.501 -101.499
s-63.166 -43.5 -110.499 -43.5c-40 0 -71.167 12.5 -93.5 37.5s-33.5 55.167 -33.5 90.5c0 38 13.5 71.333 40.5 100s64.167 43 111.5 43c40 0 70.833 -12.333 92.5 -37s32.5 -54.334 32.5 -89.001zM437.997 1251c0 -38.667 -13.1689 -72.499 -39.502 -101.499
s-63.166 -43.5 -110.499 -43.5c-39.333 0 -70.166 12.5 -92.499 37.5s-33.5 55.167 -33.5 90.5c0 38.667 13.333 72.167 40 100.5s63.667 42.5 111 42.5c40 0 70.833 -12.333 92.5 -37s32.5 -54.334 32.5 -89.001z" />
    <glyph glyph-name="aring" unicode="&#xe5;" horiz-adv-x="1006" 
d="M925 1l-236.001 -7.99902c-10.667 28 -16 53.333 -16 76h-13c-73.333 -62.667 -172.333 -94 -297 -94c-83.333 0 -152.5 23.167 -207.5 69.5s-82.5 107.833 -82.5 184.5c0 101.333 42.833 184.333 128.5 249s235.834 99 450.501 103c1.33301 12 2 23.333 2 34
c0 72 -17.333 119.5 -52 142.5s-98.334 34.5 -191.001 34.5c-100.667 0 -199 -13.333 -295 -40l22 184c90.667 31.333 218.667 47 384 47c120.667 0 213.834 -25.333 279.501 -76s98.5 -139.334 98.5 -266.001c0 -28 -1.16699 -79 -3.5 -153s-3.5 -123.333 -3.5 -148
c0 -138 10.667 -251 32 -339zM657.999 209.001c-4 90 -6.00098 167.667 -6.00098 233c-227.333 0 -341 -57.667 -341 -173c0 -79.333 50 -119 150 -119c78.667 0 144.334 19.667 197.001 59zM742.998 1289c0 -76.667 -25.833 -137.5 -77.5 -182.5
s-110.834 -67.5 -177.501 -67.5c-60 0 -111.833 19.167 -155.5 57.5s-65.5 92.833 -65.5 163.5c0 76 25.833 136 77.5 180s110.834 66 177.501 66c60 0 111.833 -18.833 155.5 -56.5s65.5 -91.167 65.5 -160.5zM628.998 1280c0 40 -11.167 70.668 -33.5 92.001
s-49.5 32 -81.5 32c-34.667 0 -65.334 -12.333 -92.001 -37s-40 -58.334 -40 -101.001c0 -40 11.167 -70.833 33.5 -92.5s49.5 -32.5 81.5 -32.5c34.667 0 65.334 12.5 92.001 37.5s40 58.833 40 101.5z" />
    <glyph glyph-name="ae" unicode="&#xe6;" horiz-adv-x="1611" 
d="M1542 577c0 -34 -2 -78.332 -6 -132.999l-640 -11c9.33301 -76 40.833 -138.833 94.5 -188.5s125.5 -74.5 215.5 -74.5c100 0 206.667 15 320 45l-20 -194c-92.667 -33.333 -207 -50 -343 -50c-168 0 -298.333 54.333 -391 163h-16
c-64.667 -58 -122.834 -99 -174.501 -123s-124.5 -36 -218.5 -36c-83.333 0 -152.5 23.167 -207.5 69.5s-82.5 107.833 -82.5 184.5c0 101.333 42.833 184.333 128.5 249s235.834 99 450.501 103c1.33301 12 2 23.333 2 34c0 72 -17.5 119.5 -52.5 142.5
s-98.833 34.5 -191.5 34.5c-100.667 0 -199 -13.333 -295 -40l22 184c90.667 31.333 218.667 47 384 47c138 0 235.333 -34 292 -102h16c82.667 73.333 181.334 110 296.001 110c141.333 0 246.166 -38.333 314.499 -115s102.5 -176.334 102.5 -299.001zM696 235.001
c-32.667 68.667 -49.001 137.667 -49.001 207c-224.667 0 -337 -57.667 -337 -173c0 -79.333 50 -119 150 -119c78.667 0 157.334 28.333 236.001 85zM1308 586.001c0 153.333 -65 230 -195 230s-203 -79.333 -219 -238z" />
    <glyph glyph-name="ccedilla" unicode="&#xe7;" horiz-adv-x="912" 
d="M868 210l-16.999 -190.999c-67.333 -32 -149.666 -48 -246.999 -48c-23.333 0 -45 1 -65 3l-10 -66c126 -31.333 189 -96.333 189 -195c0 -151.333 -82 -227 -246 -227l-24 112c26.667 0 49.667 9.83301 69 29.5s29 41.5 29 65.5c0 67.333 -43 109 -129 125l29 170
c-98.667 22 -186.167 72.667 -262.5 152s-114.5 186.333 -114.5 321c0 140 48.333 262.167 145 366.5s229 156.5 397 156.5c82 0 155 -9.33301 219 -28l-34 -204c-61.333 25.333 -130 38 -206 38c-80.667 0 -144.334 -28.5 -191.001 -85.5s-70 -127.167 -70 -210.5
c0 -90.667 27.667 -167.334 83 -230.001s133.666 -94 234.999 -94c59.333 0 133 13.333 221 40z" />
    <glyph glyph-name="egrave" unicode="&#xe8;" horiz-adv-x="1049" 
d="M980 577c0 -34 -1.99902 -78.332 -5.99902 -132.999l-644 -11c9.33301 -75.333 41.666 -138 96.999 -188s128 -75 218 -75c100 0 206.333 15 319 45l-20 -194c-92 -33.333 -206 -50 -342 -50c-172 0 -303.833 48.333 -395.5 145s-137.5 213 -137.5 349
c0 142 43.5 265.167 130.5 369.5s207.833 156.5 362.5 156.5c141.333 0 246.333 -38.333 315 -115s103 -176.334 103 -299.001zM746.001 586.001c0 153.333 -65.333 230 -196 230c-124.667 0 -198.667 -79.333 -222 -238zM672.001 1086l-175 -0.000976562
c0 10.667 -46 65.334 -138 164.001s-138 152 -138 160h271c0 -7.33301 30 -60.5 90 -159.5s90 -153.833 90 -164.5z" />
    <glyph glyph-name="eacute" unicode="&#xe9;" horiz-adv-x="1049" 
d="M980 577c0 -34 -1.99902 -78.332 -5.99902 -132.999l-644 -11c9.33301 -75.333 41.666 -138 96.999 -188s128 -75 218 -75c100 0 206.333 15 319 45l-20 -194c-92 -33.333 -206 -50 -342 -50c-172 0 -303.833 48.333 -395.5 145s-137.5 213 -137.5 349
c0 142 43.5 265.167 130.5 369.5s207.833 156.5 362.5 156.5c141.333 0 246.333 -38.333 315 -115s103 -176.334 103 -299.001zM746.001 586.001c0 153.333 -65.333 230 -196 230c-124.667 0 -198.667 -79.333 -222 -238zM905.001 1410c0 -8 -46 -61.332 -138 -159.999
s-138 -153.334 -138 -164.001h-175c0 10.667 30 65.5 90 164.5s90 152.167 90 159.5h271z" />
    <glyph glyph-name="ecircumflex" unicode="&#xea;" horiz-adv-x="1049" 
d="M980 577c0 -34 -1.99902 -78.332 -5.99902 -132.999l-644 -11c9.33301 -75.333 41.666 -138 96.999 -188s128 -75 218 -75c100 0 206.333 15 319 45l-20 -194c-92 -33.333 -206 -50 -342 -50c-172 0 -303.833 48.333 -395.5 145s-137.5 213 -137.5 349
c0 142 43.5 265.167 130.5 369.5s207.833 156.5 362.5 156.5c141.333 0 246.333 -38.333 315 -115s103 -176.334 103 -299.001zM746.001 586.001c0 153.333 -65.333 230 -196 230c-124.667 0 -198.667 -79.333 -222 -238zM876.001 1086h-155
c0 10.667 -55.333 75.334 -166 194.001c-110.667 -118.667 -166 -183.334 -166 -194.001h-155c0 10.667 31.667 65.5 95 164.5s95 152.167 95 159.5h262c0 -7.33301 31.667 -60.5 95 -159.5s95 -153.833 95 -164.5z" />
    <glyph glyph-name="edieresis" unicode="&#xeb;" horiz-adv-x="1049" 
d="M980 577c0 -34 -1.99902 -78.332 -5.99902 -132.999l-644 -11c9.33301 -75.333 41.666 -138 96.999 -188s128 -75 218 -75c100 0 206.333 15 319 45l-20 -194c-92 -33.333 -206 -50 -342 -50c-172 0 -303.833 48.333 -395.5 145s-137.5 213 -137.5 349
c0 142 43.5 265.167 130.5 369.5s207.833 156.5 362.5 156.5c141.333 0 246.333 -38.333 315 -115s103 -176.334 103 -299.001zM746.001 586.001c0 153.333 -65.333 230 -196 230c-124.667 0 -198.667 -79.333 -222 -238zM893.001 1251
c0 -38.667 -13.168 -72.499 -39.501 -101.499s-63.166 -43.5 -110.499 -43.5c-40 0 -71.167 12.5 -93.5 37.5s-33.5 55.167 -33.5 90.5c0 38 13.5 71.333 40.5 100s64.167 43 111.5 43c40 0 70.833 -12.333 92.5 -37s32.5 -54.334 32.5 -89.001zM498 1251
c0 -38.667 -13.1689 -72.499 -39.502 -101.499s-63.166 -43.5 -110.499 -43.5c-39.333 0 -70.166 12.5 -92.499 37.5s-33.5 55.167 -33.5 90.5c0 38.667 13.333 72.167 40 100.5s63.667 42.5 111 42.5c40 0 70.833 -12.333 92.5 -37s32.5 -54.334 32.5 -89.001z" />
    <glyph glyph-name="igrave" unicode="&#xec;" horiz-adv-x="510" 
d="M395 0h-269c9.33301 138 14 296.333 14 475c0 177.333 -11.333 332.666 -34 465.999l288 29c-8.66699 -129.333 -13 -294.333 -13 -495c0 -171.333 4.66699 -329.666 14 -474.999zM393 1086l-175 -0.000976562c0 10.667 -46 65.334 -138 164.001s-138 152 -138 160h271
c0 -7.33301 30 -60.5 90 -159.5s90 -153.833 90 -164.5z" />
    <glyph glyph-name="iacute" unicode="&#xed;" horiz-adv-x="510" 
d="M395 0h-269c9.33301 138 14 296.333 14 475c0 177.333 -11.333 332.666 -34 465.999l288 29c-8.66699 -129.333 -13 -294.333 -13 -495c0 -171.333 4.66699 -329.666 14 -474.999zM608 1410c0 -8 -46 -61.332 -138 -159.999s-138 -153.334 -138 -164.001h-175
c0 10.667 30 65.5 90 164.5s90 152.167 90 159.5h271z" />
    <glyph glyph-name="icircumflex" unicode="&#xee;" horiz-adv-x="510" 
d="M395 0h-269c9.33301 138 14 296.333 14 475c0 177.333 -11.333 332.666 -34 465.999l288 29c-8.66699 -129.333 -13 -294.333 -13 -495c0 -171.333 4.66699 -329.666 14 -474.999zM582 1086h-155c0 10.667 -55.333 75.334 -166 194.001
c-110.667 -118.667 -166 -183.334 -166 -194.001h-155c0 10.667 31.667 65.5 95 164.5s95 152.167 95 159.5h262c0 -7.33301 31.667 -60.5 95 -159.5s95 -153.833 95 -164.5z" />
    <glyph glyph-name="idieresis" unicode="&#xef;" horiz-adv-x="510" 
d="M395 0h-269c9.33301 138 14 296.333 14 475c0 177.333 -11.333 332.666 -34 465.999l288 29c-8.66699 -129.333 -13 -294.333 -13 -495c0 -171.333 4.66699 -329.666 14 -474.999zM600 1251c0 -38.667 -13.168 -72.499 -39.501 -101.499s-63.166 -43.5 -110.499 -43.5
c-40 0 -71.167 12.5 -93.5 37.5s-33.5 55.167 -33.5 90.5c0 38 13.5 71.333 40.5 100s64.167 43 111.5 43c40 0 70.833 -12.333 92.5 -37s32.5 -54.334 32.5 -89.001zM204.999 1251c0 -38.667 -13.1689 -72.499 -39.502 -101.499s-63.166 -43.5 -110.499 -43.5
c-39.333 0 -70.166 12.5 -92.499 37.5s-33.5 55.167 -33.5 90.5c0 38.667 13.333 72.167 40 100.5s63.667 42.5 111 42.5c40 0 70.833 -12.333 92.5 -37s32.5 -54.334 32.5 -89.001z" />
    <glyph glyph-name="eth" unicode="&#xf0;" horiz-adv-x="1130" 
d="M1065 580c0 -174 -44.167 -320.501 -132.5 -439.501s-210.833 -178.5 -367.5 -178.5c-158 0 -279.667 48.167 -365 144.5s-128 212.5 -128 348.5c0 124.667 41.667 237.5 125 338.5s199.666 151.5 348.999 151.5c66.667 0 134.667 -21.333 204 -64h16
c-24 105.333 -64 191.333 -120 258c-58.667 -32 -112.667 -66 -162 -102l-89 142c26.667 11.333 84.667 34.333 174 69c-49.333 43.333 -93.666 80 -132.999 110l129 101c37.333 -19.333 91 -57.666 161 -114.999c50 30.667 105.333 67.667 166 111l88 -145
c-26.667 -11.333 -76.667 -34.333 -150 -69c156.667 -166 235 -386.333 235 -661zM808 493.999c0 86.667 -5.33301 153.666 -16 200.999c-64.667 40.667 -137 61 -217 61c-76.667 0 -135.5 -31 -176.5 -93s-61.5 -132.667 -61.5 -212c0 -83.333 20 -154.5 60 -213.5
s96 -88.5 168 -88.5c74 0 133 33.333 177 100s66 148.334 66 245.001z" />
    <glyph glyph-name="ntilde" unicode="&#xf1;" horiz-adv-x="1126" 
d="M1015 0l-266.001 -0.000976562c14.667 168.667 22 339.334 22 512.001c0 104.667 -15.5 175.667 -46.5 213s-78.167 56 -141.5 56c-76 0 -148 -26 -216 -78c3.33301 -260 5 -494.333 5 -703h-269c12 208.667 18 372.667 18 492c0 159.333 -16.333 309.666 -49 450.999
l256 28l17 -106h16c91.333 78.667 196.333 118 315 118c102.667 0 184.834 -24.167 246.501 -72.5s92.5 -137.5 92.5 -267.5c0 -19.333 -0.833008 -45.166 -2.5 -77.499s-2.5 -65.5 -2.5 -99.5c0 -90 1.66699 -245.333 5 -466zM959.999 1355
c-74.667 -150.667 -159.999 -226 -255.999 -226c-30.667 0 -71.167 7.66699 -121.5 23s-88.833 23 -115.5 23c-60.667 0 -119.334 -35.667 -176.001 -107l-89 75c74.667 150.667 160 226 256 226c33.333 0 74.666 -7.66699 123.999 -23s87 -23 113 -23
c60.667 0 119.334 35.667 176.001 107z" />
    <glyph glyph-name="ograve" unicode="&#xf2;" horiz-adv-x="1144" 
d="M1075 497c0 -168 -51.668 -299.333 -155.001 -394s-225 -142 -365 -142c-133.333 0 -247.666 43.167 -342.999 129.5s-143 207.833 -143 364.5c0 168.667 52 300.667 156 396s226 143 366 143c132.667 0 246.5 -43.5 341.5 -130.5s142.5 -209.167 142.5 -366.5z
M813.999 467c0 96.667 -22.667 177.834 -68 243.501s-104.333 98.5 -177 98.5c-70.667 0 -128.167 -30.667 -172.5 -92s-66.5 -138 -66.5 -230c0 -96.667 22.667 -177.834 68 -243.501s104.333 -98.5 177 -98.5c70.667 0 128.167 30.667 172.5 92s66.5 138 66.5 230z
M701.999 1086l-175 -0.000976562c0 10.667 -46 65.334 -138 164.001s-138 152 -138 160h271c0 -7.33301 30 -60.5 90 -159.5s90 -153.833 90 -164.5z" />
    <glyph glyph-name="oacute" unicode="&#xf3;" horiz-adv-x="1144" 
d="M1075 497c0 -168 -51.668 -299.333 -155.001 -394s-225 -142 -365 -142c-133.333 0 -247.666 43.167 -342.999 129.5s-143 207.833 -143 364.5c0 168.667 52 300.667 156 396s226 143 366 143c132.667 0 246.5 -43.5 341.5 -130.5s142.5 -209.167 142.5 -366.5z
M813.999 467c0 96.667 -22.667 177.834 -68 243.501s-104.333 98.5 -177 98.5c-70.667 0 -128.167 -30.667 -172.5 -92s-66.5 -138 -66.5 -230c0 -96.667 22.667 -177.834 68 -243.501s104.333 -98.5 177 -98.5c70.667 0 128.167 30.667 172.5 92s66.5 138 66.5 230z
M924.999 1410c0 -8 -46 -61.332 -138 -159.999s-138 -153.334 -138 -164.001h-175c0 10.667 30 65.5 90 164.5s90 152.167 90 159.5h271z" />
    <glyph glyph-name="ocircumflex" unicode="&#xf4;" horiz-adv-x="1144" 
d="M1075 497c0 -168 -51.668 -299.333 -155.001 -394s-225 -142 -365 -142c-133.333 0 -247.666 43.167 -342.999 129.5s-143 207.833 -143 364.5c0 168.667 52 300.667 156 396s226 143 366 143c132.667 0 246.5 -43.5 341.5 -130.5s142.5 -209.167 142.5 -366.5z
M813.999 467c0 96.667 -22.667 177.834 -68 243.501s-104.333 98.5 -177 98.5c-70.667 0 -128.167 -30.667 -172.5 -92s-66.5 -138 -66.5 -230c0 -96.667 22.667 -177.834 68 -243.501s104.333 -98.5 177 -98.5c70.667 0 128.167 30.667 172.5 92s66.5 138 66.5 230z
M910.999 1086h-155c0 10.667 -55.333 75.334 -166 194.001c-110.667 -118.667 -166 -183.334 -166 -194.001h-155c0 10.667 31.667 65.5 95 164.5s95 152.167 95 159.5h262c0 -7.33301 31.667 -60.5 95 -159.5s95 -153.833 95 -164.5z" />
    <glyph glyph-name="otilde" unicode="&#xf5;" horiz-adv-x="1144" 
d="M1075 497c0 -168 -51.668 -299.333 -155.001 -394s-225 -142 -365 -142c-133.333 0 -247.666 43.167 -342.999 129.5s-143 207.833 -143 364.5c0 168.667 52 300.667 156 396s226 143 366 143c132.667 0 246.5 -43.5 341.5 -130.5s142.5 -209.167 142.5 -366.5z
M813.999 467c0 96.667 -22.667 177.834 -68 243.501s-104.333 98.5 -177 98.5c-70.667 0 -128.167 -30.667 -172.5 -92s-66.5 -138 -66.5 -230c0 -96.667 22.667 -177.834 68 -243.501s104.333 -98.5 177 -98.5c70.667 0 128.167 30.667 172.5 92s66.5 138 66.5 230z
M999.999 1355c-74.667 -150.667 -159.999 -226 -255.999 -226c-30.667 0 -71.167 7.66699 -121.5 23s-88.833 23 -115.5 23c-60.667 0 -119.334 -35.667 -176.001 -107l-89 75c74.667 150.667 160 226 256 226c33.333 0 74.666 -7.66699 123.999 -23s87 -23 113 -23
c60.667 0 119.334 35.667 176.001 107z" />
    <glyph glyph-name="odieresis" unicode="&#xf6;" horiz-adv-x="1144" 
d="M1075 497c0 -168 -51.668 -299.333 -155.001 -394s-225 -142 -365 -142c-133.333 0 -247.666 43.167 -342.999 129.5s-143 207.833 -143 364.5c0 168.667 52 300.667 156 396s226 143 366 143c132.667 0 246.5 -43.5 341.5 -130.5s142.5 -209.167 142.5 -366.5z
M813.999 467c0 96.667 -22.667 177.834 -68 243.501s-104.333 98.5 -177 98.5c-70.667 0 -128.167 -30.667 -172.5 -92s-66.5 -138 -66.5 -230c0 -96.667 22.667 -177.834 68 -243.501s104.333 -98.5 177 -98.5c70.667 0 128.167 30.667 172.5 92s66.5 138 66.5 230z
M932.999 1251c0 -38.667 -13.168 -72.499 -39.501 -101.499s-63.166 -43.5 -110.499 -43.5c-40 0 -71.167 12.5 -93.5 37.5s-33.5 55.167 -33.5 90.5c0 38 13.5 71.333 40.5 100s64.167 43 111.5 43c40 0 70.833 -12.333 92.5 -37s32.5 -54.334 32.5 -89.001zM537.998 1251
c0 -38.667 -13.1689 -72.499 -39.502 -101.499s-63.166 -43.5 -110.499 -43.5c-39.333 0 -70.166 12.5 -92.499 37.5s-33.5 55.167 -33.5 90.5c0 38.667 13.333 72.167 40 100.5s63.667 42.5 111 42.5c40 0 70.833 -12.333 92.5 -37s32.5 -54.334 32.5 -89.001z" />
    <glyph glyph-name="divide" unicode="&#xf7;" 
d="M921 409h-810v180h810v-180zM652 173c0 -38.667 -12.333 -71.667 -37 -99c-28 -30.667 -65.667 -46 -113 -46c-40 0 -71.667 13 -95 39c-21.333 24 -32 53.667 -32 89c0 38 12.667 70.667 38 98c28.667 30 66.667 45 114 45c40 0 71.333 -13 94 -39
c20.667 -23.333 31 -52.333 31 -87zM658 844c0 -38.667 -12.333 -71.667 -37 -99c-28 -30.667 -65.667 -46 -113 -46c-40 0 -71.667 13 -95 39c-21.333 24 -32 53.667 -32 89c0 38 12.667 70.667 38 98c28.667 30 66.667 45 114 45c40 0 71.333 -13 94 -39
c20.667 -23.333 31 -52.333 31 -87z" />
    <glyph glyph-name="oslash" unicode="&#xf8;" horiz-adv-x="1144" 
d="M1100 981c0 -24.667 -38.999 -82.666 -116.999 -173.999c61.333 -83.333 92 -186.666 92 -309.999c0 -168.667 -51.667 -300.167 -155 -394.5s-225 -141.5 -365 -141.5c-107.333 0 -202 28 -284 84c-78.667 -88 -118 -141 -118 -159l-111 42
c0 23.333 47.333 87.666 142 192.999c-76.667 88 -115 199.333 -115 334c0 168.667 52 300.667 156 396s226 143 366 143c121.333 0 225.666 -35.333 312.999 -106c56 67.333 84 110.666 84 129.999zM745.001 711.001c-46 65.333 -104.667 98 -176 98
c-70.667 0 -128.167 -30.667 -172.5 -92s-66.5 -138 -66.5 -230c0 -65.333 11 -124 33 -176zM814.001 467.001c0 46.667 -6.66699 90.667 -20 132l-370 -387c42.667 -44.667 93 -67 151 -67c70.667 0 128.167 30.667 172.5 92s66.5 138 66.5 230z" />
    <glyph glyph-name="ugrave" unicode="&#xf9;" horiz-adv-x="1107" 
d="M1005 1l-233.999 -8c-10.667 36 -16 64.667 -16 86h-16c-87.333 -72 -189.333 -108 -306 -108c-110 0 -192.833 28.833 -248.5 86.5s-83.5 172.834 -83.5 345.501c0 20.667 0.5 49.667 1.5 87s1.5 70 1.5 98c0 74 -6.33301 192 -19 354l279 10
c-10.667 -128 -16 -249.333 -16 -364c0 -163.333 12.167 -273.333 36.5 -330s72.166 -85 143.499 -85c78 0 145.333 18.667 202 56c0 350.667 -4 588.667 -12 714l270 9c-6.66699 -126 -10 -289.333 -10 -490c0 -148.667 9 -302.334 27 -461.001zM672.001 1086
l-175 -0.000976562c0 10.667 -46 65.334 -138 164.001s-138 152 -138 160h271c0 -7.33301 30 -60.5 90 -159.5s90 -153.833 90 -164.5z" />
    <glyph glyph-name="uacute" unicode="&#xfa;" horiz-adv-x="1107" 
d="M1005 1l-233.999 -8c-10.667 36 -16 64.667 -16 86h-16c-87.333 -72 -189.333 -108 -306 -108c-110 0 -192.833 28.833 -248.5 86.5s-83.5 172.834 -83.5 345.501c0 20.667 0.5 49.667 1.5 87s1.5 70 1.5 98c0 74 -6.33301 192 -19 354l279 10
c-10.667 -128 -16 -249.333 -16 -364c0 -163.333 12.167 -273.333 36.5 -330s72.166 -85 143.499 -85c78 0 145.333 18.667 202 56c0 350.667 -4 588.667 -12 714l270 9c-6.66699 -126 -10 -289.333 -10 -490c0 -148.667 9 -302.334 27 -461.001zM885.001 1410
c0 -8 -46 -61.332 -138 -159.999s-138 -153.334 -138 -164.001h-175c0 10.667 30 65.5 90 164.5s90 152.167 90 159.5h271z" />
    <glyph glyph-name="ucircumflex" unicode="&#xfb;" horiz-adv-x="1107" 
d="M1005 1l-233.999 -8c-10.667 36 -16 64.667 -16 86h-16c-87.333 -72 -189.333 -108 -306 -108c-110 0 -192.833 28.833 -248.5 86.5s-83.5 172.834 -83.5 345.501c0 20.667 0.5 49.667 1.5 87s1.5 70 1.5 98c0 74 -6.33301 192 -19 354l279 10
c-10.667 -128 -16 -249.333 -16 -364c0 -163.333 12.167 -273.333 36.5 -330s72.166 -85 143.499 -85c78 0 145.333 18.667 202 56c0 350.667 -4 588.667 -12 714l270 9c-6.66699 -126 -10 -289.333 -10 -490c0 -148.667 9 -302.334 27 -461.001zM886.001 1086h-155
c0 10.667 -55.333 75.334 -166 194.001c-110.667 -118.667 -166 -183.334 -166 -194.001h-155c0 10.667 31.667 65.5 95 164.5s95 152.167 95 159.5h262c0 -7.33301 31.667 -60.5 95 -159.5s95 -153.833 95 -164.5z" />
    <glyph glyph-name="udieresis" unicode="&#xfc;" horiz-adv-x="1107" 
d="M1005 1l-233.999 -8c-10.667 36 -16 64.667 -16 86h-16c-87.333 -72 -189.333 -108 -306 -108c-110 0 -192.833 28.833 -248.5 86.5s-83.5 172.834 -83.5 345.501c0 20.667 0.5 49.667 1.5 87s1.5 70 1.5 98c0 74 -6.33301 192 -19 354l279 10
c-10.667 -128 -16 -249.333 -16 -364c0 -163.333 12.167 -273.333 36.5 -330s72.166 -85 143.499 -85c78 0 145.333 18.667 202 56c0 350.667 -4 588.667 -12 714l270 9c-6.66699 -126 -10 -289.333 -10 -490c0 -148.667 9 -302.334 27 -461.001zM893.001 1251
c0 -38.667 -13.168 -72.499 -39.501 -101.499s-63.166 -43.5 -110.499 -43.5c-40 0 -71.167 12.5 -93.5 37.5s-33.5 55.167 -33.5 90.5c0 38 13.5 71.333 40.5 100s64.167 43 111.5 43c40 0 70.833 -12.333 92.5 -37s32.5 -54.334 32.5 -89.001zM498 1251
c0 -38.667 -13.1689 -72.499 -39.502 -101.499s-63.166 -43.5 -110.499 -43.5c-39.333 0 -70.166 12.5 -92.499 37.5s-33.5 55.167 -33.5 90.5c0 38.667 13.333 72.167 40 100.5s63.667 42.5 111 42.5c40 0 70.833 -12.333 92.5 -37s32.5 -54.334 32.5 -89.001z" />
    <glyph glyph-name="yacute" unicode="&#xfd;" horiz-adv-x="1002" 
d="M968 950c0 -43.333 -47.668 -180.669 -143.001 -412.002c-108.667 -266 -175.667 -447.333 -201 -544c-43.333 -166.667 -101.666 -281.667 -174.999 -345c-70.667 -61.333 -176.667 -92 -318 -92l-20 193c82.667 0 150.667 23.5 204 70.5s80 109.833 80 188.5
c0 79.333 -60 252.833 -180 520.5s-180 407.834 -180 420.501h309c0 -23.333 30.333 -136.333 91 -339s91 -326.667 91 -372h14c0 38.667 27.5 152.834 82.5 342.501s82.5 312.5 82.5 368.5h263zM874.999 1410c0 -8 -46 -61.332 -138 -159.999s-138 -153.334 -138 -164.001
h-175c0 10.667 30 65.5 90 164.5s90 152.167 90 159.5h271z" />
    <glyph glyph-name="thorn" unicode="&#xfe;" horiz-adv-x="1136" 
d="M1067 516c0 -144.667 -41.501 -271.665 -124.501 -380.998s-196.833 -164 -341.5 -164c-103.333 0 -177.333 21 -222 63h-14c0 -157.333 4.33301 -321 13 -491h-282c16 337.333 24 723.666 24 1159c0 263.333 -11 498 -33 704l287 16
c-6.66699 -155.333 -10 -331 -10 -527h12c70.667 59.333 165.334 89 284.001 89c127.333 0 227 -45.833 299 -137.5s108 -201.834 108 -330.501zM800.999 490.002c0 83.333 -21.332 155.5 -63.999 216.5s-101 91.5 -175 91.5c-92 0 -159.333 -27 -202 -81
c0 -228 2 -399.667 6 -515c41.333 -32.667 95.333 -49 162 -49c89.333 0 157.166 33.167 203.499 99.5s69.5 145.5 69.5 237.5z" />
    <glyph glyph-name="ydieresis" unicode="&#xff;" horiz-adv-x="1002" 
d="M968 950c0 -43.333 -47.668 -180.669 -143.001 -412.002c-108.667 -266 -175.667 -447.333 -201 -544c-43.333 -166.667 -101.666 -281.667 -174.999 -345c-70.667 -61.333 -176.667 -92 -318 -92l-20 193c82.667 0 150.667 23.5 204 70.5s80 109.833 80 188.5
c0 79.333 -60 252.833 -180 520.5s-180 407.834 -180 420.501h309c0 -23.333 30.333 -136.333 91 -339s91 -326.667 91 -372h14c0 38.667 27.5 152.834 82.5 342.501s82.5 312.5 82.5 368.5h263zM872.999 1251c0 -38.667 -13.168 -72.499 -39.501 -101.499
s-63.166 -43.5 -110.499 -43.5c-40 0 -71.167 12.5 -93.5 37.5s-33.5 55.167 -33.5 90.5c0 38 13.5 71.333 40.5 100s64.167 43 111.5 43c40 0 70.833 -12.333 92.5 -37s32.5 -54.334 32.5 -89.001zM477.998 1251c0 -38.667 -13.1689 -72.499 -39.502 -101.499
s-63.166 -43.5 -110.499 -43.5c-39.333 0 -70.166 12.5 -92.499 37.5s-33.5 55.167 -33.5 90.5c0 38.667 13.333 72.167 40 100.5s63.667 42.5 111 42.5c40 0 70.833 -12.333 92.5 -37s32.5 -54.334 32.5 -89.001z" />
    <glyph glyph-name="Amacron" unicode="&#x100;" horiz-adv-x="1290" 
d="M1279 0l-320 -0.000976562c0 44 -30.333 168.667 -91 374h-462c-62.667 -202 -94 -326.667 -94 -374h-301c0 26 77.833 239.333 233.5 640s233.5 621.334 233.5 662.001h378c0 -38 70.5 -255.5 211.5 -652.5s211.5 -613.5 211.5 -649.5zM817 564.999
c-114 344 -171 530 -171 558h-16c0 -26 -59 -212 -177 -558h364zM920 1621l-12 -174h-504l11 174h505z" />
    <glyph glyph-name="amacron" unicode="&#x101;" horiz-adv-x="1006" 
d="M925 1l-236.001 -7.99902c-10.667 28 -16 53.333 -16 76h-13c-73.333 -62.667 -172.333 -94 -297 -94c-83.333 0 -152.5 23.167 -207.5 69.5s-82.5 107.833 -82.5 184.5c0 101.333 42.833 184.333 128.5 249s235.834 99 450.501 103c1.33301 12 2 23.333 2 34
c0 72 -17.333 119.5 -52 142.5s-98.334 34.5 -191.001 34.5c-100.667 0 -199 -13.333 -295 -40l22 184c90.667 31.333 218.667 47 384 47c120.667 0 213.834 -25.333 279.501 -76s98.5 -139.334 98.5 -266.001c0 -28 -1.16699 -79 -3.5 -153s-3.5 -123.333 -3.5 -148
c0 -138 10.667 -251 32 -339zM657.999 209.001c-4 90 -6.00098 167.667 -6.00098 233c-227.333 0 -341 -57.667 -341 -173c0 -79.333 50 -119 150 -119c78.667 0 144.334 19.667 197.001 59zM750.998 1335l-12 -174h-484l11 174h485z" />
    <glyph glyph-name="Abreve" unicode="&#x102;" horiz-adv-x="1290" 
d="M1279 0l-320 -0.000976562c0 44 -30.333 168.667 -91 374h-462c-62.667 -202 -94 -326.667 -94 -374h-301c0 26 77.833 239.333 233.5 640s233.5 621.334 233.5 662.001h378c0 -38 70.5 -255.5 211.5 -652.5s211.5 -613.5 211.5 -649.5zM817 564.999
c-114 344 -171 530 -171 558h-16c0 -26 -59 -212 -177 -558h364zM981 1630c-62.667 -167.333 -171.667 -251 -327 -251c-164 0 -273.667 83.667 -329 251l132 60c48 -98 113.333 -147 196 -147c80 0 145.333 49 196 147z" />
    <glyph glyph-name="abreve" unicode="&#x103;" horiz-adv-x="1006" 
d="M925 1l-236.001 -7.99902c-10.667 28 -16 53.333 -16 76h-13c-73.333 -62.667 -172.333 -94 -297 -94c-83.333 0 -152.5 23.167 -207.5 69.5s-82.5 107.833 -82.5 184.5c0 101.333 42.833 184.333 128.5 249s235.834 99 450.501 103c1.33301 12 2 23.333 2 34
c0 72 -17.333 119.5 -52 142.5s-98.334 34.5 -191.001 34.5c-100.667 0 -199 -13.333 -295 -40l22 184c90.667 31.333 218.667 47 384 47c120.667 0 213.834 -25.333 279.501 -76s98.5 -139.334 98.5 -266.001c0 -28 -1.16699 -79 -3.5 -153s-3.5 -123.333 -3.5 -148
c0 -138 10.667 -251 32 -339zM657.999 209.001c-4 90 -6.00098 167.667 -6.00098 233c-227.333 0 -341 -57.667 -341 -173c0 -79.333 50 -119 150 -119c78.667 0 144.334 19.667 197.001 59zM841.998 1360c-62.667 -190.667 -171.666 -286 -326.999 -286
c-164 0 -273.667 95.333 -329 286l132 60c61.333 -121.333 126.666 -182 195.999 -182c66.667 0 132 60.667 196 182z" />
    <glyph glyph-name="Aogonek" unicode="&#x104;" horiz-adv-x="1290" 
d="M1279 0c-186.667 -20.667 -280.001 -88.001 -280.001 -202.001c0 -84.667 39.667 -127 119 -127c20.667 0 47 3.33301 79 10l28 -149c-41.333 -12 -87.666 -18 -138.999 -18c-95.333 0 -164.333 19 -207 57c-44.667 40.667 -67 93.667 -67 159
c0 109.333 49 199.333 147 270c0 44 -30.333 168.667 -91 374h-462c-62.667 -202 -94 -326.667 -94 -374h-301c0 26 77.833 239.333 233.5 640s233.5 621.334 233.5 662.001h378c0 -38 70.5 -255.5 211.5 -652.5s211.5 -613.5 211.5 -649.5zM816.999 564.999
c-114 344 -171 530 -171 558h-16c0 -26 -59 -212 -177 -558h364z" />
    <glyph glyph-name="aogonek" unicode="&#x105;" horiz-adv-x="1006" 
d="M925 0c-138.667 -20.667 -208.002 -87.998 -208.002 -201.998c0 -84.667 39.667 -127 119 -127c20.667 0 47 3.33301 79 10l28 -149c-41.333 -12 -87.666 -18 -138.999 -18c-95.333 0 -164.833 19.667 -208.5 59s-65.5 91.666 -65.5 156.999
c0 109.333 53 197.333 159 264c-10.667 27.333 -16 52.333 -16 75h-13c-73.333 -62.667 -172.333 -94 -297 -94c-83.333 0 -152.5 23.167 -207.5 69.5s-82.5 107.833 -82.5 184.5c0 101.333 42.833 184.333 128.5 249s235.834 99 450.501 103c1.33301 12 2 23.333 2 34
c0 72 -17.333 119.5 -52 142.5s-98.334 34.5 -191.001 34.5c-100.667 0 -199 -13.333 -295 -40l22 184c90.667 31.333 218.667 47 384 47c120.667 0 213.834 -25.333 279.501 -76s98.5 -139.334 98.5 -266.001c0 -28 -1.16699 -79 -3.5 -153s-3.5 -123.333 -3.5 -148
c0 -138 10.667 -251.333 32 -340zM657.998 209.002c-4 90 -6.00098 167.667 -6.00098 233c-227.333 0 -341 -57.667 -341 -173c0 -79.333 50 -119 150 -119c78.667 0 144.334 19.667 197.001 59z" />
    <glyph glyph-name="Cacute" unicode="&#x106;" horiz-adv-x="1131" 
d="M1076 237l-16.998 -229.999c-94.667 -22.667 -188 -34 -280 -34c-228.667 0 -402.834 63.167 -522.501 189.5s-179.5 279.833 -179.5 460.5c0 187.333 63.5 350.333 190.5 489s301.167 208 522.5 208c81.333 0 158.333 -9.33301 231 -28l-35 -231
c-78.667 25.333 -154 38 -226 38c-135.333 0 -236 -42.833 -302 -128.5s-99 -189.834 -99 -312.501c0 -125.333 39.167 -234 117.5 -326s188.166 -138 329.499 -138c82.667 0 172.667 14.333 270 43zM1125 1690c0 -8 -44.332 -52.999 -132.999 -134.999
s-136.334 -128.333 -143.001 -139h-175c0 10.667 26.667 57.167 80 139.5s80 127.166 80 134.499h291z" />
    <glyph glyph-name="cacute" unicode="&#x107;" horiz-adv-x="912" 
d="M868 210l-16.998 -190.999c-60.667 -32 -143 -48 -247 -48c-172 0 -304.167 48 -396.5 144s-138.5 211.333 -138.5 346c0 140 48.333 262.167 145 366.5s229 156.5 397 156.5c82 0 155 -9.33301 219 -28l-34 -204c-61.333 25.333 -130 38 -206 38
c-80.667 0 -144.334 -28.5 -191.001 -85.5s-70 -127.167 -70 -210.5c0 -90.667 27.667 -167.334 83 -230.001s133.666 -94 234.999 -94c59.333 0 133 13.333 221 40zM919.002 1410c0 -8 -46 -61.332 -138 -159.999s-138 -153.334 -138 -164.001h-175
c0 10.667 30 65.5 90 164.5s90 152.167 90 159.5h271z" />
    <glyph glyph-name="Ccircumflex" unicode="&#x108;" horiz-adv-x="1131" 
d="M1076 237l-16.998 -229.999c-94.667 -22.667 -188 -34 -280 -34c-228.667 0 -402.834 63.167 -522.501 189.5s-179.5 279.833 -179.5 460.5c0 187.333 63.5 350.333 190.5 489s301.167 208 522.5 208c81.333 0 158.333 -9.33301 231 -28l-35 -231
c-78.667 25.333 -154 38 -226 38c-135.333 0 -236 -42.833 -302 -128.5s-99 -189.834 -99 -312.501c0 -125.333 39.167 -234 117.5 -326s188.166 -138 329.499 -138c82.667 0 172.667 14.333 270 43zM1055 1416h-155c-6.66699 10.667 -62 55.334 -166 134.001
c-104 -78.667 -159.333 -123.334 -166 -134.001h-155c0 10.667 33.333 57.167 100 139.5s100 127.166 100 134.499h242c0 -7.33301 33.333 -52.166 100 -134.499s100 -128.833 100 -139.5z" />
    <glyph glyph-name="ccircumflex" unicode="&#x109;" horiz-adv-x="912" 
d="M868 210l-16.998 -190.999c-60.667 -32 -143 -48 -247 -48c-172 0 -304.167 48 -396.5 144s-138.5 211.333 -138.5 346c0 140 48.333 262.167 145 366.5s229 156.5 397 156.5c82 0 155 -9.33301 219 -28l-34 -204c-61.333 25.333 -130 38 -206 38
c-80.667 0 -144.334 -28.5 -191.001 -85.5s-70 -127.167 -70 -210.5c0 -90.667 27.667 -167.334 83 -230.001s133.666 -94 234.999 -94c59.333 0 133 13.333 221 40zM863.002 1086h-155c0 10.667 -55.333 75.334 -166 194.001
c-110.667 -118.667 -166 -183.334 -166 -194.001h-155c0 10.667 31.667 65.5 95 164.5s95 152.167 95 159.5h262c0 -7.33301 31.667 -60.5 95 -159.5s95 -153.833 95 -164.5z" />
    <glyph glyph-name="Cdotaccent" unicode="&#x10a;" horiz-adv-x="1131" 
d="M1076 237l-16.998 -229.999c-94.667 -22.667 -188 -34 -280 -34c-228.667 0 -402.834 63.167 -522.501 189.5s-179.5 279.833 -179.5 460.5c0 187.333 63.5 350.333 190.5 489s301.167 208 522.5 208c81.333 0 158.333 -9.33301 231 -28l-35 -231
c-78.667 25.333 -154 38 -226 38c-135.333 0 -236 -42.833 -302 -128.5s-99 -189.834 -99 -312.501c0 -125.333 39.167 -234 117.5 -326s188.166 -138 329.499 -138c82.667 0 172.667 14.333 270 43zM914.002 1566c0 -45.333 -15.5 -84.998 -46.5 -118.998
s-74.167 -51 -129.5 -51c-46.667 0 -83.167 14.667 -109.5 44s-39.5 64.666 -39.5 105.999c0 45.333 15.5 84.666 46.5 117.999s74.5 50 130.5 50c47.333 0 83.833 -14.5 109.5 -43.5s38.5 -63.833 38.5 -104.5z" />
    <glyph glyph-name="cdotaccent" unicode="&#x10b;" horiz-adv-x="912" 
d="M868 210l-16.998 -190.999c-60.667 -32 -143 -48 -247 -48c-172 0 -304.167 48 -396.5 144s-138.5 211.333 -138.5 346c0 140 48.333 262.167 145 366.5s229 156.5 397 156.5c82 0 155 -9.33301 219 -28l-34 -204c-61.333 25.333 -130 38 -206 38
c-80.667 0 -144.334 -28.5 -191.001 -85.5s-70 -127.167 -70 -210.5c0 -90.667 27.667 -167.334 83 -230.001s133.666 -94 234.999 -94c59.333 0 133 13.333 221 40zM752.002 1252c0 -45.333 -15.5 -84.998 -46.5 -118.998s-74.167 -51 -129.5 -51
c-46.667 0 -83.167 14.667 -109.5 44s-39.5 64.666 -39.5 105.999c0 45.333 15.5 84.666 46.5 117.999s74.5 50 130.5 50c47.333 0 83.833 -14.5 109.5 -43.5s38.5 -63.833 38.5 -104.5z" />
    <glyph glyph-name="Ccaron" unicode="&#x10c;" horiz-adv-x="1131" 
d="M1076 237l-16.998 -229.999c-94.667 -22.667 -188 -34 -280 -34c-228.667 0 -402.834 63.167 -522.501 189.5s-179.5 279.833 -179.5 460.5c0 187.333 63.5 350.333 190.5 489s301.167 208 522.5 208c81.333 0 158.333 -9.33301 231 -28l-35 -231
c-78.667 25.333 -154 38 -226 38c-135.333 0 -236 -42.833 -302 -128.5s-99 -189.834 -99 -312.501c0 -125.333 39.167 -234 117.5 -326s188.166 -138 329.499 -138c82.667 0 172.667 14.333 270 43zM1075 1690c0 -10.667 -33.333 -57.167 -100 -139.5
s-100 -127.166 -100 -134.499h-242c0 7.33301 -33.333 52.166 -100 134.499s-100 128.833 -100 139.5h155c6.66699 -10.667 62 -55.334 166 -134.001c104 78.667 159.333 123.334 166 134.001h155z" />
    <glyph glyph-name="ccaron" unicode="&#x10d;" horiz-adv-x="912" 
d="M868 210l-16.998 -190.999c-60.667 -32 -143 -48 -247 -48c-172 0 -304.167 48 -396.5 144s-138.5 211.333 -138.5 346c0 140 48.333 262.167 145 366.5s229 156.5 397 156.5c82 0 155 -9.33301 219 -28l-34 -204c-61.333 25.333 -130 38 -206 38
c-80.667 0 -144.334 -28.5 -191.001 -85.5s-70 -127.167 -70 -210.5c0 -90.667 27.667 -167.334 83 -230.001s133.666 -94 234.999 -94c59.333 0 133 13.333 221 40zM902.002 1410c0 -10.667 -31.667 -65.5 -95 -164.5s-95 -152.167 -95 -159.5h-262
c0 7.33301 -31.667 60.5 -95 159.5s-95 153.833 -95 164.5h155c0 -10.667 55.333 -75.334 166 -194.001c110.667 118.667 166 183.334 166 194.001h155z" />
    <glyph glyph-name="Dcaron" unicode="&#x10e;" horiz-adv-x="1321" 
d="M1244 696c0 -189.333 -60.668 -354.667 -182.001 -496s-291.333 -212 -510 -212c-98.667 0 -234.667 4 -408 12c8.66699 201.333 13 428.333 13 681c0 242.667 -4.33301 449.667 -13 621h175c28.667 0 71.334 1 128.001 3s93.667 3 111 3
c240.667 0 415.167 -60 523.5 -180s162.5 -264 162.5 -432zM970.999 652.999c0 128 -37.332 235.832 -111.999 323.499s-188.667 131.5 -342 131.5c-28.667 0 -68 -3 -118 -9c6.66699 -133.333 10 -272.666 10 -417.999c0 -159.333 3.33301 -317.333 10 -474
c43.333 -8.66699 86.666 -13 129.999 -13c143.333 0 249.5 44.5 318.5 133.5s103.5 197.5 103.5 325.5zM973 1690c0 -10.667 -33.333 -57.167 -100 -139.5s-100 -127.166 -100 -134.499h-242c0 7.33301 -33.333 52.166 -100 134.499s-100 128.833 -100 139.5h155
c6.66699 -10.667 62 -55.334 166 -134.001c104 78.667 159.333 123.334 166 134.001h155z" />
    <glyph glyph-name="dcaron" unicode="&#x10f;" horiz-adv-x="1342" 
d="M1027 1l-237 -7.99902c-4.66699 23.333 -7 47.666 -7 72.999h-15c-73.333 -63.333 -167 -95 -281 -95c-128 0 -229.667 46.333 -305 139s-113 202.667 -113 330c0 146 41 273.167 123 381.5s196 162.5 342 162.5c94.667 0 165.667 -17.667 213 -53h14
c0 157.333 -7.66699 315.666 -23 474.999l283 8c-10.667 -155.333 -16 -378.666 -16 -669.999c0 -295.333 7.33301 -543 22 -743zM776 228.001c0 212.667 -4.99902 388.667 -14.999 528c-46 32 -101 48 -165 48c-88 0 -153.333 -32.667 -196 -98s-64 -145.333 -64 -240
c0 -84 20.667 -156.5 62 -217.5s98.666 -91.5 171.999 -91.5c98 0 166.667 23.667 206 71zM1384 1177c0 -148 -68.001 -264.999 -204.001 -350.999l-66 55c36 59.333 54 117.333 54 174c-53.333 26 -80 66 -80 120c0 41.333 14.333 77.166 43 107.499
s68.334 45.5 119.001 45.5c42 0 74.833 -15.333 98.5 -46s35.5 -65.667 35.5 -105z" />
    <glyph glyph-name="Dcroat" unicode="&#x110;" horiz-adv-x="1321" 
d="M1244 696c0 -188 -60.3311 -353 -180.998 -495s-288 -213 -502 -213c-104.667 0 -243.667 4 -417 12c8.66699 165.333 13 359.333 13 582c-37.333 -2.66699 -86 -7.33398 -146 -14.001l9 179c53.333 -0.666992 99 -1 137 -1c0 204.667 -4.33301 390 -13 556h175
c29.333 0 72.666 1 129.999 3s100.333 3 129 3c223.333 0 390.166 -58.667 500.499 -176s165.5 -262.666 165.5 -435.999zM971.002 653c0 126 -38.332 233.334 -114.999 322.001s-189.667 133 -339 133c-34 0 -73.333 -2.66699 -118 -8
c8 -92.667 11.667 -208.334 11 -347.001c66 3.33301 175.667 12 329 26l-9 -176c-46.667 0 -153.334 -2.33301 -320.001 -7c0 -149.333 3 -279 9 -389c43.333 -8.66699 88.333 -13 135 -13c140 0 244.5 44.5 313.5 133.5s103.5 197.5 103.5 325.5z" />
    <glyph glyph-name="dcroat" unicode="&#x111;" horiz-adv-x="1136" 
d="M1133 1238l-9.00195 -142h-116c-2 -104 -3 -221.333 -3 -352c0 -295.333 7.33301 -543 22 -743l-237 -10c-4.66699 24.667 -7 50 -7 76l-15 -1c-73.333 -63.333 -167 -95 -281 -95c-128 0 -229.667 43.833 -305 131.5s-113 195.167 -113 322.5
c0 134.667 41.333 256.5 124 365.5s196.334 163.5 341.001 163.5c94.667 0 165.667 -17.667 213 -53h14c0 54.667 -1 119.667 -3 195h-250l6 142h237c-3.33301 56 -7.66602 109.667 -12.999 161l283 15c-4 -51.333 -7 -110 -9 -176h121zM775.998 228
c0 212.667 -4.99902 378.667 -14.999 498c-46 32 -101 48 -165 48c-88.667 0 -154.167 -32.833 -196.5 -98.5s-63.5 -140.5 -63.5 -224.5s20.667 -154 62 -210s98.666 -84 171.999 -84c98 0 166.667 23.667 206 71z" />
    <glyph glyph-name="Emacron" unicode="&#x112;" horiz-adv-x="1080" 
d="M1003 220l-8.00098 -220h-851c8.66699 201.333 13 428.333 13 681c0 242.667 -4.33301 449.667 -13 621h812l-11 -219c-200 10.667 -381.333 16 -544 16c6.66699 -92.667 10 -202 10 -328c139.333 0 288.333 3.66699 447 11v-209c-156 6.66699 -305 10 -447 10
c0 -135.333 2.66699 -262 8 -380c182.667 0 377.334 5.66699 584.001 17zM840.999 1621l-12 -174h-504l11 174h505z" />
    <glyph glyph-name="emacron" unicode="&#x113;" horiz-adv-x="1049" 
d="M980 577c0 -34 -1.99902 -78.332 -5.99902 -132.999l-644 -11c9.33301 -75.333 41.666 -138 96.999 -188s128 -75 218 -75c100 0 206.333 15 319 45l-20 -194c-92 -33.333 -206 -50 -342 -50c-172 0 -303.833 48.333 -395.5 145s-137.5 213 -137.5 349
c0 142 43.5 265.167 130.5 369.5s207.833 156.5 362.5 156.5c141.333 0 246.333 -38.333 315 -115s103 -176.334 103 -299.001zM746.001 586.001c0 153.333 -65.333 230 -196 230c-124.667 0 -198.667 -79.333 -222 -238zM823.001 1335l-12 -174h-484l11 174h485z" />
    <glyph glyph-name="Ebreve" unicode="&#x114;" horiz-adv-x="1080" 
d="M1003 220l-8.00098 -220h-851c8.66699 201.333 13 428.333 13 681c0 242.667 -4.33301 449.667 -13 621h812l-11 -219c-200 10.667 -381.333 16 -544 16c6.66699 -92.667 10 -202 10 -328c139.333 0 288.333 3.66699 447 11v-209c-156 6.66699 -305 10 -447 10
c0 -135.333 2.66699 -262 8 -380c182.667 0 377.334 5.66699 584.001 17zM920.999 1630c-62.667 -167.333 -171.667 -251 -327 -251c-164 0 -273.667 83.667 -329 251l132 60c48 -98 113.333 -147 196 -147c80 0 145.333 49 196 147z" />
    <glyph glyph-name="ebreve" unicode="&#x115;" horiz-adv-x="1049" 
d="M980 577c0 -34 -1.99902 -78.332 -5.99902 -132.999l-644 -11c9.33301 -75.333 41.666 -138 96.999 -188s128 -75 218 -75c100 0 206.333 15 319 45l-20 -194c-92 -33.333 -206 -50 -342 -50c-172 0 -303.833 48.333 -395.5 145s-137.5 213 -137.5 349
c0 142 43.5 265.167 130.5 369.5s207.833 156.5 362.5 156.5c141.333 0 246.333 -38.333 315 -115s103 -176.334 103 -299.001zM746.001 586.001c0 153.333 -65.333 230 -196 230c-124.667 0 -198.667 -79.333 -222 -238zM904.001 1360
c-62.667 -190.667 -171.666 -286 -326.999 -286c-164 0 -273.667 95.333 -329 286l132 60c61.333 -121.333 126.666 -182 195.999 -182c66.667 0 132 60.667 196 182z" />
    <glyph glyph-name="Edotaccent" unicode="&#x116;" horiz-adv-x="1080" 
d="M1003 220l-8.00098 -220h-851c8.66699 201.333 13 428.333 13 681c0 242.667 -4.33301 449.667 -13 621h812l-11 -219c-200 10.667 -381.333 16 -544 16c6.66699 -92.667 10 -202 10 -328c139.333 0 288.333 3.66699 447 11v-209c-156 6.66699 -305 10 -447 10
c0 -135.333 2.66699 -262 8 -380c182.667 0 377.334 5.66699 584.001 17zM753.999 1566c0 -45.333 -15.5 -84.998 -46.5 -118.998s-74.167 -51 -129.5 -51c-46.667 0 -83.167 14.667 -109.5 44s-39.5 64.666 -39.5 105.999c0 45.333 15.5 84.666 46.5 117.999
s74.5 50 130.5 50c47.333 0 83.833 -14.5 109.5 -43.5s38.5 -63.833 38.5 -104.5z" />
    <glyph glyph-name="edotaccent" unicode="&#x117;" horiz-adv-x="1049" 
d="M980 577c0 -34 -1.99902 -78.332 -5.99902 -132.999l-644 -11c9.33301 -75.333 41.666 -138 96.999 -188s128 -75 218 -75c100 0 206.333 15 319 45l-20 -194c-92 -33.333 -206 -50 -342 -50c-172 0 -303.833 48.333 -395.5 145s-137.5 213 -137.5 349
c0 142 43.5 265.167 130.5 369.5s207.833 156.5 362.5 156.5c141.333 0 246.333 -38.333 315 -115s103 -176.334 103 -299.001zM746.001 586.001c0 153.333 -65.333 230 -196 230c-124.667 0 -198.667 -79.333 -222 -238zM733.001 1252
c0 -45.333 -15.5 -84.998 -46.5 -118.998s-74.167 -51 -129.5 -51c-46.667 0 -83.167 14.667 -109.5 44s-39.5 64.666 -39.5 105.999c0 45.333 15.5 84.666 46.5 117.999s74.5 50 130.5 50c47.333 0 83.833 -14.5 109.5 -43.5s38.5 -63.833 38.5 -104.5z" />
    <glyph glyph-name="Eogonek" unicode="&#x118;" horiz-adv-x="1080" 
d="M983 -468c-41.333 -12 -87.668 -18 -139.001 -18c-95.333 0 -164.833 19.667 -208.5 59s-65.5 91.666 -65.5 156.999c0 109.333 55.667 196 167 260v10h-593c8.66699 201.333 13 428.333 13 681c0 242.667 -4.33301 449.667 -13 621h810l-9 -219
c-200 10.667 -381.333 16 -544 16c6.66699 -92.667 10 -202 10 -328c139.333 0 288.333 3.66699 447 11v-209c-156 6.66699 -305 10 -447 10c0 -135.333 2.66699 -262 8 -380c182.667 0 377.334 5.66699 584.001 17l-8 -220c-158.667 -27.333 -238 -94.666 -238 -201.999
c0 -84.667 39.667 -127 119 -127c20.667 0 47 3.33301 79 10z" />
    <glyph glyph-name="eogonek" unicode="&#x119;" horiz-adv-x="1049" 
d="M980 577c0 -34 -2 -78.3311 -6 -132.998l-644 -11c9.33301 -75.333 41.666 -138 96.999 -188s128 -75 218 -75c100 0 206.333 15 319 45l-20 -194c-141.333 -52 -212 -126.333 -212 -223c0 -84.667 39.667 -127 119 -127c20.667 0 47 3.33301 79 10l28 -149
c-41.333 -12 -87.666 -18 -138.999 -18c-95.333 0 -164.833 19.667 -208.5 59s-65.5 91.666 -65.5 156.999c0 109.333 48 187.333 144 234v10c-28 -2 -57 -3 -87 -3c-172 0 -303.833 48.333 -395.5 145s-137.5 213 -137.5 349c0 142 43.5 265.167 130.5 369.5
s207.833 156.5 362.5 156.5c141.333 0 246.333 -38.333 315 -115s103 -176.334 103 -299.001zM746 586.002c0 153.333 -65.333 230 -196 230c-124.667 0 -198.667 -79.333 -222 -238z" />
    <glyph glyph-name="Ecaron" unicode="&#x11a;" horiz-adv-x="1080" 
d="M1003 220l-8.00098 -220h-851c8.66699 201.333 13 428.333 13 681c0 242.667 -4.33301 449.667 -13 621h812l-11 -219c-200 10.667 -381.333 16 -544 16c6.66699 -92.667 10 -202 10 -328c139.333 0 288.333 3.66699 447 11v-209c-156 6.66699 -305 10 -447 10
c0 -135.333 2.66699 -262 8 -380c182.667 0 377.334 5.66699 584.001 17zM917.999 1690c0 -10.667 -33.333 -57.167 -100 -139.5s-100 -127.166 -100 -134.499h-242c0 7.33301 -33.333 52.166 -100 134.499s-100 128.833 -100 139.5h155
c6.66699 -10.667 62 -55.334 166 -134.001c104 78.667 159.333 123.334 166 134.001h155z" />
    <glyph glyph-name="ecaron" unicode="&#x11b;" horiz-adv-x="1049" 
d="M980 577c0 -34 -1.99902 -78.332 -5.99902 -132.999l-644 -11c9.33301 -75.333 41.666 -138 96.999 -188s128 -75 218 -75c100 0 206.333 15 319 45l-20 -194c-92 -33.333 -206 -50 -342 -50c-172 0 -303.833 48.333 -395.5 145s-137.5 213 -137.5 349
c0 142 43.5 265.167 130.5 369.5s207.833 156.5 362.5 156.5c141.333 0 246.333 -38.333 315 -115s103 -176.334 103 -299.001zM746.001 586.001c0 153.333 -65.333 230 -196 230c-124.667 0 -198.667 -79.333 -222 -238zM906.001 1410c0 -10.667 -31.667 -65.5 -95 -164.5
s-95 -152.167 -95 -159.5h-262c0 7.33301 -31.667 60.5 -95 159.5s-95 153.833 -95 164.5h155c0 -10.667 55.333 -75.334 166 -194.001c110.667 118.667 166 183.334 166 194.001h155z" />
    <glyph glyph-name="Gcircumflex" unicode="&#x11c;" horiz-adv-x="1273" 
d="M1174 34c-158.667 -40.667 -291.335 -61.001 -398.002 -61.001c-229.333 0 -403.166 62.833 -521.499 188.5s-177.5 278.167 -177.5 457.5c0 188.667 64.5 352.667 193.5 492s307.833 209 536.5 209c107.333 0 202 -9.66699 284 -29l-33 -236
c-104.667 27.333 -198.667 41 -282 41c-140.667 0 -245.667 -43.167 -315 -129.5s-104 -191.833 -104 -316.5c0 -127.333 38.833 -238.333 116.5 -333s184.834 -142 321.501 -142c38 0 82 4 132 12c-10 74 -15 146.667 -15 218c0 72 -7 153 -21 243h283
c-5.33301 -102.667 -8 -206 -8 -310c0 -75.333 2.66699 -176.666 8 -303.999zM1070 1416h-155c-6.66699 10.667 -62 55.334 -166 134.001c-104 -78.667 -159.333 -123.334 -166 -134.001h-155c0 10.667 33.333 57.167 100 139.5s100 127.166 100 134.499h242
c0 -7.33301 33.333 -52.166 100 -134.499s100 -128.833 100 -139.5z" />
    <glyph glyph-name="gcircumflex" unicode="&#x11d;" horiz-adv-x="1128" 
d="M1109 1088l-22.001 -185.999c-104 0 -169 -15 -195 -45v-13c39.333 -50 59 -106 59 -168c0 -95.333 -35.167 -176.666 -105.5 -243.999s-175.166 -101 -314.499 -101c-68 0 -123.667 5.33301 -167 16c-35.333 -16 -53 -37 -53 -63c0 -40.667 21.167 -69.167 63.5 -85.5
s140.833 -24.5 295.5 -24.5c267.333 0 401 -91 401 -273c0 -128 -55.667 -229.667 -167 -305s-246.666 -113 -405.999 -113c-312 0 -468 98 -468 294c0 60.667 17.5 112.167 52.5 154.5s75.5 68.166 121.5 77.499v15c-56 35.333 -84 89.333 -84 162
c0 73.333 38.333 134.666 115 183.999v14c-108 54 -162 138.333 -162 253c0 98 37.167 180 111.5 246s189.166 99 344.499 99c106 0 192 -20 258 -60h14c19.333 126 84 189 194 189c43.333 0 81.333 -7.66699 114 -23zM823.999 -172.999
c0 49.333 -18.832 85.001 -56.499 107.001s-102.5 33 -194.5 33c-74.667 0 -150 3.33301 -226 10c-58.667 -34.667 -88 -86.334 -88 -155.001c0 -128 85.333 -192 256 -192c95.333 0 170.666 18 225.999 54s83 83.667 83 143zM706 650.002c0 60 -19.334 105.667 -58.001 137
s-83 47 -133 47s-93.833 -15.167 -131.5 -45.5s-56.5 -74.833 -56.5 -133.5c0 -59.333 19.333 -104.333 58 -135s83.667 -46 135 -46c48.667 0 91.834 14.833 129.501 44.5s56.5 73.5 56.5 131.5zM832.999 1086h-155c0 10.667 -55.333 75.334 -166 194.001
c-110.667 -118.667 -166 -183.334 -166 -194.001h-155c0 10.667 31.667 65.5 95 164.5s95 152.167 95 159.5h262c0 -7.33301 31.667 -60.5 95 -159.5s95 -153.833 95 -164.5z" />
    <glyph glyph-name="Gbreve" unicode="&#x11e;" horiz-adv-x="1273" 
d="M1174 34c-158.667 -40.667 -291.335 -61.001 -398.002 -61.001c-229.333 0 -403.166 62.833 -521.499 188.5s-177.5 278.167 -177.5 457.5c0 188.667 64.5 352.667 193.5 492s307.833 209 536.5 209c107.333 0 202 -9.66699 284 -29l-33 -236
c-104.667 27.333 -198.667 41 -282 41c-140.667 0 -245.667 -43.167 -315 -129.5s-104 -191.833 -104 -316.5c0 -127.333 38.833 -238.333 116.5 -333s184.834 -142 321.501 -142c38 0 82 4 132 12c-10 74 -15 146.667 -15 218c0 72 -7 153 -21 243h283
c-5.33301 -102.667 -8 -206 -8 -310c0 -75.333 2.66699 -176.666 8 -303.999zM1081 1630c-62.667 -167.333 -171.667 -251 -327 -251c-164 0 -273.667 83.667 -329 251l132 60c48 -98 113.333 -147 196 -147c80 0 145.333 49 196 147z" />
    <glyph glyph-name="gbreve" unicode="&#x11f;" horiz-adv-x="1128" 
d="M1109 1088l-22.001 -185.999c-104 0 -169 -15 -195 -45v-13c39.333 -50 59 -106 59 -168c0 -95.333 -35.167 -176.666 -105.5 -243.999s-175.166 -101 -314.499 -101c-68 0 -123.667 5.33301 -167 16c-35.333 -16 -53 -37 -53 -63c0 -40.667 21.167 -69.167 63.5 -85.5
s140.833 -24.5 295.5 -24.5c267.333 0 401 -91 401 -273c0 -128 -55.667 -229.667 -167 -305s-246.666 -113 -405.999 -113c-312 0 -468 98 -468 294c0 60.667 17.5 112.167 52.5 154.5s75.5 68.166 121.5 77.499v15c-56 35.333 -84 89.333 -84 162
c0 73.333 38.333 134.666 115 183.999v14c-108 54 -162 138.333 -162 253c0 98 37.167 180 111.5 246s189.166 99 344.499 99c106 0 192 -20 258 -60h14c19.333 126 84 189 194 189c43.333 0 81.333 -7.66699 114 -23zM823.999 -172.999
c0 49.333 -18.832 85.001 -56.499 107.001s-102.5 33 -194.5 33c-74.667 0 -150 3.33301 -226 10c-58.667 -34.667 -88 -86.334 -88 -155.001c0 -128 85.333 -192 256 -192c95.333 0 170.666 18 225.999 54s83 83.667 83 143zM706 650.002c0 60 -19.334 105.667 -58.001 137
s-83 47 -133 47s-93.833 -15.167 -131.5 -45.5s-56.5 -74.833 -56.5 -133.5c0 -59.333 19.333 -104.333 58 -135s83.667 -46 135 -46c48.667 0 91.834 14.833 129.501 44.5s56.5 73.5 56.5 131.5zM866.999 1360c-62.667 -190.667 -171.666 -286 -326.999 -286
c-164 0 -273.667 95.333 -329 286l132 60c61.333 -121.333 126.666 -182 195.999 -182c66.667 0 132 60.667 196 182z" />
    <glyph glyph-name="Gdotaccent" unicode="&#x120;" horiz-adv-x="1273" 
d="M1174 34c-158.667 -40.667 -291.335 -61.001 -398.002 -61.001c-229.333 0 -403.166 62.833 -521.499 188.5s-177.5 278.167 -177.5 457.5c0 188.667 64.5 352.667 193.5 492s307.833 209 536.5 209c107.333 0 202 -9.66699 284 -29l-33 -236
c-104.667 27.333 -198.667 41 -282 41c-140.667 0 -245.667 -43.167 -315 -129.5s-104 -191.833 -104 -316.5c0 -127.333 38.833 -238.333 116.5 -333s184.834 -142 321.501 -142c38 0 82 4 132 12c-10 74 -15 146.667 -15 218c0 72 -7 153 -21 243h283
c-5.33301 -102.667 -8 -206 -8 -310c0 -75.333 2.66699 -176.666 8 -303.999zM920.999 1566c0 -45.333 -15.5 -84.998 -46.5 -118.998s-74.167 -51 -129.5 -51c-46.667 0 -83.167 14.667 -109.5 44s-39.5 64.666 -39.5 105.999c0 45.333 15.5 84.666 46.5 117.999
s74.5 50 130.5 50c47.333 0 83.833 -14.5 109.5 -43.5s38.5 -63.833 38.5 -104.5z" />
    <glyph glyph-name="gdotaccent" unicode="&#x121;" horiz-adv-x="1128" 
d="M1109 1088l-22.001 -185.999c-104 0 -169 -15 -195 -45v-13c39.333 -50 59 -106 59 -168c0 -95.333 -35.167 -176.666 -105.5 -243.999s-175.166 -101 -314.499 -101c-68 0 -123.667 5.33301 -167 16c-35.333 -16 -53 -37 -53 -63c0 -40.667 21.167 -69.167 63.5 -85.5
s140.833 -24.5 295.5 -24.5c267.333 0 401 -91 401 -273c0 -128 -55.667 -229.667 -167 -305s-246.666 -113 -405.999 -113c-312 0 -468 98 -468 294c0 60.667 17.5 112.167 52.5 154.5s75.5 68.166 121.5 77.499v15c-56 35.333 -84 89.333 -84 162
c0 73.333 38.333 134.666 115 183.999v14c-108 54 -162 138.333 -162 253c0 98 37.167 180 111.5 246s189.166 99 344.499 99c106 0 192 -20 258 -60h14c19.333 126 84 189 194 189c43.333 0 81.333 -7.66699 114 -23zM823.999 -172.999
c0 49.333 -18.832 85.001 -56.499 107.001s-102.5 33 -194.5 33c-74.667 0 -150 3.33301 -226 10c-58.667 -34.667 -88 -86.334 -88 -155.001c0 -128 85.333 -192 256 -192c95.333 0 170.666 18 225.999 54s83 83.667 83 143zM706 650.002c0 60 -19.334 105.667 -58.001 137
s-83 47 -133 47s-93.833 -15.167 -131.5 -45.5s-56.5 -74.833 -56.5 -133.5c0 -59.333 19.333 -104.333 58 -135s83.667 -46 135 -46c48.667 0 91.834 14.833 129.501 44.5s56.5 73.5 56.5 131.5zM698.999 1252c0 -45.333 -15.5 -84.998 -46.5 -118.998
s-74.167 -51 -129.5 -51c-46.667 0 -83.167 14.667 -109.5 44s-39.5 64.666 -39.5 105.999c0 45.333 15.5 84.666 46.5 117.999s74.5 50 130.5 50c47.333 0 83.833 -14.5 109.5 -43.5s38.5 -63.833 38.5 -104.5z" />
    <glyph glyph-name="Gcommaaccent" unicode="&#x122;" horiz-adv-x="1273" 
d="M1174 34c-158.667 -40.667 -291.335 -61.001 -398.002 -61.001c-229.333 0 -403.166 62.833 -521.499 188.5s-177.5 278.167 -177.5 457.5c0 188.667 64.5 352.667 193.5 492s307.833 209 536.5 209c107.333 0 202 -9.66699 284 -29l-33 -236
c-104.667 27.333 -198.667 41 -282 41c-140.667 0 -245.667 -43.167 -315 -129.5s-104 -191.833 -104 -316.5c0 -127.333 38.833 -238.333 116.5 -333s184.834 -142 321.501 -142c38 0 82 4 132 12c-10 74 -15 146.667 -15 218c0 72 -7 153 -21 243h283
c-5.33301 -102.667 -8 -206 -8 -310c0 -75.333 2.66699 -176.666 8 -303.999zM836.999 -210.001c0 -125.333 -66.667 -229.999 -200 -313.999l-64 54c38.667 50 58 102 58 156c-42.667 25.333 -64 59.333 -64 102c0 40.667 12.333 74.167 37 100.5s58.667 39.5 102 39.5
c40.667 0 72.667 -13.333 96 -40s35 -59.334 35 -98.001z" />
    <glyph glyph-name="gcommaaccent" unicode="&#x123;" horiz-adv-x="1128" 
d="M1109 1088l-22.001 -185.999c-104 0 -169 -15 -195 -45v-13c39.333 -50 59 -106 59 -168c0 -95.333 -35.167 -176.666 -105.5 -243.999s-175.166 -101 -314.499 -101c-68 0 -123.667 5.33301 -167 16c-35.333 -16 -53 -37 -53 -63c0 -40.667 21.167 -69.167 63.5 -85.5
s140.833 -24.5 295.5 -24.5c267.333 0 401 -91 401 -273c0 -128 -55.667 -229.667 -167 -305s-246.666 -113 -405.999 -113c-312 0 -468 98 -468 294c0 60.667 17.5 112.167 52.5 154.5s75.5 68.166 121.5 77.499v15c-56 35.333 -84 89.333 -84 162
c0 73.333 38.333 134.666 115 183.999v14c-108 54 -162 138.333 -162 253c0 98 37.167 180 111.5 246s189.166 99 344.499 99c106 0 192 -20 258 -60h14c19.333 126 84 189 194 189c43.333 0 81.333 -7.66699 114 -23zM823.999 -172.999
c0 49.333 -18.832 85.001 -56.499 107.001s-102.5 33 -194.5 33c-74.667 0 -150 3.33301 -226 10c-58.667 -34.667 -88 -86.334 -88 -155.001c0 -128 85.333 -192 256 -192c95.333 0 170.666 18 225.999 54s83 83.667 83 143zM706 650.002c0 60 -19.334 105.667 -58.001 137
s-83 47 -133 47s-93.833 -15.167 -131.5 -45.5s-56.5 -74.833 -56.5 -133.5c0 -59.333 19.333 -104.333 58 -135s83.667 -46 135 -46c48.667 0 91.834 14.833 129.501 44.5s56.5 73.5 56.5 131.5zM691.999 1235c0 -41.333 -14.332 -77.168 -42.999 -107.501
s-68.334 -45.5 -119.001 -45.5c-42 0 -74.833 15.333 -98.5 46s-35.5 65.667 -35.5 105c0 148 68 265 204 351l64 -54c-32.667 -44 -49 -97 -49 -159c51.333 -33.333 77 -78.666 77 -135.999z" />
    <glyph glyph-name="Hcircumflex" unicode="&#x124;" horiz-adv-x="1338" 
d="M1194 0l-283 -0.00195312c6.66699 220.667 10 412 10 574h-504c0 -145.333 3.33301 -336.666 10 -573.999h-283c8.66699 220 13 447 13 681c0 236.667 -4.33301 443.667 -13 621h283c-8 -187.333 -12 -360.666 -12 -519.999h508c0 140.667 -4 314 -12 520h283
c-9.33301 -169.333 -14 -376.333 -14 -621c0 -255.333 4.66699 -482.333 14 -681zM983 1416h-155c-6.66699 10.667 -62 55.334 -166 134.001c-104 -78.667 -159.333 -123.334 -166 -134.001h-155c0 10.667 33.333 57.167 100 139.5s100 127.166 100 134.499h242
c0 -7.33301 33.333 -52.166 100 -134.499s100 -128.833 100 -139.5z" />
    <glyph glyph-name="hcircumflex" unicode="&#x125;" horiz-adv-x="1126" 
d="M1015 0l-266 0.000976562c14.667 168.667 22 332.667 22 492c0 118.667 -15 196.5 -45 233.5s-79.333 55.5 -148 55.5c-72.667 0 -144 -24.333 -214 -73c0 -283.333 3.33301 -519.333 10 -708h-266c7.33301 206.667 11 454.334 11 743.001c0 266 -10.333 487 -31 663
l283 16c-10 -214.667 -15 -401.334 -15 -560.001h13c88 80.667 188.667 121 302 121c107.333 0 191.5 -24.333 252.5 -73s91.5 -134.334 91.5 -257.001c0 -12.667 -0.833008 -38.5 -2.5 -77.5s-2.5 -64.833 -2.5 -77.5c0 -111.333 1.66699 -277.333 5 -498zM551 1416h-155
c-6.66699 10.667 -62 55.334 -166 134.001c-104 -78.667 -159.333 -123.334 -166 -134.001h-155c0 10.667 33.333 57.167 100 139.5s100 127.166 100 134.499h242c0 -7.33301 33.333 -52.166 100 -134.499s100 -128.833 100 -139.5z" />
    <glyph glyph-name="Hbar" unicode="&#x126;" horiz-adv-x="1338" 
d="M1278 1084l-10 -148.001h-87c-0.666992 -80 -1 -165 -1 -255c0 -255.333 4.66699 -482.333 14 -681h-283c6.66699 220.667 10 412 10 574h-504c0 -145.333 3.33301 -336.666 10 -573.999h-283c8.66699 220 13 447 13 681c0 89.333 -0.666992 174.333 -2 255h-96l10 148
h83c-2 76.667 -4.66699 149.334 -8 218.001h283c-3.33301 -75.333 -6 -148 -8 -218h499c-2 68 -4.33301 140.667 -7 218h283c-4 -66.667 -7 -139.334 -9 -218.001h93zM923 781.999c0 47.333 -0.666992 98.667 -2 154h-505c-0.666992 -52.667 -1 -104 -1 -154h508z" />
    <glyph glyph-name="hbar" unicode="&#x127;" horiz-adv-x="1126" 
d="M1015 0l-266 -0.00195312c14.667 168.667 22 332.667 22 492c0 101.333 -17.667 172 -53 212c-28 31.333 -74.667 47 -140 47c-72.667 0 -144 -24.333 -214 -73c0 -263.333 3.33301 -489.333 10 -678h-266c7.33301 206.667 11 454.334 11 743.001
c0 128 -2.33301 245.667 -7 353h-106l6 142h91c-4 60 -9 116 -15 168l283 16c-3.33301 -64.667 -6 -126 -8 -184h307l-6 -142h-305c-2 -84 -3 -172 -3 -264h13c89.333 80.667 186.666 121 291.999 121c112.667 0 197.334 -22 254.001 -66
c66.667 -52.667 100 -140.667 100 -264c0 -12.667 -0.833008 -35.167 -2.5 -67.5s-2.5 -58.166 -2.5 -77.499c0 -98 1.66699 -257.333 5 -478z" />
    <glyph glyph-name="Itilde" unicode="&#x128;" horiz-adv-x="571" 
d="M427 0h-283c8.66699 206.667 13 433.667 13 681c0 243.333 -4.33301 450.333 -13 621h283c-8.66699 -168 -13 -375 -13 -621c0 -251.333 4.33301 -478.333 13 -681zM662 1625c-74.667 -130.667 -159.999 -196 -255.999 -196c-30.667 0 -71.167 7.66699 -121.5 23
s-88.833 23 -115.5 23c-60.667 0 -119.334 -22.333 -176.001 -67l-89 75c74.667 124 160 186 256 186c33.333 0 74.666 -7.66699 123.999 -23s87 -23 113 -23c60.667 0 119.334 25.667 176.001 77z" />
    <glyph glyph-name="itilde" unicode="&#x129;" horiz-adv-x="510" 
d="M395 0h-269c9.33301 138 14 296.333 14 475c0 177.333 -11.333 332.666 -34 465.999l288 29c-8.66699 -129.333 -13 -294.333 -13 -495c0 -171.333 4.66699 -329.666 14 -474.999zM648 1355c-74.667 -150.667 -159.999 -226 -255.999 -226
c-30.667 0 -71.167 7.66699 -121.5 23s-88.833 23 -115.5 23c-60.667 0 -119.334 -35.667 -176.001 -107l-89 75c74.667 150.667 160 226 256 226c33.333 0 74.666 -7.66699 123.999 -23s87 -23 113 -23c60.667 0 119.334 35.667 176.001 107z" />
    <glyph glyph-name="Imacron" unicode="&#x12a;" horiz-adv-x="571" 
d="M427 0h-283c8.66699 206.667 13 433.667 13 681c0 243.333 -4.33301 450.333 -13 621h283c-8.66699 -168 -13 -375 -13 -621c0 -251.333 4.33301 -478.333 13 -681zM544 1621l-12 -174h-504l11 174h505z" />
    <glyph glyph-name="imacron" unicode="&#x12b;" horiz-adv-x="510" 
d="M395 0h-269c9.33301 138 14 296.333 14 475c0 177.333 -11.333 332.666 -34 465.999l288 29c-8.66699 -129.333 -13 -294.333 -13 -495c0 -171.333 4.66699 -329.666 14 -474.999zM506 1335l-12 -174h-484l11 174h485z" />
    <glyph glyph-name="Ibreve" unicode="&#x12c;" horiz-adv-x="571" 
d="M427 0h-283c8.66699 206.667 13 433.667 13 681c0 243.333 -4.33301 450.333 -13 621h283c-8.66699 -168 -13 -375 -13 -621c0 -251.333 4.33301 -478.333 13 -681zM614 1630c-62.667 -167.333 -171.667 -251 -327 -251c-164 0 -273.667 83.667 -329 251l132 60
c48 -98 113.333 -147 196 -147c80 0 145.333 49 196 147z" />
    <glyph glyph-name="ibreve" unicode="&#x12d;" horiz-adv-x="510" 
d="M395 0h-269c9.33301 138 14 296.333 14 475c0 177.333 -11.333 332.666 -34 465.999l288 29c-8.66699 -129.333 -13 -294.333 -13 -495c0 -171.333 4.66699 -329.666 14 -474.999zM593 1360c-62.667 -190.667 -171.666 -286 -326.999 -286
c-164 0 -273.667 95.333 -329 286l132 60c61.333 -121.333 126.666 -182 195.999 -182c66.667 0 132 60.667 196 182z" />
    <glyph glyph-name="Iogonek" unicode="&#x12e;" horiz-adv-x="571" 
d="M430 -468c-41.333 -12 -87.667 -17.999 -139 -17.999c-95.333 0 -164.833 19.667 -208.5 59s-65.5 91.666 -65.5 156.999c0 109.333 42.333 199.333 127 270c8.66699 206.667 13 433.667 13 681c0 243.333 -4.33301 450.333 -13 621h283c-8.66699 -168 -13 -375 -13 -621
c0 -251.333 4.33301 -478.333 13 -681c-148.667 -20.667 -223 -88 -223 -202c0 -84.667 39.667 -127 119 -127c20.667 0 47 3.33301 79 10z" />
    <glyph glyph-name="iogonek" unicode="&#x12f;" horiz-adv-x="510" 
d="M412 -468c-41.333 -12 -87.667 -18 -139 -18c-95.333 0 -164.333 19 -207 57c-44.667 40.667 -67 93.667 -67 159c0 109.333 42.333 199.333 127 270c9.33301 138 14 296.333 14 475c0 177.333 -11.333 332.666 -34 465.999l288 29
c-8.66699 -129.333 -13 -294.333 -13 -495c0 -171.333 4.66699 -329.666 14 -474.999h-1c-138.667 -20.667 -208 -88 -208 -202c0 -84.667 39.667 -127 119 -127c20.667 0 47 3.33301 79 10zM440.999 1252c0 -45.333 -14.667 -83.999 -44 -115.999
c-32.667 -36 -76.667 -54 -132 -54c-46.667 0 -84 15.333 -112 46c-24.667 28 -37 62.667 -37 104c0 45.333 14.667 83.666 44 114.999c32.667 35.333 77 53 133 53c47.333 0 84.333 -15 111 -45c24.667 -28 37 -62.333 37 -103z" />
    <glyph glyph-name="Idotaccent" unicode="&#x130;" horiz-adv-x="571" 
d="M427 0h-283c8.66699 206.667 13 433.667 13 681c0 243.333 -4.33301 450.333 -13 621h283c-8.66699 -168 -13 -375 -13 -621c0 -251.333 4.33301 -478.333 13 -681zM462 1566c0 -45.333 -15.5 -84.998 -46.5 -118.998s-74.167 -51 -129.5 -51
c-46.667 0 -83.167 14.667 -109.5 44s-39.5 64.666 -39.5 105.999c0 45.333 15.5 84.666 46.5 117.999s74.5 50 130.5 50c47.333 0 83.833 -14.5 109.5 -43.5s38.5 -63.833 38.5 -104.5z" />
    <glyph glyph-name="dotlessi" unicode="&#x131;" horiz-adv-x="510" 
d="M395 0h-269c9.33301 138 14 296.333 14 475c0 177.333 -11.333 332.666 -34 465.999l288 29c-8.66699 -129.333 -13 -294.333 -13 -495c0 -171.333 4.66699 -329.666 14 -474.999z" />
    <glyph glyph-name="IJ" unicode="&#x132;" horiz-adv-x="1389" 
d="M427 0h-283c8.66699 206.667 13 433.667 13 681c0 243.333 -4.33301 450.333 -13 621h283c-8.66699 -168 -13 -375 -13 -621c0 -251.333 4.33301 -478.333 13 -681zM1267 1302c-8 -198.667 -12.001 -444 -12.001 -736c0 -222 -45.667 -379.667 -137 -473
c-77.333 -80 -197.666 -120 -360.999 -120c-58.667 0 -117 7 -175 21l18 215c44.667 -20 89.334 -30 134.001 -30c87.333 0 150.666 19 189.999 57c56.667 54.667 85 158 85 310c0 304.667 -5 556.667 -15 756h273z" />
    <glyph glyph-name="ij" unicode="&#x133;" horiz-adv-x="1020" 
d="M395 0h-269c9.33301 138 14 296.333 14 475c0 177.333 -11.333 332.666 -34 465.999l288 29c-8.66699 -129.333 -13 -294.333 -13 -495c0 -171.333 4.66699 -329.666 14 -474.999zM441 1252c0 -45.333 -15.5 -84.998 -46.5 -118.998s-74.167 -51 -129.5 -51
c-46.667 0 -83.167 14.667 -109.5 44s-39.5 64.666 -39.5 105.999c0 45.333 15.5 84.666 46.5 117.999s74.5 50 130.5 50c47.333 0 83.833 -14.5 109.5 -43.5s38.5 -63.833 38.5 -104.5zM904 971.002c-9.33301 -202 -14 -402.669 -14 -602.002
c0 -52 1.33301 -123.5 4 -214.5s4 -151.833 4 -182.5c0 -246 -98.333 -388.667 -295 -428l-73 140c47.333 38 79.5 93.833 96.5 167.5s25.5 228.834 25.5 465.501c0 268.667 -12 477.334 -36 626.001zM948 1253c0 -45.333 -15.668 -84.998 -47.001 -118.998
s-74.666 -51 -129.999 -51c-46.667 0 -83.167 14.667 -109.5 44s-39.5 64.666 -39.5 105.999c0 45.333 15.667 84.666 47 117.999s75 50 131 50c47.333 0 83.833 -14.5 109.5 -43.5s38.5 -63.833 38.5 -104.5z" />
    <glyph glyph-name="Jcircumflex" unicode="&#x134;" horiz-adv-x="796" 
d="M696 1302c-8 -198.667 -12.001 -444 -12.001 -736c0 -222 -45.667 -379.667 -137 -473c-77.333 -80 -197.666 -120 -360.999 -120c-58.667 0 -117 7 -175 21l18 215c44.667 -20 89.334 -30 134.001 -30c87.333 0 150.666 19 189.999 57c56.667 54.667 85 158 85 310
c0 304.667 -5 556.667 -15 756h273zM880.999 1416h-155c-6.66699 10.667 -62 55.334 -166 134.001c-104 -78.667 -159.333 -123.334 -166 -134.001h-155c0 10.667 33.333 57.167 100 139.5s100 127.166 100 134.499h242c0 -7.33301 33.333 -52.166 100 -134.499
s100 -128.833 100 -139.5z" />
    <glyph glyph-name="jcircumflex" unicode="&#x135;" horiz-adv-x="510" 
d="M394 971c-9.33301 -202 -14 -402.668 -14 -602.001c0 -52 1.33301 -123.5 4 -214.5s4 -151.833 4 -182.5c0 -246 -98.333 -388.667 -295 -428l-73 140c47.333 38 78.333 88.667 93 152c19.333 84 29 244.333 29 481c0 268.667 -12 477.334 -36 626.001zM584 1086h-155
c0 10.667 -55.333 75.334 -166 194.001c-110.667 -118.667 -166 -183.334 -166 -194.001h-155c0 10.667 31.667 65.5 95 164.5s95 152.167 95 159.5h262c0 -7.33301 31.667 -60.5 95 -159.5s95 -153.833 95 -164.5z" />
    <glyph glyph-name="Kcommaaccent" unicode="&#x136;" horiz-adv-x="1207" 
d="M1196 0l-327 0.000976562c0 30.667 -56.333 136.334 -169 317.001c-120 192.667 -205 289 -255 289h-30c0 -152 3.66699 -354 11 -606h-282c8.66699 201.333 13 428.333 13 681c0 242.667 -4.33301 449.667 -13 621h282c-7.33301 -184.667 -11 -358 -11 -520h22
c29.333 0 103.333 82 222 246c115.333 159.333 173 250.666 173 273.999h298c0 -22 -61 -105 -183 -249c-126 -148.667 -218 -243.334 -276 -284.001v-15c68 -35.333 175 -167 321 -395c136 -212 204 -331.667 204 -359zM783 -209.999
c0 -125.333 -66.667 -229.999 -200 -313.999l-64 54c38.667 50 58 102 58 156c-42.667 25.333 -64 59.333 -64 102c0 40.667 12.333 74.167 37 100.5s58.667 39.5 102 39.5c40.667 0 72.667 -13.333 96 -40s35 -59.334 35 -98.001z" />
    <glyph glyph-name="kcommaaccent" unicode="&#x137;" horiz-adv-x="1045" 
d="M1029 0l-306 0.000976562c0 24.667 -50.667 108.167 -152 250.5s-166 213.5 -194 213.5h-13c0 -136.667 4 -291.334 12 -464.001h-265c8 311.333 12 559 12 743c0 254.667 -10.333 475.667 -31 663l284 16c-9.33301 -253.333 -14 -479.666 -14 -678.999
c0 -25.333 0.333008 -74.666 1 -147.999h14c18.667 0 71.667 53.833 159 161.5s131 172.167 131 193.5h298c0 -20.667 -45.333 -78.334 -136 -173.001s-164 -160 -220 -196v-15c62 -43.333 147.5 -141.833 256.5 -295.5s163.5 -243.834 163.5 -270.501zM676 -209.999
c0 -125.333 -66.667 -229.999 -200 -313.999l-64 54c38.667 50 58 102 58 156c-42.667 25.333 -64 59.333 -64 102c0 40.667 12.333 74.167 37 100.5s58.667 39.5 102 39.5c40.667 0 72.667 -13.333 96 -40s35 -59.334 35 -98.001z" />
    <glyph glyph-name="kgreenlandic" unicode="&#x138;" horiz-adv-x="1045" 
d="M1029 0l-306 0.00195312c0 24.667 -50 107.334 -150 248.001c-102.667 144 -168 216 -196 216h-10c0 -136.667 3 -291.334 9 -464.001h-265c8 143.333 12 332 12 566c0 105.333 -10.333 231.666 -31 378.999l284 16c-7.33301 -104.667 -11 -226.667 -11 -366h12
c18.667 0 71.667 53.833 159 161.5s131 172.167 131 193.5h298c0 -20.667 -45.333 -78.334 -136 -173.001s-164 -160 -220 -196v-15c62 -43.333 149 -144 261 -302c106 -149.333 159 -237.333 159 -264z" />
    <glyph glyph-name="Lacute" unicode="&#x139;" horiz-adv-x="994" 
d="M983 218l-8 -218h-831c8 180.667 12 407.667 12 681c0 250.667 -4 457.667 -12 621h281c-8 -151.333 -12 -358.333 -12 -621c0 -200.667 -4.33301 -360 -13 -478c184 0 378.333 5 583 15zM632 1690c0 -8 -44.332 -52.999 -132.999 -134.999
s-136.334 -128.333 -143.001 -139h-175c0 10.667 26.667 57.167 80 139.5s80 127.166 80 134.499h291z" />
    <glyph glyph-name="lacute" unicode="&#x13a;" horiz-adv-x="528" 
d="M410 0l-273 -0.000976562c10 228.667 15 476.334 15 743.001c0 260 -10.333 481 -31 663l289 16c-10 -188.667 -15 -415 -15 -679c0 -268 5 -515.667 15 -743zM583 1790c0 -8 -44.332 -52.999 -132.999 -134.999s-136.334 -128.333 -143.001 -139h-175
c0 10.667 26.667 57.167 80 139.5s80 127.166 80 134.499h291z" />
    <glyph glyph-name="Lcommaaccent" unicode="&#x13b;" horiz-adv-x="994" 
d="M983 218l-8 -218h-831c8 180.667 12 407.667 12 681c0 250.667 -4 457.667 -12 621h281c-8 -151.333 -12 -358.333 -12 -621c0 -200.667 -4.33301 -360 -13 -478c184 0 378.333 5 583 15zM696 -210c0 -125.333 -66.667 -229.999 -200 -313.999l-64 54
c38.667 50 58 102 58 156c-42.667 25.333 -64 59.333 -64 102c0 40.667 12.333 74.167 37 100.5s58.667 39.5 102 39.5c40.667 0 72.667 -13.333 96 -40s35 -59.334 35 -98.001z" />
    <glyph glyph-name="lcommaaccent" unicode="&#x13c;" horiz-adv-x="528" 
d="M410 0l-273 -0.000976562c10 228.667 15 476.334 15 743.001c0 260 -10.333 481 -31 663l289 16c-10 -188.667 -15 -415 -15 -679c0 -268 5 -515.667 15 -743zM409 -210.001c0 -125.333 -66.667 -229.999 -200 -313.999l-64 54c38.667 50 58 102 58 156
c-42.667 25.333 -64 59.333 -64 102c0 40.667 12.333 74.167 37 100.5s58.667 39.5 102 39.5c40.667 0 72.667 -13.333 96 -40s35 -59.334 35 -98.001z" />
    <glyph glyph-name="Lcaron" unicode="&#x13d;" horiz-adv-x="994" 
d="M983 218l-8 -218h-831c8 180.667 12 407.667 12 681c0 250.667 -4 457.667 -12 621h281c-8 -151.333 -12 -358.333 -12 -621c0 -200.667 -4.33301 -360 -13 -478c184 0 378.333 5 583 15zM1018 1177c0 -148 -68.001 -264.999 -204.001 -350.999l-66 55
c36 59.333 54 117.333 54 174c-53.333 26 -80 66 -80 120c0 41.333 14.333 77.166 43 107.499s68.334 45.5 119.001 45.5c42 0 74.833 -15.333 98.5 -46s35.5 -65.667 35.5 -105z" />
    <glyph glyph-name="lcaron" unicode="&#x13e;" horiz-adv-x="730" 
d="M410 0l-273 -0.000976562c10 228.667 15 476.334 15 743.001c0 260 -10.333 481 -31 663l289 16c-10 -188.667 -15 -415 -15 -679c0 -268 5 -515.667 15 -743zM772 1177c0 -148 -68.001 -264.999 -204.001 -350.999l-66 55c36 59.333 54 117.333 54 174
c-53.333 26 -80 66 -80 120c0 41.333 14.333 77.166 43 107.499s68.334 45.5 119.001 45.5c42 0 74.833 -15.333 98.5 -46s35.5 -65.667 35.5 -105z" />
    <glyph glyph-name="Ldot" unicode="&#x13f;" horiz-adv-x="994" 
d="M983 218l-8 -218h-831c8 180.667 12 407.667 12 681c0 250.667 -4 457.667 -12 621h281c-8 -151.333 -12 -358.333 -12 -621c0 -200.667 -4.33301 -360 -13 -478c184 0 378.333 5 583 15zM1000 713c0 -45.333 -15.5 -84.998 -46.5 -118.998s-74.167 -51 -129.5 -51
c-46.667 0 -83.167 14.667 -109.5 44s-39.5 64.666 -39.5 105.999c0 45.333 15.5 84.666 46.5 117.999s74.5 50 130.5 50c47.333 0 83.833 -14.5 109.5 -43.5s38.5 -63.833 38.5 -104.5z" />
    <glyph glyph-name="ldot" unicode="&#x140;" horiz-adv-x="779" 
d="M410 0l-273 -0.000976562c10 228.667 15 476.334 15 743.001c0 260 -10.333 481 -31 663l289 16c-10 -188.667 -15 -415 -15 -679c0 -268 5 -515.667 15 -743zM819 612.999c0 -45.333 -15.5 -84.998 -46.5 -118.998s-74.167 -51 -129.5 -51
c-46.667 0 -83.167 14.667 -109.5 44s-39.5 64.666 -39.5 105.999c0 45.333 15.5 84.666 46.5 117.999s74.5 50 130.5 50c47.333 0 83.833 -14.5 109.5 -43.5s38.5 -63.833 38.5 -104.5z" />
    <glyph glyph-name="Lslash" unicode="&#x141;" horiz-adv-x="994" 
d="M983 218l-8 -218.001h-831c6 135.333 9.66699 290.333 11 465l-97 -72l-82 128l180 114v46c0 250.667 -4 457.667 -12 621h281c-6.66699 -127.333 -10.667 -293.666 -12 -498.999l345 242l103 -136l-448 -273c-0.666992 -176 -5 -320.333 -13 -433
c184 0 378.333 5 583 15z" />
    <glyph glyph-name="lslash" unicode="&#x142;" horiz-adv-x="640" 
d="M716 934l-272 -201.999c0 -210 4.66699 -454 14 -732h-274c4 81.333 9 260.666 15 537.999l-123 -110l-80 95l204 162c0 340 -10.333 580.333 -31 721l289 16c-4.66699 -76.667 -9.66699 -254.667 -15 -534l168 149z" />
    <glyph glyph-name="Nacute" unicode="&#x143;" horiz-adv-x="1361" 
d="M1217 0l-247 0.00292969c0 27.333 -91.667 171.666 -275 432.999c-192 275.333 -301.333 463.666 -328 564.999h-16c16.667 -146 25 -278 25 -396c0 -164.667 4.66699 -365.334 14 -602.001h-246c10 206.667 15 433.667 15 681c0 243.333 -5 450.333 -15 621h297
c0 -35.333 82.333 -176.333 247 -423c175.333 -262 276 -439.667 302 -533h15c-16 148.667 -24 282 -24 400c0 180.667 -4.66699 366 -14 556h250c-9.33301 -165.333 -14 -372.333 -14 -621c0 -250.667 4.66699 -477.667 14 -681zM1000 1690
c0 -8 -44.332 -52.999 -132.999 -134.999s-136.334 -128.333 -143.001 -139h-175c0 10.667 26.667 57.167 80 139.5s80 127.166 80 134.499h291z" />
    <glyph glyph-name="nacute" unicode="&#x144;" horiz-adv-x="1126" 
d="M1015 0l-266.001 -0.000976562c14.667 168.667 22 339.334 22 512.001c0 104.667 -15.5 175.667 -46.5 213s-78.167 56 -141.5 56c-76 0 -148 -26 -216 -78c3.33301 -260 5 -494.333 5 -703h-269c12 208.667 18 372.667 18 492c0 159.333 -16.333 309.666 -49 450.999
l256 28l17 -106h16c91.333 78.667 196.333 118 315 118c102.667 0 184.834 -24.167 246.501 -72.5s92.5 -137.5 92.5 -267.5c0 -19.333 -0.833008 -45.166 -2.5 -77.499s-2.5 -65.5 -2.5 -99.5c0 -90 1.66699 -245.333 5 -466zM970.999 1410c0 -8 -46 -61.332 -138 -159.999
s-138 -153.334 -138 -164.001h-175c0 10.667 30 65.5 90 164.5s90 152.167 90 159.5h271z" />
    <glyph glyph-name="Ncommaaccent" unicode="&#x145;" horiz-adv-x="1361" 
d="M1217 0l-247 0.00292969c0 27.333 -91.667 171.666 -275 432.999c-192 275.333 -301.333 463.666 -328 564.999h-16c16.667 -146 25 -278 25 -396c0 -164.667 4.66699 -365.334 14 -602.001h-246c10 206.667 15 433.667 15 681c0 243.333 -5 450.333 -15 621h297
c0 -35.333 82.333 -176.333 247 -423c175.333 -262 276 -439.667 302 -533h15c-16 148.667 -24 282 -24 400c0 180.667 -4.66699 366 -14 556h250c-9.33301 -165.333 -14 -372.333 -14 -621c0 -250.667 4.66699 -477.667 14 -681zM812 -209.997
c0 -125.333 -66.667 -229.999 -200 -313.999l-64 54c38.667 50 58 102 58 156c-42.667 25.333 -64 59.333 -64 102c0 40.667 12.333 74.167 37 100.5s58.667 39.5 102 39.5c40.667 0 72.667 -13.333 96 -40s35 -59.334 35 -98.001z" />
    <glyph glyph-name="ncommaaccent" unicode="&#x146;" horiz-adv-x="1126" 
d="M1015 0l-266.001 -0.000976562c14.667 168.667 22 339.334 22 512.001c0 104.667 -15.5 175.667 -46.5 213s-78.167 56 -141.5 56c-76 0 -148 -26 -216 -78c3.33301 -260 5 -494.333 5 -703h-269c12 208.667 18 372.667 18 492c0 159.333 -16.333 309.666 -49 450.999
l256 28l17 -106h16c91.333 78.667 196.333 118 315 118c102.667 0 184.834 -24.167 246.501 -72.5s92.5 -137.5 92.5 -267.5c0 -19.333 -0.833008 -45.166 -2.5 -77.499s-2.5 -65.5 -2.5 -99.5c0 -90 1.66699 -245.333 5 -466zM692.999 -210.001
c0 -125.333 -66.667 -229.999 -200 -313.999l-64 54c38.667 50 58 102 58 156c-42.667 25.333 -64 59.333 -64 102c0 40.667 12.333 74.167 37 100.5s58.667 39.5 102 39.5c40.667 0 72.667 -13.333 96 -40s35 -59.334 35 -98.001z" />
    <glyph glyph-name="Ncaron" unicode="&#x147;" horiz-adv-x="1361" 
d="M1217 0l-247 0.00292969c0 27.333 -91.667 171.666 -275 432.999c-192 275.333 -301.333 463.666 -328 564.999h-16c16.667 -146 25 -278 25 -396c0 -164.667 4.66699 -365.334 14 -602.001h-246c10 206.667 15 433.667 15 681c0 243.333 -5 450.333 -15 621h297
c0 -35.333 82.333 -176.333 247 -423c175.333 -262 276 -439.667 302 -533h15c-16 148.667 -24 282 -24 400c0 180.667 -4.66699 366 -14 556h250c-9.33301 -165.333 -14 -372.333 -14 -621c0 -250.667 4.66699 -477.667 14 -681zM1008 1690
c0 -10.667 -33.333 -57.167 -100 -139.5s-100 -127.166 -100 -134.499h-242c0 7.33301 -33.333 52.166 -100 134.499s-100 128.833 -100 139.5h155c6.66699 -10.667 62 -55.334 166 -134.001c104 78.667 159.333 123.334 166 134.001h155z" />
    <glyph glyph-name="ncaron" unicode="&#x148;" horiz-adv-x="1126" 
d="M1015 0l-266.001 -0.000976562c14.667 168.667 22 339.334 22 512.001c0 104.667 -15.5 175.667 -46.5 213s-78.167 56 -141.5 56c-76 0 -148 -26 -216 -78c3.33301 -260 5 -494.333 5 -703h-269c12 208.667 18 372.667 18 492c0 159.333 -16.333 309.666 -49 450.999
l256 28l17 -106h16c91.333 78.667 196.333 118 315 118c102.667 0 184.834 -24.167 246.501 -72.5s92.5 -137.5 92.5 -267.5c0 -19.333 -0.833008 -45.166 -2.5 -77.499s-2.5 -65.5 -2.5 -99.5c0 -90 1.66699 -245.333 5 -466zM929.999 1410
c0 -10.667 -31.667 -65.5 -95 -164.5s-95 -152.167 -95 -159.5h-262c0 7.33301 -31.667 60.5 -95 159.5s-95 153.833 -95 164.5h155c0 -10.667 55.333 -75.334 166 -194.001c110.667 118.667 166 183.334 166 194.001h155z" />
    <glyph glyph-name="napostrophe" unicode="&#x149;" horiz-adv-x="1446" 
d="M1335 0l-266.001 -0.000976562c14.667 168.667 22 339.334 22 512.001c0 104.667 -15.5 175.667 -46.5 213s-78.167 56 -141.5 56c-76 0 -148 -26 -216 -78c3.33301 -260 5 -494.333 5 -703h-269c12 208.667 18 372.667 18 492c0 159.333 -16.333 309.666 -49 450.999
l256 28l17 -106h16c91.333 78.667 196.333 118 315 118c102.667 0 184.834 -24.167 246.501 -72.5s92.5 -137.5 92.5 -267.5c0 -19.333 -0.833008 -45.166 -2.5 -77.499s-2.5 -65.5 -2.5 -99.5c0 -90 1.66699 -245.333 5 -466zM413.999 1253
c0 -174.667 -106.333 -359.669 -319 -555.002l-89 76c90.667 100.667 136 210.334 136 329.001c-50.667 30.667 -76 79.667 -76 147c0 48.667 16.833 90.834 50.5 126.501s80.5 53.5 140.5 53.5c49.333 0 87.833 -18 115.5 -54s41.5 -77 41.5 -123zM234.999 1087z" />
    <glyph glyph-name="Eng" unicode="&#x14a;" horiz-adv-x="1361" 
d="M1217 0c0 -140.667 -33.001 -243.33 -99.001 -307.997c-89.333 -86.667 -234.666 -131.667 -435.999 -135l-22 200c98.667 3.33301 177.834 29.5 237.501 78.5s89.5 115.833 89.5 200.5c-42.667 50.667 -140 183 -292 397c-192 275.333 -301.333 463.666 -328 564.999
h-16c16.667 -146 25 -278 25 -396c0 -164.667 4.66699 -365.334 14 -602.001h-246c10 206.667 15 433.667 15 681c0 243.333 -5 450.333 -15 621h297c0 -35.333 82.333 -176.333 247 -423c175.333 -262 276 -439.667 302 -533h15c-16 148.667 -24 282 -24 400
c0 180.667 -4.66699 366 -14 556h250c-9.33301 -165.333 -14 -372.333 -14 -621c0 -123.333 2.16699 -243.833 6.5 -361.5s6.66602 -194.334 6.99902 -230.001s0.5 -65.5 0.5 -89.5z" />
    <glyph glyph-name="eng" unicode="&#x14b;" horiz-adv-x="1126" 
d="M1015 0c0 -140.667 -38.834 -248.831 -116.501 -324.498s-217.167 -115.167 -418.5 -118.5l-22 200c98.667 3.33301 171.667 26.166 219 68.499s74.833 124.166 82.5 245.499s11.5 268.333 11.5 441c0 108 -15.833 179.833 -47.5 215.5s-80.167 53.5 -145.5 53.5
c-72.667 0 -143 -26 -211 -78c3.33301 -260 5 -494.333 5 -703h-269c12 208.667 18 372.667 18 492c0 159.333 -16.333 309.666 -49 450.999l256 28l17 -106h16c93.333 78.667 193.333 118 300 118c112.667 0 199.834 -24.167 261.501 -72.5s92.5 -134.166 92.5 -257.499
c0 -12.667 -0.833008 -44.167 -2.5 -94.5s-2.5 -96.833 -2.5 -139.5c0 -78 0.833008 -151.5 2.5 -220.5s2.5 -135.167 2.5 -198.5z" />
    <glyph glyph-name="Omacron" unicode="&#x14c;" horiz-adv-x="1427" 
d="M1350 675c0 -204.667 -62.667 -374.336 -188 -509.003s-280.333 -202 -465 -202c-176 0 -323.333 61.833 -442 185.5s-178 280.834 -178 471.501c0 204.667 62.667 374.334 188 509.001s280.333 202 465 202c176 0 323.333 -61.667 442 -185s178 -280.666 178 -471.999z
M1074 645.998c0 139.333 -35.667 252.331 -107 338.998s-159.333 130 -264 130c-97.333 0 -180 -43.667 -248 -131s-102 -197.666 -102 -330.999c0 -138.667 35.833 -251.5 107.5 -338.5s159.5 -130.5 263.5 -130.5c97.333 0 180 43.833 248 131.5s102 197.834 102 330.501z
M973 1621l-12 -174h-504l11 174h505z" />
    <glyph glyph-name="omacron" unicode="&#x14d;" horiz-adv-x="1144" 
d="M1075 497c0 -168 -51.668 -299.333 -155.001 -394s-225 -142 -365 -142c-133.333 0 -247.666 43.167 -342.999 129.5s-143 207.833 -143 364.5c0 168.667 52 300.667 156 396s226 143 366 143c132.667 0 246.5 -43.5 341.5 -130.5s142.5 -209.167 142.5 -366.5z
M813.999 467c0 96.667 -22.667 177.834 -68 243.501s-104.333 98.5 -177 98.5c-70.667 0 -128.167 -30.667 -172.5 -92s-66.5 -138 -66.5 -230c0 -96.667 22.667 -177.834 68 -243.501s104.333 -98.5 177 -98.5c70.667 0 128.167 30.667 172.5 92s66.5 138 66.5 230z
M846.999 1335l-12 -174h-484l11 174h485z" />
    <glyph glyph-name="Obreve" unicode="&#x14e;" horiz-adv-x="1427" 
d="M1350 675c0 -204.667 -62.667 -374.336 -188 -509.003s-280.333 -202 -465 -202c-176 0 -323.333 61.833 -442 185.5s-178 280.834 -178 471.501c0 204.667 62.667 374.334 188 509.001s280.333 202 465 202c176 0 323.333 -61.667 442 -185s178 -280.666 178 -471.999z
M1074 645.998c0 139.333 -35.667 252.331 -107 338.998s-159.333 130 -264 130c-97.333 0 -180 -43.667 -248 -131s-102 -197.666 -102 -330.999c0 -138.667 35.833 -251.5 107.5 -338.5s159.5 -130.5 263.5 -130.5c97.333 0 180 43.833 248 131.5s102 197.834 102 330.501z
M1054 1630c-62.667 -167.333 -171.667 -251 -327 -251c-164 0 -273.667 83.667 -329 251l132 60c48 -98 113.333 -147 196 -147c80 0 145.333 49 196 147z" />
    <glyph glyph-name="obreve" unicode="&#x14f;" horiz-adv-x="1144" 
d="M1075 497c0 -168 -51.668 -299.333 -155.001 -394s-225 -142 -365 -142c-133.333 0 -247.666 43.167 -342.999 129.5s-143 207.833 -143 364.5c0 168.667 52 300.667 156 396s226 143 366 143c132.667 0 246.5 -43.5 341.5 -130.5s142.5 -209.167 142.5 -366.5z
M813.999 467c0 96.667 -22.667 177.834 -68 243.501s-104.333 98.5 -177 98.5c-70.667 0 -128.167 -30.667 -172.5 -92s-66.5 -138 -66.5 -230c0 -96.667 22.667 -177.834 68 -243.501s104.333 -98.5 177 -98.5c70.667 0 128.167 30.667 172.5 92s66.5 138 66.5 230z
M918.999 1360c-62.667 -190.667 -171.666 -286 -326.999 -286c-164 0 -273.667 95.333 -329 286l132 60c61.333 -121.333 126.666 -182 195.999 -182c66.667 0 132 60.667 196 182z" />
    <glyph glyph-name="Ohungarumlaut" unicode="&#x150;" horiz-adv-x="1427" 
d="M1350 675c0 -204.667 -62.667 -374.336 -188 -509.003s-280.333 -202 -465 -202c-176 0 -323.333 61.833 -442 185.5s-178 280.834 -178 471.501c0 204.667 62.667 374.334 188 509.001s280.333 202 465 202c176 0 323.333 -61.667 442 -185s178 -280.666 178 -471.999z
M1074 645.998c0 139.333 -35.667 252.331 -107 338.998s-159.333 130 -264 130c-97.333 0 -180 -43.667 -248 -131s-102 -197.666 -102 -330.999c0 -138.667 35.833 -251.5 107.5 -338.5s159.5 -130.5 263.5 -130.5c97.333 0 180 43.833 248 131.5s102 197.834 102 330.501z
M774 1690c0 -14.667 -30.667 -61.332 -92 -139.999s-95.333 -123.334 -102 -134.001h-149c0 10.667 11.667 55.5 35 134.5s35 125.5 35 139.5h273zM1161 1690c0 -14.667 -30.667 -61.332 -92 -139.999s-95.333 -123.334 -102 -134.001h-149c0 10.667 11.667 55.5 35 134.5
s35 125.5 35 139.5h273z" />
    <glyph glyph-name="ohungarumlaut" unicode="&#x151;" horiz-adv-x="1144" 
d="M1075 497c0 -168 -51.668 -299.333 -155.001 -394s-225 -142 -365 -142c-133.333 0 -247.666 43.167 -342.999 129.5s-143 207.833 -143 364.5c0 168.667 52 300.667 156 396s226 143 366 143c132.667 0 246.5 -43.5 341.5 -130.5s142.5 -209.167 142.5 -366.5z
M813.999 467c0 96.667 -22.667 177.834 -68 243.501s-104.333 98.5 -177 98.5c-70.667 0 -128.167 -30.667 -172.5 -92s-66.5 -138 -66.5 -230c0 -96.667 22.667 -177.834 68 -243.501s104.333 -98.5 177 -98.5c70.667 0 128.167 30.667 172.5 92s66.5 138 66.5 230z
M644.999 1410c0 -14.667 -30.667 -69.668 -92 -165.001s-92 -148.333 -92 -159h-149c0 10.667 11.667 63.834 35 159.501s35 150.5 35 164.5h263zM1032 1410c0 -14.667 -30.667 -69.668 -92 -165.001s-92 -148.333 -92 -159h-149c0 10.667 11.667 63.834 35 159.501
s35 150.5 35 164.5h263z" />
    <glyph glyph-name="OE" unicode="&#x152;" horiz-adv-x="1863" 
d="M1786 220l-9.00098 -220h-834c-86.667 -23.333 -170.667 -35 -252 -35c-195.333 0 -346.5 65.333 -453.5 196s-160.5 285.334 -160.5 464.001c0 184.667 57.5 348.667 172.5 492s271.167 215 468.5 215c68.667 0 150.667 -10 246 -30h774l-9 -219
c-224.667 10.667 -410 16 -556 16c6.66699 -94 10 -203.333 10 -328c118.667 0 271.667 2.66699 459 8v-206c-164.667 6.66699 -317.667 10 -459 10c0 -128.667 3.33301 -255.334 10 -380.001c150.667 0 348.334 5.66699 593.001 17zM929.999 681
c0 154 -2.33203 290.333 -6.99902 409c-65.333 16.667 -141 25 -227 25c-108.667 0 -192.334 -45 -251.001 -135s-88 -197.333 -88 -322c0 -126.667 31.667 -237.167 95 -331.5s150 -141.5 260 -141.5c87.333 0 157.333 10.333 210 31c5.33301 129.333 8 284.333 8 465z" />
    <glyph glyph-name="oe" unicode="&#x153;" horiz-adv-x="1765" 
d="M1696 577c0 -34 -1.99805 -78.334 -5.99805 -133.001l-630 -11c9.33301 -76 40.166 -138.833 92.499 -188.5s123.166 -74.5 212.499 -74.5c100 0 205 15 315 45l-20 -194c-89.333 -33.333 -202 -50 -338 -50c-171.333 0 -298.666 55.667 -381.999 167h-15
c-86 -118 -211 -177 -375 -177c-132.667 0 -246 43.167 -340 129.5s-141 207.833 -141 364.5c0 169.333 51.167 301.5 153.5 396.5s223.5 142.5 363.5 142.5c158.667 0 275.667 -54.667 351 -164h16c68 107.333 177.667 161 329 161
c141.333 0 245.666 -38.167 312.999 -114.5s101 -176.166 101 -299.499zM810.002 466.999c0 96.667 -22.832 177.832 -68.499 243.499s-104.834 98.5 -177.501 98.5c-70.667 0 -127.334 -30.5 -170.001 -91.5s-64 -137.833 -64 -230.5c0 -97.333 22 -178.666 66 -243.999
s102 -98 174 -98c70.667 0 128.334 30.667 173.001 92s67 138 67 230zM1462 585.997c0 153.333 -64 230 -192 230c-125.333 0 -196 -79.333 -212 -238z" />
    <glyph glyph-name="Racute" unicode="&#x154;" horiz-adv-x="1187" 
d="M1166 0h-296.001c-77.333 236 -136.666 381.667 -177.999 437s-108 83 -200 83c-38.667 0 -75.667 -0.333008 -111 -1c0 -171.333 3 -344.333 9 -519h-278c8.66699 201.333 13 428.333 13 681c0 242.667 -4.33301 449.667 -13 621h173c20 0 61.833 1 125.5 3
s122.5 3 176.5 3c306 0 459 -104.667 459 -314c0 -166 -87.333 -281.667 -262 -347v-15c67.333 -18.667 126.333 -71.167 177 -157.5s119 -244.5 205 -474.5zM790.999 920c0 132.667 -85.333 199 -256 199c-62.667 0 -118 -4.66699 -166 -14
c7.33301 -103.333 11 -238 11 -404c36.667 -1.33301 67.667 -2 93 -2c212 0 318 73.667 318 221zM896.999 1690c0 -8 -44.332 -52.999 -132.999 -134.999s-136.334 -128.333 -143.001 -139h-175c0 10.667 26.667 57.167 80 139.5s80 127.166 80 134.499h291z" />
    <glyph glyph-name="racute" unicode="&#x155;" horiz-adv-x="789" 
d="M771 950l-58 -234c-49.333 20 -99.333 30 -150 30c-98 0 -162.667 -44 -194 -132c0 -266 2 -470.667 6 -614h-266c11.333 200.667 17 364.667 17 492c0 158.667 -16.667 309 -50 451l255 28c11.333 -73.333 17 -116.333 17 -129h16c61.333 94 143 141 245 141
c48 0 102 -11 162 -33zM788 1410c0 -8 -46 -61.332 -138 -159.999s-138 -153.334 -138 -164.001h-175c0 10.667 30 65.5 90 164.5s90 152.167 90 159.5h271z" />
    <glyph glyph-name="Rcommaaccent" unicode="&#x156;" horiz-adv-x="1187" 
d="M1166 0h-296.001c-77.333 236 -136.666 381.667 -177.999 437s-108 83 -200 83c-38.667 0 -75.667 -0.333008 -111 -1c0 -171.333 3 -344.333 9 -519h-278c8.66699 201.333 13 428.333 13 681c0 242.667 -4.33301 449.667 -13 621h173c20 0 61.833 1 125.5 3
s122.5 3 176.5 3c306 0 459 -104.667 459 -314c0 -166 -87.333 -281.667 -262 -347v-15c67.333 -18.667 126.333 -71.167 177 -157.5s119 -244.5 205 -474.5zM790.999 920c0 132.667 -85.333 199 -256 199c-62.667 0 -118 -4.66699 -166 -14
c7.33301 -103.333 11 -238 11 -404c36.667 -1.33301 67.667 -2 93 -2c212 0 318 73.667 318 221zM748.999 -210c0 -125.333 -66.667 -229.999 -200 -313.999l-64 54c38.667 50 58 102 58 156c-42.667 25.333 -64 59.333 -64 102c0 40.667 12.333 74.167 37 100.5
s58.667 39.5 102 39.5c40.667 0 72.667 -13.333 96 -40s35 -59.334 35 -98.001z" />
    <glyph glyph-name="rcommaaccent" unicode="&#x157;" horiz-adv-x="789" 
d="M771 950l-58 -234c-49.333 20 -99.333 30 -150 30c-98 0 -162.667 -44 -194 -132c0 -266 2 -470.667 6 -614h-266c11.333 200.667 17 364.667 17 492c0 158.667 -16.667 309 -50 451l255 28c11.333 -73.333 17 -116.333 17 -129h16c61.333 94 143 141 245 141
c48 0 102 -11 162 -33zM379 -210c0 -125.333 -66.667 -229.999 -200 -313.999l-64 54c38.667 50 58 102 58 156c-42.667 25.333 -64 59.333 -64 102c0 40.667 12.333 74.167 37 100.5s58.667 39.5 102 39.5c40.667 0 72.667 -13.333 96 -40s35 -59.334 35 -98.001z" />
    <glyph glyph-name="Rcaron" unicode="&#x158;" horiz-adv-x="1187" 
d="M1166 0h-296.001c-77.333 236 -136.666 381.667 -177.999 437s-108 83 -200 83c-38.667 0 -75.667 -0.333008 -111 -1c0 -171.333 3 -344.333 9 -519h-278c8.66699 201.333 13 428.333 13 681c0 242.667 -4.33301 449.667 -13 621h173c20 0 61.833 1 125.5 3
s122.5 3 176.5 3c306 0 459 -104.667 459 -314c0 -166 -87.333 -281.667 -262 -347v-15c67.333 -18.667 126.333 -71.167 177 -157.5s119 -244.5 205 -474.5zM790.999 920c0 132.667 -85.333 199 -256 199c-62.667 0 -118 -4.66699 -166 -14
c7.33301 -103.333 11 -238 11 -404c36.667 -1.33301 67.667 -2 93 -2c212 0 318 73.667 318 221zM902.999 1690c0 -10.667 -33.333 -57.167 -100 -139.5s-100 -127.166 -100 -134.499h-242c0 7.33301 -33.333 52.166 -100 134.499s-100 128.833 -100 139.5h155
c6.66699 -10.667 62 -55.334 166 -134.001c104 78.667 159.333 123.334 166 134.001h155z" />
    <glyph glyph-name="rcaron" unicode="&#x159;" horiz-adv-x="789" 
d="M771 950l-58 -234c-49.333 20 -99.333 30 -150 30c-98 0 -162.667 -44 -194 -132c0 -266 2 -470.667 6 -614h-266c11.333 200.667 17 364.667 17 492c0 158.667 -16.667 309 -50 451l255 28c11.333 -73.333 17 -116.333 17 -129h16c61.333 94 143 141 245 141
c48 0 102 -11 162 -33zM784 1410c0 -10.667 -31.667 -65.5 -95 -164.5s-95 -152.167 -95 -159.5h-262c0 7.33301 -31.667 60.5 -95 159.5s-95 153.833 -95 164.5h155c0 -10.667 55.333 -75.334 166 -194.001c110.667 118.667 166 183.334 166 194.001h155z" />
    <glyph glyph-name="Sacute" unicode="&#x15a;" horiz-adv-x="1049" 
d="M984 355c0 -260.667 -187.337 -391.002 -562.004 -391.002c-127.333 0 -245.666 15.333 -354.999 46l49 223c108 -37.333 210 -56 306 -56c106.667 0 183.334 10.333 230.001 31s70 55.334 70 104.001c0 50.667 -22 93.334 -66 128.001c-38 30.667 -115 70.667 -231 120
c-105.333 45.333 -183.666 94.666 -234.999 147.999c-64.667 67.333 -97 150.333 -97 249c0 114.667 42.5 204.334 127.5 269.001s207.167 97 366.5 97c130.667 0 240.334 -11 329.001 -33l-37 -222c-90 32.667 -187.333 49 -292 49c-157.333 0 -236 -42 -236 -126
c0 -44.667 18.333 -81 55 -109c32 -24 101.667 -57.667 209 -101c114 -46 199.333 -96.667 256 -152c75.333 -74 113 -165.333 113 -274zM910.996 1690c0 -8 -44.332 -52.999 -132.999 -134.999s-136.334 -128.333 -143.001 -139h-175c0 10.667 26.667 57.167 80 139.5
s80 127.166 80 134.499h291z" />
    <glyph glyph-name="sacute" unicode="&#x15b;" horiz-adv-x="859" 
d="M791 273c0 -200 -148.001 -300.001 -444.001 -300.001c-108 0 -202.333 11.667 -283 35l34 197c83.333 -30 166.333 -45 249 -45c80 0 135.5 6.66699 166.5 20s46.5 35.666 46.5 66.999c0 48.667 -56 95 -168 139c-98 38.667 -169.333 76.667 -214 114
c-61.333 52 -92 115.667 -92 191c0 88.667 33 160 99 214s162 81 288 81c118 0 210.667 -10.333 278 -31l-34 -198c-75.333 29.333 -156.666 44 -243.999 44c-106.667 0 -160 -27.333 -160 -82c0 -28 11.333 -50.5 34 -67.5s69 -38.5 139 -64.5
c96.667 -35.333 167 -71.666 211 -108.999c62.667 -53.333 94 -121.666 94 -204.999zM791.999 1410c0 -8 -46 -61.332 -138 -159.999s-138 -153.334 -138 -164.001h-175c0 10.667 30 65.5 90 164.5s90 152.167 90 159.5h271z" />
    <glyph glyph-name="Scircumflex" unicode="&#x15c;" horiz-adv-x="1049" 
d="M984 355c0 -260.667 -187.337 -391.002 -562.004 -391.002c-127.333 0 -245.666 15.333 -354.999 46l49 223c108 -37.333 210 -56 306 -56c106.667 0 183.334 10.333 230.001 31s70 55.334 70 104.001c0 50.667 -22 93.334 -66 128.001c-38 30.667 -115 70.667 -231 120
c-105.333 45.333 -183.666 94.666 -234.999 147.999c-64.667 67.333 -97 150.333 -97 249c0 114.667 42.5 204.334 127.5 269.001s207.167 97 366.5 97c130.667 0 240.334 -11 329.001 -33l-37 -222c-90 32.667 -187.333 49 -292 49c-157.333 0 -236 -42 -236 -126
c0 -44.667 18.333 -81 55 -109c32 -24 101.667 -57.667 209 -101c114 -46 199.333 -96.667 256 -152c75.333 -74 113 -165.333 113 -274zM872.996 1416h-155c-6.66699 10.667 -62 55.334 -166 134.001c-104 -78.667 -159.333 -123.334 -166 -134.001h-155
c0 10.667 33.333 57.167 100 139.5s100 127.166 100 134.499h242c0 -7.33301 33.333 -52.166 100 -134.499s100 -128.833 100 -139.5z" />
    <glyph glyph-name="scircumflex" unicode="&#x15d;" horiz-adv-x="859" 
d="M791 273c0 -200 -148.001 -300.001 -444.001 -300.001c-108 0 -202.333 11.667 -283 35l34 197c83.333 -30 166.333 -45 249 -45c80 0 135.5 6.66699 166.5 20s46.5 35.666 46.5 66.999c0 48.667 -56 95 -168 139c-98 38.667 -169.333 76.667 -214 114
c-61.333 52 -92 115.667 -92 191c0 88.667 33 160 99 214s162 81 288 81c118 0 210.667 -10.333 278 -31l-34 -198c-75.333 29.333 -156.666 44 -243.999 44c-106.667 0 -160 -27.333 -160 -82c0 -28 11.333 -50.5 34 -67.5s69 -38.5 139 -64.5
c96.667 -35.333 167 -71.666 211 -108.999c62.667 -53.333 94 -121.666 94 -204.999zM759.999 1086h-155c0 10.667 -55.333 75.334 -166 194.001c-110.667 -118.667 -166 -183.334 -166 -194.001h-155c0 10.667 31.667 65.5 95 164.5s95 152.167 95 159.5h262
c0 -7.33301 31.667 -60.5 95 -159.5s95 -153.833 95 -164.5z" />
    <glyph glyph-name="Scedilla" unicode="&#x15e;" horiz-adv-x="1071" 
d="M994 355c0 -243.333 -163.67 -373.002 -491.003 -389.002l-10 -58c126 -31.333 189 -96.333 189 -195c0 -151.333 -82.667 -227 -248 -227l-24 112c28 0 51.667 9.83301 71 29.5s29 41.5 29 65.5c0 67.333 -43 109 -129 125l25 146c-117.333 2 -227 17.333 -329 46
l49 223c108 -37.333 210 -56 306 -56c106.667 0 183.334 10.333 230.001 31s70 55.334 70 104.001c0 50.667 -22 93.334 -66 128.001c-38 30.667 -115 70.667 -231 120c-105.333 45.333 -183.666 94.666 -234.999 147.999c-64.667 67.333 -97 150.333 -97 249
c0 114.667 42.5 204.334 127.5 269.001s207.167 97 366.5 97c130.667 0 240.334 -11 329.001 -33l-37 -222c-90 32.667 -187.333 49 -292 49c-157.333 0 -236 -42 -236 -126c0 -44.667 18.333 -81 55 -109c32 -24 101.667 -57.667 209 -101
c114 -46 199.333 -96.667 256 -152c75.333 -74 113 -165.333 113 -274z" />
    <glyph glyph-name="scedilla" unicode="&#x15f;" horiz-adv-x="859" 
d="M791 273c0 -178 -117.334 -276.669 -352.001 -296.002l-8 -69c126 -31.333 189 -96.333 189 -195c0 -151.333 -82 -227 -246 -227l-24 112c26.667 0 49.667 9.83301 69 29.5s29 41.5 29 65.5c0 67.333 -43 109 -129 125l27 155c-108 0 -202 11.667 -282 35l34 197
c83.333 -30 166.333 -45 249 -45c80 0 136 7 168 21c30 12.667 45 34.667 45 66c0 48.667 -56 95 -168 139c-98 38.667 -169.333 76.667 -214 114c-61.333 52 -92 115.667 -92 191c0 88.667 32 159 96 211c68 56 165 84 291 84c118 0 210.667 -10.333 278 -31l-34 -198
c-75.333 29.333 -156.666 44 -243.999 44c-106.667 0 -160 -27.333 -160 -82c0 -28 11.333 -50.5 34 -67.5s69 -38.5 139 -64.5c96.667 -35.333 167 -71.666 211 -108.999c62.667 -53.333 94 -121.666 94 -204.999z" />
    <glyph glyph-name="Scaron" unicode="&#x160;" horiz-adv-x="1049" 
d="M984 355c0 -260.667 -187.337 -391.002 -562.004 -391.002c-127.333 0 -245.666 15.333 -354.999 46l49 223c108 -37.333 210 -56 306 -56c106.667 0 183.334 10.333 230.001 31s70 55.334 70 104.001c0 50.667 -22 93.334 -66 128.001c-38 30.667 -115 70.667 -231 120
c-105.333 45.333 -183.666 94.666 -234.999 147.999c-64.667 67.333 -97 150.333 -97 249c0 114.667 42.5 204.334 127.5 269.001s207.167 97 366.5 97c130.667 0 240.334 -11 329.001 -33l-37 -222c-90 32.667 -187.333 49 -292 49c-157.333 0 -236 -42 -236 -126
c0 -44.667 18.333 -81 55 -109c32 -24 101.667 -57.667 209 -101c114 -46 199.333 -96.667 256 -152c75.333 -74 113 -165.333 113 -274zM887.996 1690c0 -10.667 -33.333 -57.167 -100 -139.5s-100 -127.166 -100 -134.499h-242c0 7.33301 -33.333 52.166 -100 134.499
s-100 128.833 -100 139.5h155c6.66699 -10.667 62 -55.334 166 -134.001c104 78.667 159.333 123.334 166 134.001h155z" />
    <glyph glyph-name="scaron" unicode="&#x161;" horiz-adv-x="859" 
d="M791 273c0 -200 -148.001 -300.001 -444.001 -300.001c-108 0 -202.333 11.667 -283 35l34 197c83.333 -30 166.333 -45 249 -45c80 0 135.5 6.66699 166.5 20s46.5 35.666 46.5 66.999c0 48.667 -56 95 -168 139c-98 38.667 -169.333 76.667 -214 114
c-61.333 52 -92 115.667 -92 191c0 88.667 33 160 99 214s162 81 288 81c118 0 210.667 -10.333 278 -31l-34 -198c-75.333 29.333 -156.666 44 -243.999 44c-106.667 0 -160 -27.333 -160 -82c0 -28 11.333 -50.5 34 -67.5s69 -38.5 139 -64.5
c96.667 -35.333 167 -71.666 211 -108.999c62.667 -53.333 94 -121.666 94 -204.999zM770.999 1410c0 -10.667 -31.667 -65.5 -95 -164.5s-95 -152.167 -95 -159.5h-262c0 7.33301 -31.667 60.5 -95 159.5s-95 153.833 -95 164.5h155c0 -10.667 55.333 -75.334 166 -194.001
c110.667 118.667 166 183.334 166 194.001h155z" />
    <glyph glyph-name="Tcommaaccent" unicode="&#x162;" horiz-adv-x="1077" 
d="M1055 1302l-7 -215c-133.333 10 -259 15 -377 15c-1.33301 -126 -2 -266.333 -2 -421c0 -240 3.66699 -467 11 -681h-280c8.66699 212 13 439 13 681c0 152 -1.33301 292.333 -4 421c-94 0 -223 -5.33301 -387 -16l8 216h1025zM670 -210
c0 -125.333 -66.667 -229.999 -200 -313.999l-64 54c38.667 50 58 102 58 156c-42.667 25.333 -64 59.333 -64 102c0 40.667 12.333 74.167 37 100.5s58.667 39.5 102 39.5c40.667 0 72.667 -13.333 96 -40s35 -59.334 35 -98.001z" />
    <glyph glyph-name="Tcommaaccent" unicode="&#x21a;" horiz-adv-x="1077" 
d="M1055 1302l-7 -215c-133.333 10 -259 15 -377 15c-1.33301 -126 -2 -266.333 -2 -421c0 -240 3.66699 -467 11 -681h-280c8.66699 212 13 439 13 681c0 152 -1.33301 292.333 -4 421c-94 0 -223 -5.33301 -387 -16l8 216h1025zM670 -210
c0 -125.333 -66.667 -229.999 -200 -313.999l-64 54c38.667 50 58 102 58 156c-42.667 25.333 -64 59.333 -64 102c0 40.667 12.333 74.167 37 100.5s58.667 39.5 102 39.5c40.667 0 72.667 -13.333 96 -40s35 -59.334 35 -98.001z" />
    <glyph glyph-name="tcommaaccent" unicode="&#x163;" horiz-adv-x="743" 
d="M704 187l-17.001 -177.999c-46.667 -20 -105.334 -30 -176.001 -30c-108 0 -189.333 29.333 -244 88s-82 171.667 -82 339c0 100.667 0.666992 214.667 2 342c-34 0 -80 -2 -138 -6l7 197c51.333 -4 99 -6 143 -6c0.666992 35.333 3.33398 128.333 8.00098 279l237 29
c-10 -132.667 -15 -235.334 -15 -308.001c56 0 139.667 2.66699 251 8l-8 -199c-101.333 4 -183.666 6 -246.999 6c-1.33301 -88.667 -2 -181.667 -2 -279c0 -118.667 12 -198.167 36 -238.5s66.333 -60.5 127 -60.5c36.667 0 76 5.66699 118 17zM556.999 -209.999
c0 -125.333 -66.667 -229.999 -200 -313.999l-64 54c38.667 50 58 102 58 156c-42.667 25.333 -64 59.333 -64 102c0 40.667 12.333 74.167 37 100.5s58.667 39.5 102 39.5c40.667 0 72.667 -13.333 96 -40s35 -59.334 35 -98.001z" />
    <glyph glyph-name="tcommaaccent" unicode="&#x21b;" horiz-adv-x="743" 
d="M704 187l-17.001 -177.999c-46.667 -20 -105.334 -30 -176.001 -30c-108 0 -189.333 29.333 -244 88s-82 171.667 -82 339c0 100.667 0.666992 214.667 2 342c-34 0 -80 -2 -138 -6l7 197c51.333 -4 99 -6 143 -6c0.666992 35.333 3.33398 128.333 8.00098 279l237 29
c-10 -132.667 -15 -235.334 -15 -308.001c56 0 139.667 2.66699 251 8l-8 -199c-101.333 4 -183.666 6 -246.999 6c-1.33301 -88.667 -2 -181.667 -2 -279c0 -118.667 12 -198.167 36 -238.5s66.333 -60.5 127 -60.5c36.667 0 76 5.66699 118 17zM556.999 -209.999
c0 -125.333 -66.667 -229.999 -200 -313.999l-64 54c38.667 50 58 102 58 156c-42.667 25.333 -64 59.333 -64 102c0 40.667 12.333 74.167 37 100.5s58.667 39.5 102 39.5c40.667 0 72.667 -13.333 96 -40s35 -59.334 35 -98.001z" />
    <glyph glyph-name="Tcaron" unicode="&#x164;" horiz-adv-x="1077" 
d="M1055 1302l-7 -215c-133.333 10 -259 15 -377 15c-1.33301 -126 -2 -266.333 -2 -421c0 -240 3.66699 -467 11 -681h-280c8.66699 212 13 439 13 681c0 152 -1.33301 292.333 -4 421c-94 0 -223 -5.33301 -387 -16l8 216h1025zM858 1690
c0 -10.667 -33.333 -57.167 -100 -139.5s-100 -127.166 -100 -134.499h-242c0 7.33301 -33.333 52.166 -100 134.499s-100 128.833 -100 139.5h155c6.66699 -10.667 62 -55.334 166 -134.001c104 78.667 159.333 123.334 166 134.001h155z" />
    <glyph glyph-name="tcaron" unicode="&#x165;" horiz-adv-x="952" 
d="M704 187l-17.001 -177.999c-46.667 -20 -105.334 -30 -176.001 -30c-108 0 -189.333 29.333 -244 88s-82 171.667 -82 339c0 100.667 0.666992 214.667 2 342c-34 0 -80 -2 -138 -6l7 197c51.333 -4 99 -6 143 -6c0.666992 35.333 3.33398 128.333 8.00098 279l237 29
c-10 -132.667 -15 -235.334 -15 -308.001c56 0 139.667 2.66699 251 8l-8 -199c-101.333 4 -183.666 6 -246.999 6c-1.33301 -88.667 -2 -181.667 -2 -279c0 -118.667 12 -198.167 36 -238.5s66.333 -60.5 127 -60.5c36.667 0 76 5.66699 118 17zM993.999 1177
c0 -148 -68.001 -264.999 -204.001 -350.999l-66 55c36 59.333 54 117.333 54 174c-53.333 26 -80 66 -80 120c0 41.333 14.333 77.166 43 107.499s68.334 45.5 119.001 45.5c42 0 74.833 -15.333 98.5 -46s35.5 -65.667 35.5 -105z" />
    <glyph glyph-name="Tbar" unicode="&#x166;" horiz-adv-x="1077" 
d="M1055 1302l-7 -215c-133.333 10 -259 15 -377 15c-1.33301 -97.333 -2 -203.666 -2 -318.999h322l-10 -148h-312c0 -223.333 3.66699 -435 11 -635h-280c8 198 12.333 409.667 13 635h-321l10 148h311c-0.666992 113.333 -2 219.666 -4 318.999
c-94 0 -223 -5.33301 -387 -16l8 216h1025z" />
    <glyph glyph-name="tbar" unicode="&#x167;" horiz-adv-x="743" 
d="M704 187l-17.0039 -177.999c-46.667 -20 -102 -30 -166 -30c-114.667 0 -199.334 29.333 -254.001 88s-82 171.667 -82 339v56h-119l6 142h113c0.666992 45.333 1.33398 93.333 2.00098 144c-34 0 -80 -2 -138 -6l7 197c51.333 -4 99 -6 143 -6
c0.666992 35.333 3.33398 128.333 8.00098 279l237 29c-10 -132.667 -15 -235.334 -15 -308.001c56 0 139.667 2.66699 251 8l-8 -199c-101.333 4 -183.666 6 -246.999 6l-2 -144h227l-6 -142h-221c0.666992 -115.333 12.834 -192.833 36.501 -232.5
s65.834 -59.5 126.501 -59.5c36.667 0 76 5.66699 118 17zM326.996 950.001z" />
    <glyph glyph-name="Utilde" unicode="&#x168;" horiz-adv-x="1347" 
d="M1225 1302c-6 -224 -9 -448.001 -9 -672.001c0 -442.667 -181.333 -664 -544 -664c-179.333 0 -314.333 49 -405 147s-136 274 -136 528c0 224 -3 444.333 -9 661h283c-8.66699 -225.333 -13 -442.666 -13 -651.999c0 -183.333 23.333 -309 70 -377
s118.667 -102 216 -102c102 0 175.667 33.833 221 101.5s68 194.167 68 379.5c0 203.333 -4.33301 420 -13 650h271zM1082 1625c-74.667 -130.667 -159.999 -196 -255.999 -196c-30.667 0 -71.167 7.66699 -121.5 23s-88.833 23 -115.5 23
c-60.667 0 -119.334 -22.333 -176.001 -67l-89 75c74.667 124 160 186 256 186c33.333 0 74.666 -7.66699 123.999 -23s87 -23 113 -23c60.667 0 119.334 25.667 176.001 77z" />
    <glyph glyph-name="utilde" unicode="&#x169;" horiz-adv-x="1107" 
d="M1005 1l-233.999 -8c-10.667 36 -16 64.667 -16 86h-16c-87.333 -72 -189.333 -108 -306 -108c-110 0 -192.833 28.833 -248.5 86.5s-83.5 172.834 -83.5 345.501c0 20.667 0.5 49.667 1.5 87s1.5 70 1.5 98c0 74 -6.33301 192 -19 354l279 10
c-10.667 -128 -16 -249.333 -16 -364c0 -163.333 12.167 -273.333 36.5 -330s72.166 -85 143.499 -85c78 0 145.333 18.667 202 56c0 350.667 -4 588.667 -12 714l270 9c-6.66699 -126 -10 -289.333 -10 -490c0 -148.667 9 -302.334 27 -461.001zM977.001 1355
c-74.667 -150.667 -159.999 -226 -255.999 -226c-30.667 0 -71.167 7.66699 -121.5 23s-88.833 23 -115.5 23c-60.667 0 -119.334 -35.667 -176.001 -107l-89 75c74.667 150.667 160 226 256 226c33.333 0 74.666 -7.66699 123.999 -23s87 -23 113 -23
c60.667 0 119.334 35.667 176.001 107z" />
    <glyph glyph-name="Umacron" unicode="&#x16a;" horiz-adv-x="1347" 
d="M1225 1302c-6 -224 -9 -448.001 -9 -672.001c0 -442.667 -181.333 -664 -544 -664c-179.333 0 -314.333 49 -405 147s-136 274 -136 528c0 224 -3 444.333 -9 661h283c-8.66699 -225.333 -13 -442.666 -13 -651.999c0 -183.333 23.333 -309 70 -377
s118.667 -102 216 -102c102 0 175.667 33.833 221 101.5s68 194.167 68 379.5c0 203.333 -4.33301 420 -13 650h271zM936 1621l-12 -174h-504l11 174h505z" />
    <glyph glyph-name="umacron" unicode="&#x16b;" horiz-adv-x="1107" 
d="M1005 1l-233.999 -8c-10.667 36 -16 64.667 -16 86h-16c-87.333 -72 -189.333 -108 -306 -108c-110 0 -192.833 28.833 -248.5 86.5s-83.5 172.834 -83.5 345.501c0 20.667 0.5 49.667 1.5 87s1.5 70 1.5 98c0 74 -6.33301 192 -19 354l279 10
c-10.667 -128 -16 -249.333 -16 -364c0 -163.333 12.167 -273.333 36.5 -330s72.166 -85 143.499 -85c78 0 145.333 18.667 202 56c0 350.667 -4 588.667 -12 714l270 9c-6.66699 -126 -10 -289.333 -10 -490c0 -148.667 9 -302.334 27 -461.001zM819.001 1335l-12 -174
h-484l11 174h485z" />
    <glyph glyph-name="Ubreve" unicode="&#x16c;" horiz-adv-x="1347" 
d="M1225 1302c-6 -224 -9 -448.001 -9 -672.001c0 -442.667 -181.333 -664 -544 -664c-179.333 0 -314.333 49 -405 147s-136 274 -136 528c0 224 -3 444.333 -9 661h283c-8.66699 -225.333 -13 -442.666 -13 -651.999c0 -183.333 23.333 -309 70 -377
s118.667 -102 216 -102c102 0 175.667 33.833 221 101.5s68 194.167 68 379.5c0 203.333 -4.33301 420 -13 650h271zM1017 1630c-62.667 -167.333 -171.667 -251 -327 -251c-164 0 -273.667 83.667 -329 251l132 60c48 -98 113.333 -147 196 -147c80 0 145.333 49 196 147z
" />
    <glyph glyph-name="ubreve" unicode="&#x16d;" horiz-adv-x="1107" 
d="M1005 1l-233.999 -8c-10.667 36 -16 64.667 -16 86h-16c-87.333 -72 -189.333 -108 -306 -108c-110 0 -192.833 28.833 -248.5 86.5s-83.5 172.834 -83.5 345.501c0 20.667 0.5 49.667 1.5 87s1.5 70 1.5 98c0 74 -6.33301 192 -19 354l279 10
c-10.667 -128 -16 -249.333 -16 -364c0 -163.333 12.167 -273.333 36.5 -330s72.166 -85 143.499 -85c78 0 145.333 18.667 202 56c0 350.667 -4 588.667 -12 714l270 9c-6.66699 -126 -10 -289.333 -10 -490c0 -148.667 9 -302.334 27 -461.001zM885.001 1360
c-62.667 -190.667 -171.666 -286 -326.999 -286c-164 0 -273.667 95.333 -329 286l132 60c61.333 -121.333 126.666 -182 195.999 -182c66.667 0 132 60.667 196 182z" />
    </font>
</defs>
</svg>
