<?xml version="1.0" standalone="no"?>
<!DOCTYPE svg PUBLIC "-//W3C//DTD SVG 1.1//EN" "http://www.w3.org/Graphics/SVG/1.1/DTD/svg11.dtd" >
<svg>
<metadata>
Created by FontForge 20090914 at Wed Mar 30 18:50:52 2016
 By www-data
&#194;&#169; 2008 Microsoft Corporation. All Rights Reserved.
</metadata>
<defs>
<font id="Candara" horiz-adv-x="1033" >
  <font-face 
    font-family="Candara"
    font-weight="400"
    font-stretch="normal"
    units-per-em="2048"
    panose-1="2 14 5 2 3 3 3 2 2 4"
    ascent="1484"
    descent="-564"
    x-height="950"
    cap-height="1302"
    bbox="-958.999 -581 2284 1950"
    underline-thickness="20"
    underline-position="-123"
    unicode-range="U+000D-U+FB04"
  />
<missing-glyph horiz-adv-x="932" 
d="M932 1308v-1308h-932v1308h932zM841 91v1126h-750v-1126h750zM409 426l-1.99902 31c0 82.667 12.833 141 38.5 175s48.5 60.333 68.5 79c38 38.667 62.5 68 73.5 88s16.5 41 16.5 63c0 44 -13.833 81.167 -41.5 111.5s-59.834 45.5 -96.501 45.5
c-38.667 0 -71.5 -13.667 -98.5 -41s-44.167 -71 -51.5 -131l-90 14c8 86.667 34.833 150 80.5 190s101.5 60 167.5 60c62.667 0 115.667 -22.167 159 -66.5s65 -102.166 65 -173.499c0 -38 -7.5 -72.333 -22.5 -103s-45.5 -68 -91.5 -112
c-45.333 -40.667 -71.833 -73.834 -79.5 -99.501s-11.5 -69.167 -11.5 -130.5h-84zM389.001 272c0 18.667 6.33301 34.334 19 47.001s28 19 46 19c18.667 0 34.334 -6.33301 47.001 -19s19 -28.334 19 -47.001c0 -18 -6.33301 -33.167 -19 -45.5
s-28.334 -18.5 -47.001 -18.5c-18 0 -33.333 6.16699 -46 18.5s-19 27.5 -19 45.5z" />
    <glyph glyph-name="uniFB00" unicode="ff" horiz-adv-x="1267" 
d="M844 1243c-60.667 34.667 -134.001 52 -220.001 52c-52.667 0 -94.5 -6.66699 -125.5 -20s-54.667 -35 -71 -65s-26.833 -69.333 -31.5 -118s-7 -102 -7 -160h419c0 90 5.33301 167 16 231c4.66699 29.333 11.334 56 20.001 80zM1238 1286
c-41.333 11.333 -81.668 16.998 -121.001 16.998c-61.333 0 -103 -24.333 -125 -73s-33 -148.667 -33 -300c67.333 0 160.333 3.33301 279 10l-6 -149c-135.333 4 -226.333 6 -273 6c0 -303.333 4.33301 -569 13 -797h-179c10 222.667 15 488.334 15 797.001h-421
c0 -303.333 4 -569 12 -797h-178c10 222.667 15 488.334 15 797.001c-41.333 0 -112.333 -2 -213 -6l6 147c92.667 -4 161.667 -6 207 -6c0 76.667 5.33301 147 16 211s31 116.333 61 157s71.5 70.5 124.5 89.5s115.167 28.5 186.5 28.5c110.667 0 206.334 -21 287.001 -63
c49.333 54 118 81 206 81c48 0 98 -5.66699 150 -17z" />
    <glyph glyph-name="uniFB01" unicode="fi" horiz-adv-x="1109" 
d="M1009 1364l-62 -149.999c-130 66 -238.333 99 -325 99c-52.667 0 -94.5 -6.66699 -125.5 -20s-54.667 -35 -71 -65s-26.833 -69.333 -31.5 -118s-7 -108.667 -7 -180c267.333 0 467 13 599 39c-8 -138.667 -12 -309.334 -12 -512.001c0 -160 4.66699 -312.333 14 -457
h-181c9.33301 134 14 286.333 14 457c0 66.667 -1.5 129.167 -4.5 187.5s-7.16699 113.5 -12.5 165.5c-71.333 -4.66699 -141.5 -8 -210.5 -10s-137.833 -3 -206.5 -3c0 -303.333 4 -569 12 -797h-179c9.33301 376 14 641.667 14 797c-40.667 0 -111.667 -2 -213 -6l7 147
c46 -2.66699 86.167 -4.66699 120.5 -6s62.833 -2 85.5 -2c0 90 5.33301 167 16 231s31 116.333 61 157s71.5 70.5 124.5 89.5s115.167 28.5 186.5 28.5c143.333 0 272.333 -24 387 -72z" />
    <glyph glyph-name="uniFB02" unicode="fl" horiz-adv-x="1143" 
d="M999 1417c-13.333 -181.333 -20 -405.333 -20 -672c0 -272.667 6.66699 -521 20 -745h-192c12 220 18 468.333 18 745c0 191.333 -6.33301 372.666 -19 543.999c-66 16 -126.667 24 -182 24c-52.667 0 -94.5 -6.66699 -125.5 -20s-54.667 -35 -71 -65
s-26.833 -69.333 -31.5 -118s-7 -108.667 -7 -180c66 0 158.333 3.33301 277 10l-6 -149c-135.333 4 -226.333 6 -273 6c0 -303.333 4 -569 12 -797h-178c10 222.667 15 488.334 15 797.001c-41.333 0 -112.333 -2 -213 -6l6 147c92.667 -5.33301 161.667 -8 207 -8
c0 90 5.33301 167 16 231s31 116.333 61 157s71.5 70.5 124.5 89.5s115.167 28.5 186.5 28.5c55.333 0 112.333 -9.66699 171 -29z" />
    <glyph glyph-name="uniFB03" unicode="ffi" horiz-adv-x="1681" 
d="M1581 1364l-62 -150.001c-130 66 -238.333 99 -325 99c-52.667 0 -94.5 -6.66699 -125.5 -20s-54.667 -35 -71 -65s-26.833 -69.333 -31.5 -118s-7 -108.667 -7 -180c267.333 0 467 13 599 39c-8.66699 -139.333 -13 -310 -13 -512c0 -160 5 -312.333 15 -457h-183
c10 134 15 286.333 15 457c0 143.333 -6.66699 261.333 -20 354c-106 -8 -243.667 -12.667 -413 -14c0 -303.333 4 -569 12 -797h-178c10 222.667 15 488.334 15 797.001h-421c0 -303.333 4 -569 12 -797h-178c10 222.667 15 488.334 15 797.001
c-41.333 0 -112.333 -2 -213 -6l6 147c92 -5.33301 160.667 -8 206 -8c0 76.667 5.33301 147 16 211s31 116.333 61 157s71.5 70.5 124.5 89.5s115.167 28.5 186.5 28.5c112.667 0 209.667 -21.333 291 -64c26 23.333 57.333 41.666 94 54.999
c53.333 19.333 115.333 29 186 29c143.333 0 272.333 -24 387 -72zM843 1241c-60.667 34.667 -134.001 52 -220.001 52c-52.667 0 -94.5 -6.66699 -125.5 -20s-54.667 -35 -71 -65s-26.833 -69.333 -31.5 -118s-7 -102 -7 -160h419c0 90 5.33301 167 16 231
c4.66699 29.333 11.334 56 20.001 80z" />
    <glyph glyph-name="uniFB04" unicode="ffl" horiz-adv-x="1716" 
d="M1572 0h-192.999c12 220 18 468.333 18 745c0 191.333 -6.33301 372.666 -19 543.999c-66 16 -126.667 24 -182 24c-52.667 0 -94.5 -6.66699 -125.5 -20s-54.667 -35 -71 -65s-26.833 -69.333 -31.5 -118s-7 -108.667 -7 -180c66 0 158.333 3.33301 277 10l-6 -149
c-135.333 4 -226.333 6 -273 6c0 -303.333 4 -569 12 -797h-178c10 222.667 15 488.334 15 797.001h-421c0 -303.333 4 -569 12 -797h-178c10 222.667 15 488.334 15 797.001c-41.333 0 -112.333 -2 -213 -6l6 147c92.667 -5.33301 161.667 -8 207 -8
c0 76.667 5.33301 147 16 211s31 116.333 61 157s71.5 70.5 124.5 89.5s115.167 28.5 186.5 28.5c112.667 0 209.667 -21.333 291 -64c26 23.333 57.333 41.666 94 54.999c53.333 19.333 115.666 29 186.999 29c55.333 0 112.333 -9.66699 171 -29l204 11
c-13.333 -182 -20 -406.333 -20 -673c0 -272.667 7 -521 21 -745zM844.001 1241c-60.667 34.667 -134.001 52 -220.001 52c-52.667 0 -94.5 -6.66699 -125.5 -20s-54.667 -35 -71 -65s-26.833 -69.333 -31.5 -118s-7 -102 -7 -160h419c0 90 5.33301 167 16 231
c4.66699 29.333 11.334 56 20.001 80z" />
    <glyph glyph-name="f_b.liga" unicode="fb" horiz-adv-x="1811" 
d="M1534 489c0 101.333 -26.332 186.833 -78.999 256.5s-125.334 104.5 -218.001 104.5c-120 0 -206 -37 -258 -111c0 -236 5.33301 -427.667 16 -575c54.667 -46.667 125 -70 211 -70c109.333 0 191.333 38.667 246 116s82 170.333 82 279zM1712 514
c0 -146 -41.667 -272.666 -125 -379.999s-197.333 -161 -342 -161c-122.667 0 -206 22 -250 66h-8l-24 -39h-156c12 220 18 468.333 18 745c0 191.333 -6.33301 372.666 -19 543.999c-66 16 -126.667 24 -182 24c-52.667 0 -94.5 -6.66699 -125.5 -20s-54.667 -35 -71 -65
s-26.833 -69.333 -31.5 -118s-7 -108.667 -7 -180c66 0 158.333 3.33301 277 10l-6 -149c-135.333 4 -226.333 6 -273 6c0 -303.333 4 -569 12 -797h-178c10 222.667 15 488.334 15 797.001c-41.333 0 -112.333 -2 -213 -6l6 147c92.667 -5.33301 161.667 -8 207 -8
c0 90 5.33301 167 16 231s31 116.333 61 157s71.5 70.5 124.5 89.5s115.167 28.5 186.5 28.5c55.333 0 112.333 -9.66699 171 -29l198 10c-6.66699 -114.667 -10 -296.334 -10 -545.001h8c66 75.333 170 113 312 113c122.667 0 221.5 -46 296.5 -138s112.5 -203 112.5 -333z
" />
    <glyph glyph-name="f_f_b.liga" unicode="ffb" horiz-adv-x="2383" 
d="M2284 514c0 -146 -41.499 -272.667 -124.499 -380s-197.167 -161 -342.5 -161c-122.667 0 -205.667 22 -249 66h-9l-24 -39h-156c12.667 220 19 468.333 19 745c-0.666992 191.333 -7.33398 372.666 -20.001 543.999c-56 16 -116.667 24 -182 24
c-52.667 0 -94.5 -6.66699 -125.5 -20s-54.667 -35 -71 -65s-26.833 -69.333 -31.5 -118s-7 -108.667 -7 -180c66 0 158.333 3.33301 277 10l-6 -149c-135.333 4 -226.333 6 -273 6c0 -303.333 4.33301 -569 13 -797h-179c10 222.667 15 488.334 15 797.001h-421
c0 -303.333 4 -569 12 -797h-178c10 222.667 15 488.334 15 797.001c-41.333 0 -112.333 -2 -213 -6l6 147c92.667 -5.33301 161.667 -8 207 -8c0 76.667 5.33301 147 16 211s31 116.333 61 157s71.5 70.5 124.5 89.5s115.167 28.5 186.5 28.5
c112.667 0 209.667 -21.333 291 -64c26 23.333 57.333 41.666 94 54.999c53.333 19.333 115.333 29 186 29c56 0 113.333 -9.66699 172 -29l204 11c-10.667 -115.333 -16 -297.333 -16 -546h9c65.333 75.333 169 113 311 113c122.667 0 221.5 -46 296.5 -138
s112.5 -203 112.5 -333zM2106 489c0 101.333 -26.1689 186.833 -78.502 256.5s-125.166 104.5 -218.499 104.5c-120 0 -206 -37 -258 -111c0 -236 5.66699 -427.667 17 -575c54.667 -46.667 125 -70 211 -70c108.667 0 190.334 38.667 245.001 116s82 170.333 82 279z
M843.999 1241c-72 34.667 -145.334 52 -220.001 52c-52.667 0 -94.5 -6.66699 -125.5 -20s-54.667 -35 -71 -65s-26.833 -69.333 -31.5 -118s-7 -102 -7 -160h419c0 90 5.33301 167 16 231c4.66699 29.333 11.334 56 20.001 80z" />
    <glyph glyph-name="f_h.liga" unicode="fh" horiz-adv-x="1783" 
d="M1653 0h-183c15.333 174.667 23 363 23 565c0 108 -20.167 181.167 -60.5 219.5s-96.5 57.5 -168.5 57.5c-100 0 -193.667 -35 -281 -105c0 -362.667 2.66699 -608.334 8 -737.001h-184c12 220 18 468.333 18 745c0 191.333 -6.33301 372.666 -19 543.999
c-66 16 -126.667 24 -182 24c-52.667 0 -94.5 -6.66699 -125.5 -20s-54.667 -35 -71 -65s-26.833 -69.333 -31.5 -118s-7 -108.667 -7 -180c66 0 158.333 3.33301 277 10l-6 -149c-135.333 4 -226.333 6 -273 6c0 -303.333 4 -569 12 -797h-178
c10 222.667 15 488.334 15 797.001c-41.333 0 -112.333 -2 -213 -6l6 147c92.667 -5.33301 161.667 -8 207 -8c0 90 5.33301 167 16 231s31 116.333 61 157s71.5 70.5 124.5 89.5s115.167 28.5 186.5 28.5c55.333 0 112.333 -9.66699 171 -29l190 10
c-5.33301 -203.333 -8 -391.666 -8 -564.999h6c100 87.333 210 131 330 131c106.667 0 190 -24.833 250 -74.5s90 -136.834 90 -261.501c0 -12 -0.666992 -36.833 -2 -74.5s-2 -70.167 -2 -97.5c0 -95.333 1.33301 -253.666 4 -474.999z" />
    <glyph glyph-name="f_f_h.liga" unicode="ffh" horiz-adv-x="2355" 
d="M2225 0h-181.998c14.667 174.667 22 363 22 565c0 108 -20.167 181.167 -60.5 219.5s-96.5 57.5 -168.5 57.5c-100 0 -193.667 -35 -281 -105c0 -362.667 3 -608.334 9 -737.001h-185c12.667 220 19 468.333 19 745c-0.666992 191.333 -7.33398 372.666 -20.001 543.999
c-66 16 -126.667 24 -182 24c-52.667 0 -94.5 -6.66699 -125.5 -20s-54.667 -35 -71 -65s-26.833 -69.333 -31.5 -118s-7 -108.667 -7 -180c66 0 158.333 3.33301 277 10l-6 -149c-135.333 4 -226.333 6 -273 6c0 -303.333 4.33301 -569 13 -797h-179
c10 222.667 15 488.334 15 797.001h-421c0 -303.333 4 -569 12 -797h-178c10 222.667 15 488.334 15 797.001c-41.333 0 -112.333 -2 -213 -6l6 147c92.667 -5.33301 161.667 -8 207 -8c0 76.667 5.33301 147 16 211s31 116.333 61 157s71.5 70.5 124.5 89.5
s115.167 28.5 186.5 28.5c96 0 193 -21.333 291 -64c26 23.333 57.333 41.666 94 54.999c53.333 19.333 115.666 29 186.999 29c55.333 0 112.333 -9.66699 171 -29l190 10c-5.33301 -203.333 -8 -391.666 -8 -564.999h6c100 87.333 210 131 330 131
c106.667 0 190 -24.833 250 -74.5s90 -136.834 90 -261.501c0 -12 -0.666992 -36.833 -2 -74.5s-2 -70.167 -2 -97.5c0 -95.333 1.33301 -253.666 4 -474.999zM844.002 1241c-72 34.667 -145.334 52 -220.001 52c-52.667 0 -94.5 -6.66699 -125.5 -20s-54.667 -35 -71 -65
s-26.833 -69.333 -31.5 -118s-7 -102 -7 -160h419c0 90 5.33301 167 16 231c4.66699 29.333 11.334 56 20.001 80z" />
    <glyph glyph-name="f_j.liga" unicode="fj" horiz-adv-x="1109" 
d="M979 -55c0 -216 -81.667 -347.331 -245 -393.998l-49 76c58.667 50.667 94.667 104 108 160c22 82 33 255.333 33 520c0 222 -8.33301 390 -25 504c-106 -8 -244 -12 -414 -12c0 -303.333 4 -569 12 -797h-179c9.33301 376 14 641.667 14 797
c-40.667 0 -111.667 -2 -213 -6l7 147c46 -2.66699 86.167 -4.66699 120.5 -6s62.833 -2 85.5 -2c0 90 5.33301 167 16 231s31 116.333 61 157s71.5 70.5 124.5 89.5s115.167 28.5 186.5 28.5c143.333 0 272.333 -24 387 -72l-62 -150c-130 66 -238.333 99 -325 99
c-52.667 0 -94.5 -6.66699 -125.5 -20s-54.667 -35 -71 -65s-26.833 -69.333 -31.5 -118s-7 -108.667 -7 -180c267.333 0 467 13 599 39c-11.333 -206 -17 -413.667 -17 -623c0 -54.667 1.66699 -127.334 5 -218.001s5 -152.334 5 -185.001z" />
    <glyph glyph-name="f_f_j.liga" unicode="ffj" horiz-adv-x="1681" 
d="M1581 1366l-62 -149.997c-130 66 -238.333 99 -325 99c-52.667 0 -94.5 -6.66699 -125.5 -20s-54.667 -35 -71 -65s-26.833 -69.333 -31.5 -118s-7 -108.667 -7 -180c267.333 0 467 13 599 39c-11.333 -206 -17 -413.667 -17 -623c0 -54.667 1.66699 -127.334 5 -218.001
s5 -152.334 5 -185.001c0 -216 -81.667 -347.333 -245 -394l-49 76c58.667 50.667 94.667 104 108 160c22 82 33 255.333 33 520c0 222 -8.33301 390 -25 504c-106 -8 -244 -12 -414 -12c0 -303.333 4 -569.666 12 -798.999h-179c9.33301 377.333 14 643.666 14 798.999
h-418c0 -304.667 4 -571 12 -799h-179c9.33301 222 14 487.667 14 797c-40.667 0 -111.667 -2 -213 -6l7 147c92 -5.33301 160.667 -8 206 -8v2c0 76.667 5.33301 147 16 211s31 116.333 61 157s71.5 70.5 124.5 89.5s115.167 28.5 186.5 28.5
c112.667 0 209.667 -21.333 291 -64c26 23.333 57.333 41.666 94 54.999c53.333 19.333 115.333 29 186 29c143.333 0 272.333 -24 387 -72zM843 1243c-60.667 34.667 -134.001 52 -220.001 52c-52.667 0 -94.5 -6.66699 -125.5 -20s-54.667 -35 -71 -65
s-26.833 -69.333 -31.5 -118s-7 -102 -7 -160h419c0 90 5.33301 167 16 231c4.66699 29.333 11.334 56 20.001 80z" />
    <glyph glyph-name="f_k.liga" unicode="fk" horiz-adv-x="1670" 
d="M1659 0l-236 0.000976562c0 23.333 -64.667 112 -194 266c-132.667 160 -216 240 -250 240h-6c0 -142 3.33301 -310.667 10 -506h-176c12 220 18 468.333 18 745c0 191.333 -6.33301 372.666 -19 543.999c-66 16 -126.667 24 -182 24
c-52.667 0 -94.5 -6.66699 -125.5 -20s-54.667 -35 -71 -65s-26.833 -69.333 -31.5 -118s-7 -108.667 -7 -180c66 0 158.333 3.33301 277 10l-6 -149c-135.333 4 -226.333 6 -273 6c0 -303.333 4 -569 12 -797h-178c10 222.667 15 488.334 15 797.001
c-41.333 0 -112.333 -2 -213 -6l6 147c92.667 -5.33301 161.667 -8 207 -8c0 90 5.33301 167 16 231s31 116.333 61 157s71.5 70.5 124.5 89.5s115.167 28.5 186.5 28.5c55.333 0 112.333 -9.66699 171 -29l188 10c-6.66699 -144.667 -10 -424.334 -10 -839.001h6
c22 0 91.333 56.167 208 168.5s175 180.166 175 203.499h221c0 -21.333 -52.667 -76.666 -158 -165.999c-98 -83.333 -187.333 -152 -268 -206v-9c82 -62.667 188 -169.667 318 -321c122.667 -143.333 184 -226 184 -248z" />
    <glyph glyph-name="f_f_k.liga" unicode="ffk" horiz-adv-x="2242" 
d="M2231 0h-234.998c0 23.333 -65 112 -195 266c-132.667 160 -216 240 -250 240h-6c0 -142 3.33301 -310.667 10 -506h-176c12.667 220 19 468.333 19 745c-0.666992 191.333 -7.33398 372.666 -20.001 543.999c-59.333 16 -120 24 -182 24
c-52.667 0 -94.5 -6.66699 -125.5 -20s-54.667 -35 -71 -65s-26.833 -69.333 -31.5 -118s-7 -108.667 -7 -180c66 0 158.333 3.33301 277 10l-6 -149c-135.333 4 -226.333 6 -273 6c0 -303.333 4.33301 -569 13 -797h-179c10 222.667 15 488.334 15 797.001h-421
c0 -303.333 4 -569 12 -797h-178c10 222.667 15 488.334 15 797.001c-41.333 0 -112.333 -2 -213 -6l6 147c92.667 -5.33301 161.667 -8 207 -8c0 76.667 5.33301 147 16 211s31 116.333 61 157s71.5 70.5 124.5 89.5s115.167 28.5 186.5 28.5
c112.667 0 209.667 -21.333 291 -64c26 23.333 57.333 41.666 94 54.999c53.333 19.333 115.333 29 186 29c56 0 113.333 -9.66699 172 -29l188 11c-6.66699 -145.333 -10 -425.333 -10 -840h6c22 0 91.333 56.167 208 168.5s175 180.166 175 203.499h221
c0 -21.333 -52.333 -76.666 -157 -165.999c-98.667 -83.333 -188.334 -152 -269.001 -206v-9c82 -62.667 188 -169.667 318 -321c122.667 -143.333 184 -226 184 -248zM844.002 1241c-60.667 34.667 -134.001 52 -220.001 52c-52.667 0 -94.5 -6.66699 -125.5 -20
s-54.667 -35 -71 -65s-26.833 -69.333 -31.5 -118s-7 -102 -7 -160h419c0 90 5.33301 167 16 231c4.66699 29.333 11.334 56 20.001 80z" />
    <glyph glyph-name=".notdef" horiz-adv-x="932" 
d="M932 1308v-1308h-932v1308h932zM841 91v1126h-750v-1126h750zM409 426l-1.99902 31c0 82.667 12.833 141 38.5 175s48.5 60.333 68.5 79c38 38.667 62.5 68 73.5 88s16.5 41 16.5 63c0 44 -13.833 81.167 -41.5 111.5s-59.834 45.5 -96.501 45.5
c-38.667 0 -71.5 -13.667 -98.5 -41s-44.167 -71 -51.5 -131l-90 14c8 86.667 34.833 150 80.5 190s101.5 60 167.5 60c62.667 0 115.667 -22.167 159 -66.5s65 -102.166 65 -173.499c0 -38 -7.5 -72.333 -22.5 -103s-45.5 -68 -91.5 -112
c-45.333 -40.667 -71.833 -73.834 -79.5 -99.501s-11.5 -69.167 -11.5 -130.5h-84zM389.001 272c0 18.667 6.33301 34.334 19 47.001s28 19 46 19c18.667 0 34.334 -6.33301 47.001 -19s19 -28.334 19 -47.001c0 -18 -6.33301 -33.167 -19 -45.5
s-28.334 -18.5 -47.001 -18.5c-18 0 -33.333 6.16699 -46 18.5s-19 27.5 -19 45.5z" />
    <glyph glyph-name="glyph1" horiz-adv-x="444" 
 />
    <glyph glyph-name="glyph1" horiz-adv-x="444" 
 />
    <glyph glyph-name="uni000D" unicode="&#xd;" horiz-adv-x="444" 
 />
    <glyph glyph-name="space" unicode=" " horiz-adv-x="444" 
 />
    <glyph glyph-name="space" unicode="&#xa0;" horiz-adv-x="444" 
 />
    <glyph glyph-name="exclam" unicode="!" horiz-adv-x="516" 
d="M378 1167c0 -143.333 -27.667 -353.333 -83 -630h-74c-34.667 281.333 -52 487.333 -52 618c0 114 39.333 171 118 171c60.667 0 91 -53 91 -159zM393 147c0 -39.333 -13.167 -74 -39.5 -104s-62.833 -45 -109.5 -45c-39.333 0 -69.833 13 -91.5 39s-32.5 57 -32.5 93
c0 38.667 13.333 72.5 40 101.5s63.667 43.5 111 43.5c39.333 0 69.5 -12.333 90.5 -37s31.5 -55 31.5 -91z" />
    <glyph glyph-name="quotedbl" unicode="&#x22;" horiz-adv-x="926" 
d="M776 1262c0 -143.333 -42.001 -329.999 -126.001 -559.999h-37c-38.667 248 -58 434.667 -58 560c0 106 37.667 159 113 159c46.667 0 76.334 -13.333 89.001 -40s19 -66.334 19 -119.001zM370.999 1262c0 -143.333 -42.001 -329.999 -126.001 -559.999h-37
c-38.667 248 -58 434.667 -58 560c0 106 37.667 159 113 159c46.667 0 76.334 -13.333 89.001 -40s19 -66.334 19 -119.001z" />
    <glyph glyph-name="numbersign" unicode="#" 
d="M998 916l-0.000976562 -128.001h-192l-45 -118l-48 -128h181v-128h-230c-87.333 -234.667 -136 -372.667 -146 -414h-130c10.667 26 64.334 164 161.001 414h-236c-87.333 -234.667 -136 -372.667 -146 -414h-130l161 414h-163v128h213l33 84l62 162h-204v128h252
c78 211.333 119.333 342 124 392h128c-5.33301 -27.333 -52 -158 -140 -392h239c78 212.667 119.333 343.334 124 392.001h128c-5.33301 -26 -52 -156.667 -140 -392h144zM693.999 787.999h-239l-45 -120l-48 -126h237l33 86z" />
    <glyph glyph-name="dollar" unicode="$" horiz-adv-x="909" 
d="M796 311c0 -166 -91.668 -261 -275.001 -285c0 -110 2.66699 -208.333 8 -295h-118c5.33301 90 7.66602 186.333 6.99902 289c-107.333 0 -208.666 11 -303.999 33l31 147c86.667 -33.333 179 -50 277 -50c148.667 0 223 38 223 114c0 39.333 -17.333 72.666 -52 99.999
c-28.667 22.667 -81 49 -157 79c-92 36.667 -158.333 71 -199 103c-66.667 53.333 -100 119 -100 197c0 68 23.333 128 70 180s117.667 83 213 93c0 130.667 -3 232.667 -9 306h118c-6 -75.333 -8.66699 -176 -8 -302c99.333 -2 179.333 -11.667 240 -29l-31 -145
c-72.667 29.333 -154.667 44 -246 44c-128 0 -192 -37.333 -192 -112c0 -37.333 13.333 -66.666 40 -87.999s82 -48.333 166 -81c88.667 -34.667 154.334 -69 197.001 -103c67.333 -54 101 -119 101 -195zM470.999 1064z" />
    <glyph glyph-name="percent" unicode="%" 
d="M566 1068c0 -65.333 -22.5 -122 -67.5 -170s-107.833 -72 -188.5 -72s-143.5 23.667 -188.5 71s-67.5 103.666 -67.5 168.999s22.5 122 67.5 170s107.833 72 188.5 72s143.5 -23.667 188.5 -71s67.5 -103.666 67.5 -168.999zM979 231
c0 -65.333 -22.5 -121.834 -67.5 -169.501s-107.833 -71.5 -188.5 -71.5s-143.5 23.5 -188.5 70.5s-67.5 103.167 -67.5 168.5s22.5 122 67.5 170s107.833 72 188.5 72s143.5 -23.667 188.5 -71s67.5 -103.666 67.5 -168.999zM960 1292
c0 -59.333 -130 -270.332 -390 -632.999s-390 -582.334 -390 -659.001l-118 10c0 64.667 130 279 390 643s390 580.333 390 649zM864 227c0 42.667 -12.501 79.834 -37.501 111.501s-59.5 47.5 -103.5 47.5c-43.333 0 -77.5 -15.833 -102.5 -47.5
s-37.5 -68.834 -37.5 -111.501c0 -42 12.167 -78.333 36.5 -109s58.833 -46 103.5 -46s79.334 15.333 104.001 46s37 67 37 109zM449.999 1064c0 42.667 -12.334 79.834 -37.001 111.501s-59 47.5 -103 47.5s-78.5 -15.833 -103.5 -47.5s-37.5 -68.834 -37.5 -111.501
c0 -42 12.333 -78.333 37 -109s59.334 -46 104.001 -46s79.167 15.333 103.5 46s36.5 67 36.5 109z" />
    <glyph glyph-name="ampersand" unicode="&#x26;" horiz-adv-x="1396" 
d="M1370 0l-217 0.00488281c0 16.667 -21.667 57.667 -65 123c-42 63.333 -77 109.666 -105 138.999h-8c-131.333 -194 -302 -291 -512 -291c-112 0 -203.333 30.667 -274 92s-106 145.666 -106 252.999c0 112.667 25.333 205.667 76 279s125 129.666 223 168.999v7
c-120 92.667 -180 184.667 -180 276c0 87.333 33 155.333 99 204s144 73 234 73c89.333 0 166.5 -24 231.5 -72s97.5 -115.333 97.5 -202c0 -55.333 -17.667 -107.333 -53 -156c-36.667 -50.667 -85.334 -88.334 -146.001 -113.001v-10
c74.667 -39.333 186.334 -131.666 335.001 -276.999h6c29.333 51.333 44 140.666 44 267.999h188c0 -26.667 -16.667 -80 -50 -160c-36.667 -87.333 -71.667 -149 -105 -185v-8c50 -46 109.667 -117.667 179 -215c72 -100.667 108 -165.334 108 -194.001zM913 343.005
l0.000976562 10c-48.667 51.333 -96.667 98.666 -144 141.999c-112.667 102.667 -211.334 174.667 -296.001 216c-140.667 -63.333 -211 -171.666 -211 -324.999c0 -83.333 25.5 -149.833 76.5 -199.5s118.5 -74.5 202.5 -74.5c112.667 0 236.667 77 372 231zM702.001 1010
c0 62.667 -16.5 110 -49.5 142s-72.833 48 -119.5 48c-43.333 0 -81.333 -13.167 -114 -39.5s-49 -61.166 -49 -104.499c0 -90 68 -166.667 204 -230c85.333 37.333 128 98.666 128 183.999z" />
    <glyph glyph-name="quotesingle" unicode="'" horiz-adv-x="521" 
d="M371 1262c0 -143.333 -42.001 -329.999 -126.001 -559.999h-37c-38.667 248 -58 434.667 -58 560c0 106 37.667 159 113 159c46.667 0 76.334 -13.333 89.001 -40s19 -66.334 19 -119.001z" />
    <glyph glyph-name="parenleft" unicode="(" horiz-adv-x="723" 
d="M651 -401l-73 -85.001c-98 45.333 -181 107 -249 185c-166.667 188.667 -250 446 -250 772c0 350.667 85 631 255 841c71.333 87.333 156.333 157 255 209l51 -85c-77.333 -60.667 -143.333 -133 -198 -217c-132 -202.667 -198 -452 -198 -748
c0 -253.333 68 -474.666 204 -663.999c28.667 -40 59.667 -77.167 93 -111.5s70 -66.5 110 -96.5z" />
    <glyph glyph-name="parenright" unicode=")" horiz-adv-x="723" 
d="M651 564c0 -350.667 -84.999 -630.997 -254.999 -840.997c-71.333 -87.333 -156.666 -157 -255.999 -209l-51 85c77.333 60 143.666 132.333 198.999 217c132 203.333 198 452.666 198 747.999c0 254 -67.667 475.333 -203 664
c-56.667 79.333 -124.667 148.666 -204 207.999l72 85c97.333 -44.667 180.666 -106.334 249.999 -185.001c166.667 -188.667 250 -446 250 -772z" />
    <glyph glyph-name="asterisk" unicode="*" 
d="M940 1058c0 -58 -56.3311 -86.999 -168.998 -86.999c-60.667 0 -122 2.66699 -184 8l-6 -20c146 -120.667 219 -200 219 -238c0 -27.333 -14.667 -54.5 -44 -81.5s-58.333 -40.5 -87 -40.5c-54.667 0 -105.334 106 -152.001 318h-23
c-73.333 -192.667 -134 -289 -182 -289c-28 0 -57.333 11.833 -88 35.5s-46 49.167 -46 76.5c0 48 85.333 123 256 225l-6 23c-74.667 6 -172.667 19.667 -294 41c-26 8.66699 -39 33.334 -39 74.001c0 32 7.66699 61.667 23 89s36.666 41 63.999 41
c38.667 0 130.334 -57.667 275.001 -173l18 12c-34 149.333 -51 246.666 -51 291.999c0 20.667 11.5 37.5 34.5 50.5s49.167 19.5 78.5 19.5c66 0 99 -23.333 99 -70c0 -52.667 -28 -151.334 -84 -296.001l16 -16c146 93.333 239 140 279 140
c25.333 0 47.166 -15.333 65.499 -46s27.5 -60 27.5 -88z" />
    <glyph glyph-name="plus" unicode="+" 
d="M926 438h-345v-366h-129v366h-345v128h345v366h129v-366h345v-128z" />
    <glyph glyph-name="comma" unicode="," horiz-adv-x="516" 
d="M390 114c0 -88.667 -23 -171.832 -69 -249.499s-116.333 -157.834 -211 -240.501l-60 66c101.333 113.333 152 218 152 314c-57.333 22.667 -86 64.667 -86 126c0 38.667 12 72.5 36 101.5s59.667 43.5 107 43.5c38.667 0 70.167 -15.667 94.5 -47
s36.5 -69.333 36.5 -114zM264 -1.99805z" />
    <glyph glyph-name="hyphen" unicode="-" horiz-adv-x="516" 
d="M479 581l-12 -129l-428 -14l9 128z" />
    <glyph glyph-name="hyphen" unicode="&#x2010;" horiz-adv-x="516" 
d="M479 581l-12 -129l-428 -14l9 128z" />
    <glyph glyph-name="hyphen" unicode="&#xad;" horiz-adv-x="516" 
d="M479 581l-12 -129l-428 -14l9 128z" />
    <glyph glyph-name="period" unicode="." horiz-adv-x="516" 
d="M393 147c0 -39.333 -13.167 -74 -39.5 -104s-62.833 -45 -109.5 -45c-39.333 0 -69.833 13 -91.5 39s-32.5 57 -32.5 93c0 38.667 13.333 72.5 40 101.5s63.667 43.5 111 43.5c39.333 0 69.5 -12.333 90.5 -37s31.5 -55 31.5 -91z" />
    <glyph glyph-name="slash" unicode="/" horiz-adv-x="547" 
d="M532 1455c0 -46 -61 -322.167 -183 -828.5s-183 -815.833 -183 -928.5h-151c0 43.333 61.333 315.5 184 816.5s184 814.5 184 940.5h149z" />
    <glyph glyph-name="zero" unicode="0" horiz-adv-x="1125" 
d="M1005 539c0 -160 -39.667 -294 -119 -402s-191.333 -162 -336 -162c-138.667 0 -245 49.333 -319 148s-111 224.334 -111 377.001c0 160 39.667 294 119 402s191.333 162 336 162c138.667 0 245 -49.333 319 -148s111 -224.334 111 -377.001zM836 499
c0 131.333 -25 236.666 -75 315.999s-119 118.333 -207 117c-84.667 0 -150 -37.667 -196 -113s-69 -168.333 -69 -279c0 -131.333 25 -236.666 75 -315.999s119 -118.333 207 -117c77.333 0 140.833 34.667 190.5 104s74.5 165.333 74.5 288z" />
    <glyph glyph-name="one" unicode="1" horiz-adv-x="716" 
d="M516 0l-171 0.000976562c7.33301 140.667 11 286.667 11 438c0 175.333 -3.66699 304.666 -11 387.999l-228 -114l-47 87l360 265h86c-6.66699 -215.333 -10 -424 -10 -626c0 -142.667 3.33301 -288.667 10 -438z" />
    <glyph glyph-name="two" unicode="2" horiz-adv-x="946" 
d="M846 141l-19.999 -141h-726l20 135c172.667 118.667 294 217.834 364 297.501s105 171.5 105 275.5c0 140.667 -94 211 -282 211c-80.667 0 -144.667 -5.33301 -192 -16l20 141c49.333 13.333 114 20 194 20c148 0 257.667 -30 329 -90s107 -133 107 -219
c0 -128 -46.5 -241.333 -139.5 -340s-206.833 -191.334 -341.5 -278.001v-8c189.333 0 376.666 4 561.999 12z" />
    <glyph glyph-name="three" unicode="3" horiz-adv-x="995" 
d="M875 151c0 -135.333 -67.501 -257.164 -202.501 -365.497s-329.5 -168.833 -583.5 -181.5l-29 123c202 13.333 359.667 53.666 473 120.999s170 156.666 170 267.999c0 103.333 -42.333 176.166 -127 218.499s-208 63.5 -370 63.5l20 119
c128.667 0 234.334 19.667 317.001 59s124 93.333 124 162c0 64.667 -26 110.667 -78 138s-132.667 41 -242 41c-82 0 -153.667 -7 -215 -21l12 141c61.333 18 157.666 27 288.999 27c121.333 0 214.833 -25.833 280.5 -77.5s98.5 -113.167 98.5 -184.5
c0 -146.667 -77 -245.667 -231 -297v-10c84.667 -16 154.834 -54.667 210.501 -116s83.5 -137.333 83.5 -228z" />
    <glyph glyph-name="four" unicode="4" horiz-adv-x="1092" 
d="M1002 311l-21.001 -156.999h-173c0 -124 4 -285.333 12 -484h-171c5.33301 172 8 333.333 8 484h-566l-21 126c0 17.333 90.333 148.333 271 393s270.667 372 270 382h209c-8 -150.667 -12 -402.334 -12 -755.001c60.667 0 125.334 3.66699 194.001 11zM666.999 913.001
h-7.99902c0 -18 -71.667 -121.667 -215 -311s-215 -289.333 -215 -300v-8c117.333 0 259.666 2.33301 426.999 7c1.33301 206.667 5 410.667 11 612z" />
    <glyph glyph-name="five" unicode="5" horiz-adv-x="1006" 
d="M886 174c0 -137.333 -66.999 -259.333 -200.999 -366s-313 -164.334 -537 -173.001l-28 118c184 11.333 328.167 51 432.5 119s156.5 153.667 156.5 257c0 112 -42.333 190.5 -127 235.5s-236.334 67.5 -455.001 67.5c37.333 304 56 511.667 56 623h611l-6 -159
c-136 18.667 -296.667 28 -482 28c-18 -127.333 -27 -246.666 -27 -357.999c205.333 0 357.833 -31.167 457.5 -93.5s149.5 -161.833 149.5 -298.5z" />
    <glyph glyph-name="six" unicode="6" horiz-adv-x="1130" 
d="M1010 404c0 -120.667 -39.167 -225.331 -117.5 -313.998s-188.5 -133 -330.5 -133c-122 0 -226.167 46.667 -312.5 140s-129.5 230.666 -129.5 411.999c0 527.333 233.333 805.333 700 834l13 -116c-177.333 -18 -307.5 -69.833 -390.5 -155.5
s-132.167 -215.834 -147.5 -390.501h11c64 88.667 171.333 133 322 133c119.333 0 212.833 -40.5 280.5 -121.5s101.5 -177.167 101.5 -288.5zM836 375.003c0 85.333 -26.168 158.667 -78.501 220s-129.166 92 -230.499 92c-95.333 0 -173 -39 -233 -117
c0 -171.333 25.833 -294.833 77.5 -370.5s116.5 -113.5 194.5 -113.5c84 0 150 28.5 198 85.5s72 124.833 72 203.5z" />
    <glyph glyph-name="seven" unicode="7" horiz-adv-x="968" 
d="M878 1055c0 -123.333 -48.333 -293.333 -145 -510c-40 -90 -129.333 -267.667 -268 -533c-96 -184 -144 -298 -144 -342l-176 21c0 42.667 50.333 151.667 151 327c174 306 266.667 470.333 278 493c100.667 191.333 151 326.333 151 405
c-144 0 -362.333 -8.66699 -655 -26l6 165h802z" />
    <glyph glyph-name="eight" unicode="8" horiz-adv-x="1127" 
d="M1007 370c0 -123.333 -44.4961 -219.335 -133.496 -288.002s-194.167 -103 -315.5 -103c-118.667 0 -221.334 33 -308.001 99s-130 158.333 -130 277c0 78 24.667 149.833 74 215.5s119.666 117.834 210.999 156.501v11c-137.333 84.667 -206 189.334 -206 314.001
c0 100 36.667 177.333 110 232s160.666 82 261.999 82c98.667 0 184.167 -26 256.5 -78s108.5 -123.333 108.5 -214c0 -62 -19.333 -121.333 -58 -178s-92.334 -99 -161.001 -127v-11c193.333 -108.667 290 -238 290 -388zM841.004 342.998
c0 125.333 -103.333 238.335 -310 339.002c-72 -24.667 -131.167 -64.834 -177.5 -120.501s-69.5 -116.167 -69.5 -181.5c0 -86 27.833 -152.167 83.5 -198.5s122.167 -69.5 199.5 -69.5c74 0 138.167 20.667 192.5 62s81.5 97.666 81.5 168.999zM777.004 1052
c0 64.667 -20.834 114.167 -62.501 148.5s-91.5 51.5 -149.5 51.5c-55.333 0 -103.666 -15.167 -144.999 -45.5s-62 -71.5 -62 -123.5c0 -108 79 -199.667 237 -275c121.333 54 182 135.333 182 244z" />
    <glyph glyph-name="nine" unicode="9" horiz-adv-x="1123" 
d="M1003 492c0 -569.333 -241.667 -868.334 -725 -897.001l-29 119c363.333 24.667 556 235 578 631h-10c-66.667 -95.333 -173 -143 -319 -143c-118 0 -210.5 40.833 -277.5 122.5s-100.5 178.834 -100.5 291.501c0 120.667 38.5 225.5 115.5 314.5
s185.167 133.5 324.5 133.5c122.667 0 227.167 -48.167 313.5 -144.5s129.5 -238.833 129.5 -427.5zM829 468.999c0 152.667 -28.332 267.499 -84.999 344.499s-123.667 115.5 -201 115.5c-78 0 -139.167 -27.667 -183.5 -83s-66.5 -121.666 -66.5 -198.999
c0 -84.667 26.667 -158.667 80 -222s127.666 -95 222.999 -95c101.333 0 179 46.333 233 139z" />
    <glyph glyph-name="colon" unicode=":" horiz-adv-x="516" 
d="M393 829c0 -39.333 -13.167 -74 -39.5 -104s-62.833 -45 -109.5 -45c-39.333 0 -69.833 13 -91.5 39s-32.5 57 -32.5 93c0 38.667 13.333 72.5 40 101.5s63.667 43.5 111 43.5c39.333 0 69.5 -12.333 90.5 -37s31.5 -55 31.5 -91zM393 147
c0 -39.333 -13.167 -74 -39.5 -104s-62.833 -45 -109.5 -45c-39.333 0 -69.833 13 -91.5 39s-32.5 57 -32.5 93c0 38.667 13.333 72.5 40 101.5s63.667 43.5 111 43.5c39.333 0 69.5 -12.333 90.5 -37s31.5 -55 31.5 -91z" />
    <glyph glyph-name="semicolon" unicode=";" horiz-adv-x="516" 
d="M390 114c0 -88.667 -23 -171.832 -69 -249.499s-116.333 -157.834 -211 -240.501l-60 66c101.333 113.333 152 218 152 314c-57.333 22.667 -86 64.667 -86 126c0 38.667 12 72.5 36 101.5s59.667 43.5 107 43.5c38.667 0 70.167 -15.667 94.5 -47
s36.5 -69.333 36.5 -114zM393 829.002c0 -39.333 -13.167 -74 -39.5 -104s-62.833 -45 -109.5 -45c-39.333 0 -69.833 13 -91.5 39s-32.5 57 -32.5 93c0 38.667 13.333 72.5 40 101.5s63.667 43.5 111 43.5c39.333 0 69.5 -12.333 90.5 -37s31.5 -55 31.5 -91z" />
    <glyph glyph-name="less" unicode="&#x3c;" 
d="M926 149l-83 -124l-736 444v87l736 444l83 -122l-649 -355v-23z" />
    <glyph glyph-name="equal" unicode="=" 
d="M926 645h-819v128h819v-128zM926 231h-819v128h819v-128z" />
    <glyph glyph-name="greater" unicode="&#x3e;" 
d="M926 469l-736 -444l-83 124l651 353v23l-651 353l83 122l736 -444v-87z" />
    <glyph glyph-name="question" unicode="?" horiz-adv-x="723" 
d="M653 1023c0 -144 -92.333 -255.668 -277 -335.001l-21 -151h-78l-37 213c162 32.667 243 113.334 243 242.001c0 144.667 -141 217 -423 217l25 126c378.667 0 568 -104 568 -312zM436 146.999c0 -39.333 -13.167 -74 -39.5 -104s-62.833 -45 -109.5 -45
c-39.333 0 -69.833 13 -91.5 39s-32.5 57 -32.5 93c0 38.667 13.333 72.5 40 101.5s63.667 43.5 111 43.5c39.333 0 69.5 -12.333 90.5 -37s31.5 -55 31.5 -91z" />
    <glyph glyph-name="at" unicode="@" horiz-adv-x="2066" 
d="M1940 607c0 -174.667 -42.833 -324.331 -128.5 -448.998s-198.5 -187 -338.5 -187c-75.333 0 -137.5 22.5 -186.5 67.5s-73.5 106.5 -73.5 184.5h-9c-76 -168 -183.333 -252 -322 -252c-86.667 0 -153.334 37.667 -200.001 113s-70 168.666 -70 279.999
c0 157.333 43.333 299.166 130 425.499s205.667 189.5 357 189.5c94.667 0 159.334 -30.333 194.001 -91h11l18 62l128 21c-56 -320.667 -84 -512.667 -84 -576c0 -100 11.833 -173 35.5 -219s69.5 -69 137.5 -69c65.333 0 120.666 46.333 165.999 139s68 202.667 68 330
c0 198.667 -59.833 372.334 -179.5 521.001s-305.167 223 -556.5 223c-229.333 0 -410.666 -84.333 -543.999 -253s-200 -365.334 -200 -590.001c0 -218 64.5 -404.667 193.5 -560s312.5 -233 550.5 -233c104 0 197.667 15 281 45l21 -173c-84 -20.667 -186 -31 -306 -31
c-287.333 0 -509.666 94.333 -666.999 283s-236 413.667 -236 675c0 266 80.167 497.833 240.5 695.5s381.166 296.5 662.499 296.5c297.333 0 522.833 -86.833 676.5 -260.5s230.5 -376.167 230.5 -607.5zM1262 777.003c-32 38.667 -83 58.002 -153 58.002
c-103.333 0 -185.166 -48 -245.499 -144s-90.5 -201.667 -90.5 -317c0 -74.667 14.167 -136.334 42.5 -185.001s69.166 -73 122.499 -73c75.333 0 146.333 60 213 180c74 133.333 111 293.666 111 480.999z" />
    <glyph glyph-name="A" unicode="A" horiz-adv-x="1262" 
d="M1251 0l-211 -0.000976562c0 44.667 -42 185 -126 421h-577c-82.667 -232.667 -124 -373 -124 -421h-202c0 24.667 86 237.834 258 639.501s258 622.5 258 662.5h232c0 -39.333 82 -257 246 -653s246 -612.333 246 -649zM868 551.999
c-156.667 391.333 -235 599.333 -235 624h-11c0 -20.667 -81 -228.667 -243 -624h489z" />
    <glyph glyph-name="B" unicode="B" horiz-adv-x="1200" 
d="M1101 397c0 -129.333 -55.001 -229.335 -165.001 -300.002c-107.333 -68.667 -254.666 -103 -441.999 -103c-52 0 -154 2 -306 6c9.33301 206.667 14 434.667 14 684c0 234.667 -4.66699 440.667 -14 618h120c23.333 0 70.333 1 141 3s122 3 154 3
c277.333 0 416 -95.667 416 -287c0 -149.333 -65.667 -248.666 -197 -297.999v-10c186 -33.333 279 -138.666 279 -315.999zM931.999 379.998c0 164 -145.333 246 -436 246c-53.333 0 -100.333 -2 -141 -6c0 -178 3.66699 -337 11 -477c25.333 -6 70 -9 134 -9
c160.667 0 274.667 21 342 63c60 38 90 99 90 183zM850.999 970.998c0 138 -93 207.001 -279 207.001c-93.333 0 -169 -5 -227 -15c5.33301 -48 8 -183.667 8 -407c32.667 -1.33301 68.667 -2 108 -2c132 0 228 15 288 45c68 33.333 102 90.666 102 171.999z" />
    <glyph glyph-name="C" unicode="C" horiz-adv-x="1125" 
d="M1070 159l-13.002 -149.001c-82 -24.667 -171.333 -37 -268 -37c-229.333 0 -401.666 62.833 -516.999 188.5s-173 279.167 -173 460.5c0 190 64.333 353.833 193 491.5s301.667 206.5 519 206.5c60 0 123.333 -9 190 -27l-28 -159c-76.667 24 -145 36 -205 36
c-161.333 0 -283.666 -50 -366.999 -150s-125 -222.333 -125 -367c0 -147.333 48 -273.666 144 -378.999s228.667 -158 398 -158c64.667 0 148.667 14.333 252 43z" />
    <glyph glyph-name="D" unicode="D" horiz-adv-x="1316" 
d="M1217 698c0 -189.333 -60.501 -355.333 -181.501 -498s-287.833 -214 -500.5 -214c-69.333 0 -185 4.66699 -347 14c10 206.667 15 434.667 15 684c0 234.667 -5 440.667 -15 618h110c26.667 0 67.334 1 122.001 3s90.667 3 108 3c235.333 0 409 -57.833 521 -173.5
s168 -261.167 168 -436.5zM1043 653c0 148 -47.167 271.667 -141.5 371s-240.166 149 -437.499 149c-28 0 -66.333 -3.33301 -115 -10c5.33301 -155.333 8 -315 8 -479c0 -180 3.66699 -362.667 11 -548c53.333 -10.667 104.666 -16 153.999 -16
c176 0 306.833 52.167 392.5 156.5s128.5 229.833 128.5 376.5z" />
    <glyph glyph-name="E" unicode="E" horiz-adv-x="1066" 
d="M1000 151l-6.00098 -151h-806c9.33301 206.667 14 434.667 14 684c0 234.667 -4.66699 440.667 -14 618h756l-8 -149c-183.333 8 -377.666 12 -582.999 12c4 -103.333 6 -243 6 -419c177.333 0 335.333 4 474 12v-149c-148 6 -306 9 -474 9c0 -171.333 3 -332 9 -482
c221.333 0 432 5 632 15z" />
    <glyph glyph-name="F" unicode="F" horiz-adv-x="1002" 
d="M958 1302l-8 -148.998c-177.333 8 -378.333 12 -603 12c8 -110.667 12 -263.334 12 -458.001c156.667 0 309 2.66699 457 8v-145c-142.667 5.33301 -295 8 -457 8c0 -260.667 3.66699 -453.334 11 -578.001h-182c9.33301 206.667 14 434.667 14 684
c0 234.667 -4.66699 440.667 -14 618h770z" />
    <glyph glyph-name="G" unicode="G" horiz-adv-x="1271" 
d="M1138 27c-109.333 -36 -219.665 -54 -330.998 -54c-234 0 -410.5 62.5 -529.5 187.5s-178.5 279.5 -178.5 463.5c0 186 64.667 348.5 194 487.5s308.666 208.5 537.999 208.5c82.667 0 161 -9.66699 235 -29l-25 -166c-110 26.667 -198.667 40 -266 40
c-161.333 0 -284.833 -48.833 -370.5 -146.5s-128.5 -218.834 -128.5 -363.501c0 -145.333 49.167 -272.666 147.5 -381.999s237.166 -164 416.499 -164c32.667 0 81.667 5 147 15c-11.333 69.333 -17 150 -17 242c0 77.333 -4.66699 153 -14 227h182
c-5.33301 -88 -8 -181 -8 -279c0 -42 2.66699 -137.667 8 -287z" />
    <glyph glyph-name="H" unicode="H" horiz-adv-x="1335" 
d="M1147 0l-190 -0.000976562c6.66699 230.667 10 437.334 10 620.001h-599c0 -148 3.33301 -354.667 10 -620h-190c9.33301 243.333 14 471.333 14 684c0 222.667 -4.66699 428.667 -14 618h190c-8 -190.667 -12 -376 -12 -556h603c0 144.667 -4 330 -12 556h190
c-10 -185.333 -15 -391.333 -15 -618c0 -248.667 5 -476.667 15 -684z" />
    <glyph glyph-name="I" unicode="I" horiz-adv-x="566" 
d="M378 0h-190c10 216 15 444 15 684c0 236 -5 442 -15 618h190c-9.33301 -182 -14 -388 -14 -618c0 -241.333 4.66699 -469.333 14 -684z" />
    <glyph glyph-name="J" unicode="J" horiz-adv-x="851" 
d="M685 1302c-4.66699 -101.333 -8.16602 -213.669 -10.499 -337.002s-3.5 -259 -3.5 -407c0 -107.333 -9 -196 -27 -266s-46.167 -129 -84.5 -177s-87.5 -83.667 -147.5 -107s-132 -35 -216 -35c-64.667 0 -122.667 7 -174 21l15 146c47.333 -22 96.666 -33 147.999 -33
c57.333 0 107.5 8.16699 150.5 24.5s77.333 41.833 103 76.5s44 77.334 55 128.001s16.5 117 16.5 199c0 302.667 -5 558.334 -15 767.001h190z" />
    <glyph glyph-name="K" unicode="K" horiz-adv-x="1212" 
d="M1190 0l-219.002 -0.000976562c0 7.33301 -38 65.333 -114 174c-88 126 -168.333 230 -241 312c-98.667 111.333 -171.667 167 -219 167h-31c0 -156 3.33301 -373.667 10 -653h-188c10 206.667 15 434.667 15 684c0 234.667 -5 440.667 -15 618h188
c-6.66699 -177.333 -10 -357.333 -10 -540h23c36.667 0 128.167 85 274.5 255s219.5 265 219.5 285h208c0 -20 -71.167 -102.5 -213.5 -247.5s-248.166 -242.5 -317.499 -292.5v-10c76.667 -29.333 204.334 -161.666 383.001 -396.999c164.667 -216.667 247 -335 247 -355z
" />
    <glyph glyph-name="L" unicode="L" horiz-adv-x="1003" 
d="M981 147l-6 -147h-787c8 164.667 12 392.667 12 684c0 250.667 -4 456.667 -12 618h186c-8 -134.667 -12 -340.667 -12 -618c0 -228 -3.66699 -410.667 -11 -548c200 0 410 3.66699 630 11z" />
    <glyph glyph-name="M" unicode="M" horiz-adv-x="1748" 
d="M1582 0l-188.002 -0.00292969c0 148.667 -10.333 363.667 -31 645s-31.667 450 -33 506h-10c-66.667 -216.667 -151.167 -451.834 -253.5 -705.501s-153.5 -402.167 -153.5 -445.5h-135c0 46.667 -47.667 197.834 -143 453.501s-155.666 426.834 -180.999 513.501
s-42.666 148 -51.999 184h-10c-2 -91.333 -15.167 -275.666 -39.5 -552.999s-36.5 -476.666 -36.5 -597.999h-172c0 6.66699 22.667 190.167 68 550.5s68 610.833 68 751.5h263c0 -73.333 53.333 -256.666 160 -549.999s160 -471 160 -533h10c0 62 60 240.167 180 534.5
s180 477.166 180 548.499h257c0 -140.667 15.333 -390 46 -748s46 -542.667 46 -554z" />
    <glyph glyph-name="N" unicode="N" horiz-adv-x="1380" 
d="M1192 0l-140 0.000976562c0 11.333 -109.333 171 -328 479c-228.667 323.333 -359 527.333 -391 612h-10c12 -160.667 18 -298.334 18 -413.001c0 -224 5 -450 15 -678h-168c11.333 216.667 17 444.667 17 684c0 235.333 -5.66699 441.333 -17 618h192
c0 -18.667 100.667 -170.667 302 -456c210.667 -300 330.667 -495.333 360 -586h10c-11.333 162.667 -17 300.667 -17 414c0 246.667 -4.66699 456 -14 628h171c-11.333 -176.667 -17 -382.667 -17 -618c0 -239.333 5.66699 -467.333 17 -684z" />
    <glyph glyph-name="O" unicode="O" horiz-adv-x="1421" 
d="M1322 671c0 -215.333 -63 -387.5 -189 -516.5s-271.667 -193.5 -437 -193.5c-158.667 0 -297.834 59.167 -417.501 177.5s-179.5 278.166 -179.5 479.499c0 218 63 390.833 189 518.5s271.667 191.5 437 191.5c158.667 0 297.834 -59.167 417.501 -177.5
s179.5 -278.166 179.5 -479.499zM1144 648c0 172 -45.168 305.167 -135.501 399.5s-194.5 141.5 -312.5 141.5c-109.333 0 -206.666 -49.667 -291.999 -149s-128 -232 -128 -398c0 -172.667 45.5 -306.167 136.5 -400.5s195.167 -141.5 312.5 -141.5
c109.333 0 206.5 50.333 291.5 151s127.5 233 127.5 397z" />
    <glyph glyph-name="P" unicode="P" horiz-adv-x="1132" 
d="M1066 979c0 -152 -57.666 -265.667 -172.999 -341s-270.333 -113 -465 -113c-24.667 0 -46 0.666992 -64 2c0 -145.333 5.33301 -321 16 -527h-192c10 189.333 15 417.333 15 684c0 229.333 -5 435.333 -15 618h143c15.333 0 59.166 1 131.499 3s133.833 3 184.5 3
c128 0 229.833 -29.167 305.5 -87.5s113.5 -138.833 113.5 -241.5zM899.001 921c0 171.333 -117.001 257 -351.001 257c-57.333 0 -121.666 -5 -192.999 -15c4.66699 -108.667 7 -278 7 -508c23.333 -1.33301 52 -2 86 -2c300.667 0 451 89.333 451 268z" />
    <glyph glyph-name="Q" unicode="Q" horiz-adv-x="1421" 
d="M1357 -434l-188 -8c-42 183.333 -90.667 297.333 -146 342c-50.667 40.667 -159.667 61 -327 61c-155.333 0 -290 54.667 -404 164c-128.667 124 -193 288.333 -193 493c0 221.333 67.667 399 203 533c120 118 261 177 423 177c155.333 0 290 -54.667 404 -164
c128.667 -123.333 193 -287.666 193 -492.999c0 -152 -33.333 -285 -100 -399c-60 -102 -141 -181 -243 -237v-10c112.667 -10.667 193.667 -45.334 243 -104.001c52 -62 97 -180.333 135 -355zM1144 648c0 173.333 -48.998 310.333 -146.998 411
c-84.667 86.667 -185 130 -301 130c-107.333 0 -202 -47 -284 -141c-90.667 -104.667 -136 -240 -136 -406c0 -172.667 49.333 -309.667 148 -411c85.333 -87.333 185.666 -131 300.999 -131c107.333 0 201.666 47.333 282.999 142c90.667 104.667 136 240 136 406z" />
    <glyph glyph-name="R" unicode="R" horiz-adv-x="1240" 
d="M1174 0l-193 -0.000976562c-64 191.333 -110.667 318 -140 380c-37.333 78 -79.666 128.333 -126.999 151c-37.333 18 -104.333 27 -201 27c-56.667 0 -107 -0.666992 -151 -2c0 -215.333 4 -400.666 12 -555.999h-186c10 206.667 15 434.667 15 684
c0 234.667 -5 440.667 -15 618h141c30 0 68 1 114 3s98.667 3 158 3c292 0 438 -100.667 438 -302c0 -167.333 -82 -285 -246 -353v-10c73.333 -22 132.666 -73 177.999 -153c38 -66.667 105.667 -230 203 -490zM868 937.999c0 158.667 -107.333 238 -322 238
c-76.667 0 -141 -4.33301 -193 -13c4.66699 -116 7 -273.667 7 -473c40 -1.33301 78.333 -2 115 -2c262 0 393 83.333 393 250z" />
    <glyph glyph-name="S" unicode="S" horiz-adv-x="1047" 
d="M948 337c0 -246.667 -171.67 -370.003 -515.003 -370.003c-125.333 0 -236.666 14.333 -333.999 43l35 157c112 -38.667 218.333 -58 319 -58c226.667 0 340 64 340 192c0 64.667 -29.333 120 -88 166c-39.333 30.667 -116.666 71.667 -231.999 123
c-121.333 54 -206.333 103.667 -255 149c-67.333 62.667 -101 141.334 -101 236.001c0 98.667 34.333 179 103 241c76.667 69.333 185 104 325 104c158.667 0 267.334 -10.333 326.001 -31l-24 -159c-101.333 32 -209 48 -323 48c-171.333 0 -257 -57.333 -257 -172
c0 -55.333 24.667 -101.666 74 -138.999c32 -23.333 102.667 -58.666 212 -105.999c124.667 -54 214.667 -105.333 270 -154c83.333 -73.333 125 -163.333 125 -270z" />
    <glyph glyph-name="T" unicode="T" horiz-adv-x="1043" 
d="M1021 1302l-4.99902 -141c-132 6.66699 -268.333 10 -409 10c-1.33301 -128 -2 -290.333 -2 -487c0 -217.333 3.33301 -445.333 10 -684h-183c8 227.333 12 455.333 12 684c0 194 -2 356.333 -6 487c-98.667 0 -237.334 -4 -416.001 -12l5 143h994z" />
    <glyph glyph-name="U" unicode="U" horiz-adv-x="1398" 
d="M1232 1302c-2.66699 -126 -4.66699 -243.666 -6 -352.999s-2 -211.333 -2 -306c0 -446.667 -176.333 -670 -529 -670c-92 0 -170.833 13.167 -236.5 39.5s-119.667 66.666 -162 120.999s-73.333 122.833 -93 205.5s-29.5 180.334 -29.5 293.001
c0 98.667 -0.666992 203.5 -2 314.5s-3.33301 229.5 -6 355.5h190c-8 -254 -12 -453 -12 -597c0 -116 5.66699 -210.5 17 -283.5s31.5 -133.833 60.5 -182.5s65.5 -83.167 109.5 -103.5s100 -30.5 168 -30.5c71.333 0 129.333 10.167 174 30.5s81 54 109 101
s48 107.333 60 181s18 170.167 18 289.5c0 70.667 -1.16699 155.167 -3.5 253.5s-5.83301 212.166 -10.5 341.499h186z" />
    <glyph glyph-name="V" unicode="V" horiz-adv-x="1134" 
d="M1123 1302c0 -55.333 -84.167 -272 -252.5 -650s-252.5 -595.333 -252.5 -652h-130c0 51.333 -79.5 267 -238.5 647s-238.5 598.333 -238.5 655h190c0 -52 60.667 -237.167 182 -555.5s182 -500.5 182 -546.5h10c0 52 61.333 233.5 184 544.5s184 496.833 184 557.5h180z
" />
    <glyph glyph-name="W" unicode="W" horiz-adv-x="1815" 
d="M1804 1302c0 -48.667 -72.001 -266.669 -216.001 -654.002s-216 -603.333 -216 -648h-130c0 58.667 -52.333 228.667 -157 510c-114 304.667 -178.667 501 -194 589h-13c-13.333 -93.333 -70.666 -293.333 -171.999 -600c-94.667 -287.333 -142 -453.666 -142 -498.999
h-130c0 68 -70.5 295.833 -211.5 683.5s-211.5 593.834 -211.5 618.501h190c0 -27.333 50.5 -200 151.5 -518s151.5 -512.667 151.5 -584h11c0 75.333 51.333 268.833 154 580.5s154 485.5 154 521.5h175c0 -43.333 53.333 -228.166 160 -554.499s160 -508.833 160 -547.5
h11c0 65.333 48.5 250.166 145.5 554.499s145.5 486.833 145.5 547.5h184z" />
    <glyph glyph-name="X" unicode="X" horiz-adv-x="1143" 
d="M1132 0l-216.999 0.000976562c0 26 -50 122 -150 288c-96.667 160.667 -168.334 269.334 -215.001 326.001h-11c-40 -54 -102 -160 -186 -318c-88 -166 -132 -264.667 -132 -296h-210c0 20 70.333 135 211 345c139.333 208 226 328 260 360v10
c-36 40.667 -110 143 -222 307c-115.333 169.333 -173 262.666 -173 279.999h215c0 -20 40 -97.333 120 -232c78.667 -132 135 -218 169 -258h10c34 41.333 88 128.333 162 261s111 209 111 229h211c0 -18.667 -61 -108.667 -183 -270
c-118 -154.667 -198.333 -253.667 -241 -297v-10c50.667 -56.667 140.667 -183.334 270 -380.001c134 -203.333 201 -318.333 201 -345z" />
    <glyph glyph-name="Y" unicode="Y" horiz-adv-x="1127" 
d="M1105 1302c0 -24.667 -41 -96.667 -123 -216c-116 -168.667 -191.667 -283.334 -227 -344.001c-82 -139.333 -123 -245.333 -123 -318c0 -137.333 4.66699 -278.666 14 -423.999h-192c8.66699 138 13 280 13 426c0 80 -38.333 191 -115 333
c-43.333 79.333 -115 194 -215 344c-76.667 116 -115 182.333 -115 199h205c0 -17.333 57.5 -123.5 172.5 -318.5s172.5 -323.833 172.5 -386.5h10c0 63.333 54.833 190 164.5 380s164.5 298.333 164.5 325h194z" />
    <glyph glyph-name="Z" unicode="Z" horiz-adv-x="1062" 
d="M963 167l-6 -167.001h-858l9 120c84 117.333 206.333 307.333 367 570c172.667 283.333 259 441 259 473v11c-146 0 -353 -8.33301 -621 -25l5 153h816l-8 -124c-76 -107.333 -193 -295.666 -351 -564.999c-164.667 -280 -247 -434 -247 -462v-11c138 0 349.667 9 635 27
z" />
    <glyph glyph-name="bracketleft" unicode="[" horiz-adv-x="723" 
d="M599 -312l-9.99902 -173.997l-471 11c8 455.333 12 770.666 12 945.999c0 136 -4 481.667 -12 1037l481 13l-10 -172c-146.667 4 -246.667 6 -300 6c-5.33301 -460.667 -8 -755.334 -8 -884.001c0 -92.667 2.66699 -360 8 -802
c49.333 1.33301 152.666 7.66602 309.999 18.999z" />
    <glyph glyph-name="backslash" unicode="\" horiz-adv-x="547" 
d="M533 -302h-161c0 112.667 -59.333 422.167 -178 928.5s-178 782.5 -178 828.5h159c0 -126 59.667 -439.5 179 -940.5s179 -773.167 179 -816.5z" />
    <glyph glyph-name="bracketright" unicode="]" horiz-adv-x="723" 
d="M600 -472l-481.001 -13.0029l10 172c146.667 -4 246.667 -6 300 -6c5.33301 460.667 8 755.334 8 884.001c0 92.667 -2.66699 360 -8 802c-49.333 -1.33301 -152.666 -7.66602 -309.999 -18.999l10 174l471 -11c-8 -455.333 -12 -770.666 -12 -945.999
c0 -136 4 -481.667 12 -1037z" />
    <glyph glyph-name="asciicircum" unicode="^" 
d="M1004 682l-128 -83l-349 645h-23l-347 -645l-128 83l444 735h87z" />
    <glyph glyph-name="underscore" unicode="_" 
d="M1033 -512h-1033v128h1033v-128z" />
    <glyph glyph-name="grave" unicode="`" horiz-adv-x="562" 
d="M486 1086l-120 -0.000976562c0 10.667 -46 65.334 -138 164.001s-138 152 -138 160h216c0 -7.33301 30 -60.5 90 -159.5s90 -153.833 90 -164.5z" />
    <glyph glyph-name="a" unicode="a" horiz-adv-x="1005" 
d="M883 0l-157 -6.00098c-8 32.667 -12 63.667 -12 93h-10c-82 -74.667 -193.667 -112 -335 -112c-76.667 0 -142.667 22.5 -198 67.5s-83 109.167 -83 192.5c0 102.667 43.333 185.167 130 247.5s247.667 95.166 483 98.499c2 16 3 34.333 3 55
c0 82 -21.833 136.667 -65.5 164s-109.834 41 -198.501 41c-104.667 0 -207.667 -13 -309 -39l17 138c100 28.667 215 43 345 43c118.667 0 210.334 -24.5 275.001 -73.5s97 -132.5 97 -250.5c0 -31.333 -1.5 -88.166 -4.5 -170.499s-4.5 -137.166 -4.5 -164.499
c0 -121.333 9 -229.333 27 -324zM706 193.999c-3.33301 101.333 -5.00098 192.333 -5.00098 273c-125.333 0 -220.666 -9.33301 -285.999 -28c-109.333 -33.333 -164 -97 -164 -191c0 -90.667 64 -136 192 -136c110 0 197.667 27.333 263 82z" />
    <glyph glyph-name="b" unicode="b" horiz-adv-x="1138" 
d="M1039 514c0 -146 -41.667 -272.665 -125 -379.998s-197.333 -161 -342 -161c-122.667 0 -206 22 -250 66h-8l-25 -39h-147c8.66699 230 13 478.667 13 746c0 241.333 -11 461.666 -33 660.999l198 10c-6.66699 -114.667 -10 -296.334 -10 -545.001h8
c65.333 75.333 169 113 311 113c123.333 0 222.5 -46 297.5 -138s112.5 -203 112.5 -333zM861 490.002c0 100.667 -26.332 185.666 -78.999 254.999s-125.334 104 -218.001 104c-120 0 -206 -36.333 -258 -109c0 -237.333 5.33301 -429.666 16 -576.999
c54 -45.333 124.333 -68 211 -68c109.333 0 191.333 38.333 246 115s82 170 82 280z" />
    <glyph glyph-name="c" unicode="c" horiz-adv-x="925" 
d="M859 153l-10 -134.001c-54 -30.667 -126.333 -46 -217 -46c-172.667 0 -304.667 47.667 -396 143s-137 210.333 -137 345c0 142.667 48 265.334 144 368.001s223 154 381 154c79.333 0 144 -8 194 -24l-27 -157c-70 26 -141 39 -213 39c-94.667 0 -170 -33 -226 -99
s-84 -148.667 -84 -248c0 -108 33.333 -198 100 -270s161 -108 283 -108c50 0 119.333 12.333 208 37z" />
    <glyph glyph-name="d" unicode="d" horiz-adv-x="1127" 
d="M994 1l-148.999 -4.99902c-5.33301 28.667 -8 59 -8 91h-11c-70 -76 -174 -114 -312 -114c-126.667 0 -227.5 46 -302.5 138s-112.5 203 -112.5 333c0 147.333 41.667 274.333 125 381s200.666 160 351.999 160c108 0 185.333 -22 232 -66h8
c0 165.333 -4.66699 327.666 -14 486.999l190 7c-12.667 -169.333 -19 -391 -19 -665c0 -278.667 7 -527.667 21 -747zM833.001 198.001c0 207.333 -5.66699 406.999 -17 598.999c-54 44.667 -121.333 67 -202 67c-112.667 0 -197 -37.5 -253 -112.5
s-84 -169.167 -84 -282.5c0 -101.333 26.5 -186.666 79.5 -255.999s126.5 -104 220.5 -104c118 0 203.333 29.667 256 89z" />
    <glyph glyph-name="e" unicode="e" horiz-adv-x="1051" 
d="M952 587c0 -28 -1.33496 -66.667 -4.00195 -116l-687 -12c6.66699 -97.333 44.334 -178.833 113.001 -244.5s159.667 -98.5 273 -98.5c101.333 0 196.333 12.333 285 37l-17 -141c-65.333 -26 -159.666 -39 -282.999 -39c-173.333 0 -305.5 47.333 -396.5 142
s-136.5 210 -136.5 346c0 145.333 41.5 270.5 124.5 375.5s194.5 157.5 334.5 157.5c128.667 0 226.5 -38 293.5 -114s100.5 -173.667 100.5 -293zM784.998 585c0 187.333 -78.333 281 -235 281c-160 0 -254.333 -97.333 -283 -292z" />
    <glyph glyph-name="f" unicode="f" horiz-adv-x="694" 
d="M694 1419l-29 -132.001c-40 10 -80 15 -120 15c-61.333 0 -102.833 -24.167 -124.5 -72.5s-32.5 -148.166 -32.5 -299.499c66 0 158.333 3.33301 277 10l-6 -149c-134.667 4 -225 6 -271 6c0 -303.333 4 -569 12 -797h-179c9.33301 222 14 487.667 14 797
c-40.667 0 -111.667 -2 -213 -6l7 147c92 -5.33301 160.667 -8 206 -8c0 176.667 24.667 305.167 74 385.5s128 120.5 236 120.5c47.333 0 97 -5.66699 149 -17z" />
    <glyph glyph-name="g" unicode="g" horiz-adv-x="1105" 
d="M1072 1076l-16 -137.997c-124 0 -192.333 -20 -205 -60v-10c42.667 -52 64 -111.333 64 -178c0 -104 -34.167 -189.833 -102.5 -257.5s-173.833 -101.5 -316.5 -101.5c-63.333 0 -113.666 6.66699 -150.999 20c-32.667 -23.333 -49 -52.333 -49 -87
c0 -42.667 19.333 -71 58 -85c49.333 -18.667 152.333 -28 309 -28c253.333 0 380 -84 380 -252c0 -120 -49.333 -219.333 -148 -298s-226.334 -118 -383.001 -118c-160.667 0 -275.167 29.167 -343.5 87.5s-102.5 128.5 -102.5 210.5c0 74.667 16.833 134.667 50.5 180
s75.5 73.333 125.5 84v9c-52.667 25.333 -79 74 -79 146c0 65.333 33.333 122.666 100 171.999v8c-35.333 17.333 -69 46.666 -101 87.999s-48 92.666 -48 153.999c0 106 35 192.333 105 259s171.333 100 304 100c108.667 0 194 -19.667 256 -59h11
c21.333 112.667 77.333 169 168 169c49.333 0 87.333 -5 114 -15zM893 -168.997c0 62.667 -22.833 106.834 -68.5 132.501s-131.5 38.5 -257.5 38.5c-85.333 0 -163.333 4 -234 12c-81.333 -39.333 -122 -97 -122 -173c0 -162.667 106.667 -244 320 -244
c111.333 0 199.5 21.667 264.5 65s97.5 99.666 97.5 168.999zM754 649.003c0 73.333 -23.1689 129.5 -69.502 168.5s-105.166 58.5 -176.499 58.5c-67.333 0 -123.666 -18.833 -168.999 -56.5s-68 -91.167 -68 -160.5c0 -72.667 23.167 -128 69.5 -166
s105.833 -57 178.5 -57c66.667 0 122.5 18.5 167.5 55.5s67.5 89.5 67.5 157.5z" />
    <glyph glyph-name="h" unicode="h" horiz-adv-x="1109" 
d="M979 0l-182.001 0.00195312c14.667 175.333 22 364 22 566c0 108 -20.167 180.833 -60.5 218.5s-96.166 56.5 -167.499 56.5c-100 0 -193.667 -34.333 -281 -103c0 -364 2.66699 -610 8 -738h-176c6 176 9 424.667 9 746c0 281.333 -9.66699 501.666 -29 660.999l190 10
c-5.33301 -203.333 -8 -392 -8 -566h6c100 88 209.667 132 329 132c106.667 0 190 -24.833 250 -74.5s90 -136.834 90 -261.501c0 -12.667 -0.666992 -37.5 -2 -74.5s-2 -69.5 -2 -97.5c0 -96 1.33301 -254.333 4 -475z" />
    <glyph glyph-name="i" unicode="i" horiz-adv-x="446" 
d="M313 0h-181c9.33301 133.333 14 285.666 14 456.999c0 192.667 -11.667 354.334 -35 485.001l200 27c-8 -139.333 -12 -310 -12 -512c0 -160 4.66699 -312.333 14 -457zM355 1250c0 -34 -11 -63.501 -33 -88.501s-53 -37.5 -93 -37.5c-34 0 -60.5 10.833 -79.5 32.5
s-28.5 47.834 -28.5 78.501c0 33.333 11.333 62.333 34 87s54 37 94 37c32.667 0 58.5 -10.833 77.5 -32.5s28.5 -47.167 28.5 -76.5z" />
    <glyph glyph-name="j" unicode="j" horiz-adv-x="446" 
d="M312 971c-11.333 -206.667 -17 -414 -17 -622c0 -55.333 1.83301 -128.5 5.5 -219.5s5.5 -152.833 5.5 -185.5c0 -215.333 -82 -346 -246 -392l-50 76c59.333 50 96 103.333 110 160c20.667 81.333 31 254.666 31 519.999c0 284.667 -13.333 497.334 -40 638.001z
M355 1250c0 -34 -11 -63.501 -33 -88.501s-53 -37.5 -93 -37.5c-34 0 -60.5 10.833 -79.5 32.5s-28.5 47.834 -28.5 78.501c0 33.333 11.333 62.333 34 87s54 37 94 37c32.667 0 58.5 -10.833 77.5 -32.5s28.5 -47.167 28.5 -76.5z" />
    <glyph glyph-name="k" unicode="k" horiz-adv-x="1000" 
d="M989 0l-235 0.000976562c0 23.333 -64.667 112.333 -194 267c-132.667 159.333 -216 239 -250 239h-7c0 -142.667 3.66699 -311.334 11 -506.001h-176c8.66699 244 13 492.667 13 746c0 258 -9.66699 478.333 -29 661l192 10c-7.33301 -144 -11 -423.667 -11 -839h7
c22 0 91.167 56.167 207.5 168.5s174.5 180.166 174.5 203.499h221c0 -21.333 -52.333 -76.666 -157 -165.999c-98 -83.333 -187.667 -152 -269 -206v-8c82.667 -62.667 189 -170 319 -322c122 -143.333 183 -226 183 -248z" />
    <glyph glyph-name="l" unicode="l" horiz-adv-x="469" 
d="M325 0l-192 0.000976562c12 220 18 468.667 18 746c0 269.333 -9.66699 489.666 -29 660.999l203 10c-12.667 -181.333 -19 -405 -19 -671c0 -274 6.33301 -522.667 19 -746z" />
    <glyph glyph-name="m" unicode="m" horiz-adv-x="1677" 
d="M1388 579c0 106.667 -18.5 177.167 -55.5 211.5s-97.833 51.5 -182.5 51.5c-71.333 0 -145 -35 -221 -105c-2.66699 -81.333 -4 -161 -4 -239c0 -111.333 2 -277.333 6 -498h-182c14.667 190 22 383 22 579c0 106.667 -18.5 177.167 -55.5 211.5
s-96.167 51.5 -177.5 51.5c-83.333 0 -161.333 -35 -234 -105c0 -211.333 1.33301 -457 4 -737h-182c12.667 226.667 19 390.667 19 492c0 154 -15 305.333 -45 454l176 25l18 -121h10c86.667 88.667 183 133 289 133c158 0 259.667 -44.333 305 -133h11
c100.667 88.667 200 133 298 133c112 0 196.667 -24.667 254 -74s86 -136.333 86 -261c0 -12.667 -0.666992 -37.667 -2 -75s-2 -62.333 -2 -75c0 -111.333 1.33301 -277.333 4 -498h-182c15.333 174.667 23 367.667 23 579z" />
    <glyph glyph-name="n" unicode="n" horiz-adv-x="1109" 
d="M979 0h-182.002c14.667 175.333 22 366.666 22 573.999c0 102.667 -20.833 172.834 -62.5 210.501s-101.167 56.5 -178.5 56.5c-94.667 0 -182 -34.333 -262 -103c0 -227.333 1.33301 -473.333 4 -738h-182c11.333 226.667 17 390.667 17 492
c0 156 -14.667 307.333 -44 454l176 25l19 -122h8c98.667 89.333 204.334 134 317.001 134c110.667 0 196.334 -24.5 257.001 -73.5s91 -136.167 91 -261.5c0 -12.667 -0.666992 -37.667 -2 -75s-2 -62.333 -2 -75c0 -111.333 1.33301 -277.333 4 -498z" />
    <glyph glyph-name="o" unicode="o" horiz-adv-x="1144" 
d="M1045 504c0 -170.667 -49 -303.833 -147 -399.5s-213.333 -143.5 -346 -143.5c-124 0 -230.5 42.333 -319.5 127s-133.5 204 -133.5 358c0 172 49.167 306.333 147.5 403s213.833 145 346.5 145c124 0 230.333 -42.833 319 -128.5s133 -206.167 133 -361.5zM872 469.001
c0 104 -26.166 196.501 -78.499 277.501s-126.833 121.5 -223.5 121.5c-96 0 -169.833 -38.333 -221.5 -115s-77.5 -165.667 -77.5 -267c0 -104.667 26.167 -197.334 78.5 -278.001s127.166 -121 224.499 -121c96 0 169.667 38.5 221 115.5s77 165.833 77 266.5z" />
    <glyph glyph-name="p" unicode="p" horiz-adv-x="1138" 
d="M1039 514c0 -144 -41.167 -270.168 -123.5 -378.501s-196.833 -162.5 -343.5 -162.5c-122.667 0 -203.334 22 -242.001 66h-10c0 -185.333 2 -350.666 6 -495.999h-188c15.333 177.333 23 396.333 23 657c0 321.333 -16.667 570 -50 746l176 25l15 -99h10
c64.667 75.333 169.334 113 314.001 113c127.333 0 228 -46.5 302 -139.5s111 -203.5 111 -331.5zM861 489.999c0 98.667 -26 183.167 -78 253.5s-125 105.5 -219 105.5c-120 0 -206 -36.333 -258 -109c10.667 -224 16 -416.333 16 -577c54 -45.333 124.333 -68 211 -68
c110 0 192.167 38.667 246.5 116s81.5 170.333 81.5 279z" />
    <glyph glyph-name="q" unicode="q" horiz-adv-x="1139" 
d="M1006 -455l-177.999 -0.00195312c6 182.667 9 363.334 9 542.001h-11c-68.667 -76 -173.334 -114 -314.001 -114c-126 0 -226.333 46.5 -301 139.5s-112 203.5 -112 331.5c0 144 40.667 270.167 122 378.5s196.333 162.5 345 162.5c121.333 0 210.333 -22 267 -66h8
l41 31l124 11c-9.33301 -224 -14 -448.667 -14 -674c0 -269.333 4.66699 -516.666 14 -741.999zM837.001 218.998c0 220 -3 412.001 -9 576.001c-62 46 -136.333 69 -223 69c-110 0 -192.167 -38.667 -246.5 -116s-81.5 -170.333 -81.5 -279
c0 -98.667 26 -183.334 78 -254.001s125 -106 219 -106c120 0 207.667 36.667 263 110z" />
    <glyph glyph-name="r" unicode="r" horiz-adv-x="726" 
d="M736 950l-45.002 -159c-52 20.667 -100.333 31 -145 31c-125.333 0 -206.666 -59.667 -243.999 -179c0 -306.667 2 -521 6 -643h-177c10.667 211.333 16 375.333 16 492c0 158 -15.667 309.333 -47 454l175 25c12.667 -73.333 19 -122.333 19 -147h8
c72 106 156 159 252 159c50.667 0 111.334 -11 182.001 -33z" />
    <glyph glyph-name="s" unicode="s" horiz-adv-x="858" 
d="M767 271c0 -194.667 -124.331 -292 -372.998 -292c-110 0 -212.667 11 -308 33l31 147c86.667 -33.333 180.667 -50 282 -50c145.333 0 218 41.333 218 124c0 40 -16.167 71.833 -48.5 95.5s-85.833 50.167 -160.5 79.5c-94.667 37.333 -163.334 73.333 -206.001 108
c-62.667 51.333 -94 113.333 -94 186c0 76 28.667 141.167 86 195.5s144.666 81.5 261.999 81.5c114.667 0 206.667 -9.66699 276 -29l-31 -144c-72 28.667 -155.333 43 -250 43c-128 0 -192 -37 -192 -111c0 -37.333 14.333 -67.5 43 -90.5s84.667 -50.833 168 -83.5
c90 -35.333 156.667 -70 200 -104c64.667 -52.667 97 -115.667 97 -189z" />
    <glyph glyph-name="t" unicode="t" horiz-adv-x="735" 
d="M680 138l-11.999 -130.001c-52.667 -19.333 -102.334 -29 -149.001 -29c-120 0 -202 30.5 -246 91.5s-66 170.167 -66 327.5c0 102 0.666992 235 2 399c-37.333 0 -92.333 -2 -165 -6l6 145c63.333 -4 120 -6 170 -6c0 40 3.33301 135 10 285l157 16
c-11.333 -140 -17 -240.333 -17 -301c65.333 0 161.333 3.33301 288 10l-7 -149c-120 4 -216.333 6 -289 6c-1.33301 -100.667 -2 -214 -2 -340c0 -137.333 14.5 -228.166 43.5 -272.499s82.833 -66.5 161.5 -66.5c26 0 64.333 6.66699 115 20z" />
    <glyph glyph-name="u" unicode="u" horiz-adv-x="1097" 
d="M975 1l-155 -6.00195c-9.33301 37.333 -14 68 -14 92h-10c-88.667 -74.667 -196.334 -112 -323.001 -112c-115.333 0 -199.166 27.833 -251.499 83.5s-78.5 167.834 -78.5 336.501c0 24 0.666992 59.667 2 107s2 79.666 2 96.999c0 98 -5.66699 213.333 -17 346l186 7
c-8 -128.667 -12 -238.667 -12 -330c0 -210 13.5 -346.833 40.5 -410.5s87.833 -95.5 182.5 -95.5c106.667 0 194.667 26.667 264 80c0 370.667 -3.33301 620.334 -10 749.001l180 7c-5.33301 -125.333 -8 -298.666 -8 -519.999c0 -142 7.33301 -285.667 22 -431z" />
    <glyph glyph-name="v" unicode="v" horiz-adv-x="984" 
d="M940 950c0 -32.667 -67.5 -190.168 -202.5 -472.501s-202.5 -441.5 -202.5 -477.5h-134c0 46.667 -59.5 209.834 -178.5 489.501s-178.5 433.167 -178.5 460.5h194c0 -32 43.333 -159 130 -381s130 -349 130 -381h9c0 30.667 41.167 153 123.5 367
s123.5 345.667 123.5 395h186z" />
    <glyph glyph-name="w" unicode="w" horiz-adv-x="1569" 
d="M1525 950c0 -40 -57.166 -196.833 -171.499 -470.5s-171.5 -433.5 -171.5 -479.5h-136c0 25.333 -33.667 122.333 -101 291c-82.667 207.333 -141.334 369.333 -176.001 486h-8c-32 -112.667 -86.667 -275 -164 -487c-61.333 -168 -92 -264.667 -92 -290h-137
c0 38.667 -54 198.834 -162 480.501s-162 438.167 -162 469.5h178c0 -34.667 38.833 -161.334 116.5 -380.001s116.5 -346 116.5 -382h11c0 54.667 40.167 186.5 120.5 395.5s120.5 331.167 120.5 366.5h170c0 -30.667 41.667 -158.334 125 -383.001s125 -351 125 -379h10
c0 40.667 36.167 164.834 108.5 372.501s108.5 337.5 108.5 389.5h171z" />
    <glyph glyph-name="x" unicode="x" horiz-adv-x="1032" 
d="M977 0l-217.001 -0.000976562c0 16.667 -32 73.334 -96 170.001s-120.333 177.667 -169 243h-8c-34 -46.667 -81 -122.167 -141 -226.5s-90 -166.5 -90 -186.5h-201c0 19.333 47.667 92.666 143 219.999s172.333 222 231 284v8c-44 48.667 -110 130.834 -198 246.501
s-132 179.5 -132 191.5h214c0 -16 26.833 -67.333 80.5 -154s98.5 -153 134.5 -199h9c32.667 39.333 75.167 103.666 127.5 192.999s78.5 142.666 78.5 159.999h190c0 -11.333 -45.167 -76.166 -135.5 -194.499s-155.166 -197.166 -194.499 -236.499v-11
c56.667 -66 133.167 -163.333 229.5 -292s144.5 -200.667 144.5 -216z" />
    <glyph glyph-name="y" unicode="y" horiz-adv-x="952" 
d="M908 950c0 -42.667 -50.332 -178.667 -150.999 -408c-115.333 -262 -187 -446.667 -215 -554c-46 -174 -88.667 -284.667 -128 -332c-53.333 -65.333 -148.333 -98 -285 -98l-8 140c83.333 0 152.666 28.333 207.999 85s83 127.667 83 213c0 74 -61.333 250 -184 528
s-184 420 -184 426h207c0 -18 42 -139.333 126 -364s126 -363 126 -415h10c0 43.333 35.5 169 106.5 377s106.5 342 106.5 402h182z" />
    <glyph glyph-name="z" unicode="z" horiz-adv-x="933" 
d="M834 161l-5.99805 -161h-729l8 155c35.333 34 125.666 139.333 270.999 316c158 192.667 237 300.667 237 324l-1 11c-214 0 -383.667 -4.33301 -509 -13l6 157h694l-10 -157c-55.333 -60.667 -143 -166.667 -263 -318c-149.333 -188.667 -224 -296 -224 -322v-8
c201.333 0 376.666 5.33301 525.999 16z" />
    <glyph glyph-name="braceleft" unicode="{" horiz-adv-x="723" 
d="M692 -362l-62 -127.999c-288 60 -432 166.333 -432 319c0 49.333 13.5 130.666 40.5 243.999s40.5 185.333 40.5 216c0 82.667 -78 132.334 -234 149.001v149c161.333 23.333 242 75 242 155c0 30.667 -14.833 100.5 -44.5 209.5s-44.5 185.833 -44.5 230.5
c0 189.333 148.333 302.333 445 339l39 -124c-213.333 -25.333 -320 -117 -320 -275c0 -34.667 14.667 -100 44 -196s44 -156 44 -180c0 -72 -26.833 -127.167 -80.5 -165.5s-103.167 -57.5 -148.5 -57.5v-9c44.667 0 94 -18.833 148 -56.5s81 -93.834 81 -168.501
c0 -26.667 -14.667 -90.167 -44 -190.5s-44 -165.5 -44 -195.5c0 -124.667 110 -213 330 -265z" />
    <glyph glyph-name="bar" unicode="|" horiz-adv-x="516" 
d="M345 -517h-174c8.66699 234 13 563.333 13 988c0 417.333 -4.33301 777 -13 1079h174c-8 -283.333 -12 -643 -12 -1079s4 -765.333 12 -988z" />
    <glyph glyph-name="braceright" unicode="}" horiz-adv-x="723" 
d="M692 444c-161.333 -23.333 -242 -75.001 -242 -155.001c0 -30.667 14.833 -100.5 44.5 -209.5s44.5 -185.833 44.5 -230.5c0 -189.333 -148.333 -302.333 -445 -339l-39 124c213.333 25.333 320 117 320 275c0 34.667 -14.667 100 -44 196s-44 156 -44 180
c0 72 26.833 127.167 80.5 165.5s103.167 57.5 148.5 57.5v9c-44.667 0 -94 18.833 -148 56.5s-81 93.834 -81 168.501c0 26.667 14.667 90.167 44 190.5s44 165.5 44 195.5c0 124.667 -110 213 -330 265l62 128c288 -60 432 -166.333 432 -319
c0 -49.333 -13.5 -130.666 -40.5 -243.999s-40.5 -185.333 -40.5 -216c0 -82.667 78 -132.334 234 -149.001v-149z" />
    <glyph glyph-name="asciitilde" unicode="~" 
d="M1029 624c-99.333 -158.667 -211.666 -238 -336.999 -238c-45.333 0 -105.833 12.167 -181.5 36.5s-134.834 36.5 -177.501 36.5c-78.667 0 -155.334 -49 -230.001 -147l-97 52c98 174.667 209.667 262 335 262c45.333 0 110.333 -11.667 195 -35
s148.334 -35 191.001 -35c78.667 0 147 39.333 205 118z" />
    <glyph glyph-name="exclamdown" unicode="&#xa1;" horiz-adv-x="516" 
d="M347 -188c0 -114 -39.333 -171 -118 -171c-60.667 0 -91 53 -91 159c0 143.333 27.667 353.333 83 630h74c34.667 -281.333 52 -487.333 52 -618zM396 837c0 -39.333 -13.333 -73.333 -40 -102s-63.667 -43 -111 -43c-39.333 0 -69.5 12.333 -90.5 37s-31.5 55 -31.5 91
c0 39.333 13.167 74 39.5 104s62.833 45 109.5 45c39.333 0 69.833 -13 91.5 -39s32.5 -57 32.5 -93z" />
    <glyph glyph-name="cent" unicode="&#xa2;" 
d="M893 199l-10.999 -134c-58 -30 -133.667 -45 -227 -45c0 -116 2.66699 -210.333 8 -283h-109c1.33301 34.667 3.33301 131 6 289c-138.667 20 -244.667 75.333 -318 166s-110 195.667 -110 315c0 124 38.167 235.5 114.5 334.5s181.5 159.167 315.5 180.5
c0 89.333 -2.66699 191.333 -8 306h109c-5.33301 -122 -8 -221.333 -8 -298c69.333 0 134.666 -8.33301 195.999 -25l-27 -157c-69.333 23.333 -140 35 -212 35c-93.333 0 -166.666 -33.833 -219.999 -101.5s-80 -148.167 -80 -241.5c0 -102 32.167 -190.5 96.5 -265.5
s156.166 -112.5 275.499 -112.5c50 0 119.667 12.333 209 37zM613.001 994z" />
    <glyph glyph-name="sterling" unicode="&#xa3;" horiz-adv-x="909" 
d="M843 132l-18.999 -132h-762v93c39.333 18.667 73.333 43 102 73s43 77 43 141c0 50 -5.66699 113.667 -17 191c-44.667 0 -97 -2.33301 -157 -7l5 104c35.333 -2 83.666 -3 144.999 -3c-7.33301 62.667 -11 119.667 -11 171c0 132.667 30.167 235 90.5 307
s146.833 108 259.5 108c48 0 99.667 -2.66699 155 -8l-20 -122c-28 6.66699 -66 10 -114 10c-66.667 0 -120.667 -18.333 -162 -55s-62 -110.667 -62 -222c0 -53.333 4.66699 -116.333 14 -189c55.333 0 127 1.66699 215 5l-5 -103c-54 2.66699 -120.333 4 -199 4
c6 -42 9 -81 9 -117c0 -126.667 -37.667 -214 -113 -262v-10c142.667 0 343.667 7.66699 603 23z" />
    <glyph glyph-name="currency" unicode="&#xa4;" horiz-adv-x="1000" 
d="M889 774l-111.001 -106c31.333 -48 47 -107 47 -177c0 -73.333 -15.333 -136 -46 -188l94 -88l-102 -102l-86 91c-60 -42.667 -128.333 -64 -205 -64c-68 0 -128.333 16.333 -181 49l-87 -92l-101 101l92 87c-26.667 46 -40 101 -40 165c0 86 20.333 157.667 61 215
l-97 92l102 102l97 -104c54.667 32.667 115.334 49 182.001 49c63.333 0 120 -14.667 170 -44l110 115zM703.999 466c0 63.333 -18.833 120.833 -56.5 172.5s-89.5 77.5 -155.5 77.5c-64.667 0 -115.667 -24.333 -153 -73s-56 -103.667 -56 -165
c0 -63.333 19 -120.833 57 -172.5s89.667 -77.5 155 -77.5s116.5 24.333 153.5 73s55.5 103.667 55.5 165z" />
    <glyph glyph-name="yen" unicode="&#xa5;" horiz-adv-x="909" 
d="M898 1068c0 -6.66699 -29.3311 -56.001 -87.998 -148.001c-74.667 -116 -131.334 -210.333 -170.001 -283l202 5v-77h-239c-22 -46 -37.667 -82 -47 -108h286v-75c-118.667 2 -222.334 3 -311.001 3c0 -141.333 2.33301 -269.666 7 -384.999h-175
c3.33301 137.333 5 265.666 5 384.999c-76 0 -178 -1 -306 -3v75h284c-10 30.667 -24.667 66.667 -44 108h-240v77c92.667 -2 161 -3 205 -3c-40 76 -96 170.333 -168 283c-58.667 92 -88 140.667 -88 146h204c0 -4.66699 43.167 -85.167 129.5 -241.5
s129.5 -264.166 129.5 -323.499h6c0 60 38.5 167.167 115.5 321.5s115.5 235.5 115.5 243.5h187z" />
    <glyph glyph-name="brokenbar" unicode="&#xa6;" horiz-adv-x="516" 
d="M345 -517h-174c8.66699 230 13 375.333 13 436c0 60 -4.33301 216.333 -13 469h174c-8.66699 -230 -13 -375.333 -13 -436c0 -60 4.33301 -216.333 13 -469zM345 645h-174c8.66699 230 13 375.333 13 436c0 60 -4.33301 216.333 -13 469h174
c-8.66699 -230 -13 -375.333 -13 -436c0 -60 4.33301 -216.333 13 -469z" />
    <glyph glyph-name="section" unicode="&#xa7;" horiz-adv-x="859" 
d="M766 -122c0 -208 -124.333 -312 -373 -312c-110 0 -212.667 11 -308 33l31 147c86.667 -33.333 179 -50 277 -50c148.667 0 223 45 223 135c0 52.667 -44 117.334 -132 194.001l-245 212c-88 89.333 -132 175.666 -132 258.999c0 61.333 19.167 116.333 57.5 165
s96.5 81.667 174.5 99c-154.667 124 -232 242.667 -232 356c0 78 29 147 87 207s145 90 261 90c114.667 0 206.667 -9.66699 276 -29l-31 -144c-72 28.667 -153.667 43 -245 43c-128.667 0 -193 -44 -193 -132c0 -60 43.667 -127.667 131 -203l242 -201
c87.333 -84 131 -167 131 -249c0 -148 -73 -239.667 -219 -275c146 -118 219 -233 219 -345zM616 450c0 62.667 -59.333 140.667 -178 234c-57.333 0 -101 -15 -131 -45s-45 -66 -45 -108c0 -58 62 -135 186 -231c54 0 95.5 15 124.5 45s43.5 65 43.5 105z" />
    <glyph glyph-name="dieresis" unicode="&#xa8;" horiz-adv-x="836" 
d="M335 1251c0 -30.667 -10.167 -57.499 -30.5 -80.499s-48.5 -34.5 -84.5 -34.5c-30 0 -53.333 10 -70 30s-25 44 -25 72c0 29.333 10.167 55.166 30.5 77.499s48.833 33.5 85.5 33.5c30 0 53.167 -9.5 69.5 -28.5s24.5 -42.167 24.5 -69.5zM713 1251
c0 -30.667 -10.167 -57.499 -30.5 -80.499s-48.5 -34.5 -84.5 -34.5c-30 0 -53.333 10 -70 30s-25 44 -25 72c0 29.333 10.167 55.166 30.5 77.499s48.833 33.5 85.5 33.5c30 0 53.167 -9.5 69.5 -28.5s24.5 -42.167 24.5 -69.5z" />
    <glyph glyph-name="copyright" unicode="&#xa9;" horiz-adv-x="1310" 
d="M1256 598c0 -165.333 -58.499 -306.333 -175.499 -423s-258.5 -175 -424.5 -175s-307.833 58.333 -425.5 175s-176.5 257.667 -176.5 423c0 166 58.833 307.833 176.5 425.5s259.5 176.5 425.5 176.5c165.333 0 306.666 -58.833 423.999 -176.5s176 -259.5 176 -425.5z
M1164 600c0 140.667 -49.5 260.834 -148.5 360.501s-218.833 149.5 -359.5 149.5s-260.834 -49.833 -360.501 -149.5s-149.5 -219.834 -149.5 -360.501s49.833 -260.834 149.5 -360.501s219.834 -149.5 360.501 -149.5s260.5 49.833 359.5 149.5
s148.5 219.834 148.5 360.501zM854.001 381l-6.99805 -83.999c-57.333 -12.667 -102 -19 -134 -19c-114.667 0 -200.834 31.5 -258.501 94.5s-86.5 139.833 -86.5 230.5c0 92.667 31.833 174 95.5 244s150.5 105 260.5 105c30 0 61.667 -4.66699 95 -14l-14 -89
c-38 12 -72 18 -102 18c-75.333 0 -133.5 -25.333 -174.5 -76s-61.5 -108.334 -61.5 -173.001c0 -66 23.667 -125.5 71 -178.5s110.666 -79.5 189.999 -79.5c32 0 74 7 126 21z" />
    <glyph glyph-name="ordfeminine" unicode="&#xaa;" horiz-adv-x="617" 
d="M523 777l-118.002 -5.00195c-1.33301 6.66699 -3.66602 22.334 -6.99902 47.001h-9c-44.667 -36.667 -97.334 -55 -158.001 -55c-56 0 -97.667 13.333 -125 40s-41 62 -41 106c0 58 16.167 100.5 48.5 127.5s65.833 44.5 100.5 52.5s93.667 13.333 177 16v6
c0 44.667 -9 74.167 -27 88.5s-52 21.5 -102 21.5c-49.333 0 -108.666 -9 -177.999 -27l13 104c62 18 126.667 27 194 27s120.833 -13.667 160.5 -41s59.5 -75.666 59.5 -144.999c0 -8.66699 -0.166992 -20.667 -0.5 -36s-0.833008 -44 -1.5 -86
c-1.33301 -68 -0.666016 -117.5 2.00098 -148.5s6.66699 -61.833 12 -92.5zM390.998 898.998c-1.33301 25.333 -2.00098 47.334 -2.00098 66.001v58c-47.333 -0.666992 -89.666 -5.33398 -126.999 -14.001c-50.667 -14.667 -76 -43.667 -76 -87c0 -38.667 28 -58 84 -58
c50 0 90.333 11.667 121 35z" />
    <glyph glyph-name="guillemotleft" unicode="&#xab;" horiz-adv-x="929" 
d="M859 192l-82 -66l-294 300v124l294 297l82 -66l-227 -293zM446 192l-82 -66l-294 300v124l294 297l82 -66l-227 -293z" />
    <glyph glyph-name="logicalnot" unicode="&#xac;" 
d="M926 149h-120v491h-699v153h819v-644z" />
    <glyph glyph-name="registered" unicode="&#xae;" horiz-adv-x="1310" 
d="M1256 758c0 -165.333 -58.499 -306.333 -175.499 -423s-258.5 -175 -424.5 -175s-307.833 58.333 -425.5 175s-176.5 257.667 -176.5 423c0 166 58.833 307.833 176.5 425.5s259.5 176.5 425.5 176.5c165.333 0 306.666 -58.833 423.999 -176.5s176 -259.5 176 -425.5z
M1164 760c0 140.667 -49.5 260.834 -148.5 360.501s-218.833 149.5 -359.5 149.5s-260.834 -49.833 -360.501 -149.5s-149.5 -219.834 -149.5 -360.501s49.833 -260.834 149.5 -360.501s219.834 -149.5 360.501 -149.5s260.5 49.833 359.5 149.5
s148.5 219.834 148.5 360.501zM952.001 458h-106.002c-44 132.667 -77.333 212.334 -100 239.001s-64 40 -124 40c-28.667 0 -50.667 -0.333008 -66 -1c0 -108 2 -200.667 6 -278h-103c5.33301 103.333 8 217.333 8 342c0 117.333 -2.66699 220.333 -8 309h71
c1.33301 0 16.833 0.5 46.5 1.5s59.5 1.5 89.5 1.5c146 0 219 -50.333 219 -151c0 -83.333 -41 -142.333 -123 -177v-5c36.667 -10.667 65.334 -34.334 86.001 -71.001s55.334 -120 104.001 -250zM788.999 927c0 72.667 -50.333 109.001 -151 109.001
c-38 0 -66.667 -2.33301 -86 -7c2 -50.667 3 -124.334 3 -221.001c13.333 -0.666992 29.333 -1 48 -1c124 0 186 40 186 120z" />
    <glyph glyph-name="macron" unicode="&#xaf;" horiz-adv-x="500" 
d="M474 1310l-12 -124h-434l11 124h435z" />
    <glyph glyph-name="macron" unicode="&#x2c9;" horiz-adv-x="500" 
d="M474 1310l-12 -124h-434l11 124h435z" />
    <glyph glyph-name="degree" unicode="&#xb0;" horiz-adv-x="547" 
d="M545 1281c0 -74.667 -26 -140.333 -78 -197s-124.333 -85 -217 -85c-78 0 -138.833 24.833 -182.5 74.5s-65.5 108.5 -65.5 176.5c0 74.667 25.667 139.667 77 195s124 83 218 83c78.667 0 139.667 -24.333 183 -73s65 -106.667 65 -174zM425 1273
c0 37.333 -12.333 69.332 -37 95.999s-59 40 -103 40c-52 0 -92.333 -15.167 -121 -45.5s-43 -66.166 -43 -107.499c0 -38 12 -70.5 36 -97.5s57.667 -40.5 101 -40.5c52 0 92.833 15.5 122.5 46.5s44.5 67.167 44.5 108.5z" />
    <glyph glyph-name="plusminus" unicode="&#xb1;" 
d="M926 648h-345v-316h-129v316h-345v128h345v316h129v-316h345v-128zM926 51h-819v128h819v-128z" />
    <glyph glyph-name="uni00B2" unicode="&#xb2;" horiz-adv-x="547" 
d="M479 722l-13.001 -101.997h-404l11 90c34.667 24 66.334 49.667 95.001 77s54 55.333 76 84c25.333 33.333 44.666 67.333 57.999 102s20 69 20 103c0 85.333 -50.333 128 -151 128c-24 0 -57.667 -4.33301 -101 -13l11 97c17.333 5.33301 37 9.16602 59 11.499
s46.333 3.5 73 3.5c76 0 135 -19.333 177 -58c40.667 -38.667 61 -87 61 -145c0 -72.667 -23.167 -141.334 -69.5 -206.001s-104.166 -121.334 -173.499 -170.001v-9c44 0 89.833 0.666992 137.5 2s92.167 3 133.5 5z" />
    <glyph glyph-name="uni00B3" unicode="&#xb3;" horiz-adv-x="547" 
d="M479 835c0 -72.667 -35.999 -136.498 -107.999 -191.498s-180.667 -86.167 -326 -93.5l-18 80c110 10.667 190.5 31.667 241.5 63s76.5 72.666 76.5 123.999c0 85.333 -82.333 128 -247 128l14 83c69.333 0 122.166 8.5 158.499 25.5s54.5 40.5 54.5 70.5
c0 31.333 -11 52.5 -33 63.5s-55.333 16.5 -100 16.5c-37.333 0 -80 -5.33301 -128 -16l7 97c43.333 12 101.666 18 174.999 18c68.667 0 119.334 -13.167 152.001 -39.5s49 -60.833 49 -103.5c0 -60.667 -38.667 -108.334 -116 -143.001v-8
c98.667 -21.333 148 -79.333 148 -174z" />
    <glyph glyph-name="acute" unicode="&#xb4;" horiz-adv-x="562" 
d="M480 1410c0 -8 -46 -61.332 -138 -159.999s-138 -153.334 -138 -164.001h-120c0 10.667 30 65.5 90 164.5s90 152.167 90 159.5h216z" />
    <glyph glyph-name="uni00B5" unicode="&#xb5;" horiz-adv-x="1128" 
d="M989 -2l-157.999 -6.00098c-14 54 -21 89 -21 105h-8c-82 -64.667 -169.667 -97 -263 -97c-110 0 -192.667 32.333 -248 97h-10c0 -222 14.333 -406 43 -552l-188 -20c8.66699 295.333 13 544 13 746c0 280.667 -11 504 -33 670l204 7c-4 -152 -6 -266.333 -6 -343
c0 -195.333 18.167 -323.666 54.5 -384.999s102.166 -92 197.499 -92c96 0 173 27 231 81c0 363.333 -6.66699 607.333 -20 732l192 9c-6.66699 -143.333 -10 -282.333 -10 -417c0 -174 10 -352.333 30 -535z" />
    <glyph glyph-name="paragraph" unicode="&#xb6;" horiz-adv-x="1371" 
d="M1122 -413l-171.999 0.000976562c6 316.667 9 698 9 1144c0 203.333 -3.66699 381 -11 533c-58.667 5.33301 -112.334 7.66602 -161.001 6.99902c-8 -375.333 -12 -680.666 -12 -915.999c0 -321.333 4 -605 12 -851h-120c8.66699 255.333 13 539 13 851
c0 35.333 -0.666992 103.666 -2 204.999c-145.333 0 -263.333 32.833 -354 98.5s-136 179.167 -136 340.5c0 142 45.333 246.167 136 312.5s205 99.5 343 99.5c56.667 0 121.5 -1 194.5 -3s117.833 -3 134.5 -3h126c-8.66699 -152.667 -13 -384.667 -13 -696
c0 -438 4.33301 -812 13 -1122z" />
    <glyph glyph-name="periodcentered" unicode="&#xb7;" horiz-adv-x="516" 
d="M393 620c0 -39.333 -13.167 -74 -39.5 -104s-62.833 -45 -109.5 -45c-39.333 0 -69.833 13 -91.5 39s-32.5 57 -32.5 93c0 38.667 13.333 72.5 40 101.5s63.667 43.5 111 43.5c39.333 0 69.5 -12.333 90.5 -37s31.5 -55 31.5 -91z" />
    <glyph glyph-name="periodcentered" unicode="&#x2219;" horiz-adv-x="516" 
d="M393 620c0 -39.333 -13.167 -74 -39.5 -104s-62.833 -45 -109.5 -45c-39.333 0 -69.833 13 -91.5 39s-32.5 57 -32.5 93c0 38.667 13.333 72.5 40 101.5s63.667 43.5 111 43.5c39.333 0 69.5 -12.333 90.5 -37s31.5 -55 31.5 -91z" />
    <glyph glyph-name="cedilla" unicode="&#xb8;" horiz-adv-x="470" 
d="M416 -292c0 -148 -80 -221.998 -240 -221.998l-14 92c31.333 0 56.833 10.667 76.5 32s29.5 46.666 29.5 75.999c0 75.333 -50.667 122.666 -152 141.999l46 224l74 -14l-16 -138c130.667 -31.333 196 -95.333 196 -192z" />
    <glyph glyph-name="uni00B9" unicode="&#xb9;" horiz-adv-x="547" 
d="M411 620h-136c4 110.667 6 216.667 6 318c0 69.333 -1.33301 136.333 -4 201l-201 -103l-28 69l282 187h81c-3.33301 -94 -5 -212 -5 -354c0 -99.333 1.66699 -205.333 5 -318z" />
    <glyph glyph-name="ordmasculine" unicode="&#xba;" horiz-adv-x="617" 
d="M576 1057c0 -90.667 -26.333 -163.5 -79 -218.5s-119 -82.5 -199 -82.5c-72 0 -132.833 24 -182.5 72s-74.5 114.333 -74.5 199c0 96 27 170.667 81 224s120 80 198 80c72 0 132.667 -24 182 -72s74 -115.333 74 -202zM450 1039c0 55.333 -13.333 102 -40 140
s-60.667 57 -102 57c-40.667 0 -74.167 -18.667 -100.5 -56s-39.5 -81 -39.5 -131c0 -54 13.167 -100.333 39.5 -139s60.5 -58 102.5 -58s75.833 19 101.5 57s38.5 81.333 38.5 130z" />
    <glyph glyph-name="guillemotright" unicode="&#xbb;" horiz-adv-x="929" 
d="M859 426l-293 -300l-83 66l228 294l-228 295l83 66l293 -297v-124zM446 426l-293 -300l-83 66l228 294l-228 295l83 66l293 -297v-124z" />
    <glyph glyph-name="onequarter" unicode="&#xbc;" horiz-adv-x="1550" 
d="M1330 1315c0 -44 -169.167 -265.999 -507.5 -665.999s-507.5 -630.333 -507.5 -691l-145 20c0 47.333 169 269.166 507 665.499s507 626.833 507 691.5zM460 620.001h-136c4 110.667 6 216.667 6 318c0 69.333 -1.33301 136.333 -4 201l-201 -103l-28 69l282 187h81
c-3.33301 -94 -5 -212 -5 -354c0 -99.333 1.66699 -205.333 5 -318zM1429 311.001l-13 -103h-85c0 -31.333 0.666992 -67.833 2 -109.5s3 -85.5 5 -131.5h-132c2 43.333 3.33301 85 4 125s1 78.667 1 116h-280l-12 85c0 10 46.333 75.667 139 197
c87.333 116 131 179.333 131 190h150c-2 -36 -3.83301 -84.333 -5.5 -145s-2.5 -137.667 -2.5 -231c14 0.666992 28.5 1.5 43.5 2.5s33.167 2.5 54.5 4.5zM1211 303.001c1.33301 44 2.33203 84.499 2.99902 121.499s1.33398 84.5 2.00098 142.5h-5
c-15.333 -35.333 -28.333 -60.166 -39 -74.499l-138 -180.5v-11h74c26 0 60.333 0.666992 103 2z" />
    <glyph glyph-name="onehalf" unicode="&#xbd;" horiz-adv-x="1550" 
d="M1330 1315c0 -44 -169.167 -265.999 -507.5 -665.999s-507.5 -630.333 -507.5 -691l-145 20c0 47.333 169 269.166 507 665.499s507 626.833 507 691.5zM461 620.001h-136c4 110.667 6 216.667 6 318c0 69.333 -1.33301 136.333 -4 201l-201 -103l-28 69l282 187h81
c-3.33301 -94 -5 -212 -5 -354c0 -99.333 1.66699 -205.333 5 -318zM1393 103.001l-13.001 -101.997h-404l11 90c34.667 24 66.334 49.667 95.001 77s54 55.333 76 84c25.333 33.333 44.666 67.333 57.999 102s20 69 20 103c0 85.333 -50.333 128 -151 128
c-24 0 -57.667 -4.33301 -101 -13l11 97c17.333 5.33301 37 9.16602 59 11.499s46.333 3.5 73 3.5c76 0 135 -19.333 177 -58c40.667 -38.667 61 -87 61 -145c0 -72.667 -23.167 -141.334 -69.5 -206.001s-104.166 -121.334 -173.499 -170.001v-9
c44 0 89.833 0.666992 137.5 2s92.167 3 133.5 5z" />
    <glyph glyph-name="threequarters" unicode="&#xbe;" horiz-adv-x="1550" 
d="M1330 1315c0 -44 -169.167 -265.999 -507.5 -665.999s-507.5 -630.333 -507.5 -691l-145 20c0 47.333 169 269.166 507 665.499s507 626.833 507 691.5zM562 835.001c0 -72.667 -35.999 -136.498 -107.999 -191.498s-180.667 -86.167 -326 -93.5l-18 80
c110 10.667 190.5 31.667 241.5 63s76.5 72.666 76.5 123.999c0 85.333 -82.333 128 -247 128l14 83c69.333 0 122.166 8.5 158.499 25.5s54.5 40.5 54.5 70.5c0 31.333 -11 52.5 -33 63.5s-55.333 16.5 -100 16.5c-37.333 0 -80 -5.33301 -128 -16l7 97
c43.333 12 101.666 18 174.999 18c68.667 0 119.334 -13.167 152.001 -39.5s49 -60.833 49 -103.5c0 -60.667 -38.667 -108.334 -116 -143.001v-8c98.667 -21.333 148 -79.333 148 -174zM1428 312.003l-13 -103h-85c0 -31.333 0.666992 -67.833 2 -109.5s3 -85.5 5 -131.5
h-132c2 43.333 3.33301 85 4 125s1 78.667 1 116h-280l-12 85c0 10 46.333 75.667 139 197c87.333 116 131 179.333 131 190h150c-2 -36 -3.83301 -84.333 -5.5 -145s-2.5 -137.667 -2.5 -231c14 0.666992 28.5 1.5 43.5 2.5s33.167 2.5 54.5 4.5zM1210 304.003
c1.33301 44 2.33203 84.499 2.99902 121.499s1.33398 84.5 2.00098 142.5h-5c-15.333 -35.333 -28.333 -60.166 -39 -74.499l-138 -180.5v-11h74c26 0 60.333 0.666992 103 2z" />
    <glyph glyph-name="questiondown" unicode="&#xbf;" horiz-adv-x="723" 
d="M663 -234l-25 -126c-378.667 0 -568 104 -568 312c0 143.333 92.333 255 277 335l21 151h78l37 -213c-162 -33.333 -243 -114 -243 -242c0 -144.667 141 -217 423 -217zM560 845c0 -39.333 -12.666 -72.667 -37.999 -100c-28.667 -30 -66.334 -45 -113.001 -45
c-39.333 0 -70.333 13 -93 39c-19.333 23.333 -29 53 -29 89c0 39.333 12.333 73 37 101c28 32 65.333 48 112 48c38.667 0 69.667 -13.667 93 -41c20.667 -24.667 31 -55 31 -91z" />
    <glyph glyph-name="Agrave" unicode="&#xc0;" horiz-adv-x="1262" 
d="M1251 0l-211 -0.000976562c0 44.667 -42 185 -126 421h-577c-82.667 -232.667 -124 -373 -124 -421h-202c0 24.667 86 237.834 258 639.501s258 622.5 258 662.5h232c0 -39.333 82 -257 246 -653s246 -612.333 246 -649zM868 551.999
c-156.667 391.333 -235 599.333 -235 624h-11c0 -20.667 -81 -228.667 -243 -624h489zM737 1416l-119.999 -0.000976562c-6.66699 10.667 -54.334 57 -143.001 139s-133 127 -133 135h216c0 -7.33301 30 -52.166 90 -134.499s90 -128.833 90 -139.5z" />
    <glyph glyph-name="Aacute" unicode="&#xc1;" horiz-adv-x="1262" 
d="M1251 0l-211 -0.000976562c0 44.667 -42 185 -126 421h-577c-82.667 -232.667 -124 -373 -124 -421h-202c0 24.667 86 237.834 258 639.501s258 622.5 258 662.5h232c0 -39.333 82 -257 246 -653s246 -612.333 246 -649zM868 551.999
c-156.667 391.333 -235 599.333 -235 624h-11c0 -20.667 -81 -228.667 -243 -624h489zM947 1690c0 -8 -44.332 -52.999 -132.999 -134.999s-136.334 -128.333 -143.001 -139h-120c0 10.667 30 57.167 90 139.5s90 127.166 90 134.499h216z" />
    <glyph glyph-name="Acircumflex" unicode="&#xc2;" horiz-adv-x="1262" 
d="M1251 0l-211 -0.000976562c0 44.667 -42 185 -126 421h-577c-82.667 -232.667 -124 -373 -124 -421h-202c0 24.667 86 237.834 258 639.501s258 622.5 258 662.5h232c0 -39.333 82 -257 246 -653s246 -612.333 246 -649zM868 551.999
c-156.667 391.333 -235 599.333 -235 624h-11c0 -20.667 -81 -228.667 -243 -624h489zM931 1416h-114c-6.66699 8.66699 -65.667 61.334 -177 158.001c-111.333 -96.667 -170.333 -149.334 -177 -158.001h-114c0 8.66699 31.5 53.834 94.5 135.501
s96.167 127.834 99.5 138.501h194c3.33301 -10.667 36.5 -56.834 99.5 -138.501s94.5 -126.834 94.5 -135.501z" />
    <glyph glyph-name="Atilde" unicode="&#xc3;" horiz-adv-x="1262" 
d="M1251 0l-211 -0.000976562c0 44.667 -42 185 -126 421h-577c-82.667 -232.667 -124 -373 -124 -421h-202c0 24.667 86 237.834 258 639.501s258 622.5 258 662.5h232c0 -39.333 82 -257 246 -653s246 -612.333 246 -649zM868 551.999
c-156.667 391.333 -235 599.333 -235 624h-11c0 -20.667 -81 -228.667 -243 -624h489zM1037 1640c-73.333 -123.333 -156.666 -185 -249.999 -185c-34 0 -76.833 8 -128.5 24s-93.5 24 -125.5 24c-58.667 0 -116 -28 -172 -84l-62 50
c73.333 123.333 156.666 185 249.999 185c34 0 76.833 -8 128.5 -24s93.5 -24 125.5 -24c58.667 0 116 28 172 84z" />
    <glyph glyph-name="Adieresis" unicode="&#xc4;" horiz-adv-x="1262" 
d="M1251 0l-211 -0.000976562c0 44.667 -42 185 -126 421h-577c-82.667 -232.667 -124 -373 -124 -421h-202c0 24.667 86 237.834 258 639.501s258 622.5 258 662.5h232c0 -39.333 82 -257 246 -653s246 -612.333 246 -649zM868 551.999
c-156.667 391.333 -235 599.333 -235 624h-11c0 -20.667 -81 -228.667 -243 -624h489zM565 1559c0 -30.667 -10.167 -57.499 -30.5 -80.499s-48.5 -34.5 -84.5 -34.5c-30 0 -53.333 10 -70 30s-25 44 -25 72c0 29.333 10.167 55.166 30.5 77.499s48.833 33.5 85.5 33.5
c30 0 53.167 -9.5 69.5 -28.5s24.5 -42.167 24.5 -69.5zM943 1559c0 -30.667 -10.167 -57.499 -30.5 -80.499s-48.5 -34.5 -84.5 -34.5c-30 0 -53.333 10 -70 30s-25 44 -25 72c0 29.333 10.167 55.166 30.5 77.499s48.833 33.5 85.5 33.5c30 0 53.167 -9.5 69.5 -28.5
s24.5 -42.167 24.5 -69.5z" />
    <glyph glyph-name="Aring" unicode="&#xc5;" horiz-adv-x="1262" 
d="M1251 0l-211 -0.000976562c0 44.667 -42 185 -126 421h-577c-82.667 -232.667 -124 -373 -124 -421h-202c0 24.667 86 237.834 258 639.501s258 622.5 258 662.5h232c0 -39.333 82 -257 246 -653s246 -612.333 246 -649zM868 551.999
c-156.667 391.333 -235 599.333 -235 624h-11c0 -20.667 -81 -228.667 -243 -624h489zM865 1584c0 -69.333 -23 -124.333 -69 -165s-99 -61 -159 -61c-54.667 0 -101 17.167 -139 51.5s-57 83.5 -57 147.5c0 68.667 23 123 69 163s99 60 159 60c54.667 0 101 -17 139 -51
s57 -82.333 57 -145zM771 1576c0 38 -10.667 67.167 -32 87.5s-47.333 30.5 -78 30.5c-33.333 0 -62.666 -11.833 -87.999 -35.5s-38 -55.834 -38 -96.501c0 -38 10.667 -67.167 32 -87.5s47.333 -30.5 78 -30.5c33.333 0 62.666 11.833 87.999 35.5s38 55.834 38 96.501z
" />
    <glyph glyph-name="AE" unicode="&#xc6;" horiz-adv-x="1668" 
d="M1602 151l-5.99902 -150.999h-823c8.66699 148.667 13 289 13 421h-461c-78.667 -232.667 -118 -373 -118 -421h-196c0 24 87.167 236 261.5 636s261.5 622 261.5 666h1012l-6 -149c-202.667 8 -406 12 -610 12c6 -102.667 9 -242.334 9 -419.001
c157.333 0 325.666 2 504.999 6l-5 -143c-166 6 -332.667 9 -500 9c0 -171.333 2.66699 -332 8 -482c226.667 0 445 5 655 15zM786.001 552.001c0 238 -4.33301 442.332 -13 612.999h-157c0 -25.333 -82.667 -229.666 -248 -612.999h418z" />
    <glyph glyph-name="Ccedilla" unicode="&#xc7;" horiz-adv-x="1125" 
d="M1070 159l-12.999 -148.997c-114.667 -24.667 -204 -37 -268 -37c-56 0 -108 4 -156 12l-12 -85c130.667 -31.333 196 -95.333 196 -192c0 -148 -80 -222 -240 -222l-14 92c31.333 0 56.833 10.667 76.5 32s29.5 46.666 29.5 75.999
c0 75.333 -50.667 122.666 -152 141.999l35 173c-118 31.333 -215.333 89 -292 173c-107.333 117.333 -161 266.666 -161 447.999c0 186.667 60.333 346 181 478c133.333 146.667 310.333 220 531 220c60 0 123.333 -9 190 -27l-28 -159c-76.667 24 -145 36 -205 36
c-162.667 0 -288.334 -54 -377.001 -162c-76.667 -94 -115 -212.333 -115 -355c0 -145.333 44.667 -268 134 -368c100.667 -112.667 236.667 -169 408 -169c64.667 0 148.667 14.333 252 43z" />
    <glyph glyph-name="Egrave" unicode="&#xc8;" horiz-adv-x="1066" 
d="M1000 151l-6.00098 -151h-806c9.33301 206.667 14 434.667 14 684c0 234.667 -4.66699 440.667 -14 618h756l-8 -149c-183.333 8 -377.666 12 -582.999 12c4 -103.333 6 -243 6 -419c177.333 0 335.333 4 474 12v-149c-148 6 -306 9 -474 9c0 -171.333 3 -332 9 -482
c221.333 0 432 5 632 15zM679.999 1416l-119.999 -0.000976562c-6.66699 10.667 -54.334 57 -143.001 139s-133 127 -133 135h216c0 -7.33301 30 -52.166 90 -134.499s90 -128.833 90 -139.5z" />
    <glyph glyph-name="Eacute" unicode="&#xc9;" horiz-adv-x="1066" 
d="M1000 151l-6.00098 -151h-806c9.33301 206.667 14 434.667 14 684c0 234.667 -4.66699 440.667 -14 618h756l-8 -149c-183.333 8 -377.666 12 -582.999 12c4 -103.333 6 -243 6 -419c177.333 0 335.333 4 474 12v-149c-148 6 -306 9 -474 9c0 -171.333 3 -332 9 -482
c221.333 0 432 5 632 15zM897.999 1690c0 -8 -44.332 -52.999 -132.999 -134.999s-136.334 -128.333 -143.001 -139h-120c0 10.667 30 57.167 90 139.5s90 127.166 90 134.499h216z" />
    <glyph glyph-name="Ecircumflex" unicode="&#xca;" horiz-adv-x="1066" 
d="M1000 151l-6.00098 -151h-806c9.33301 206.667 14 434.667 14 684c0 234.667 -4.66699 440.667 -14 618h756l-8 -149c-183.333 8 -377.666 12 -582.999 12c4 -103.333 6 -243 6 -419c177.333 0 335.333 4 474 12v-149c-148 6 -306 9 -474 9c0 -171.333 3 -332 9 -482
c221.333 0 432 5 632 15zM884.999 1416h-114c-6.66699 8.66699 -65.667 61.334 -177 158.001c-111.333 -96.667 -170.333 -149.334 -177 -158.001h-114c0 8.66699 31.5 53.834 94.5 135.501s96.167 127.834 99.5 138.501h194c3.33301 -10.667 36.5 -56.834 99.5 -138.501
s94.5 -126.834 94.5 -135.501z" />
    <glyph glyph-name="Edieresis" unicode="&#xcb;" horiz-adv-x="1066" 
d="M1000 151l-6.00098 -151h-806c9.33301 206.667 14 434.667 14 684c0 234.667 -4.66699 440.667 -14 618h756l-8 -149c-183.333 8 -377.666 12 -582.999 12c4 -103.333 6 -243 6 -419c177.333 0 335.333 4 474 12v-149c-148 6 -306 9 -474 9c0 -171.333 3 -332 9 -482
c221.333 0 432 5 632 15zM482.999 1559c0 -30.667 -10.167 -57.499 -30.5 -80.499s-48.5 -34.5 -84.5 -34.5c-30 0 -53.333 10 -70 30s-25 44 -25 72c0 29.333 10.167 55.166 30.5 77.499s48.833 33.5 85.5 33.5c30 0 53.167 -9.5 69.5 -28.5s24.5 -42.167 24.5 -69.5z
M860.999 1559c0 -30.667 -10.167 -57.499 -30.5 -80.499s-48.5 -34.5 -84.5 -34.5c-30 0 -53.333 10 -70 30s-25 44 -25 72c0 29.333 10.167 55.166 30.5 77.499s48.833 33.5 85.5 33.5c30 0 53.167 -9.5 69.5 -28.5s24.5 -42.167 24.5 -69.5z" />
    <glyph glyph-name="Igrave" unicode="&#xcc;" horiz-adv-x="566" 
d="M378 0h-190c10 216 15 444 15 684c0 236 -5 442 -15 618h190c-9.33301 -182 -14 -388 -14 -618c0 -241.333 4.66699 -469.333 14 -684zM375 1416l-119.999 -0.000976562c-6.66699 10.667 -54.334 57 -143.001 139s-133 127 -133 135h216
c0 -7.33301 30 -52.166 90 -134.499s90 -128.833 90 -139.5z" />
    <glyph glyph-name="Iacute" unicode="&#xcd;" horiz-adv-x="566" 
d="M378 0h-190c10 216 15 444 15 684c0 236 -5 442 -15 618h190c-9.33301 -182 -14 -388 -14 -618c0 -241.333 4.66699 -469.333 14 -684zM591 1690c0 -8 -44.332 -52.999 -132.999 -134.999s-136.334 -128.333 -143.001 -139h-120c0 10.667 30 57.167 90 139.5
s90 127.166 90 134.499h216z" />
    <glyph glyph-name="Icircumflex" unicode="&#xce;" horiz-adv-x="566" 
d="M378 0h-190c10 216 15 444 15 684c0 236 -5 442 -15 618h190c-9.33301 -182 -14 -388 -14 -618c0 -241.333 4.66699 -469.333 14 -684zM577 1416h-114c-6.66699 8.66699 -65.667 61.334 -177 158.001c-111.333 -96.667 -170.333 -149.334 -177 -158.001h-114
c0 8.66699 31.5 53.834 94.5 135.501s96.167 127.834 99.5 138.501h194c3.33301 -10.667 36.5 -56.834 99.5 -138.501s94.5 -126.834 94.5 -135.501z" />
    <glyph glyph-name="Idieresis" unicode="&#xcf;" horiz-adv-x="566" 
d="M378 0h-190c10 216 15 444 15 684c0 236 -5 442 -15 618h190c-9.33301 -182 -14 -388 -14 -618c0 -241.333 4.66699 -469.333 14 -684zM202 1559c0 -30.667 -10.167 -57.499 -30.5 -80.499s-48.5 -34.5 -84.5 -34.5c-30 0 -53.333 10 -70 30s-25 44 -25 72
c0 29.333 10.167 55.166 30.5 77.499s48.833 33.5 85.5 33.5c30 0 53.167 -9.5 69.5 -28.5s24.5 -42.167 24.5 -69.5zM580 1559c0 -30.667 -10.167 -57.499 -30.5 -80.499s-48.5 -34.5 -84.5 -34.5c-30 0 -53.333 10 -70 30s-25 44 -25 72
c0 29.333 10.167 55.166 30.5 77.499s48.833 33.5 85.5 33.5c30 0 53.167 -9.5 69.5 -28.5s24.5 -42.167 24.5 -69.5z" />
    <glyph glyph-name="Eth" unicode="&#xd0;" horiz-adv-x="1316" 
d="M1217 698c0 -189.333 -57.333 -351.666 -172 -486.999c-127.333 -150 -297.333 -225 -510 -225c-69.333 0 -185 4.66699 -347 14c10 166 15 361 15 585c-22 0 -75.333 -5.66699 -160 -17l9 167c80 -2.66699 130.333 -4 151 -4c0 231.333 -5 421.666 -15 570.999h110
c27.333 0 69.333 1 126 3s98 3 124 3c224 0 391.5 -58.333 502.5 -175s166.5 -261.667 166.5 -435zM1043 653c0 145.333 -46 268.333 -138 369s-231 151 -417 151c-41.333 0 -87.666 -3.33301 -138.999 -10c6.66699 -106.667 9.33398 -250.667 8.00098 -432
c37.333 0 167.666 11 390.999 33l-6 -161c-230.667 0 -359 -2.66699 -385 -8c0 -184 3.66699 -337 11 -459c53.333 -10.667 105.666 -16 156.999 -16c174 0 307 55.667 399 167c79.333 95.333 119 217.333 119 366z" />
    <glyph glyph-name="Ntilde" unicode="&#xd1;" horiz-adv-x="1380" 
d="M1192 0l-140 0.000976562c0 11.333 -109.333 171 -328 479c-228.667 323.333 -359 527.333 -391 612h-10c12 -160.667 18 -298.334 18 -413.001c0 -224 5 -450 15 -678h-168c11.333 216.667 17 444.667 17 684c0 235.333 -5.66699 441.333 -17 618h192
c0 -18.667 100.667 -170.667 302 -456c210.667 -300 330.667 -495.333 360 -586h10c-11.333 162.667 -17 300.667 -17 414c0 246.667 -4.66699 456 -14 628h171c-11.333 -176.667 -17 -382.667 -17 -618c0 -239.333 5.66699 -467.333 17 -684zM1063 1640
c-73.333 -123.333 -156.666 -185 -249.999 -185c-34 0 -76.833 8 -128.5 24s-93.5 24 -125.5 24c-58.667 0 -116 -28 -172 -84l-62 50c73.333 123.333 156.666 185 249.999 185c34 0 76.833 -8 128.5 -24s93.5 -24 125.5 -24c58.667 0 116 28 172 84z" />
    <glyph glyph-name="Ograve" unicode="&#xd2;" horiz-adv-x="1421" 
d="M1322 671c0 -215.333 -63 -387.5 -189 -516.5s-271.667 -193.5 -437 -193.5c-158.667 0 -297.834 59.167 -417.501 177.5s-179.5 278.166 -179.5 479.499c0 218 63 390.833 189 518.5s271.667 191.5 437 191.5c158.667 0 297.834 -59.167 417.501 -177.5
s179.5 -278.166 179.5 -479.499zM1144 648c0 172 -45.168 305.167 -135.501 399.5s-194.5 141.5 -312.5 141.5c-109.333 0 -206.666 -49.667 -291.999 -149s-128 -232 -128 -398c0 -172.667 45.5 -306.167 136.5 -400.5s195.167 -141.5 312.5 -141.5
c109.333 0 206.5 50.333 291.5 151s127.5 233 127.5 397zM799.999 1416l-119.999 -0.000976562c-6.66699 10.667 -54.334 57 -143.001 139s-133 127 -133 135h216c0 -7.33301 30 -52.166 90 -134.499s90 -128.833 90 -139.5z" />
    <glyph glyph-name="Oacute" unicode="&#xd3;" horiz-adv-x="1421" 
d="M1322 671c0 -215.333 -63 -387.5 -189 -516.5s-271.667 -193.5 -437 -193.5c-158.667 0 -297.834 59.167 -417.501 177.5s-179.5 278.166 -179.5 479.499c0 218 63 390.833 189 518.5s271.667 191.5 437 191.5c158.667 0 297.834 -59.167 417.501 -177.5
s179.5 -278.166 179.5 -479.499zM1144 648c0 172 -45.168 305.167 -135.501 399.5s-194.5 141.5 -312.5 141.5c-109.333 0 -206.666 -49.667 -291.999 -149s-128 -232 -128 -398c0 -172.667 45.5 -306.167 136.5 -400.5s195.167 -141.5 312.5 -141.5
c109.333 0 206.5 50.333 291.5 151s127.5 233 127.5 397zM1055 1690c0 -8 -44.332 -52.999 -132.999 -134.999s-136.334 -128.333 -143.001 -139h-120c0 10.667 30 57.167 90 139.5s90 127.166 90 134.499h216z" />
    <glyph glyph-name="Ocircumflex" unicode="&#xd4;" horiz-adv-x="1421" 
d="M1322 671c0 -215.333 -63 -387.5 -189 -516.5s-271.667 -193.5 -437 -193.5c-158.667 0 -297.834 59.167 -417.501 177.5s-179.5 278.166 -179.5 479.499c0 218 63 390.833 189 518.5s271.667 191.5 437 191.5c158.667 0 297.834 -59.167 417.501 -177.5
s179.5 -278.166 179.5 -479.499zM1144 648c0 172 -45.168 305.167 -135.501 399.5s-194.5 141.5 -312.5 141.5c-109.333 0 -206.666 -49.667 -291.999 -149s-128 -232 -128 -398c0 -172.667 45.5 -306.167 136.5 -400.5s195.167 -141.5 312.5 -141.5
c109.333 0 206.5 50.333 291.5 151s127.5 233 127.5 397zM1010 1416h-114c-6.66699 8.66699 -65.667 61.334 -177 158.001c-111.333 -96.667 -170.333 -149.334 -177 -158.001h-114c0 8.66699 31.5 53.834 94.5 135.501s96.167 127.834 99.5 138.501h194
c3.33301 -10.667 36.5 -56.834 99.5 -138.501s94.5 -126.834 94.5 -135.501z" />
    <glyph glyph-name="Otilde" unicode="&#xd5;" horiz-adv-x="1421" 
d="M1322 671c0 -215.333 -63 -387.5 -189 -516.5s-271.667 -193.5 -437 -193.5c-158.667 0 -297.834 59.167 -417.501 177.5s-179.5 278.166 -179.5 479.499c0 218 63 390.833 189 518.5s271.667 191.5 437 191.5c158.667 0 297.834 -59.167 417.501 -177.5
s179.5 -278.166 179.5 -479.499zM1144 648c0 172 -45.168 305.167 -135.501 399.5s-194.5 141.5 -312.5 141.5c-109.333 0 -206.666 -49.667 -291.999 -149s-128 -232 -128 -398c0 -172.667 45.5 -306.167 136.5 -400.5s195.167 -141.5 312.5 -141.5
c109.333 0 206.5 50.333 291.5 151s127.5 233 127.5 397zM1132 1640c-73.333 -123.333 -156.666 -185 -249.999 -185c-34 0 -76.833 8 -128.5 24s-93.5 24 -125.5 24c-58.667 0 -116 -28 -172 -84l-62 50c73.333 123.333 156.666 185 249.999 185c34 0 76.833 -8 128.5 -24
s93.5 -24 125.5 -24c58.667 0 116 28 172 84z" />
    <glyph glyph-name="Odieresis" unicode="&#xd6;" horiz-adv-x="1421" 
d="M1322 671c0 -215.333 -63 -387.5 -189 -516.5s-271.667 -193.5 -437 -193.5c-158.667 0 -297.834 59.167 -417.501 177.5s-179.5 278.166 -179.5 479.499c0 218 63 390.833 189 518.5s271.667 191.5 437 191.5c158.667 0 297.834 -59.167 417.501 -177.5
s179.5 -278.166 179.5 -479.499zM1144 648c0 172 -45.168 305.167 -135.501 399.5s-194.5 141.5 -312.5 141.5c-109.333 0 -206.666 -49.667 -291.999 -149s-128 -232 -128 -398c0 -172.667 45.5 -306.167 136.5 -400.5s195.167 -141.5 312.5 -141.5
c109.333 0 206.5 50.333 291.5 151s127.5 233 127.5 397zM645.999 1559c0 -30.667 -10.167 -57.499 -30.5 -80.499s-48.5 -34.5 -84.5 -34.5c-30 0 -53.333 10 -70 30s-25 44 -25 72c0 29.333 10.167 55.166 30.5 77.499s48.833 33.5 85.5 33.5c30 0 53.167 -9.5 69.5 -28.5
s24.5 -42.167 24.5 -69.5zM1024 1559c0 -30.667 -10.167 -57.499 -30.5 -80.499s-48.5 -34.5 -84.5 -34.5c-30 0 -53.333 10 -70 30s-25 44 -25 72c0 29.333 10.167 55.166 30.5 77.499s48.833 33.5 85.5 33.5c30 0 53.167 -9.5 69.5 -28.5s24.5 -42.167 24.5 -69.5z" />
    <glyph glyph-name="multiply" unicode="&#xd7;" horiz-adv-x="1024" 
d="M866 761l-258 -259l243 -244l-90 -90l-244 243l-259 -258l-91 91l259 259l-244 244l90 90l244 -244l259 259z" />
    <glyph glyph-name="Oslash" unicode="&#xd8;" horiz-adv-x="1421" 
d="M1356 1322c0 -30.667 -52.333 -109.995 -157 -237.995c82.667 -114.667 124 -252.334 124 -413.001c0 -212.667 -62 -384.167 -186 -514.5s-270.667 -195.5 -440 -195.5c-138 0 -261.333 44.667 -370 134c-95.333 -114.667 -143 -184.334 -143 -209.001l-119 31
c0 35.333 58.667 123.666 176 264.999c-94 117.333 -141 262.666 -141 435.999c0 217.333 62.833 390 188.5 518s271.5 192 437.5 192c149.333 0 280 -51 392 -153c77.333 95.333 116 154.666 116 177.999zM1011 1048c-86 96 -190.666 144 -313.999 144
c-108.667 0 -205.834 -49.667 -291.501 -149s-128.5 -232 -128.5 -398c0 -126 27.333 -234.333 82 -325zM1145 651.005c0 111.333 -21.333 209 -64 293l-645 -721c84 -80 180.667 -120 290 -120c108.667 0 205.667 50.5 291 151.5s128 233.167 128 396.5z" />
    <glyph glyph-name="Ugrave" unicode="&#xd9;" horiz-adv-x="1398" 
d="M1232 1302c-2.66699 -126 -4.66699 -243.666 -6 -352.999s-2 -211.333 -2 -306c0 -446.667 -176.333 -670 -529 -670c-92 0 -170.833 13.167 -236.5 39.5s-119.667 66.666 -162 120.999s-73.333 122.833 -93 205.5s-29.5 180.334 -29.5 293.001
c0 98.667 -0.666992 203.5 -2 314.5s-3.33301 229.5 -6 355.5h190c-8 -254 -12 -453 -12 -597c0 -116 5.66699 -210.5 17 -283.5s31.5 -133.833 60.5 -182.5s65.5 -83.167 109.5 -103.5s100 -30.5 168 -30.5c71.333 0 129.333 10.167 174 30.5s81 54 109 101
s48 107.333 60 181s18 170.167 18 289.5c0 70.667 -1.16699 155.167 -3.5 253.5s-5.83301 212.166 -10.5 341.499h186zM794 1416l-119.999 -0.000976562c-6.66699 10.667 -54.334 57 -143.001 139s-133 127 -133 135h216c0 -7.33301 30 -52.166 90 -134.499
s90 -128.833 90 -139.5z" />
    <glyph glyph-name="Uacute" unicode="&#xda;" horiz-adv-x="1398" 
d="M1232 1302c-2.66699 -126 -4.66699 -243.666 -6 -352.999s-2 -211.333 -2 -306c0 -446.667 -176.333 -670 -529 -670c-92 0 -170.833 13.167 -236.5 39.5s-119.667 66.666 -162 120.999s-73.333 122.833 -93 205.5s-29.5 180.334 -29.5 293.001
c0 98.667 -0.666992 203.5 -2 314.5s-3.33301 229.5 -6 355.5h190c-8 -254 -12 -453 -12 -597c0 -116 5.66699 -210.5 17 -283.5s31.5 -133.833 60.5 -182.5s65.5 -83.167 109.5 -103.5s100 -30.5 168 -30.5c71.333 0 129.333 10.167 174 30.5s81 54 109 101
s48 107.333 60 181s18 170.167 18 289.5c0 70.667 -1.16699 155.167 -3.5 253.5s-5.83301 212.166 -10.5 341.499h186zM1021 1690c0 -8 -44.332 -52.999 -132.999 -134.999s-136.334 -128.333 -143.001 -139h-120c0 10.667 30 57.167 90 139.5s90 127.166 90 134.499h216z
" />
    <glyph glyph-name="Ucircumflex" unicode="&#xdb;" horiz-adv-x="1398" 
d="M1232 1302c-2.66699 -126 -4.66699 -243.666 -6 -352.999s-2 -211.333 -2 -306c0 -446.667 -176.333 -670 -529 -670c-92 0 -170.833 13.167 -236.5 39.5s-119.667 66.666 -162 120.999s-73.333 122.833 -93 205.5s-29.5 180.334 -29.5 293.001
c0 98.667 -0.666992 203.5 -2 314.5s-3.33301 229.5 -6 355.5h190c-8 -254 -12 -453 -12 -597c0 -116 5.66699 -210.5 17 -283.5s31.5 -133.833 60.5 -182.5s65.5 -83.167 109.5 -103.5s100 -30.5 168 -30.5c71.333 0 129.333 10.167 174 30.5s81 54 109 101
s48 107.333 60 181s18 170.167 18 289.5c0 70.667 -1.16699 155.167 -3.5 253.5s-5.83301 212.166 -10.5 341.499h186zM994 1416h-114c-6.66699 8.66699 -65.667 61.334 -177 158.001c-111.333 -96.667 -170.333 -149.334 -177 -158.001h-114
c0 8.66699 31.5 53.834 94.5 135.501s96.167 127.834 99.5 138.501h194c3.33301 -10.667 36.5 -56.834 99.5 -138.501s94.5 -126.834 94.5 -135.501z" />
    <glyph glyph-name="Udieresis" unicode="&#xdc;" horiz-adv-x="1398" 
d="M1232 1302c-2.66699 -126 -4.66699 -243.666 -6 -352.999s-2 -211.333 -2 -306c0 -446.667 -176.333 -670 -529 -670c-92 0 -170.833 13.167 -236.5 39.5s-119.667 66.666 -162 120.999s-73.333 122.833 -93 205.5s-29.5 180.334 -29.5 293.001
c0 98.667 -0.666992 203.5 -2 314.5s-3.33301 229.5 -6 355.5h190c-8 -254 -12 -453 -12 -597c0 -116 5.66699 -210.5 17 -283.5s31.5 -133.833 60.5 -182.5s65.5 -83.167 109.5 -103.5s100 -30.5 168 -30.5c71.333 0 129.333 10.167 174 30.5s81 54 109 101
s48 107.333 60 181s18 170.167 18 289.5c0 70.667 -1.16699 155.167 -3.5 253.5s-5.83301 212.166 -10.5 341.499h186zM626 1559c0 -30.667 -10.167 -57.499 -30.5 -80.499s-48.5 -34.5 -84.5 -34.5c-30 0 -53.333 10 -70 30s-25 44 -25 72
c0 29.333 10.167 55.166 30.5 77.499s48.833 33.5 85.5 33.5c30 0 53.167 -9.5 69.5 -28.5s24.5 -42.167 24.5 -69.5zM1004 1559c0 -30.667 -10.167 -57.499 -30.5 -80.499s-48.5 -34.5 -84.5 -34.5c-30 0 -53.333 10 -70 30s-25 44 -25 72
c0 29.333 10.167 55.166 30.5 77.499s48.833 33.5 85.5 33.5c30 0 53.167 -9.5 69.5 -28.5s24.5 -42.167 24.5 -69.5z" />
    <glyph glyph-name="Yacute" unicode="&#xdd;" horiz-adv-x="1127" 
d="M1105 1302c0 -24.667 -41 -96.667 -123 -216c-116 -168.667 -191.667 -283.334 -227 -344.001c-82 -139.333 -123 -245.333 -123 -318c0 -137.333 4.66699 -278.666 14 -423.999h-192c8.66699 138 13 280 13 426c0 80 -38.333 191 -115 333
c-43.333 79.333 -115 194 -215 344c-76.667 116 -115 182.333 -115 199h205c0 -17.333 57.5 -123.5 172.5 -318.5s172.5 -323.833 172.5 -386.5h10c0 63.333 54.833 190 164.5 380s164.5 298.333 164.5 325h194zM898 1690c0 -8 -44.332 -52.999 -132.999 -134.999
s-136.334 -128.333 -143.001 -139h-120c0 10.667 30 57.167 90 139.5s90 127.166 90 134.499h216z" />
    <glyph glyph-name="Thorn" unicode="&#xde;" horiz-adv-x="1132" 
d="M1066 805c0 -154.667 -57.167 -270.167 -171.5 -346.5s-269.833 -114.5 -466.5 -114.5h-64c0 -92 3.33301 -206.667 10 -344h-186c8 226.667 12 456.667 12 690c0 225.333 -4 429.333 -12 612h190c-4 -66 -6.33301 -127 -7 -183c70.667 5.33301 162.667 8 276 8
c128 0 229.833 -29 305.5 -87s113.5 -136.333 113.5 -235zM899 741c0 170.667 -117 256 -351 256c-58 0 -118.333 -5 -181 -15c-2 -110 -3 -280 -3 -510h84c300.667 0 451 89.667 451 269z" />
    <glyph glyph-name="germandbls" unicode="&#xdf;" horiz-adv-x="1103" 
d="M1023 244c0 -88 -37.334 -156 -112.001 -204c-64 -40.667 -143.667 -61 -239 -61c-83.333 0 -153 7.66699 -209 23l27 128c59.333 -20.667 124 -31 194 -31c125.333 0 188 38.667 188 116c0 54 -53 124.333 -159 211c-63.333 52 -107.666 94 -132.999 126
c-36.667 46.667 -55 94.667 -55 144c0 64 22.667 125.667 68 185l126 137c45.333 50.667 68 97.667 68 141c0 96.667 -69.333 145 -208 145c-188.667 0 -283 -128.333 -283 -385c0 -292.667 3.33301 -599 10 -919h-173c4 282 6 581 6 897c0 180 44.5 314.833 133.5 404.5
s201.5 134.5 337.5 134.5c96 0 173.667 -22.667 233 -68s89 -105.333 89 -180c0 -57.333 -21.667 -113.333 -65 -168l-122 -130c-43.333 -49.333 -65 -95.333 -65 -138c0 -36 14.667 -70.667 44 -104c17.333 -20 55.333 -52.833 114 -98.5s100.667 -86.167 126 -121.5
c39.333 -54.667 59 -116 59 -184z" />
    <glyph glyph-name="agrave" unicode="&#xe0;" horiz-adv-x="1005" 
d="M883 0l-157 -6.00098c-8 32.667 -12 63.667 -12 93h-10c-82 -74.667 -193.667 -112 -335 -112c-76.667 0 -142.667 22.5 -198 67.5s-83 109.167 -83 192.5c0 102.667 43.333 185.167 130 247.5s247.667 95.166 483 98.499c2 16 3 34.333 3 55
c0 82 -21.833 136.667 -65.5 164s-109.834 41 -198.501 41c-104.667 0 -207.667 -13 -309 -39l17 138c100 28.667 215 43 345 43c118.667 0 210.334 -24.5 275.001 -73.5s97 -132.5 97 -250.5c0 -31.333 -1.5 -88.166 -4.5 -170.499s-4.5 -137.166 -4.5 -164.499
c0 -121.333 9 -229.333 27 -324zM706 193.999c-3.33301 101.333 -5.00098 192.333 -5.00098 273c-125.333 0 -220.666 -9.33301 -285.999 -28c-109.333 -33.333 -164 -97 -164 -191c0 -90.667 64 -136 192 -136c110 0 197.667 27.333 263 82zM584.999 1086
l-120 -0.000976562c0 10.667 -46 65.334 -138 164.001s-138 152 -138 160h216c0 -7.33301 30 -60.5 90 -159.5s90 -153.833 90 -164.5z" />
    <glyph glyph-name="aacute" unicode="&#xe1;" horiz-adv-x="1005" 
d="M883 0l-157 -6.00098c-8 32.667 -12 63.667 -12 93h-10c-82 -74.667 -193.667 -112 -335 -112c-76.667 0 -142.667 22.5 -198 67.5s-83 109.167 -83 192.5c0 102.667 43.333 185.167 130 247.5s247.667 95.166 483 98.499c2 16 3 34.333 3 55
c0 82 -21.833 136.667 -65.5 164s-109.834 41 -198.501 41c-104.667 0 -207.667 -13 -309 -39l17 138c100 28.667 215 43 345 43c118.667 0 210.334 -24.5 275.001 -73.5s97 -132.5 97 -250.5c0 -31.333 -1.5 -88.166 -4.5 -170.499s-4.5 -137.166 -4.5 -164.499
c0 -121.333 9 -229.333 27 -324zM706 193.999c-3.33301 101.333 -5.00098 192.333 -5.00098 273c-125.333 0 -220.666 -9.33301 -285.999 -28c-109.333 -33.333 -164 -97 -164 -191c0 -90.667 64 -136 192 -136c110 0 197.667 27.333 263 82zM819.999 1410
c0 -8 -46 -61.332 -138 -159.999s-138 -153.334 -138 -164.001h-120c0 10.667 30 65.5 90 164.5s90 152.167 90 159.5h216z" />
    <glyph glyph-name="acircumflex" unicode="&#xe2;" horiz-adv-x="1005" 
d="M883 0l-157 -6.00098c-8 32.667 -12 63.667 -12 93h-10c-82 -74.667 -193.667 -112 -335 -112c-76.667 0 -142.667 22.5 -198 67.5s-83 109.167 -83 192.5c0 102.667 43.333 185.167 130 247.5s247.667 95.166 483 98.499c2 16 3 34.333 3 55
c0 82 -21.833 136.667 -65.5 164s-109.834 41 -198.501 41c-104.667 0 -207.667 -13 -309 -39l17 138c100 28.667 215 43 345 43c118.667 0 210.334 -24.5 275.001 -73.5s97 -132.5 97 -250.5c0 -31.333 -1.5 -88.166 -4.5 -170.499s-4.5 -137.166 -4.5 -164.499
c0 -121.333 9 -229.333 27 -324zM706 193.999c-3.33301 101.333 -5.00098 192.333 -5.00098 273c-125.333 0 -220.666 -9.33301 -285.999 -28c-109.333 -33.333 -164 -97 -164 -191c0 -90.667 64 -136 192 -136c110 0 197.667 27.333 263 82zM770.999 1086h-104
c0 8.66699 -62.333 78 -187 208c-124.667 -130 -187 -199.333 -187 -208h-104c0 8.66699 31.5 62.167 94.5 160.5s96.167 152.833 99.5 163.5h194c3.33301 -10.667 36.5 -65.167 99.5 -163.5s94.5 -151.833 94.5 -160.5z" />
    <glyph glyph-name="atilde" unicode="&#xe3;" horiz-adv-x="1005" 
d="M883 0l-157 -6.00098c-8 32.667 -12 63.667 -12 93h-10c-82 -74.667 -193.667 -112 -335 -112c-76.667 0 -142.667 22.5 -198 67.5s-83 109.167 -83 192.5c0 102.667 43.333 185.167 130 247.5s247.667 95.166 483 98.499c2 16 3 34.333 3 55
c0 82 -21.833 136.667 -65.5 164s-109.834 41 -198.501 41c-104.667 0 -207.667 -13 -309 -39l17 138c100 28.667 215 43 345 43c118.667 0 210.334 -24.5 275.001 -73.5s97 -132.5 97 -250.5c0 -31.333 -1.5 -88.166 -4.5 -170.499s-4.5 -137.166 -4.5 -164.499
c0 -121.333 9 -229.333 27 -324zM706 193.999c-3.33301 101.333 -5.00098 192.333 -5.00098 273c-125.333 0 -220.666 -9.33301 -285.999 -28c-109.333 -33.333 -164 -97 -164 -191c0 -90.667 64 -136 192 -136c110 0 197.667 27.333 263 82zM888.999 1366
c-73.333 -147.333 -156.666 -221 -249.999 -221c-34 0 -76.833 8 -128.5 24s-93.5 24 -125.5 24c-58.667 0 -116 -40 -172 -120l-62 50c73.333 147.333 156.666 221 249.999 221c34 0 76.833 -8 128.5 -24s93.5 -24 125.5 -24c58.667 0 116 40 172 120z" />
    <glyph glyph-name="adieresis" unicode="&#xe4;" horiz-adv-x="1005" 
d="M883 0l-157 -6.00098c-8 32.667 -12 63.667 -12 93h-10c-82 -74.667 -193.667 -112 -335 -112c-76.667 0 -142.667 22.5 -198 67.5s-83 109.167 -83 192.5c0 102.667 43.333 185.167 130 247.5s247.667 95.166 483 98.499c2 16 3 34.333 3 55
c0 82 -21.833 136.667 -65.5 164s-109.834 41 -198.501 41c-104.667 0 -207.667 -13 -309 -39l17 138c100 28.667 215 43 345 43c118.667 0 210.334 -24.5 275.001 -73.5s97 -132.5 97 -250.5c0 -31.333 -1.5 -88.166 -4.5 -170.499s-4.5 -137.166 -4.5 -164.499
c0 -121.333 9 -229.333 27 -324zM706 193.999c-3.33301 101.333 -5.00098 192.333 -5.00098 273c-125.333 0 -220.666 -9.33301 -285.999 -28c-109.333 -33.333 -164 -97 -164 -191c0 -90.667 64 -136 192 -136c110 0 197.667 27.333 263 82zM413.999 1251
c0 -30.667 -10.167 -57.499 -30.5 -80.499s-48.5 -34.5 -84.5 -34.5c-30 0 -53.333 10 -70 30s-25 44 -25 72c0 29.333 10.167 55.166 30.5 77.499s48.833 33.5 85.5 33.5c30 0 53.167 -9.5 69.5 -28.5s24.5 -42.167 24.5 -69.5zM791.999 1251
c0 -30.667 -10.167 -57.499 -30.5 -80.499s-48.5 -34.5 -84.5 -34.5c-30 0 -53.333 10 -70 30s-25 44 -25 72c0 29.333 10.167 55.166 30.5 77.499s48.833 33.5 85.5 33.5c30 0 53.167 -9.5 69.5 -28.5s24.5 -42.167 24.5 -69.5z" />
    <glyph glyph-name="aring" unicode="&#xe5;" horiz-adv-x="1005" 
d="M883 0l-157 -6.00098c-8 32.667 -12 63.667 -12 93h-10c-82 -74.667 -193.667 -112 -335 -112c-76.667 0 -142.667 22.5 -198 67.5s-83 109.167 -83 192.5c0 102.667 43.333 185.167 130 247.5s247.667 95.166 483 98.499c2 16 3 34.333 3 55
c0 82 -21.833 136.667 -65.5 164s-109.834 41 -198.501 41c-104.667 0 -207.667 -13 -309 -39l17 138c100 28.667 215 43 345 43c118.667 0 210.334 -24.5 275.001 -73.5s97 -132.5 97 -250.5c0 -31.333 -1.5 -88.166 -4.5 -170.499s-4.5 -137.166 -4.5 -164.499
c0 -121.333 9 -229.333 27 -324zM706 193.999c-3.33301 101.333 -5.00098 192.333 -5.00098 273c-125.333 0 -220.666 -9.33301 -285.999 -28c-109.333 -33.333 -164 -97 -164 -191c0 -90.667 64 -136 192 -136c110 0 197.667 27.333 263 82zM715.999 1287
c0 -69.333 -23 -124.333 -69 -165s-99 -61 -159 -61c-54.667 0 -101 17.167 -139 51.5s-57 83.5 -57 147.5c0 68.667 23 123 69 163s99 60 159 60c54.667 0 101 -17 139 -51s57 -82.333 57 -145zM621.999 1279c0 38 -10.667 67.167 -32 87.5s-47.333 30.5 -78 30.5
c-33.333 0 -62.666 -11.833 -87.999 -35.5s-38 -55.834 -38 -96.501c0 -38 10.667 -67.167 32 -87.5s47.333 -30.5 78 -30.5c33.333 0 62.666 11.833 87.999 35.5s38 55.834 38 96.501z" />
    <glyph glyph-name="ae" unicode="&#xe6;" horiz-adv-x="1612" 
d="M739 227c-30.667 71.333 -46 151.333 -46 240c-124.667 0 -218 -9.33301 -280 -28c-108 -33.333 -162 -97 -162 -191c0 -90.667 64 -136 192 -136c110 0 208.667 38.333 296 115zM1346 585c0 187.333 -79.333 281 -238 281c-80.667 0 -144.167 -26.167 -190.5 -78.5
s-72.5 -123.5 -78.5 -213.5zM1513 587c0 -28 -1.33008 -66.667 -3.99707 -116l-676 -12c6.66699 -95.333 42.167 -176.333 106.5 -243s153.166 -100 266.499 -100c101.333 0 197 12.333 287 37l-17 -141c-66.667 -26 -163 -39 -289 -39c-176.667 0 -308.334 58 -395.001 174
h-10c-70.667 -64.667 -133.334 -109.5 -188.001 -134.5s-129.667 -37.5 -225 -37.5c-75.333 0 -141 22.833 -197 68.5s-84 106.167 -84 181.5c0 237.333 205.333 356 616 356v55c0 82 -21.833 136.667 -65.5 164s-109.834 41 -198.501 41c-104.667 0 -207.667 -13 -309 -39
l17 138c100 28.667 211.333 43 334 43c160.667 0 268.334 -42 323.001 -126h10c78 91.333 178.667 137 302 137c130 0 228.5 -38.167 295.5 -114.5s100.5 -173.833 100.5 -292.5z" />
    <glyph glyph-name="ccedilla" unicode="&#xe7;" horiz-adv-x="925" 
d="M859 153l-9.99902 -133.997c-54 -30.667 -126.333 -46 -217 -46c-26 0 -51 1.33301 -75 4l-10 -77c130.667 -31.333 196 -95.333 196 -192c0 -148 -80 -222 -240 -222l-14 92c31.333 0 56.833 10.667 76.5 32s29.5 46.666 29.5 75.999
c0 75.333 -50.667 122.666 -152 141.999l33 161c-100 22 -187.833 72.5 -263.5 151.5s-113.5 185.833 -113.5 320.5c0 139.333 47.167 261.166 141.5 365.499s222.166 156.5 383.499 156.5c79.333 0 144 -8 194 -24l-27 -157c-70 26 -141 39 -213 39
c-95.333 0 -170.833 -33.333 -226.5 -100s-83.5 -149 -83.5 -247c0 -108 33.333 -198 100 -270s161 -108 283 -108c50 0 119.333 12.333 208 37z" />
    <glyph glyph-name="egrave" unicode="&#xe8;" horiz-adv-x="1051" 
d="M952 587c0 -28 -1.33496 -66.667 -4.00195 -116l-687 -12c6.66699 -97.333 44.334 -178.833 113.001 -244.5s159.667 -98.5 273 -98.5c101.333 0 196.333 12.333 285 37l-17 -141c-65.333 -26 -159.666 -39 -282.999 -39c-173.333 0 -305.5 47.333 -396.5 142
s-136.5 210 -136.5 346c0 145.333 41.5 270.5 124.5 375.5s194.5 157.5 334.5 157.5c128.667 0 226.5 -38 293.5 -114s100.5 -173.667 100.5 -293zM784.998 585c0 187.333 -78.333 281 -235 281c-160 0 -254.333 -97.333 -283 -292zM645.998 1086l-120 -0.000976562
c0 10.667 -46 65.334 -138 164.001s-138 152 -138 160h216c0 -7.33301 30 -60.5 90 -159.5s90 -153.833 90 -164.5z" />
    <glyph glyph-name="eacute" unicode="&#xe9;" horiz-adv-x="1051" 
d="M952 587c0 -28 -1.33496 -66.667 -4.00195 -116l-687 -12c6.66699 -97.333 44.334 -178.833 113.001 -244.5s159.667 -98.5 273 -98.5c101.333 0 196.333 12.333 285 37l-17 -141c-65.333 -26 -159.666 -39 -282.999 -39c-173.333 0 -305.5 47.333 -396.5 142
s-136.5 210 -136.5 346c0 145.333 41.5 270.5 124.5 375.5s194.5 157.5 334.5 157.5c128.667 0 226.5 -38 293.5 -114s100.5 -173.667 100.5 -293zM784.998 585c0 187.333 -78.333 281 -235 281c-160 0 -254.333 -97.333 -283 -292zM908.998 1410
c0 -8 -46 -61.332 -138 -159.999s-138 -153.334 -138 -164.001h-120c0 10.667 30 65.5 90 164.5s90 152.167 90 159.5h216z" />
    <glyph glyph-name="ecircumflex" unicode="&#xea;" horiz-adv-x="1051" 
d="M952 587c0 -28 -1.33496 -66.667 -4.00195 -116l-687 -12c6.66699 -97.333 44.334 -178.833 113.001 -244.5s159.667 -98.5 273 -98.5c101.333 0 196.333 12.333 285 37l-17 -141c-65.333 -26 -159.666 -39 -282.999 -39c-173.333 0 -305.5 47.333 -396.5 142
s-136.5 210 -136.5 346c0 145.333 41.5 270.5 124.5 375.5s194.5 157.5 334.5 157.5c128.667 0 226.5 -38 293.5 -114s100.5 -173.667 100.5 -293zM784.998 585c0 187.333 -78.333 281 -235 281c-160 0 -254.333 -97.333 -283 -292zM846.998 1086h-104
c0 8.66699 -62.333 78 -187 208c-124.667 -130 -187 -199.333 -187 -208h-104c0 8.66699 31.5 62.167 94.5 160.5s96.167 152.833 99.5 163.5h194c3.33301 -10.667 36.5 -65.167 99.5 -163.5s94.5 -151.833 94.5 -160.5z" />
    <glyph glyph-name="edieresis" unicode="&#xeb;" horiz-adv-x="1051" 
d="M952 587c0 -28 -1.33496 -66.667 -4.00195 -116l-687 -12c6.66699 -97.333 44.334 -178.833 113.001 -244.5s159.667 -98.5 273 -98.5c101.333 0 196.333 12.333 285 37l-17 -141c-65.333 -26 -159.666 -39 -282.999 -39c-173.333 0 -305.5 47.333 -396.5 142
s-136.5 210 -136.5 346c0 145.333 41.5 270.5 124.5 375.5s194.5 157.5 334.5 157.5c128.667 0 226.5 -38 293.5 -114s100.5 -173.667 100.5 -293zM784.998 585c0 187.333 -78.333 281 -235 281c-160 0 -254.333 -97.333 -283 -292zM474.998 1251
c0 -30.667 -10.167 -57.499 -30.5 -80.499s-48.5 -34.5 -84.5 -34.5c-30 0 -53.333 10 -70 30s-25 44 -25 72c0 29.333 10.167 55.166 30.5 77.499s48.833 33.5 85.5 33.5c30 0 53.167 -9.5 69.5 -28.5s24.5 -42.167 24.5 -69.5zM852.998 1251
c0 -30.667 -10.167 -57.499 -30.5 -80.499s-48.5 -34.5 -84.5 -34.5c-30 0 -53.333 10 -70 30s-25 44 -25 72c0 29.333 10.167 55.166 30.5 77.499s48.833 33.5 85.5 33.5c30 0 53.167 -9.5 69.5 -28.5s24.5 -42.167 24.5 -69.5z" />
    <glyph glyph-name="igrave" unicode="&#xec;" horiz-adv-x="446" 
d="M313 0h-181c9.33301 133.333 14 285.666 14 456.999c0 192.667 -11.667 354.334 -35 485.001l200 27c-8 -139.333 -12 -310 -12 -512c0 -160 4.66699 -312.333 14 -457zM308 1086l-120 -0.000976562c0 10.667 -46 65.334 -138 164.001s-138 152 -138 160h216
c0 -7.33301 30 -60.5 90 -159.5s90 -153.833 90 -164.5z" />
    <glyph glyph-name="iacute" unicode="&#xed;" horiz-adv-x="446" 
d="M313 0h-181c9.33301 133.333 14 285.666 14 456.999c0 192.667 -11.667 354.334 -35 485.001l200 27c-8 -139.333 -12 -310 -12 -512c0 -160 4.66699 -312.333 14 -457zM527 1410c0 -8 -46 -61.332 -138 -159.999s-138 -153.334 -138 -164.001h-120
c0 10.667 30 65.5 90 164.5s90 152.167 90 159.5h216z" />
    <glyph glyph-name="icircumflex" unicode="&#xee;" horiz-adv-x="446" 
d="M313 0h-181c9.33301 133.333 14 285.666 14 456.999c0 192.667 -11.667 354.334 -35 485.001l200 27c-8 -139.333 -12 -310 -12 -512c0 -160 4.66699 -312.333 14 -457zM515 1086h-104c0 8.66699 -62.333 78 -187 208c-124.667 -130 -187 -199.333 -187 -208h-104
c0 8.66699 31.5 62.167 94.5 160.5s96.167 152.833 99.5 163.5h194c3.33301 -10.667 36.5 -65.167 99.5 -163.5s94.5 -151.833 94.5 -160.5z" />
    <glyph glyph-name="idieresis" unicode="&#xef;" horiz-adv-x="446" 
d="M313 0h-181c9.33301 133.333 14 285.666 14 456.999c0 192.667 -11.667 354.334 -35 485.001l200 27c-8 -139.333 -12 -310 -12 -512c0 -160 4.66699 -312.333 14 -457zM135 1251c0 -30.667 -10.167 -57.499 -30.5 -80.499s-48.5 -34.5 -84.5 -34.5
c-30 0 -53.333 10 -70 30s-25 44 -25 72c0 29.333 10.167 55.166 30.5 77.499s48.833 33.5 85.5 33.5c30 0 53.167 -9.5 69.5 -28.5s24.5 -42.167 24.5 -69.5zM513 1251c0 -30.667 -10.167 -57.499 -30.5 -80.499s-48.5 -34.5 -84.5 -34.5c-30 0 -53.333 10 -70 30
s-25 44 -25 72c0 29.333 10.167 55.166 30.5 77.499s48.833 33.5 85.5 33.5c30 0 53.167 -9.5 69.5 -28.5s24.5 -42.167 24.5 -69.5z" />
    <glyph glyph-name="eth" unicode="&#xf0;" horiz-adv-x="1122" 
d="M1023 532c0 -170 -40.5029 -307.666 -121.503 -412.999s-196.833 -158 -347.5 -158c-146 0 -258.333 45.833 -337 137.5s-118 202.167 -118 331.5c0 133.333 39.833 251.666 119.5 354.999s185.834 155 318.501 155c100.667 0 186 -23.333 256 -70h11
c-35.333 116 -88 208.667 -158 278l-168 -119l-78 124c30.667 12.667 88.334 39.667 173.001 81c-43.333 45.333 -86 85 -128 119l93 85c22.667 -12 79.334 -55.667 170.001 -131c51.333 28.667 112.333 68.334 183 119.001l79 -124l-184 -78
c158 -190.667 237 -421.334 237 -692.001zM846.997 523.001c0 81.333 -5.33301 155.667 -16 223c-70 41.333 -162.333 62 -277 62c-82 0 -148.667 -34.5 -200 -103.5s-77 -157.833 -77 -266.5c0 -91.333 24.667 -170.333 74 -237s117 -100 203 -100
c100 0 173.833 42.5 221.5 127.5s71.5 183.167 71.5 294.5z" />
    <glyph glyph-name="ntilde" unicode="&#xf1;" horiz-adv-x="1109" 
d="M979 0h-182.002c14.667 175.333 22 366.666 22 573.999c0 102.667 -20.833 172.834 -62.5 210.501s-101.167 56.5 -178.5 56.5c-94.667 0 -182 -34.333 -262 -103c0 -227.333 1.33301 -473.333 4 -738h-182c11.333 226.667 17 390.667 17 492
c0 156 -14.667 307.333 -44 454l176 25l19 -122h8c98.667 89.333 204.334 134 317.001 134c110.667 0 196.334 -24.5 257.001 -73.5s91 -136.167 91 -261.5c0 -12.667 -0.666992 -37.667 -2 -75s-2 -62.333 -2 -75c0 -111.333 1.33301 -277.333 4 -498zM951.998 1366
c-73.333 -147.333 -156.666 -221 -249.999 -221c-34 0 -76.833 8 -128.5 24s-93.5 24 -125.5 24c-58.667 0 -116 -40 -172 -120l-62 50c73.333 147.333 156.666 221 249.999 221c34 0 76.833 -8 128.5 -24s93.5 -24 125.5 -24c58.667 0 116 40 172 120z" />
    <glyph glyph-name="ograve" unicode="&#xf2;" horiz-adv-x="1144" 
d="M1045 504c0 -170.667 -49 -303.833 -147 -399.5s-213.333 -143.5 -346 -143.5c-124 0 -230.5 42.333 -319.5 127s-133.5 204 -133.5 358c0 172 49.167 306.333 147.5 403s213.833 145 346.5 145c124 0 230.333 -42.833 319 -128.5s133 -206.167 133 -361.5zM872 469.001
c0 104 -26.166 196.501 -78.499 277.501s-126.833 121.5 -223.5 121.5c-96 0 -169.833 -38.333 -221.5 -115s-77.5 -165.667 -77.5 -267c0 -104.667 26.167 -197.334 78.5 -278.001s127.166 -121 224.499 -121c96 0 169.667 38.5 221 115.5s77 165.833 77 266.5z
M676.001 1086l-120 -0.000976562c0 10.667 -46 65.334 -138 164.001s-138 152 -138 160h216c0 -7.33301 30 -60.5 90 -159.5s90 -153.833 90 -164.5z" />
    <glyph glyph-name="oacute" unicode="&#xf3;" horiz-adv-x="1144" 
d="M1045 504c0 -170.667 -49 -303.833 -147 -399.5s-213.333 -143.5 -346 -143.5c-124 0 -230.5 42.333 -319.5 127s-133.5 204 -133.5 358c0 172 49.167 306.333 147.5 403s213.833 145 346.5 145c124 0 230.333 -42.833 319 -128.5s133 -206.167 133 -361.5zM872 469.001
c0 104 -26.166 196.501 -78.499 277.501s-126.833 121.5 -223.5 121.5c-96 0 -169.833 -38.333 -221.5 -115s-77.5 -165.667 -77.5 -267c0 -104.667 26.167 -197.334 78.5 -278.001s127.166 -121 224.499 -121c96 0 169.667 38.5 221 115.5s77 165.833 77 266.5z
M940.001 1410c0 -8 -46 -61.332 -138 -159.999s-138 -153.334 -138 -164.001h-120c0 10.667 30 65.5 90 164.5s90 152.167 90 159.5h216z" />
    <glyph glyph-name="ocircumflex" unicode="&#xf4;" horiz-adv-x="1144" 
d="M1045 504c0 -170.667 -49 -303.833 -147 -399.5s-213.333 -143.5 -346 -143.5c-124 0 -230.5 42.333 -319.5 127s-133.5 204 -133.5 358c0 172 49.167 306.333 147.5 403s213.833 145 346.5 145c124 0 230.333 -42.833 319 -128.5s133 -206.167 133 -361.5zM872 469.001
c0 104 -26.166 196.501 -78.499 277.501s-126.833 121.5 -223.5 121.5c-96 0 -169.833 -38.333 -221.5 -115s-77.5 -165.667 -77.5 -267c0 -104.667 26.167 -197.334 78.5 -278.001s127.166 -121 224.499 -121c96 0 169.667 38.5 221 115.5s77 165.833 77 266.5z
M882.001 1086h-104c0 8.66699 -62.333 78 -187 208c-124.667 -130 -187 -199.333 -187 -208h-104c0 8.66699 31.5 62.167 94.5 160.5s96.167 152.833 99.5 163.5h194c3.33301 -10.667 36.5 -65.167 99.5 -163.5s94.5 -151.833 94.5 -160.5z" />
    <glyph glyph-name="otilde" unicode="&#xf5;" horiz-adv-x="1144" 
d="M1045 504c0 -170.667 -49 -303.833 -147 -399.5s-213.333 -143.5 -346 -143.5c-124 0 -230.5 42.333 -319.5 127s-133.5 204 -133.5 358c0 172 49.167 306.333 147.5 403s213.833 145 346.5 145c124 0 230.333 -42.833 319 -128.5s133 -206.167 133 -361.5zM872 469.001
c0 104 -26.166 196.501 -78.499 277.501s-126.833 121.5 -223.5 121.5c-96 0 -169.833 -38.333 -221.5 -115s-77.5 -165.667 -77.5 -267c0 -104.667 26.167 -197.334 78.5 -278.001s127.166 -121 224.499 -121c96 0 169.667 38.5 221 115.5s77 165.833 77 266.5z
M990.001 1366c-73.333 -147.333 -156.666 -221 -249.999 -221c-34 0 -76.833 8 -128.5 24s-93.5 24 -125.5 24c-58.667 0 -116 -40 -172 -120l-62 50c73.333 147.333 156.666 221 249.999 221c34 0 76.833 -8 128.5 -24s93.5 -24 125.5 -24c58.667 0 116 40 172 120z" />
    <glyph glyph-name="odieresis" unicode="&#xf6;" horiz-adv-x="1144" 
d="M1045 504c0 -170.667 -49 -303.833 -147 -399.5s-213.333 -143.5 -346 -143.5c-124 0 -230.5 42.333 -319.5 127s-133.5 204 -133.5 358c0 172 49.167 306.333 147.5 403s213.833 145 346.5 145c124 0 230.333 -42.833 319 -128.5s133 -206.167 133 -361.5zM872 469.001
c0 104 -26.166 196.501 -78.499 277.501s-126.833 121.5 -223.5 121.5c-96 0 -169.833 -38.333 -221.5 -115s-77.5 -165.667 -77.5 -267c0 -104.667 26.167 -197.334 78.5 -278.001s127.166 -121 224.499 -121c96 0 169.667 38.5 221 115.5s77 165.833 77 266.5z
M515.001 1251c0 -30.667 -10.167 -57.499 -30.5 -80.499s-48.5 -34.5 -84.5 -34.5c-30 0 -53.333 10 -70 30s-25 44 -25 72c0 29.333 10.167 55.166 30.5 77.499s48.833 33.5 85.5 33.5c30 0 53.167 -9.5 69.5 -28.5s24.5 -42.167 24.5 -69.5zM893.001 1251
c0 -30.667 -10.167 -57.499 -30.5 -80.499s-48.5 -34.5 -84.5 -34.5c-30 0 -53.333 10 -70 30s-25 44 -25 72c0 29.333 10.167 55.166 30.5 77.499s48.833 33.5 85.5 33.5c30 0 53.167 -9.5 69.5 -28.5s24.5 -42.167 24.5 -69.5z" />
    <glyph glyph-name="divide" unicode="&#xf7;" 
d="M919 440h-804v128h804v-128zM619 181c0 -30.667 -10.167 -57.499 -30.5 -80.499s-48.5 -34.5 -84.5 -34.5c-30 0 -53.333 10 -70 30s-25 44 -25 72c0 29.333 10.167 55.166 30.5 77.499s48.833 33.5 85.5 33.5c30 0 53.167 -9.5 69.5 -28.5s24.5 -42.167 24.5 -69.5z
M627 836.001c0 -30.667 -10.167 -57.499 -30.5 -80.499s-48.5 -34.5 -84.5 -34.5c-30 0 -53.333 10 -70 30s-25 44 -25 72c0 29.333 10.167 55.166 30.5 77.499s48.833 33.5 85.5 33.5c30 0 53.167 -9.5 69.5 -28.5s24.5 -42.167 24.5 -69.5z" />
    <glyph glyph-name="oslash" unicode="&#xf8;" horiz-adv-x="1144" 
d="M1093 981c0 -21.333 -43 -80.999 -129 -178.999c54 -81.333 81 -180.666 81 -297.999c0 -170.667 -49 -303.834 -147 -399.501s-213.333 -143.5 -346 -143.5c-108.667 0 -203 31.667 -283 95c-87.333 -98 -131 -154.667 -131 -170l-88 31
c0 25.333 49.667 94.666 149 207.999c-66.667 84.667 -100 191.667 -100 321c0 172 49.167 306.333 147.5 403s213.833 145 346.5 145c122.667 0 225.667 -39.333 309 -118c66.667 74.667 100 120 100 136zM788 751.001c-56 78 -128.666 117 -217.999 117
c-94.667 0 -168.334 -37.833 -221.001 -113.5s-79 -165.167 -79 -268.5c0 -84 16.667 -160 50 -228zM872.001 469.001c0 67.333 -11.667 131 -35 191l-461 -486c52.667 -58 118.667 -87 198 -87c92.667 0 165.5 38.5 218.5 115.5s79.5 165.833 79.5 266.5z" />
    <glyph glyph-name="ugrave" unicode="&#xf9;" horiz-adv-x="1097" 
d="M975 1l-155 -6.00195c-9.33301 37.333 -14 68 -14 92h-10c-88.667 -74.667 -196.334 -112 -323.001 -112c-115.333 0 -199.166 27.833 -251.499 83.5s-78.5 167.834 -78.5 336.501c0 24 0.666992 59.667 2 107s2 79.666 2 96.999c0 98 -5.66699 213.333 -17 346l186 7
c-8 -128.667 -12 -238.667 -12 -330c0 -210 13.5 -346.833 40.5 -410.5s87.833 -95.5 182.5 -95.5c106.667 0 194.667 26.667 264 80c0 370.667 -3.33301 620.334 -10 749.001l180 7c-5.33301 -125.333 -8 -298.666 -8 -519.999c0 -142 7.33301 -285.667 22 -431zM642 1086
l-120 -0.000976562c0 10.667 -46 65.334 -138 164.001s-138 152 -138 160h216c0 -7.33301 30 -60.5 90 -159.5s90 -153.833 90 -164.5z" />
    <glyph glyph-name="uacute" unicode="&#xfa;" horiz-adv-x="1097" 
d="M975 1l-155 -6.00195c-9.33301 37.333 -14 68 -14 92h-10c-88.667 -74.667 -196.334 -112 -323.001 -112c-115.333 0 -199.166 27.833 -251.499 83.5s-78.5 167.834 -78.5 336.501c0 24 0.666992 59.667 2 107s2 79.666 2 96.999c0 98 -5.66699 213.333 -17 346l186 7
c-8 -128.667 -12 -238.667 -12 -330c0 -210 13.5 -346.833 40.5 -410.5s87.833 -95.5 182.5 -95.5c106.667 0 194.667 26.667 264 80c0 370.667 -3.33301 620.334 -10 749.001l180 7c-5.33301 -125.333 -8 -298.666 -8 -519.999c0 -142 7.33301 -285.667 22 -431zM874 1410
c0 -8 -46 -61.332 -138 -159.999s-138 -153.334 -138 -164.001h-120c0 10.667 30 65.5 90 164.5s90 152.167 90 159.5h216z" />
    <glyph glyph-name="ucircumflex" unicode="&#xfb;" horiz-adv-x="1097" 
d="M975 1l-155 -6.00195c-9.33301 37.333 -14 68 -14 92h-10c-88.667 -74.667 -196.334 -112 -323.001 -112c-115.333 0 -199.166 27.833 -251.499 83.5s-78.5 167.834 -78.5 336.501c0 24 0.666992 59.667 2 107s2 79.666 2 96.999c0 98 -5.66699 213.333 -17 346l186 7
c-8 -128.667 -12 -238.667 -12 -330c0 -210 13.5 -346.833 40.5 -410.5s87.833 -95.5 182.5 -95.5c106.667 0 194.667 26.667 264 80c0 370.667 -3.33301 620.334 -10 749.001l180 7c-5.33301 -125.333 -8 -298.666 -8 -519.999c0 -142 7.33301 -285.667 22 -431zM853 1086
h-104c0 8.66699 -62.333 78 -187 208c-124.667 -130 -187 -199.333 -187 -208h-104c0 8.66699 31.5 62.167 94.5 160.5s96.167 152.833 99.5 163.5h194c3.33301 -10.667 36.5 -65.167 99.5 -163.5s94.5 -151.833 94.5 -160.5z" />
    <glyph glyph-name="udieresis" unicode="&#xfc;" horiz-adv-x="1097" 
d="M975 1l-155 -6.00195c-9.33301 37.333 -14 68 -14 92h-10c-88.667 -74.667 -196.334 -112 -323.001 -112c-115.333 0 -199.166 27.833 -251.499 83.5s-78.5 167.834 -78.5 336.501c0 24 0.666992 59.667 2 107s2 79.666 2 96.999c0 98 -5.66699 213.333 -17 346l186 7
c-8 -128.667 -12 -238.667 -12 -330c0 -210 13.5 -346.833 40.5 -410.5s87.833 -95.5 182.5 -95.5c106.667 0 194.667 26.667 264 80c0 370.667 -3.33301 620.334 -10 749.001l180 7c-5.33301 -125.333 -8 -298.666 -8 -519.999c0 -142 7.33301 -285.667 22 -431zM471 1251
c0 -30.667 -10.167 -57.499 -30.5 -80.499s-48.5 -34.5 -84.5 -34.5c-30 0 -53.333 10 -70 30s-25 44 -25 72c0 29.333 10.167 55.166 30.5 77.499s48.833 33.5 85.5 33.5c30 0 53.167 -9.5 69.5 -28.5s24.5 -42.167 24.5 -69.5zM849 1251
c0 -30.667 -10.167 -57.499 -30.5 -80.499s-48.5 -34.5 -84.5 -34.5c-30 0 -53.333 10 -70 30s-25 44 -25 72c0 29.333 10.167 55.166 30.5 77.499s48.833 33.5 85.5 33.5c30 0 53.167 -9.5 69.5 -28.5s24.5 -42.167 24.5 -69.5z" />
    <glyph glyph-name="yacute" unicode="&#xfd;" horiz-adv-x="952" 
d="M908 950c0 -42.667 -50.332 -178.667 -150.999 -408c-115.333 -262 -187 -446.667 -215 -554c-46 -174 -88.667 -284.667 -128 -332c-53.333 -65.333 -148.333 -98 -285 -98l-8 140c83.333 0 152.666 28.333 207.999 85s83 127.667 83 213c0 74 -61.333 250 -184 528
s-184 420 -184 426h207c0 -18 42 -139.333 126 -364s126 -363 126 -415h10c0 43.333 35.5 169 106.5 377s106.5 342 106.5 402h182zM837.001 1410c0 -8 -46 -61.332 -138 -159.999s-138 -153.334 -138 -164.001h-120c0 10.667 30 65.5 90 164.5s90 152.167 90 159.5h216z
" />
    <glyph glyph-name="thorn" unicode="&#xfe;" horiz-adv-x="1142" 
d="M1043 514c0 -76 -11.333 -146.998 -34 -212.998s-54.667 -123.167 -96 -171.5s-90.833 -86.5 -148.5 -114.5s-121.167 -42 -190.5 -42c-122.667 0 -208 22 -256 66h-10c0 -186 2 -351.333 6 -496h-192c11.333 168.667 20 352.667 26 552s9 416.333 9 651
c0 242 -11 462.333 -33 661l198 10c-3.33301 -58 -5.83301 -132 -7.5 -222s-2.5 -197.667 -2.5 -323h8c71.333 75.333 181 113 329 113c59.333 0 113.166 -11.667 161.499 -35s89.833 -55.833 124.5 -97.5s61.334 -91.334 80.001 -149.001s28 -120.834 28 -189.501z
M865 490.002c0 51.333 -7.16699 99 -21.5 143s-34.666 82 -60.999 114s-57.833 57 -94.5 75s-77.334 27 -122.001 27c-120 0 -206 -36.333 -258 -109c0 -119.333 0.333008 -226.833 1 -322.5s1.66699 -180.5 3 -254.5c48.667 -45.333 116 -68 202 -68c52 0 99.5 10 142.5 30
s80 47.833 111 83.5s55 77.5 72 125.5s25.5 100 25.5 156z" />
    <glyph glyph-name="ydieresis" unicode="&#xff;" horiz-adv-x="952" 
d="M908 950c0 -42.667 -50.332 -178.667 -150.999 -408c-115.333 -262 -187 -446.667 -215 -554c-46 -174 -88.667 -284.667 -128 -332c-53.333 -65.333 -148.333 -98 -285 -98l-8 140c83.333 0 152.666 28.333 207.999 85s83 127.667 83 213c0 74 -61.333 250 -184 528
s-184 420 -184 426h207c0 -18 42 -139.333 126 -364s126 -363 126 -415h10c0 43.333 35.5 169 106.5 377s106.5 342 106.5 402h182zM429.001 1251c0 -30.667 -10.167 -57.499 -30.5 -80.499s-48.5 -34.5 -84.5 -34.5c-30 0 -53.333 10 -70 30s-25 44 -25 72
c0 29.333 10.167 55.166 30.5 77.499s48.833 33.5 85.5 33.5c30 0 53.167 -9.5 69.5 -28.5s24.5 -42.167 24.5 -69.5zM807.001 1251c0 -30.667 -10.167 -57.499 -30.5 -80.499s-48.5 -34.5 -84.5 -34.5c-30 0 -53.333 10 -70 30s-25 44 -25 72
c0 29.333 10.167 55.166 30.5 77.499s48.833 33.5 85.5 33.5c30 0 53.167 -9.5 69.5 -28.5s24.5 -42.167 24.5 -69.5z" />
    <glyph glyph-name="Amacron" unicode="&#x100;" horiz-adv-x="1262" 
d="M1251 0l-211 -0.000976562c0 44.667 -42 185 -126 421h-577c-82.667 -232.667 -124 -373 -124 -421h-202c0 24.667 86 237.834 258 639.501s258 622.5 258 662.5h232c0 -39.333 82 -257 246 -653s246 -612.333 246 -649zM868 551.999
c-156.667 391.333 -235 599.333 -235 624h-11c0 -20.667 -81 -228.667 -243 -624h489zM893 1600l-12 -124h-474l12 124h474z" />
    <glyph glyph-name="amacron" unicode="&#x101;" horiz-adv-x="1005" 
d="M883 0l-157 -6.00098c-8 32.667 -12 63.667 -12 93h-10c-82 -74.667 -193.667 -112 -335 -112c-76.667 0 -142.667 22.5 -198 67.5s-83 109.167 -83 192.5c0 102.667 43.333 185.167 130 247.5s247.667 95.166 483 98.499c2 16 3 34.333 3 55
c0 82 -21.833 136.667 -65.5 164s-109.834 41 -198.501 41c-104.667 0 -207.667 -13 -309 -39l17 138c100 28.667 215 43 345 43c118.667 0 210.334 -24.5 275.001 -73.5s97 -132.5 97 -250.5c0 -31.333 -1.5 -88.166 -4.5 -170.499s-4.5 -137.166 -4.5 -164.499
c0 -121.333 9 -229.333 27 -324zM706 193.999c-3.33301 101.333 -5.00098 192.333 -5.00098 273c-125.333 0 -220.666 -9.33301 -285.999 -28c-109.333 -33.333 -164 -97 -164 -191c0 -90.667 64 -136 192 -136c110 0 197.667 27.333 263 82zM726.999 1310l-12 -124h-434
l11 124h435z" />
    <glyph glyph-name="Abreve" unicode="&#x102;" horiz-adv-x="1262" 
d="M1251 0l-211 -0.000976562c0 44.667 -42 185 -126 421h-577c-82.667 -232.667 -124 -373 -124 -421h-202c0 24.667 86 237.834 258 639.501s258 622.5 258 662.5h232c0 -39.333 82 -257 246 -653s246 -612.333 246 -649zM868 551.999
c-156.667 391.333 -235 599.333 -235 624h-11c0 -20.667 -81 -228.667 -243 -624h489zM946 1640c-63.333 -145.333 -165.333 -218 -306 -218c-147.333 0 -250 72.667 -308 218l100 50c48 -96 116.667 -144 206 -144c82.667 0 152 48 208 144z" />
    <glyph glyph-name="abreve" unicode="&#x103;" horiz-adv-x="1005" 
d="M883 0l-157 -6.00098c-8 32.667 -12 63.667 -12 93h-10c-82 -74.667 -193.667 -112 -335 -112c-76.667 0 -142.667 22.5 -198 67.5s-83 109.167 -83 192.5c0 102.667 43.333 185.167 130 247.5s247.667 95.166 483 98.499c2 16 3 34.333 3 55
c0 82 -21.833 136.667 -65.5 164s-109.834 41 -198.501 41c-104.667 0 -207.667 -13 -309 -39l17 138c100 28.667 215 43 345 43c118.667 0 210.334 -24.5 275.001 -73.5s97 -132.5 97 -250.5c0 -31.333 -1.5 -88.166 -4.5 -170.499s-4.5 -137.166 -4.5 -164.499
c0 -121.333 9 -229.333 27 -324zM706 193.999c-3.33301 101.333 -5.00098 192.333 -5.00098 273c-125.333 0 -220.666 -9.33301 -285.999 -28c-109.333 -33.333 -164 -97 -164 -191c0 -90.667 64 -136 192 -136c110 0 197.667 27.333 263 82zM819.999 1340
c-63.333 -152 -165.333 -228 -306 -228c-147.333 0 -250 76 -308 228l100 50c48 -102.667 116.667 -154 206 -154c82.667 0 152 51.333 208 154z" />
    <glyph glyph-name="Aogonek" unicode="&#x104;" horiz-adv-x="1262" 
d="M1251 0c-164.667 -54.667 -247.002 -132.668 -247.002 -234.001c0 -77.333 34 -116 102 -116c26.667 0 55.334 5.33301 86.001 16l28 -137c-35.333 -10 -80.666 -15 -135.999 -15c-65.333 0 -118 15.5 -158 46.5s-60 87.5 -60 169.5c0 100 58 190 174 270
c0 44.667 -42 185 -126 421h-577c-82.667 -232.667 -124 -373 -124 -421h-202c0 24.667 86 237.834 258 639.501s258 622.5 258 662.5h232c0 -39.333 82 -257 246 -653s246 -612.333 246 -649zM867.998 551.999c-156.667 391.333 -235 599.333 -235 624h-11
c0 -20.667 -81 -228.667 -243 -624h489z" />
    <glyph glyph-name="aogonek" unicode="&#x105;" horiz-adv-x="1005" 
d="M726 -2c-8 30 -12.002 59.665 -12.002 88.998h-10c-82 -74.667 -193.667 -112 -335 -112c-75.333 0 -141 22.833 -197 68.5s-84 106.167 -84 181.5c0 118.667 47.5 207.167 142.5 265.5s251.833 88.5 470.5 90.5c2 16 3 31 3 45c0 90.667 -21.5 149.167 -64.5 175.5
s-120.833 39.5 -233.5 39.5c-82 0 -173.667 -13 -275 -39l17 138c100 28.667 211.333 43 334 43c122 0 216.333 -23.667 283 -71s100 -131.666 100 -252.999c0 -31.333 -1.5 -88.166 -4.5 -170.499s-4.5 -137.166 -4.5 -164.499c0 -121.333 9 -229.333 27 -324
c-128.667 -83.333 -193 -161.333 -193 -234c0 -77.333 34 -116 102 -116c26.667 0 55.334 5.33301 86.001 16l28 -137c-35.333 -10 -80.666 -15 -135.999 -15c-60.667 0 -112.167 19.667 -154.5 59s-63.5 91.666 -63.5 156.999c0 96 58 185.333 174 268zM705.998 193.998
c-3.33301 101.333 -5 192.333 -5 273c-125.333 0 -220 -9.33301 -284 -28c-110.667 -33.333 -166 -97 -166 -191c0 -90.667 64 -136 192 -136c110 0 197.667 27.333 263 82z" />
    <glyph glyph-name="Cacute" unicode="&#x106;" horiz-adv-x="1125" 
d="M1070 159l-13.002 -149.001c-82 -24.667 -171.333 -37 -268 -37c-229.333 0 -401.666 62.833 -516.999 188.5s-173 279.167 -173 460.5c0 190 64.333 353.833 193 491.5s301.667 206.5 519 206.5c60 0 123.333 -9 190 -27l-28 -159c-76.667 24 -145 36 -205 36
c-161.333 0 -283.666 -50 -366.999 -150s-125 -222.333 -125 -367c0 -147.333 48 -273.666 144 -378.999s228.667 -158 398 -158c64.667 0 148.667 14.333 252 43zM1013 1690c0 -8 -44.332 -52.999 -132.999 -134.999s-136.334 -128.333 -143.001 -139h-120
c0 10.667 30 57.167 90 139.5s90 127.166 90 134.499h216z" />
    <glyph glyph-name="cacute" unicode="&#x107;" horiz-adv-x="925" 
d="M859 153l-10 -134.001c-54 -30.667 -126.333 -46 -217 -46c-172.667 0 -304.667 47.667 -396 143s-137 210.333 -137 345c0 142.667 48 265.334 144 368.001s223 154 381 154c79.333 0 144 -8 194 -24l-27 -157c-70 26 -141 39 -213 39c-94.667 0 -170 -33 -226 -99
s-84 -148.667 -84 -248c0 -108 33.333 -198 100 -270s161 -108 283 -108c50 0 119.333 12.333 208 37zM869 1410c0 -8 -46 -61.332 -138 -159.999s-138 -153.334 -138 -164.001h-120c0 10.667 30 65.5 90 164.5s90 152.167 90 159.5h216z" />
    <glyph glyph-name="Ccircumflex" unicode="&#x108;" horiz-adv-x="1125" 
d="M1070 159l-13.002 -149.001c-82 -24.667 -171.333 -37 -268 -37c-229.333 0 -401.666 62.833 -516.999 188.5s-173 279.167 -173 460.5c0 190 64.333 353.833 193 491.5s301.667 206.5 519 206.5c60 0 123.333 -9 190 -27l-28 -159c-76.667 24 -145 36 -205 36
c-161.333 0 -283.666 -50 -366.999 -150s-125 -222.333 -125 -367c0 -147.333 48 -273.666 144 -378.999s228.667 -158 398 -158c64.667 0 148.667 14.333 252 43zM1023 1416h-114c-6.66699 8.66699 -65.667 61.334 -177 158.001
c-111.333 -96.667 -170.333 -149.334 -177 -158.001h-114c0 8.66699 31.5 53.834 94.5 135.501s96.167 127.834 99.5 138.501h194c3.33301 -10.667 36.5 -56.834 99.5 -138.501s94.5 -126.834 94.5 -135.501z" />
    <glyph glyph-name="ccircumflex" unicode="&#x109;" horiz-adv-x="925" 
d="M859 153l-10 -134.001c-54 -30.667 -126.333 -46 -217 -46c-172.667 0 -304.667 47.667 -396 143s-137 210.333 -137 345c0 142.667 48 265.334 144 368.001s223 154 381 154c79.333 0 144 -8 194 -24l-27 -157c-70 26 -141 39 -213 39c-94.667 0 -170 -33 -226 -99
s-84 -148.667 -84 -248c0 -108 33.333 -198 100 -270s161 -108 283 -108c50 0 119.333 12.333 208 37zM834 1086h-104c0 8.66699 -62.333 78 -187 208c-124.667 -130 -187 -199.333 -187 -208h-104c0 8.66699 31.5 62.167 94.5 160.5s96.167 152.833 99.5 163.5h194
c3.33301 -10.667 36.5 -65.167 99.5 -163.5s94.5 -151.833 94.5 -160.5z" />
    <glyph glyph-name="Cdotaccent" unicode="&#x10a;" horiz-adv-x="1125" 
d="M1070 159l-13.002 -149.001c-82 -24.667 -171.333 -37 -268 -37c-229.333 0 -401.666 62.833 -516.999 188.5s-173 279.167 -173 460.5c0 190 64.333 353.833 193 491.5s301.667 206.5 519 206.5c60 0 123.333 -9 190 -27l-28 -159c-76.667 24 -145 36 -205 36
c-161.333 0 -283.666 -50 -366.999 -150s-125 -222.333 -125 -367c0 -147.333 48 -273.666 144 -378.999s228.667 -158 398 -158c64.667 0 148.667 14.333 252 43zM863.998 1565c0 -34 -11 -63.501 -33 -88.501s-53 -37.5 -93 -37.5c-34 0 -60.5 10.833 -79.5 32.5
s-28.5 47.834 -28.5 78.501c0 33.333 11.333 62.333 34 87s54 37 94 37c32.667 0 58.5 -10.833 77.5 -32.5s28.5 -47.167 28.5 -76.5z" />
    <glyph glyph-name="cdotaccent" unicode="&#x10b;" horiz-adv-x="925" 
d="M859 153l-10 -134.001c-54 -30.667 -126.333 -46 -217 -46c-172.667 0 -304.667 47.667 -396 143s-137 210.333 -137 345c0 142.667 48 265.334 144 368.001s223 154 381 154c79.333 0 144 -8 194 -24l-27 -157c-70 26 -141 39 -213 39c-94.667 0 -170 -33 -226 -99
s-84 -148.667 -84 -248c0 -108 33.333 -198 100 -270s161 -108 283 -108c50 0 119.333 12.333 208 37zM710 1250c0 -34 -11 -63.501 -33 -88.501s-53 -37.5 -93 -37.5c-34 0 -60.5 10.833 -79.5 32.5s-28.5 47.834 -28.5 78.501c0 33.333 11.333 62.333 34 87s54 37 94 37
c32.667 0 58.5 -10.833 77.5 -32.5s28.5 -47.167 28.5 -76.5z" />
    <glyph glyph-name="Ccaron" unicode="&#x10c;" horiz-adv-x="1125" 
d="M1070 159l-13.002 -149.001c-82 -24.667 -171.333 -37 -268 -37c-229.333 0 -401.666 62.833 -516.999 188.5s-173 279.167 -173 460.5c0 190 64.333 353.833 193 491.5s301.667 206.5 519 206.5c60 0 123.333 -9 190 -27l-28 -159c-76.667 24 -145 36 -205 36
c-161.333 0 -283.666 -50 -366.999 -150s-125 -222.333 -125 -367c0 -147.333 48 -273.666 144 -378.999s228.667 -158 398 -158c64.667 0 148.667 14.333 252 43zM1073 1690c0 -8.66699 -31.5 -53.834 -94.5 -135.501s-96.167 -127.834 -99.5 -138.501h-194
c-3.33301 10.667 -36.5 56.834 -99.5 138.501s-94.5 126.834 -94.5 135.501h114c6.66699 -8.66699 65.667 -61.334 177 -158.001c111.333 96.667 170.333 149.334 177 158.001h114z" />
    <glyph glyph-name="ccaron" unicode="&#x10d;" horiz-adv-x="925" 
d="M859 153l-10 -134.001c-54 -30.667 -126.333 -46 -217 -46c-172.667 0 -304.667 47.667 -396 143s-137 210.333 -137 345c0 142.667 48 265.334 144 368.001s223 154 381 154c79.333 0 144 -8 194 -24l-27 -157c-70 26 -141 39 -213 39c-94.667 0 -170 -33 -226 -99
s-84 -148.667 -84 -248c0 -108 33.333 -198 100 -270s161 -108 283 -108c50 0 119.333 12.333 208 37zM873 1410c0 -8.66699 -31.5 -62.167 -94.5 -160.5s-96.167 -152.833 -99.5 -163.5h-194c-3.33301 10.667 -36.5 65.167 -99.5 163.5s-94.5 151.833 -94.5 160.5h104
c0 -8.66699 62.333 -78 187 -208c124.667 130 187 199.333 187 208h104z" />
    <glyph glyph-name="Dcaron" unicode="&#x10e;" horiz-adv-x="1316" 
d="M1217 698c0 -189.333 -60.501 -355.333 -181.501 -498s-287.833 -214 -500.5 -214c-69.333 0 -185 4.66699 -347 14c10 206.667 15 434.667 15 684c0 234.667 -5 440.667 -15 618h110c26.667 0 67.334 1 122.001 3s90.667 3 108 3c235.333 0 409 -57.833 521 -173.5
s168 -261.167 168 -436.5zM1043 653c0 148 -47.167 271.667 -141.5 371s-240.166 149 -437.499 149c-28 0 -66.333 -3.33301 -115 -10c5.33301 -155.333 8 -315 8 -479c0 -180 3.66699 -362.667 11 -548c53.333 -10.667 104.666 -16 153.999 -16
c176 0 306.833 52.167 392.5 156.5s128.5 229.833 128.5 376.5zM941.999 1690c0 -8.66699 -31.5 -53.834 -94.5 -135.501s-96.167 -127.834 -99.5 -138.501h-194c-3.33301 10.667 -36.5 56.834 -99.5 138.501s-94.5 126.834 -94.5 135.501h114
c6.66699 -8.66699 65.667 -61.334 177 -158.001c111.333 96.667 170.333 149.334 177 158.001h114z" />
    <glyph glyph-name="dcaron" unicode="&#x10f;" horiz-adv-x="1278" 
d="M994 1l-148.999 -4.99902c-5.33301 28.667 -8 59 -8 91h-11c-70 -76 -174 -114 -312 -114c-126.667 0 -227.5 46 -302.5 138s-112.5 203 -112.5 333c0 147.333 41.667 274.333 125 381s200.666 160 351.999 160c108 0 185.333 -22 232 -66h8
c0 165.333 -4.66699 327.666 -14 486.999l190 7c-12.667 -169.333 -19 -391 -19 -665c0 -278.667 7 -527.667 21 -747zM833.001 198.001c0 207.333 -5.66699 406.999 -17 598.999c-54 44.667 -121.333 67 -202 67c-112.667 0 -197 -37.5 -253 -112.5
s-84 -169.167 -84 -282.5c0 -101.333 26.5 -186.666 79.5 -255.999s126.5 -104 220.5 -104c118 0 203.333 29.667 256 89zM1312 1174c0 -56.667 -19.5 -115.167 -58.5 -175.5s-79.833 -103.833 -122.5 -130.5l-43 44c54.667 68 82 127 82 177c-74.667 20 -112 56 -112 108
c0 36 10.167 67 30.5 93s50.5 39 90.5 39c43.333 0 76.333 -14.333 99 -43s34 -66 34 -112z" />
    <glyph glyph-name="Dcroat" unicode="&#x110;" horiz-adv-x="1316" 
d="M1217 698c0 -189.333 -57.333 -351.666 -172 -486.999c-127.333 -150 -297.333 -225 -510 -225c-69.333 0 -185 4.66699 -347 14c10 166 15 361 15 585c-22 0 -75.333 -5.66699 -160 -17l9 167c80 -2.66699 130.333 -4 151 -4c0 231.333 -5 421.666 -15 570.999h110
c27.333 0 69.333 1 126 3s98 3 124 3c224 0 391.5 -58.333 502.5 -175s166.5 -261.667 166.5 -435zM1043 653c0 145.333 -46 268.333 -138 369s-231 151 -417 151c-41.333 0 -87.666 -3.33301 -138.999 -10c6.66699 -106.667 9.33398 -250.667 8.00098 -432
c37.333 0 167.666 11 390.999 33l-6 -161c-230.667 0 -359 -2.66699 -385 -8c0 -184 3.66699 -337 11 -459c53.333 -10.667 105.666 -16 156.999 -16c174 0 307 55.667 399 167c79.333 95.333 119 217.333 119 366z" />
    <glyph glyph-name="dcroat" unicode="&#x111;" horiz-adv-x="1136" 
d="M994 1l-149.002 -5c-5.33301 28.667 -8 59 -8 91h-11c-70 -76 -174.667 -114 -314 -114c-126 0 -226.333 44.833 -301 134.5s-112 196.834 -112 321.501c0 140.667 41.167 263.5 123.5 368.5s196.833 157.5 343.5 157.5c114.667 0 195.334 -22 242.001 -66h8
c0 76 -0.666992 145 -2 207h-268l6 102h259c-2 66.667 -4.33301 135 -7 205l188 10c-5.33301 -66.667 -9.66602 -138.334 -12.999 -215.001h151l-6 -102h-148c-2 -108.667 -3 -224.667 -3 -348c0 -278.667 7 -527.667 21 -747zM832.998 198
c0 207.333 -5.66699 396.999 -17 568.999c-54 44.667 -124.333 67 -211 67c-110 0 -192.167 -37 -246.5 -111s-81.5 -163.667 -81.5 -269c0 -95.333 26 -176.666 78 -243.999s125 -101 219 -101c120 0 206.333 29.667 259 89z" />
    <glyph glyph-name="Emacron" unicode="&#x112;" horiz-adv-x="1066" 
d="M1000 151l-6.00098 -151h-806c9.33301 206.667 14 434.667 14 684c0 234.667 -4.66699 440.667 -14 618h756l-8 -149c-183.333 8 -377.666 12 -582.999 12c4 -103.333 6 -243 6 -419c177.333 0 335.333 4 474 12v-149c-148 6 -306 9 -474 9c0 -171.333 3 -332 9 -482
c221.333 0 432 5 632 15zM826.999 1600l-12 -124h-474l12 124h474z" />
    <glyph glyph-name="emacron" unicode="&#x113;" horiz-adv-x="1051" 
d="M952 587c0 -28 -1.33496 -66.667 -4.00195 -116l-687 -12c6.66699 -97.333 44.334 -178.833 113.001 -244.5s159.667 -98.5 273 -98.5c101.333 0 196.333 12.333 285 37l-17 -141c-65.333 -26 -159.666 -39 -282.999 -39c-173.333 0 -305.5 47.333 -396.5 142
s-136.5 210 -136.5 346c0 145.333 41.5 270.5 124.5 375.5s194.5 157.5 334.5 157.5c128.667 0 226.5 -38 293.5 -114s100.5 -173.667 100.5 -293zM784.998 585c0 187.333 -78.333 281 -235 281c-160 0 -254.333 -97.333 -283 -292zM799.998 1310l-12 -124h-434l11 124h435z
" />
    <glyph glyph-name="Ebreve" unicode="&#x114;" horiz-adv-x="1066" 
d="M1000 151l-6.00098 -151h-806c9.33301 206.667 14 434.667 14 684c0 234.667 -4.66699 440.667 -14 618h756l-8 -149c-183.333 8 -377.666 12 -582.999 12c4 -103.333 6 -243 6 -419c177.333 0 335.333 4 474 12v-149c-148 6 -306 9 -474 9c0 -171.333 3 -332 9 -482
c221.333 0 432 5 632 15zM898.999 1640c-63.333 -145.333 -165.333 -218 -306 -218c-147.333 0 -250 72.667 -308 218l100 50c48 -96 116.667 -144 206 -144c82.667 0 152 48 208 144z" />
    <glyph glyph-name="ebreve" unicode="&#x115;" horiz-adv-x="1051" 
d="M952 587c0 -28 -1.33496 -66.667 -4.00195 -116l-687 -12c6.66699 -97.333 44.334 -178.833 113.001 -244.5s159.667 -98.5 273 -98.5c101.333 0 196.333 12.333 285 37l-17 -141c-65.333 -26 -159.666 -39 -282.999 -39c-173.333 0 -305.5 47.333 -396.5 142
s-136.5 210 -136.5 346c0 145.333 41.5 270.5 124.5 375.5s194.5 157.5 334.5 157.5c128.667 0 226.5 -38 293.5 -114s100.5 -173.667 100.5 -293zM784.998 585c0 187.333 -78.333 281 -235 281c-160 0 -254.333 -97.333 -283 -292zM882.998 1340
c-63.333 -152 -165.333 -228 -306 -228c-147.333 0 -250 76 -308 228l100 50c48 -102.667 116.667 -154 206 -154c82.667 0 152 51.333 208 154z" />
    <glyph glyph-name="Edotaccent" unicode="&#x116;" horiz-adv-x="1066" 
d="M1000 151l-6.00098 -151h-806c9.33301 206.667 14 434.667 14 684c0 234.667 -4.66699 440.667 -14 618h756l-8 -149c-183.333 8 -377.666 12 -582.999 12c4 -103.333 6 -243 6 -419c177.333 0 335.333 4 474 12v-149c-148 6 -306 9 -474 9c0 -171.333 3 -332 9 -482
c221.333 0 432 5 632 15zM705.999 1565c0 -34 -11 -63.501 -33 -88.501s-53 -37.5 -93 -37.5c-34 0 -60.5 10.833 -79.5 32.5s-28.5 47.834 -28.5 78.501c0 33.333 11.333 62.333 34 87s54 37 94 37c32.667 0 58.5 -10.833 77.5 -32.5s28.5 -47.167 28.5 -76.5z" />
    <glyph glyph-name="edotaccent" unicode="&#x117;" horiz-adv-x="1051" 
d="M952 587c0 -28 -1.33496 -66.667 -4.00195 -116l-687 -12c6.66699 -97.333 44.334 -178.833 113.001 -244.5s159.667 -98.5 273 -98.5c101.333 0 196.333 12.333 285 37l-17 -141c-65.333 -26 -159.666 -39 -282.999 -39c-173.333 0 -305.5 47.333 -396.5 142
s-136.5 210 -136.5 346c0 145.333 41.5 270.5 124.5 375.5s194.5 157.5 334.5 157.5c128.667 0 226.5 -38 293.5 -114s100.5 -173.667 100.5 -293zM784.998 585c0 187.333 -78.333 281 -235 281c-160 0 -254.333 -97.333 -283 -292zM690.998 1250
c0 -34 -11 -63.501 -33 -88.501s-53 -37.5 -93 -37.5c-34 0 -60.5 10.833 -79.5 32.5s-28.5 47.834 -28.5 78.501c0 33.333 11.333 62.333 34 87s54 37 94 37c32.667 0 58.5 -10.833 77.5 -32.5s28.5 -47.167 28.5 -76.5z" />
    <glyph glyph-name="Eogonek" unicode="&#x118;" horiz-adv-x="1066" 
d="M1000 151l-6.00293 -150.999c-140 -76.667 -210 -156.334 -210 -239.001c0 -74 34 -111 102 -111c26.667 0 55.334 5.33301 86.001 16l28 -137c-35.333 -10 -80.666 -15 -135.999 -15c-65.333 0 -118 15.5 -158 46.5s-60 79.167 -60 144.5
c0 112.667 59.333 207.667 178 285v10h-636c9.33301 206.667 14 434.667 14 684c0 234.667 -4.66699 440.667 -14 618h754l-6 -149c-183.333 8 -377.666 12 -582.999 12c4 -103.333 6 -243 6 -419c177.333 0 337 4 479 12l-5 -149c-148 6 -306 9 -474 9
c0 -171.333 3 -332 9 -482c221.333 0 432 5 632 15z" />
    <glyph glyph-name="eogonek" unicode="&#x119;" horiz-adv-x="1051" 
d="M952 -471c-35.333 -10 -80.6699 -15 -136.003 -15c-60.667 0 -112.167 19.667 -154.5 59s-63.5 91.666 -63.5 156.999c0 94 51.333 174.333 154 241v10c-45.333 -5.33301 -86.666 -8 -123.999 -8c-172 0 -303.167 47.667 -393.5 143s-135.5 210.333 -135.5 345
c0 143.333 40.833 268 122.5 374s193.834 159 336.501 159c129.333 0 227.333 -38 294 -114s100 -173.667 100 -293c0 -28 -1.33301 -66.667 -4 -116l-681 -12c6.66699 -94.667 43.167 -175.5 109.5 -242.5s156.5 -100.5 270.5 -100.5c101.333 0 196.333 12.333 285 37
l-17 -131c-119.333 -91.333 -179 -176.666 -179 -255.999c0 -77.333 34 -116 102 -116c26.667 0 55.334 5.33301 86.001 16zM784.996 585c0 187.333 -78.333 281 -235 281c-156 0 -248.333 -97.333 -277 -292z" />
    <glyph glyph-name="Ecaron" unicode="&#x11a;" horiz-adv-x="1066" 
d="M1000 151l-6.00098 -151h-806c9.33301 206.667 14 434.667 14 684c0 234.667 -4.66699 440.667 -14 618h756l-8 -149c-183.333 8 -377.666 12 -582.999 12c4 -103.333 6 -243 6 -419c177.333 0 335.333 4 474 12v-149c-148 6 -306 9 -474 9c0 -171.333 3 -332 9 -482
c221.333 0 432 5 632 15zM887.999 1690c0 -8.66699 -31.5 -53.834 -94.5 -135.501s-96.167 -127.834 -99.5 -138.501h-194c-3.33301 10.667 -36.5 56.834 -99.5 138.501s-94.5 126.834 -94.5 135.501h114c6.66699 -8.66699 65.667 -61.334 177 -158.001
c111.333 96.667 170.333 149.334 177 158.001h114z" />
    <glyph glyph-name="ecaron" unicode="&#x11b;" horiz-adv-x="1051" 
d="M952 587c0 -28 -1.33496 -66.667 -4.00195 -116l-687 -12c6.66699 -97.333 44.334 -178.833 113.001 -244.5s159.667 -98.5 273 -98.5c101.333 0 196.333 12.333 285 37l-17 -141c-65.333 -26 -159.666 -39 -282.999 -39c-173.333 0 -305.5 47.333 -396.5 142
s-136.5 210 -136.5 346c0 145.333 41.5 270.5 124.5 375.5s194.5 157.5 334.5 157.5c128.667 0 226.5 -38 293.5 -114s100.5 -173.667 100.5 -293zM784.998 585c0 187.333 -78.333 281 -235 281c-160 0 -254.333 -97.333 -283 -292zM876.998 1410
c0 -8.66699 -31.5 -62.167 -94.5 -160.5s-96.167 -152.833 -99.5 -163.5h-194c-3.33301 10.667 -36.5 65.167 -99.5 163.5s-94.5 151.833 -94.5 160.5h104c0 -8.66699 62.333 -78 187 -208c124.667 130 187 199.333 187 208h104z" />
    <glyph glyph-name="Gcircumflex" unicode="&#x11c;" horiz-adv-x="1271" 
d="M1138 27c-109.333 -36 -219.665 -54 -330.998 -54c-234 0 -410.5 62.5 -529.5 187.5s-178.5 279.5 -178.5 463.5c0 186 64.667 348.5 194 487.5s308.666 208.5 537.999 208.5c82.667 0 161 -9.66699 235 -29l-25 -166c-110 26.667 -198.667 40 -266 40
c-161.333 0 -284.833 -48.833 -370.5 -146.5s-128.5 -218.834 -128.5 -363.501c0 -145.333 49.167 -272.666 147.5 -381.999s237.166 -164 416.499 -164c32.667 0 81.667 5 147 15c-11.333 69.333 -17 150 -17 242c0 77.333 -4.66699 153 -14 227h182
c-5.33301 -88 -8 -181 -8 -279c0 -42 2.66699 -137.667 8 -287zM1048 1416h-114c-6.66699 8.66699 -65.667 61.334 -177 158.001c-111.333 -96.667 -170.333 -149.334 -177 -158.001h-114c0 8.66699 31.5 53.834 94.5 135.501s96.167 127.834 99.5 138.501h194
c3.33301 -10.667 36.5 -56.834 99.5 -138.501s94.5 -126.834 94.5 -135.501z" />
    <glyph glyph-name="gcircumflex" unicode="&#x11d;" horiz-adv-x="1105" 
d="M1072 1076l-16 -137.997c-124 0 -192.333 -20 -205 -60v-10c42.667 -52 64 -111.333 64 -178c0 -104 -34.167 -189.833 -102.5 -257.5s-173.833 -101.5 -316.5 -101.5c-63.333 0 -113.666 6.66699 -150.999 20c-32.667 -23.333 -49 -52.333 -49 -87
c0 -42.667 19.333 -71 58 -85c49.333 -18.667 152.333 -28 309 -28c253.333 0 380 -84 380 -252c0 -120 -49.333 -219.333 -148 -298s-226.334 -118 -383.001 -118c-160.667 0 -275.167 29.167 -343.5 87.5s-102.5 128.5 -102.5 210.5c0 74.667 16.833 134.667 50.5 180
s75.5 73.333 125.5 84v9c-52.667 25.333 -79 74 -79 146c0 65.333 33.333 122.666 100 171.999v8c-35.333 17.333 -69 46.666 -101 87.999s-48 92.666 -48 153.999c0 106 35 192.333 105 259s171.333 100 304 100c108.667 0 194 -19.667 256 -59h11
c21.333 112.667 77.333 169 168 169c49.333 0 87.333 -5 114 -15zM893 -168.997c0 62.667 -22.833 106.834 -68.5 132.501s-131.5 38.5 -257.5 38.5c-85.333 0 -163.333 4 -234 12c-81.333 -39.333 -122 -97 -122 -173c0 -162.667 106.667 -244 320 -244
c111.333 0 199.5 21.667 264.5 65s97.5 99.666 97.5 168.999zM754 649.003c0 73.333 -23.1689 129.5 -69.502 168.5s-105.166 58.5 -176.499 58.5c-67.333 0 -123.666 -18.833 -168.999 -56.5s-68 -91.167 -68 -160.5c0 -72.667 23.167 -128 69.5 -166
s105.833 -57 178.5 -57c66.667 0 122.5 18.5 167.5 55.5s67.5 89.5 67.5 157.5zM799.998 1086h-104c0 8.66699 -62.333 78 -187 208c-124.667 -130 -187 -199.333 -187 -208h-104c0 8.66699 31.5 62.167 94.5 160.5s96.167 152.833 99.5 163.5h194
c3.33301 -10.667 36.5 -65.167 99.5 -163.5s94.5 -151.833 94.5 -160.5z" />
    <glyph glyph-name="Gbreve" unicode="&#x11e;" horiz-adv-x="1271" 
d="M1138 27c-109.333 -36 -219.665 -54 -330.998 -54c-234 0 -410.5 62.5 -529.5 187.5s-178.5 279.5 -178.5 463.5c0 186 64.667 348.5 194 487.5s308.666 208.5 537.999 208.5c82.667 0 161 -9.66699 235 -29l-25 -166c-110 26.667 -198.667 40 -266 40
c-161.333 0 -284.833 -48.833 -370.5 -146.5s-128.5 -218.834 -128.5 -363.501c0 -145.333 49.167 -272.666 147.5 -381.999s237.166 -164 416.499 -164c32.667 0 81.667 5 147 15c-11.333 69.333 -17 150 -17 242c0 77.333 -4.66699 153 -14 227h182
c-5.33301 -88 -8 -181 -8 -279c0 -42 2.66699 -137.667 8 -287zM1057 1640c-63.333 -145.333 -165.333 -218 -306 -218c-147.333 0 -250 72.667 -308 218l100 50c48 -96 116.667 -144 206 -144c82.667 0 152 48 208 144z" />
    <glyph glyph-name="gbreve" unicode="&#x11f;" horiz-adv-x="1105" 
d="M1072 1076l-16 -137.997c-124 0 -192.333 -20 -205 -60v-10c42.667 -52 64 -111.333 64 -178c0 -104 -34.167 -189.833 -102.5 -257.5s-173.833 -101.5 -316.5 -101.5c-63.333 0 -113.666 6.66699 -150.999 20c-32.667 -23.333 -49 -52.333 -49 -87
c0 -42.667 19.333 -71 58 -85c49.333 -18.667 152.333 -28 309 -28c253.333 0 380 -84 380 -252c0 -120 -49.333 -219.333 -148 -298s-226.334 -118 -383.001 -118c-160.667 0 -275.167 29.167 -343.5 87.5s-102.5 128.5 -102.5 210.5c0 74.667 16.833 134.667 50.5 180
s75.5 73.333 125.5 84v9c-52.667 25.333 -79 74 -79 146c0 65.333 33.333 122.666 100 171.999v8c-35.333 17.333 -69 46.666 -101 87.999s-48 92.666 -48 153.999c0 106 35 192.333 105 259s171.333 100 304 100c108.667 0 194 -19.667 256 -59h11
c21.333 112.667 77.333 169 168 169c49.333 0 87.333 -5 114 -15zM893 -168.997c0 62.667 -22.833 106.834 -68.5 132.501s-131.5 38.5 -257.5 38.5c-85.333 0 -163.333 4 -234 12c-81.333 -39.333 -122 -97 -122 -173c0 -162.667 106.667 -244 320 -244
c111.333 0 199.5 21.667 264.5 65s97.5 99.666 97.5 168.999zM754 649.003c0 73.333 -23.1689 129.5 -69.502 168.5s-105.166 58.5 -176.499 58.5c-67.333 0 -123.666 -18.833 -168.999 -56.5s-68 -91.167 -68 -160.5c0 -72.667 23.167 -128 69.5 -166
s105.833 -57 178.5 -57c66.667 0 122.5 18.5 167.5 55.5s67.5 89.5 67.5 157.5zM841.998 1340c-63.333 -152 -165.333 -228 -306 -228c-147.333 0 -250 76 -308 228l100 50c48 -102.667 116.667 -154 206 -154c82.667 0 152 51.333 208 154z" />
    <glyph glyph-name="Gdotaccent" unicode="&#x120;" horiz-adv-x="1271" 
d="M1138 27c-109.333 -36 -219.665 -54 -330.998 -54c-234 0 -410.5 62.5 -529.5 187.5s-178.5 279.5 -178.5 463.5c0 186 64.667 348.5 194 487.5s308.666 208.5 537.999 208.5c82.667 0 161 -9.66699 235 -29l-25 -166c-110 26.667 -198.667 40 -266 40
c-161.333 0 -284.833 -48.833 -370.5 -146.5s-128.5 -218.834 -128.5 -363.501c0 -145.333 49.167 -272.666 147.5 -381.999s237.166 -164 416.499 -164c32.667 0 81.667 5 147 15c-11.333 69.333 -17 150 -17 242c0 77.333 -4.66699 153 -14 227h182
c-5.33301 -88 -8 -181 -8 -279c0 -42 2.66699 -137.667 8 -287zM871.001 1565c0 -34 -11 -63.501 -33 -88.501s-53 -37.5 -93 -37.5c-34 0 -60.5 10.833 -79.5 32.5s-28.5 47.834 -28.5 78.501c0 33.333 11.333 62.333 34 87s54 37 94 37c32.667 0 58.5 -10.833 77.5 -32.5
s28.5 -47.167 28.5 -76.5z" />
    <glyph glyph-name="gdotaccent" unicode="&#x121;" horiz-adv-x="1105" 
d="M1072 1076l-16 -137.997c-124 0 -192.333 -20 -205 -60v-10c42.667 -52 64 -111.333 64 -178c0 -104 -34.167 -189.833 -102.5 -257.5s-173.833 -101.5 -316.5 -101.5c-63.333 0 -113.666 6.66699 -150.999 20c-32.667 -23.333 -49 -52.333 -49 -87
c0 -42.667 19.333 -71 58 -85c49.333 -18.667 152.333 -28 309 -28c253.333 0 380 -84 380 -252c0 -120 -49.333 -219.333 -148 -298s-226.334 -118 -383.001 -118c-160.667 0 -275.167 29.167 -343.5 87.5s-102.5 128.5 -102.5 210.5c0 74.667 16.833 134.667 50.5 180
s75.5 73.333 125.5 84v9c-52.667 25.333 -79 74 -79 146c0 65.333 33.333 122.666 100 171.999v8c-35.333 17.333 -69 46.666 -101 87.999s-48 92.666 -48 153.999c0 106 35 192.333 105 259s171.333 100 304 100c108.667 0 194 -19.667 256 -59h11
c21.333 112.667 77.333 169 168 169c49.333 0 87.333 -5 114 -15zM893 -168.997c0 62.667 -22.833 106.834 -68.5 132.501s-131.5 38.5 -257.5 38.5c-85.333 0 -163.333 4 -234 12c-81.333 -39.333 -122 -97 -122 -173c0 -162.667 106.667 -244 320 -244
c111.333 0 199.5 21.667 264.5 65s97.5 99.666 97.5 168.999zM754 649.003c0 73.333 -23.1689 129.5 -69.502 168.5s-105.166 58.5 -176.499 58.5c-67.333 0 -123.666 -18.833 -168.999 -56.5s-68 -91.167 -68 -160.5c0 -72.667 23.167 -128 69.5 -166
s105.833 -57 178.5 -57c66.667 0 122.5 18.5 167.5 55.5s67.5 89.5 67.5 157.5zM652.998 1250c0 -34 -11 -63.501 -33 -88.501s-53 -37.5 -93 -37.5c-34 0 -60.5 10.833 -79.5 32.5s-28.5 47.834 -28.5 78.501c0 33.333 11.333 62.333 34 87s54 37 94 37
c32.667 0 58.5 -10.833 77.5 -32.5s28.5 -47.167 28.5 -76.5z" />
    <glyph glyph-name="Gcommaaccent" unicode="&#x122;" horiz-adv-x="1271" 
d="M1138 27c-109.333 -36 -219.665 -54 -330.998 -54c-234 0 -410.5 62.5 -529.5 187.5s-178.5 279.5 -178.5 463.5c0 186 64.667 348.5 194 487.5s308.666 208.5 537.999 208.5c82.667 0 161 -9.66699 235 -29l-25 -166c-110 26.667 -198.667 40 -266 40
c-161.333 0 -284.833 -48.833 -370.5 -146.5s-128.5 -218.834 -128.5 -363.501c0 -145.333 49.167 -272.666 147.5 -381.999s237.166 -164 416.499 -164c32.667 0 81.667 5 147 15c-11.333 69.333 -17 150 -17 242c0 77.333 -4.66699 153 -14 227h182
c-5.33301 -88 -8 -181 -8 -279c0 -42 2.66699 -137.667 8 -287zM831.001 -248c0 -51.333 -17.666 -104.501 -52.999 -159.501s-72.333 -94.5 -111 -118.5l-39 40c49.333 62 74 115.667 74 161c-67.333 18 -101 50.667 -101 98c0 32.667 9.16699 60.834 27.5 84.501
s45.833 35.5 82.5 35.5c39.333 0 69.166 -13 89.499 -39s30.5 -60 30.5 -102z" />
    <glyph glyph-name="gcommaaccent" unicode="&#x123;" horiz-adv-x="1105" 
d="M1072 1076l-16 -137.997c-124 0 -192.333 -20 -205 -60v-10c42.667 -52 64 -111.333 64 -178c0 -104 -34.167 -189.833 -102.5 -257.5s-173.833 -101.5 -316.5 -101.5c-63.333 0 -113.666 6.66699 -150.999 20c-32.667 -23.333 -49 -52.333 -49 -87
c0 -42.667 19.333 -71 58 -85c49.333 -18.667 152.333 -28 309 -28c253.333 0 380 -84 380 -252c0 -120 -49.333 -219.333 -148 -298s-226.334 -118 -383.001 -118c-160.667 0 -275.167 29.167 -343.5 87.5s-102.5 128.5 -102.5 210.5c0 74.667 16.833 134.667 50.5 180
s75.5 73.333 125.5 84v9c-52.667 25.333 -79 74 -79 146c0 65.333 33.333 122.666 100 171.999v8c-35.333 17.333 -69 46.666 -101 87.999s-48 92.666 -48 153.999c0 106 35 192.333 105 259s171.333 100 304 100c108.667 0 194 -19.667 256 -59h11
c21.333 112.667 77.333 169 168 169c49.333 0 87.333 -5 114 -15zM893 -168.997c0 62.667 -22.833 106.834 -68.5 132.501s-131.5 38.5 -257.5 38.5c-85.333 0 -163.333 4 -234 12c-81.333 -39.333 -122 -97 -122 -173c0 -162.667 106.667 -244 320 -244
c111.333 0 199.5 21.667 264.5 65s97.5 99.666 97.5 168.999zM754 649.003c0 73.333 -23.1689 129.5 -69.502 168.5s-105.166 58.5 -176.499 58.5c-67.333 0 -123.666 -18.833 -168.999 -56.5s-68 -91.167 -68 -160.5c0 -72.667 23.167 -128 69.5 -166
s105.833 -57 178.5 -57c66.667 0 122.5 18.5 167.5 55.5s67.5 89.5 67.5 157.5zM662.998 1254c0 -39.333 -10.8311 -70.833 -32.498 -94.5s-50.834 -35.5 -87.501 -35.5c-40.667 0 -70.834 12.833 -90.501 38.5s-29.5 63.167 -29.5 112.5c0 51.333 17.667 104.5 53 159.5
s72.333 94.5 111 118.5l39 -40c-42.667 -62 -64 -112.333 -64 -151c67.333 -19.333 101 -55.333 101 -108z" />
    <glyph glyph-name="Hcircumflex" unicode="&#x124;" horiz-adv-x="1335" 
d="M1147 0l-190 -0.000976562c6.66699 230.667 10 437.334 10 620.001h-599c0 -148 3.33301 -354.667 10 -620h-190c9.33301 243.333 14 471.333 14 684c0 222.667 -4.66699 428.667 -14 618h190c-8 -190.667 -12 -376 -12 -556h603c0 144.667 -4 330 -12 556h190
c-10 -185.333 -15 -391.333 -15 -618c0 -248.667 5 -476.667 15 -684zM964 1416h-114c-6.66699 8.66699 -65.667 61.334 -177 158.001c-111.333 -96.667 -170.333 -149.334 -177 -158.001h-114c0 8.66699 31.5 53.834 94.5 135.501s96.167 127.834 99.5 138.501h194
c3.33301 -10.667 36.5 -56.834 99.5 -138.501s94.5 -126.834 94.5 -135.501z" />
    <glyph glyph-name="hcircumflex" unicode="&#x125;" horiz-adv-x="1109" 
d="M979 0l-182.001 0.00195312c14.667 175.333 22 364 22 566c0 108 -20.167 180.833 -60.5 218.5s-96.166 56.5 -167.499 56.5c-100 0 -193.667 -34.333 -281 -103c0 -364 2.66699 -610 8 -738h-176c6 176 9 424.667 9 746c0 281.333 -9.66699 501.666 -29 660.999l190 10
c-5.33301 -203.333 -8 -392 -8 -566h6c100 88 209.667 132 329 132c106.667 0 190 -24.833 250 -74.5s90 -136.834 90 -261.501c0 -12.667 -0.666992 -37.5 -2 -74.5s-2 -69.5 -2 -97.5c0 -96 1.33301 -254.333 4 -475zM508.999 1416h-114
c-6.66699 8.66699 -65.667 61.334 -177 158.001c-111.333 -96.667 -170.333 -149.334 -177 -158.001h-114c0 8.66699 31.5 53.834 94.5 135.501s96.167 127.834 99.5 138.501h194c3.33301 -10.667 36.5 -56.834 99.5 -138.501s94.5 -126.834 94.5 -135.501z" />
    <glyph glyph-name="Hbar" unicode="&#x126;" horiz-adv-x="1335" 
d="M1257 1044l-9.99902 -108.001h-113c-1.33301 -81.333 -2 -165.333 -2 -252c0 -248.667 5 -476.667 15 -684h-190c6.66699 230.667 10 437.334 10 620.001h-599c0 -148 3.33301 -354.667 10 -620h-190c9.33301 243.333 14 471.333 14 684
c0 86.667 -0.666992 170.667 -2 252h-122l10 108h109c-2 89.333 -5 175.333 -9 258h190c-4 -87.333 -7 -173.333 -9 -258h596c-2 78.667 -4.66699 164.667 -8 258h190c-4.66699 -82 -8.33398 -168 -11.001 -258h121zM969.001 745.999c0 56.667 -0.666992 120 -2 190h-600
c-0.666992 -64 -1 -127.333 -1 -190h603z" />
    <glyph glyph-name="hbar" unicode="&#x127;" horiz-adv-x="1109" 
d="M977 623c0 -12.667 -0.667969 -33.501 -2.00098 -62.501s-2 -71.5 -2 -127.5c0 -68 1.33301 -212.333 4 -433h-177c14.667 175.333 22 356.666 22 543.999c0 102.667 -20.833 172.834 -62.5 210.501s-101.167 56.5 -178.5 56.5c-94.667 0 -185.667 -34.333 -273 -103
c0 -344 2.66699 -580 8 -708h-176c6 176 9 424.667 9 746c0 83.333 -3 200 -9 350h-140l6 102h130c-4.66699 68 -10 137.667 -16 209l190 10c-4.66699 -64.667 -7 -137.667 -7 -219h331l-6 -102h-327c-1.33301 -110 -1.33301 -201.667 0 -275h6
c104.667 88 210.334 132 317.001 132c112.667 0 199.667 -24.167 261 -72.5s92 -134.166 92 -257.499z" />
    <glyph glyph-name="Itilde" unicode="&#x128;" horiz-adv-x="566" 
d="M378 0h-190c10 216 15 444 15 684c0 236 -5 442 -15 618h190c-9.33301 -182 -14 -388 -14 -618c0 -241.333 4.66699 -469.333 14 -684zM650 1640c-73.333 -123.333 -156.666 -185 -249.999 -185c-34 0 -76.833 8 -128.5 24s-93.5 24 -125.5 24
c-58.667 0 -116 -28 -172 -84l-62 50c73.333 123.333 156.666 185 249.999 185c34 0 76.833 -8 128.5 -24s93.5 -24 125.5 -24c58.667 0 116 28 172 84z" />
    <glyph glyph-name="itilde" unicode="&#x129;" horiz-adv-x="446" 
d="M313 0h-181c9.33301 133.333 14 285.666 14 456.999c0 192.667 -11.667 354.334 -35 485.001l200 27c-8 -139.333 -12 -310 -12 -512c0 -160 4.66699 -312.333 14 -457zM591 1366c-73.333 -147.333 -156.666 -221 -249.999 -221c-34 0 -76.833 8 -128.5 24
s-93.5 24 -125.5 24c-58.667 0 -116 -40 -172 -120l-62 50c73.333 147.333 156.666 221 249.999 221c34 0 76.833 -8 128.5 -24s93.5 -24 125.5 -24c58.667 0 116 40 172 120z" />
    <glyph glyph-name="Imacron" unicode="&#x12a;" horiz-adv-x="566" 
d="M378 0h-190c10 216 15 444 15 684c0 236 -5 442 -15 618h190c-9.33301 -182 -14 -388 -14 -618c0 -241.333 4.66699 -469.333 14 -684zM529 1600l-12 -124h-474l12 124h474z" />
    <glyph glyph-name="imacron" unicode="&#x12b;" horiz-adv-x="446" 
d="M313 0h-181c9.33301 133.333 14 285.666 14 456.999c0 192.667 -11.667 354.334 -35 485.001l200 27c-8 -139.333 -12 -310 -12 -512c0 -160 4.66699 -312.333 14 -457zM444 1310l-12 -124h-434l11 124h435z" />
    <glyph glyph-name="Ibreve" unicode="&#x12c;" horiz-adv-x="566" 
d="M378 0h-190c10 216 15 444 15 684c0 236 -5 442 -15 618h190c-9.33301 -182 -14 -388 -14 -618c0 -241.333 4.66699 -469.333 14 -684zM591 1640c-63.333 -145.333 -165.333 -218 -306 -218c-147.333 0 -250 72.667 -308 218l100 50c48 -96 116.667 -144 206 -144
c82.667 0 152 48 208 144z" />
    <glyph glyph-name="ibreve" unicode="&#x12d;" horiz-adv-x="446" 
d="M313 0h-181c9.33301 133.333 14 285.666 14 456.999c0 192.667 -11.667 354.334 -35 485.001l200 27c-8 -139.333 -12 -310 -12 -512c0 -160 4.66699 -312.333 14 -457zM532 1340c-63.333 -152 -165.333 -228 -306 -228c-147.333 0 -250 76 -308 228l100 50
c48 -102.667 116.667 -154 206 -154c82.667 0 152 51.333 208 154z" />
    <glyph glyph-name="Iogonek" unicode="&#x12e;" horiz-adv-x="566" 
d="M378 0c-148 -50.667 -222.001 -118.666 -222.001 -203.999c0 -97.333 39 -146 117 -146c26.667 0 55.334 5.33301 86.001 16l28 -137c-35.333 -10 -77.333 -15 -126 -15c-71.333 0 -128.833 18.167 -172.5 54.5s-65.5 98.166 -65.5 185.499c0 90 55 172 165 246
c10 216 15 444 15 684c0 236 -5 442 -15 618h190c-9.33301 -182 -14 -388 -14 -618c0 -241.333 4.66699 -469.333 14 -684z" />
    <glyph glyph-name="iogonek" unicode="&#x12f;" horiz-adv-x="446" 
d="M335 -471c-35.333 -10 -80.668 -15 -136.001 -15c-60.667 0 -111.667 19 -153 57c-43.333 40.667 -65 93.667 -65 159c0 89.333 50 179.333 150 270c9.33301 133.333 14 285.666 14 456.999c0 192.667 -11.667 354.334 -35 485.001l200 27c-8 -139.333 -12 -310 -12 -512
c0 -160 4.66699 -312.333 14 -457c-128.667 -76.667 -193 -158 -193 -244c0 -70.667 34 -106 102 -106c26.667 0 55.334 5.33301 86.001 16zM353.998 1250c0 -34 -11 -63.501 -33 -88.501s-53 -37.5 -93 -37.5c-34 0 -60.5 10.833 -79.5 32.5s-28.5 47.834 -28.5 78.501
c0 33.333 11.333 62.333 34 87s54 37 94 37c70.667 0 106 -36.333 106 -109z" />
    <glyph glyph-name="Idotaccent" unicode="&#x130;" horiz-adv-x="566" 
d="M378 0h-190c10 216 15 444 15 684c0 236 -5 442 -15 618h190c-9.33301 -182 -14 -388 -14 -618c0 -241.333 4.66699 -469.333 14 -684zM413 1565c0 -34 -11 -63.501 -33 -88.501s-53 -37.5 -93 -37.5c-34 0 -60.5 10.833 -79.5 32.5s-28.5 47.834 -28.5 78.501
c0 33.333 11.333 62.333 34 87s54 37 94 37c32.667 0 58.5 -10.833 77.5 -32.5s28.5 -47.167 28.5 -76.5z" />
    <glyph glyph-name="dotlessi" unicode="&#x131;" horiz-adv-x="446" 
d="M313 0h-181c9.33301 133.333 14 285.666 14 456.999c0 192.667 -11.667 354.334 -35 485.001l200 27c-8 -139.333 -12 -310 -12 -512c0 -160 4.66699 -312.333 14 -457z" />
    <glyph glyph-name="IJ" unicode="&#x132;" horiz-adv-x="1427" 
d="M378 0h-190c10 216 15 444 15 684c0 236 -5 442 -15 618h190c-9.33301 -182 -14 -388 -14 -618c0 -241.333 4.66699 -469.333 14 -684zM1261 1302c-4.66699 -101.333 -8.16602 -213.669 -10.499 -337.002s-3.5 -259 -3.5 -407c0 -107.333 -9 -196 -27 -266
s-46.167 -129 -84.5 -177s-87.5 -83.667 -147.5 -107s-132 -35 -216 -35c-64.667 0 -122.667 7 -174 21l15 146c47.333 -22 96.666 -33 147.999 -33c57.333 0 107.5 8.16699 150.5 24.5s77.333 41.833 103 76.5s44 77.334 55 128.001s16.5 117 16.5 199
c0 302.667 -5 558.334 -15 767.001h190z" />
    <glyph glyph-name="ij" unicode="&#x133;" horiz-adv-x="892" 
d="M313 0h-181c9.33301 133.333 14 285.666 14 456.999c0 192.667 -11.667 354.334 -35 485.001l200 27c-8 -139.333 -12 -310 -12 -512c0 -160 4.66699 -312.333 14 -457zM355 1250c0 -34 -11 -63.501 -33 -88.501s-53 -37.5 -93 -37.5c-34 0 -60.5 10.833 -79.5 32.5
s-28.5 47.834 -28.5 78.501c0 33.333 11.333 62.333 34 87s54 37 94 37c32.667 0 58.5 -10.833 77.5 -32.5s28.5 -47.167 28.5 -76.5zM758 970.999c-11.333 -206.667 -17 -414 -17 -622c0 -55.333 1.83301 -128.5 5.5 -219.5s5.5 -152.833 5.5 -185.5
c0 -215.333 -82 -346 -246 -392l-50 76c59.333 50 96 103.333 110 160c20.667 81.333 31 254.666 31 519.999c0 284.667 -13.333 497.334 -40 638.001zM801 1250c0 -34 -11 -63.501 -33 -88.501s-53 -37.5 -93 -37.5c-34 0 -60.5 10.833 -79.5 32.5
s-28.5 47.834 -28.5 78.501c0 33.333 11.333 62.333 34 87s54 37 94 37c32.667 0 58.5 -10.833 77.5 -32.5s28.5 -47.167 28.5 -76.5z" />
    <glyph glyph-name="Jcircumflex" unicode="&#x134;" horiz-adv-x="851" 
d="M685 1302c-4.66699 -101.333 -8.16602 -213.669 -10.499 -337.002s-3.5 -259 -3.5 -407c0 -107.333 -9 -196 -27 -266s-46.167 -129 -84.5 -177s-87.5 -83.667 -147.5 -107s-132 -35 -216 -35c-64.667 0 -122.667 7 -174 21l15 146c47.333 -22 96.666 -33 147.999 -33
c57.333 0 107.5 8.16699 150.5 24.5s77.333 41.833 103 76.5s44 77.334 55 128.001s16.5 117 16.5 199c0 302.667 -5 558.334 -15 767.001h190zM873.001 1416h-114c-6.66699 8.66699 -65.667 61.334 -177 158.001c-111.333 -96.667 -170.333 -149.334 -177 -158.001h-114
c0 8.66699 31.5 53.834 94.5 135.501s96.167 127.834 99.5 138.501h194c3.33301 -10.667 36.5 -56.834 99.5 -138.501s94.5 -126.834 94.5 -135.501z" />
    <glyph glyph-name="jcircumflex" unicode="&#x135;" horiz-adv-x="446" 
d="M312 971c-11.333 -206.667 -17 -414 -17 -622c0 -55.333 1.83301 -128.5 5.5 -219.5s5.5 -152.833 5.5 -185.5c0 -215.333 -82 -346 -246 -392l-50 76c59.333 50 96 103.333 110 160c20.667 81.333 31 254.666 31 519.999c0 284.667 -13.333 497.334 -40 638.001z
M510 1086h-104c0 8.66699 -62.333 78 -187 208c-124.667 -130 -187 -199.333 -187 -208h-104c0 8.66699 31.5 62.167 94.5 160.5s96.167 152.833 99.5 163.5h194c3.33301 -10.667 36.5 -65.167 99.5 -163.5s94.5 -151.833 94.5 -160.5z" />
    <glyph glyph-name="Kcommaaccent" unicode="&#x136;" horiz-adv-x="1212" 
d="M1190 0l-219.002 -0.000976562c0 7.33301 -38 65.333 -114 174c-88 126 -168.333 230 -241 312c-98.667 111.333 -171.667 167 -219 167h-31c0 -156 3.33301 -373.667 10 -653h-188c10 206.667 15 434.667 15 684c0 234.667 -5 440.667 -15 618h188
c-6.66699 -177.333 -10 -357.333 -10 -540h23c36.667 0 128.167 85 274.5 255s219.5 265 219.5 285h208c0 -20 -71.167 -102.5 -213.5 -247.5s-248.166 -242.5 -317.499 -292.5v-10c76.667 -29.333 204.334 -161.666 383.001 -396.999c164.667 -216.667 247 -335 247 -355z
M776.998 -248.001c0 -51.333 -17.666 -104.501 -52.999 -159.501s-72.333 -94.5 -111 -118.5l-39 40c49.333 62 74 115.667 74 161c-67.333 18 -101 50.667 -101 98c0 32.667 9.16699 60.834 27.5 84.501s45.833 35.5 82.5 35.5c39.333 0 69.166 -13 89.499 -39
s30.5 -60 30.5 -102z" />
    <glyph glyph-name="kcommaaccent" unicode="&#x137;" horiz-adv-x="1000" 
d="M989 0l-235 0.000976562c0 23.333 -64.667 112.333 -194 267c-132.667 159.333 -216 239 -250 239h-7c0 -142.667 3.66699 -311.334 11 -506.001h-176c8.66699 244 13 492.667 13 746c0 258 -9.66699 478.333 -29 661l192 10c-7.33301 -144 -11 -423.667 -11 -839h7
c22 0 91.167 56.167 207.5 168.5s174.5 180.166 174.5 203.499h221c0 -21.333 -52.333 -76.666 -157 -165.999c-98 -83.333 -187.667 -152 -269 -206v-8c82.667 -62.667 189 -170 319 -322c122 -143.333 183 -226 183 -248zM630 -247.999
c0 -51.333 -17.666 -104.501 -52.999 -159.501s-72.333 -94.5 -111 -118.5l-39 40c49.333 62 74 115.667 74 161c-67.333 18 -101 50.667 -101 98c0 32.667 9.16699 60.834 27.5 84.501s45.833 35.5 82.5 35.5c39.333 0 69.166 -13 89.499 -39s30.5 -60 30.5 -102z" />
    <glyph glyph-name="kgreenlandic" unicode="&#x138;" horiz-adv-x="1000" 
d="M978 0l-235 0.000976562c0 23.333 -64.667 112.333 -194 267c-132.667 159.333 -216 239 -250 239h-7c0 -142.667 3.66699 -311.334 11 -506.001h-176c8.66699 164 13 340 13 528c0 116 -9.66699 257 -29 423l192 10c-7.33301 -144 -11 -271.667 -11 -383h7
c22 0 91.167 56.167 207.5 168.5s174.5 180.166 174.5 203.499h221c0 -21.333 -52.333 -76.666 -157 -165.999c-98 -83.333 -187.667 -152 -269 -206v-8c82.667 -62.667 189 -170 319 -322c122 -143.333 183 -226 183 -248z" />
    <glyph glyph-name="Lacute" unicode="&#x139;" horiz-adv-x="1003" 
d="M981 147l-6 -147h-787c8 164.667 12 392.667 12 684c0 250.667 -4 456.667 -12 618h186c-8 -134.667 -12 -340.667 -12 -618c0 -228 -3.66699 -410.667 -11 -548c200 0 410 3.66699 630 11zM593 1690c0 -8 -44.332 -52.999 -132.999 -134.999
s-136.334 -128.333 -143.001 -139h-120c0 10.667 30 57.167 90 139.5s90 127.166 90 134.499h216z" />
    <glyph glyph-name="lacute" unicode="&#x13a;" horiz-adv-x="469" 
d="M325 0l-192 0.000976562c12 220 18 468.667 18 746c0 269.333 -9.66699 489.666 -29 660.999l203 10c-12.667 -181.333 -19 -405 -19 -671c0 -274 6.33301 -522.667 19 -746zM520 1790c0 -8 -44.332 -52.999 -132.999 -134.999s-136.334 -128.333 -143.001 -139h-120
c0 10.667 30 57.167 90 139.5s90 127.166 90 134.499h216z" />
    <glyph glyph-name="Lcommaaccent" unicode="&#x13b;" horiz-adv-x="1003" 
d="M981 147l-6 -147h-787c8 164.667 12 392.667 12 684c0 250.667 -4 456.667 -12 618h186c-8 -134.667 -12 -340.667 -12 -618c0 -228 -3.66699 -410.667 -11 -548c200 0 410 3.66699 630 11zM692 -248c0 -51.333 -17.666 -104.501 -52.999 -159.501
s-72.333 -94.5 -111 -118.5l-39 40c49.333 62 74 115.667 74 161c-67.333 18 -101 50.667 -101 98c0 32.667 9.16699 60.834 27.5 84.501s45.833 35.5 82.5 35.5c39.333 0 69.166 -13 89.499 -39s30.5 -60 30.5 -102z" />
    <glyph glyph-name="lcommaaccent" unicode="&#x13c;" horiz-adv-x="496" 
d="M341 0l-192 0.000976562c12 220 18 468.667 18 746c0 269.333 -9.66699 489.666 -29 660.999l203 10c-12.667 -181.333 -19 -405 -19 -671c0 -274 6.33301 -522.667 19 -746zM352 -247.999c0 -51.333 -17.666 -104.501 -52.999 -159.501s-72.333 -94.5 -111 -118.5
l-39 40c49.333 62 74 115.667 74 161c-67.333 18 -101 50.667 -101 98c0 32.667 9.16699 60.834 27.5 84.501s45.833 35.5 82.5 35.5c39.333 0 69.166 -13 89.499 -39s30.5 -60 30.5 -102z" />
    <glyph glyph-name="Lcaron" unicode="&#x13d;" horiz-adv-x="1003" 
d="M981 147l-6 -147h-787c8 164.667 12 392.667 12 684c0 250.667 -4 456.667 -12 618h186c-8 -134.667 -12 -340.667 -12 -618c0 -228 -3.66699 -410.667 -11 -548c200 0 410 3.66699 630 11zM1008 1174c0 -56.667 -19.5 -115.167 -58.5 -175.5
s-79.833 -103.833 -122.5 -130.5l-43 44c54.667 68 82 127 82 177c-74.667 20 -112 56 -112 108c0 36 10.167 67 30.5 93s50.5 39 90.5 39c43.333 0 76.333 -14.333 99 -43s34 -66 34 -112z" />
    <glyph glyph-name="lcaron" unicode="&#x13e;" horiz-adv-x="616" 
d="M325 0l-192 0.000976562c12 220 18 468.667 18 746c0 269.333 -9.66699 489.666 -29 660.999l203 10c-12.667 -181.333 -19 -405 -19 -671c0 -274 6.33301 -522.667 19 -746zM650 1174c0 -56.667 -19.5 -115.167 -58.5 -175.5s-79.833 -103.833 -122.5 -130.5l-43 44
c54.667 68 82 127 82 177c-74.667 20 -112 56 -112 108c0 36 10.167 67 30.5 93s50.5 39 90.5 39c43.333 0 76.333 -14.333 99 -43s34 -66 34 -112z" />
    <glyph glyph-name="Ldot" unicode="&#x13f;" horiz-adv-x="1003" 
d="M981 147l-6 -147h-787c8 164.667 12 392.667 12 684c0 250.667 -4 456.667 -12 618h186c-8 -134.667 -12 -340.667 -12 -618c0 -228 -3.66699 -410.667 -11 -548c200 0 410 3.66699 630 11zM969 711c0 -34 -11 -63.501 -33 -88.501s-53 -37.5 -93 -37.5
c-34 0 -60.5 10.833 -79.5 32.5s-28.5 47.834 -28.5 78.501c0 33.333 11.333 62.333 34 87s54 37 94 37c32.667 0 58.5 -10.833 77.5 -32.5s28.5 -47.167 28.5 -76.5z" />
    <glyph glyph-name="ldot" unicode="&#x140;" horiz-adv-x="682" 
d="M325 0l-192 0.000976562c12 220 18 468.667 18 746c0 269.333 -9.66699 489.666 -29 660.999l203 10c-12.667 -181.333 -19 -405 -19 -671c0 -274 6.33301 -522.667 19 -746zM682 610.001c0 -34 -11 -63.501 -33 -88.501s-53 -37.5 -93 -37.5
c-34 0 -60.5 10.833 -79.5 32.5s-28.5 47.834 -28.5 78.501c0 33.333 11.333 62.333 34 87s54 37 94 37c32.667 0 58.5 -10.833 77.5 -32.5s28.5 -47.167 28.5 -76.5z" />
    <glyph glyph-name="Lslash" unicode="&#x141;" horiz-adv-x="1003" 
d="M981 147l-5.99902 -146.999h-787c6 130 9.66699 303 11 519l-151 -106l-72 108l224 142c0 264.667 -4 477.667 -12 639h186c-7.33301 -118.667 -11.333 -297 -12 -535l396 278l93 -116l-489 -305c-0.666992 -202.667 -4.33398 -365.334 -11.001 -488.001
c200 0 410 3.66699 630 11z" />
    <glyph glyph-name="lslash" unicode="&#x142;" horiz-adv-x="580" 
d="M646 893l-281 -200.999c0 -208.667 5.33301 -439.334 16 -692.001h-192c4.66699 92.667 11 282 19 568l-172 -155l-80 95l254 201c0 329.333 -10.333 562 -31 698l202 10c-4.66699 -92.667 -10.667 -286 -18 -580l178 159z" />
    <glyph glyph-name="Nacute" unicode="&#x143;" horiz-adv-x="1380" 
d="M1192 0l-140 0.000976562c0 11.333 -109.333 171 -328 479c-228.667 323.333 -359 527.333 -391 612h-10c12 -160.667 18 -298.334 18 -413.001c0 -224 5 -450 15 -678h-168c11.333 216.667 17 444.667 17 684c0 235.333 -5.66699 441.333 -17 618h192
c0 -18.667 100.667 -170.667 302 -456c210.667 -300 330.667 -495.333 360 -586h10c-11.333 162.667 -17 300.667 -17 414c0 246.667 -4.66699 456 -14 628h171c-11.333 -176.667 -17 -382.667 -17 -618c0 -239.333 5.66699 -467.333 17 -684zM1011 1690
c0 -8 -44.332 -52.999 -132.999 -134.999s-136.334 -128.333 -143.001 -139h-120c0 10.667 30 57.167 90 139.5s90 127.166 90 134.499h216z" />
    <glyph glyph-name="nacute" unicode="&#x144;" horiz-adv-x="1109" 
d="M979 0h-182.002c14.667 175.333 22 366.666 22 573.999c0 102.667 -20.833 172.834 -62.5 210.501s-101.167 56.5 -178.5 56.5c-94.667 0 -182 -34.333 -262 -103c0 -227.333 1.33301 -473.333 4 -738h-182c11.333 226.667 17 390.667 17 492
c0 156 -14.667 307.333 -44 454l176 25l19 -122h8c98.667 89.333 204.334 134 317.001 134c110.667 0 196.334 -24.5 257.001 -73.5s91 -136.167 91 -261.5c0 -12.667 -0.666992 -37.667 -2 -75s-2 -62.333 -2 -75c0 -111.333 1.33301 -277.333 4 -498zM915.998 1410
c0 -8 -46 -61.332 -138 -159.999s-138 -153.334 -138 -164.001h-120c0 10.667 30 65.5 90 164.5s90 152.167 90 159.5h216z" />
    <glyph glyph-name="Ncommaaccent" unicode="&#x145;" horiz-adv-x="1380" 
d="M1192 0l-140 0.000976562c0 11.333 -109.333 171 -328 479c-228.667 323.333 -359 527.333 -391 612h-10c12 -160.667 18 -298.334 18 -413.001c0 -224 5 -450 15 -678h-168c11.333 216.667 17 444.667 17 684c0 235.333 -5.66699 441.333 -17 618h192
c0 -18.667 100.667 -170.667 302 -456c210.667 -300 330.667 -495.333 360 -586h10c-11.333 162.667 -17 300.667 -17 414c0 246.667 -4.66699 456 -14 628h171c-11.333 -176.667 -17 -382.667 -17 -618c0 -239.333 5.66699 -467.333 17 -684zM799 -247.999
c0 -51.333 -17.666 -104.501 -52.999 -159.501s-72.333 -94.5 -111 -118.5l-39 40c49.333 62 74 115.667 74 161c-67.333 18 -101 50.667 -101 98c0 32.667 9.16699 60.834 27.5 84.501s45.833 35.5 82.5 35.5c39.333 0 69.166 -13 89.499 -39s30.5 -60 30.5 -102z" />
    <glyph glyph-name="ncommaaccent" unicode="&#x146;" horiz-adv-x="1109" 
d="M979 0h-182.002c14.667 175.333 22 366.666 22 573.999c0 102.667 -20.833 172.834 -62.5 210.501s-101.167 56.5 -178.5 56.5c-94.667 0 -182 -34.333 -262 -103c0 -227.333 1.33301 -473.333 4 -738h-182c11.333 226.667 17 390.667 17 492
c0 156 -14.667 307.333 -44 454l176 25l19 -122h8c98.667 89.333 204.334 134 317.001 134c110.667 0 196.334 -24.5 257.001 -73.5s91 -136.167 91 -261.5c0 -12.667 -0.666992 -37.667 -2 -75s-2 -62.333 -2 -75c0 -111.333 1.33301 -277.333 4 -498zM671.998 -248
c0 -51.333 -17.666 -104.501 -52.999 -159.501s-72.333 -94.5 -111 -118.5l-39 40c49.333 62 74 115.667 74 161c-67.333 18 -101 50.667 -101 98c0 32.667 9.16699 60.834 27.5 84.501s45.833 35.5 82.5 35.5c39.333 0 69.166 -13 89.499 -39s30.5 -60 30.5 -102z" />
    <glyph glyph-name="Ncaron" unicode="&#x147;" horiz-adv-x="1380" 
d="M1192 0l-140 0.000976562c0 11.333 -109.333 171 -328 479c-228.667 323.333 -359 527.333 -391 612h-10c12 -160.667 18 -298.334 18 -413.001c0 -224 5 -450 15 -678h-168c11.333 216.667 17 444.667 17 684c0 235.333 -5.66699 441.333 -17 618h192
c0 -18.667 100.667 -170.667 302 -456c210.667 -300 330.667 -495.333 360 -586h10c-11.333 162.667 -17 300.667 -17 414c0 246.667 -4.66699 456 -14 628h171c-11.333 -176.667 -17 -382.667 -17 -618c0 -239.333 5.66699 -467.333 17 -684zM989 1690
c0 -8.66699 -31.5 -53.834 -94.5 -135.501s-96.167 -127.834 -99.5 -138.501h-194c-3.33301 10.667 -36.5 56.834 -99.5 138.501s-94.5 126.834 -94.5 135.501h114c6.66699 -8.66699 65.667 -61.334 177 -158.001c111.333 96.667 170.333 149.334 177 158.001h114z" />
    <glyph glyph-name="ncaron" unicode="&#x148;" horiz-adv-x="1109" 
d="M979 0h-182.002c14.667 175.333 22 366.666 22 573.999c0 102.667 -20.833 172.834 -62.5 210.501s-101.167 56.5 -178.5 56.5c-94.667 0 -182 -34.333 -262 -103c0 -227.333 1.33301 -473.333 4 -738h-182c11.333 226.667 17 390.667 17 492
c0 156 -14.667 307.333 -44 454l176 25l19 -122h8c98.667 89.333 204.334 134 317.001 134c110.667 0 196.334 -24.5 257.001 -73.5s91 -136.167 91 -261.5c0 -12.667 -0.666992 -37.667 -2 -75s-2 -62.333 -2 -75c0 -111.333 1.33301 -277.333 4 -498zM902.998 1410
c0 -8.66699 -31.5 -62.167 -94.5 -160.5s-96.167 -152.833 -99.5 -163.5h-194c-3.33301 10.667 -36.5 65.167 -99.5 163.5s-94.5 151.833 -94.5 160.5h104c0 -8.66699 62.333 -78 187 -208c124.667 130 187 199.333 187 208h104z" />
    <glyph glyph-name="napostrophe" unicode="&#x149;" horiz-adv-x="1291" 
d="M1161 0h-182.002c14.667 175.333 22 366.666 22 573.999c0 102.667 -20.833 172.834 -62.5 210.501s-101.167 56.5 -178.5 56.5c-94.667 0 -182 -34.333 -262 -103c0 -227.333 1.33301 -473.333 4 -738h-182c11.333 226.667 17 390.667 17 492
c0 156 -14.667 307.333 -44 454l176 25l19 -122h8c98.667 89.333 204.334 134 317.001 134c110.667 0 196.334 -24.5 257.001 -73.5s91 -136.167 91 -261.5c0 -12.667 -0.666992 -37.667 -2 -75s-2 -62.333 -2 -75c0 -111.333 1.33301 -277.333 4 -498zM331.998 1275
c0 -88.667 -23 -171.832 -69 -249.499s-116.333 -157.834 -211 -240.501l-60 66c101.333 113.333 152 218 152 314c-57.333 22.667 -86 64.667 -86 126c0 38.667 12 72.5 36 101.5s59.667 43.5 107 43.5c38.667 0 70.167 -15.667 94.5 -47s36.5 -69.333 36.5 -114z
M200.998 1159z" />
    <glyph glyph-name="Eng" unicode="&#x14a;" horiz-adv-x="1380" 
d="M1193 -56c0 -106 -29 -191.331 -87 -255.998c-89.333 -86.667 -208 -130 -356 -130l-8 140c100.667 0 175.5 21.167 224.5 63.5s73.833 120.5 74.5 234.5v37l-317 446c-228.667 323.333 -359 527.333 -391 612h-10c12 -160.667 18 -298.334 18 -413.001
c0 -224 5 -450 15 -678h-168c11.333 216.667 17 444.667 17 684c0 235.333 -5.66699 441.333 -17 618h192c0 -18.667 100.667 -170.667 302 -456c210.667 -300 330.667 -495.333 360 -586h10c-11.333 162.667 -17 300.667 -17 414c0 246.667 -4.66699 456 -14 628h171
c-9.33301 -176.667 -14 -382.667 -14 -618c0 -191.333 2.5 -337.333 7.5 -438s7.5 -201.334 7.5 -302.001z" />
    <glyph glyph-name="eng" unicode="&#x14b;" horiz-adv-x="1115" 
d="M985 -56c0 -106 -29 -191.336 -87 -256.003c-89.333 -86.667 -208 -130 -356 -130l-8 140c100.667 0 174.667 21.167 222 63.5s71.333 120.5 72 234.5c-2.66699 104 -4 296.667 -4 578c0 102.667 -21 172.834 -63 210.501s-101.333 56.5 -178 56.5
c-95.333 0 -184.333 -34.333 -267 -103c0 -286 1.33301 -532 4 -738h-182c11.333 226.667 17 390.667 17 492c0 156 -14.667 307.333 -44 454l176 25l19 -122h8c99.333 89.333 203.333 134 312 134c112.667 0 199.667 -24.167 261 -72.5s92 -134.166 92 -257.499
c0 -39.333 -0.666992 -81.666 -2 -126.999s-2 -104.333 -2 -177c0 -96.667 1.66699 -176.667 5 -240s5 -118.333 5 -165z" />
    <glyph glyph-name="Omacron" unicode="&#x14c;" horiz-adv-x="1421" 
d="M1322 671c0 -215.333 -63 -387.5 -189 -516.5s-271.667 -193.5 -437 -193.5c-158.667 0 -297.834 59.167 -417.501 177.5s-179.5 278.166 -179.5 479.499c0 218 63 390.833 189 518.5s271.667 191.5 437 191.5c158.667 0 297.834 -59.167 417.501 -177.5
s179.5 -278.166 179.5 -479.499zM1144 648c0 172 -45.168 305.167 -135.501 399.5s-194.5 141.5 -312.5 141.5c-109.333 0 -206.666 -49.667 -291.999 -149s-128 -232 -128 -398c0 -172.667 45.5 -306.167 136.5 -400.5s195.167 -141.5 312.5 -141.5
c109.333 0 206.5 50.333 291.5 151s127.5 233 127.5 397zM976.999 1600l-12 -124h-474l12 124h474z" />
    <glyph glyph-name="omacron" unicode="&#x14d;" horiz-adv-x="1144" 
d="M1045 504c0 -170.667 -49 -303.833 -147 -399.5s-213.333 -143.5 -346 -143.5c-124 0 -230.5 42.333 -319.5 127s-133.5 204 -133.5 358c0 172 49.167 306.333 147.5 403s213.833 145 346.5 145c124 0 230.333 -42.833 319 -128.5s133 -206.167 133 -361.5zM872 469.001
c0 104 -26.166 196.501 -78.499 277.501s-126.833 121.5 -223.5 121.5c-96 0 -169.833 -38.333 -221.5 -115s-77.5 -165.667 -77.5 -267c0 -104.667 26.167 -197.334 78.5 -278.001s127.166 -121 224.499 -121c96 0 169.667 38.5 221 115.5s77 165.833 77 266.5z
M824.001 1310l-12 -124h-434l11 124h435z" />
    <glyph glyph-name="Obreve" unicode="&#x14e;" horiz-adv-x="1421" 
d="M1322 671c0 -215.333 -63 -387.5 -189 -516.5s-271.667 -193.5 -437 -193.5c-158.667 0 -297.834 59.167 -417.501 177.5s-179.5 278.166 -179.5 479.499c0 218 63 390.833 189 518.5s271.667 191.5 437 191.5c158.667 0 297.834 -59.167 417.501 -177.5
s179.5 -278.166 179.5 -479.499zM1144 648c0 172 -45.168 305.167 -135.501 399.5s-194.5 141.5 -312.5 141.5c-109.333 0 -206.666 -49.667 -291.999 -149s-128 -232 -128 -398c0 -172.667 45.5 -306.167 136.5 -400.5s195.167 -141.5 312.5 -141.5
c109.333 0 206.5 50.333 291.5 151s127.5 233 127.5 397zM1030 1640c-63.333 -145.333 -165.333 -218 -306 -218c-147.333 0 -250 72.667 -308 218l100 50c48 -96 116.667 -144 206 -144c82.667 0 152 48 208 144z" />
    <glyph glyph-name="obreve" unicode="&#x14f;" horiz-adv-x="1144" 
d="M1045 504c0 -170.667 -49 -303.833 -147 -399.5s-213.333 -143.5 -346 -143.5c-124 0 -230.5 42.333 -319.5 127s-133.5 204 -133.5 358c0 172 49.167 306.333 147.5 403s213.833 145 346.5 145c124 0 230.333 -42.833 319 -128.5s133 -206.167 133 -361.5zM872 469.001
c0 104 -26.166 196.501 -78.499 277.501s-126.833 121.5 -223.5 121.5c-96 0 -169.833 -38.333 -221.5 -115s-77.5 -165.667 -77.5 -267c0 -104.667 26.167 -197.334 78.5 -278.001s127.166 -121 224.499 -121c96 0 169.667 38.5 221 115.5s77 165.833 77 266.5z
M898.001 1340c-63.333 -152 -165.333 -228 -306 -228c-147.333 0 -250 76 -308 228l100 50c48 -102.667 116.667 -154 206 -154c82.667 0 152 51.333 208 154z" />
    <glyph glyph-name="Ohungarumlaut" unicode="&#x150;" horiz-adv-x="1421" 
d="M1322 671c0 -215.333 -63 -387.5 -189 -516.5s-271.667 -193.5 -437 -193.5c-158.667 0 -297.834 59.167 -417.501 177.5s-179.5 278.166 -179.5 479.499c0 218 63 390.833 189 518.5s271.667 191.5 437 191.5c158.667 0 297.834 -59.167 417.501 -177.5
s179.5 -278.166 179.5 -479.499zM1144 648c0 172 -45.168 305.167 -135.501 399.5s-194.5 141.5 -312.5 141.5c-109.333 0 -206.666 -49.667 -291.999 -149s-128 -232 -128 -398c0 -172.667 45.5 -306.167 136.5 -400.5s195.167 -141.5 312.5 -141.5
c109.333 0 206.5 50.333 291.5 151s127.5 233 127.5 397zM748.999 1690c0 -14.667 -27.832 -61.332 -83.499 -139.999s-85.834 -123.334 -90.501 -134.001h-94c0 10.667 11.667 55.5 35 134.5s35 125.5 35 139.5h198zM1109 1690c0 -14.667 -27.832 -61.332 -83.499 -139.999
s-85.834 -123.334 -90.501 -134.001h-94c4.66699 10.667 17.5 55.5 38.5 134.5s31.5 125.5 31.5 139.5h198z" />
    <glyph glyph-name="ohungarumlaut" unicode="&#x151;" horiz-adv-x="1144" 
d="M1045 504c0 -170.667 -49 -303.833 -147 -399.5s-213.333 -143.5 -346 -143.5c-124 0 -230.5 42.333 -319.5 127s-133.5 204 -133.5 358c0 172 49.167 306.333 147.5 403s213.833 145 346.5 145c124 0 230.333 -42.833 319 -128.5s133 -206.167 133 -361.5zM872 469.001
c0 104 -26.166 196.501 -78.499 277.501s-126.833 121.5 -223.5 121.5c-96 0 -169.833 -38.333 -221.5 -115s-77.5 -165.667 -77.5 -267c0 -104.667 26.167 -197.334 78.5 -278.001s127.166 -121 224.499 -121c96 0 169.667 38.5 221 115.5s77 165.833 77 266.5z
M630.001 1410c0 -14.667 -30.667 -69.668 -92 -165.001s-92 -148.333 -92 -159h-94c0 10.667 11.667 63.834 35 159.501s35 150.5 35 164.5h208zM990.001 1410c0 -14.667 -30.667 -69.668 -92 -165.001s-92 -148.333 -92 -159h-94c0 10.667 11.667 63.834 35 159.501
s35 150.5 35 164.5h208z" />
    <glyph glyph-name="OE" unicode="&#x152;" horiz-adv-x="1846" 
d="M1780 151l-6 -150.999h-816c-96 -24.667 -187.667 -37 -275 -37c-193.333 0 -342.666 70.333 -447.999 211c-90.667 121.333 -136 272 -136 452c0 181.333 50.333 339.333 151 474c114 152 264 228 450 228c80 0 172.333 -8.66699 277 -26h748l-7 -149
c-232.667 8 -434.334 12 -605.001 12c4 -102.667 6 -242.334 6 -419.001c136 0 304 2 504 6l-6 -143c-165.333 6 -331.333 9 -498 9c0 -171.333 4.33301 -332 13 -482c157.333 0 373.333 5 648 15zM962 684.001c0 186.667 -2.66699 345 -8 475
c-83.333 22 -174.333 33 -273 33c-130 0 -230.667 -56.333 -302 -169c-62.667 -98 -94 -220.667 -94 -368c0 -146 35.667 -271.333 107 -376c78 -116 181.333 -174 310 -174c104.667 0 188.667 13.333 252 40c5.33301 148 8 327.667 8 539z" />
    <glyph glyph-name="oe" unicode="&#x153;" horiz-adv-x="1766" 
d="M1667 587c0 -14 -0.332031 -30.668 -0.999023 -50.001s-1.66699 -41.333 -3 -66l-656 -12c4 -52 15.333 -99.167 34 -141.5s43.667 -78.333 75 -108s68.5 -52.667 111.5 -69s90.5 -24.5 142.5 -24.5c102.667 0 195 12.333 277 37l-17 -141c-60 -26 -153 -39 -279 -39
c-183.333 0 -323 64.667 -419 194h-11c-79.333 -137.333 -206 -206 -380 -206c-64.667 0 -124 11.5 -178 34.5s-100.5 55.667 -139.5 98s-69.5 93.333 -91.5 153s-33 126.167 -33 199.5c0 82 12.167 156.667 36.5 224s58 125 101 173s94.167 85.167 153.5 111.5
s123.666 39.5 192.999 39.5c168 0 284.333 -62 349 -186h10c77.333 124 190.333 186 339 186c61.333 0 115.833 -9.33301 163.5 -28s88 -45.5 121 -80.5s58.167 -77.667 75.5 -128s26 -107.166 26 -170.499zM864.001 468.999c0 55.333 -7.50293 107.166 -22.5029 155.499
s-36 90.5 -63 126.5s-59.167 64.5 -96.5 85.5s-78 31.5 -122 31.5s-83.667 -9.83301 -119 -29.5s-65.666 -46.667 -90.999 -81s-44.833 -74.666 -58.5 -120.999s-20.5 -96.5 -20.5 -150.5c0 -56 7 -108.167 21 -156.5s33.833 -90.5 59.5 -126.5s56.5 -64.333 92.5 -85
s76 -31 120 -31s84.333 9.83301 121 29.5s68.334 46.834 95.001 81.501s47.334 75.167 62.001 121.5s22 96.166 22 149.499zM1500 584.999c0 187.333 -75.666 281 -226.999 281c-160.667 0 -247.334 -97.333 -260.001 -292z" />
    <glyph glyph-name="Racute" unicode="&#x154;" horiz-adv-x="1240" 
d="M1174 0l-193 -0.000976562c-64 191.333 -110.667 318 -140 380c-37.333 78 -79.666 128.333 -126.999 151c-37.333 18 -104.333 27 -201 27c-56.667 0 -107 -0.666992 -151 -2c0 -215.333 4 -400.666 12 -555.999h-186c10 206.667 15 434.667 15 684
c0 234.667 -5 440.667 -15 618h141c30 0 68 1 114 3s98.667 3 158 3c292 0 438 -100.667 438 -302c0 -167.333 -82 -285 -246 -353v-10c73.333 -22 132.666 -73 177.999 -153c38 -66.667 105.667 -230 203 -490zM868 937.999c0 158.667 -107.333 238 -322 238
c-76.667 0 -141 -4.33301 -193 -13c4.66699 -116 7 -273.667 7 -473c40 -1.33301 78.333 -2 115 -2c262 0 393 83.333 393 250zM931 1690c0 -8 -44.332 -52.999 -132.999 -134.999s-136.334 -128.333 -143.001 -139h-120c0 10.667 30 57.167 90 139.5s90 127.166 90 134.499
h216z" />
    <glyph glyph-name="racute" unicode="&#x155;" horiz-adv-x="726" 
d="M736 950l-45.002 -159c-52 20.667 -100.333 31 -145 31c-125.333 0 -206.666 -59.667 -243.999 -179c0 -306.667 2 -521 6 -643h-177c10.667 211.333 16 375.333 16 492c0 158 -15.667 309.333 -47 454l175 25c12.667 -73.333 19 -122.333 19 -147h8
c72 106 156 159 252 159c50.667 0 111.334 -11 182.001 -33zM681.998 1410c0 -8 -46 -61.332 -138 -159.999s-138 -153.334 -138 -164.001h-120c0 10.667 30 65.5 90 164.5s90 152.167 90 159.5h216z" />
    <glyph glyph-name="Rcommaaccent" unicode="&#x156;" horiz-adv-x="1240" 
d="M1174 0l-193 -0.000976562c-64 191.333 -110.667 318 -140 380c-37.333 78 -79.666 128.333 -126.999 151c-37.333 18 -104.333 27 -201 27c-56.667 0 -107 -0.666992 -151 -2c0 -215.333 4 -400.666 12 -555.999h-186c10 206.667 15 434.667 15 684
c0 234.667 -5 440.667 -15 618h141c30 0 68 1 114 3s98.667 3 158 3c292 0 438 -100.667 438 -302c0 -167.333 -82 -285 -246 -353v-10c73.333 -22 132.666 -73 177.999 -153c38 -66.667 105.667 -230 203 -490zM868 937.999c0 158.667 -107.333 238 -322 238
c-76.667 0 -141 -4.33301 -193 -13c4.66699 -116 7 -273.667 7 -473c40 -1.33301 78.333 -2 115 -2c262 0 393 83.333 393 250zM776 -248.001c0 -51.333 -17.666 -104.501 -52.999 -159.501s-72.333 -94.5 -111 -118.5l-39 40c49.333 62 74 115.667 74 161
c-67.333 18 -101 50.667 -101 98c0 32.667 9.16699 60.834 27.5 84.501s45.833 35.5 82.5 35.5c39.333 0 69.166 -13 89.499 -39s30.5 -60 30.5 -102z" />
    <glyph glyph-name="rcommaaccent" unicode="&#x157;" horiz-adv-x="726" 
d="M736 950l-45.002 -159c-52 20.667 -100.333 31 -145 31c-125.333 0 -206.666 -59.667 -243.999 -179c0 -306.667 2 -521 6 -643h-177c10.667 211.333 16 375.333 16 492c0 158 -15.667 309.333 -47 454l175 25c12.667 -73.333 19 -122.333 19 -147h8
c72 106 156 159 252 159c50.667 0 111.334 -11 182.001 -33zM329.998 -248c0 -51.333 -17.666 -104.501 -52.999 -159.501s-72.333 -94.5 -111 -118.5l-39 40c49.333 62 74 115.667 74 161c-67.333 18 -101 50.667 -101 98c0 32.667 9.16699 60.834 27.5 84.501
s45.833 35.5 82.5 35.5c39.333 0 69.166 -13 89.499 -39s30.5 -60 30.5 -102z" />
    <glyph glyph-name="Rcaron" unicode="&#x158;" horiz-adv-x="1240" 
d="M1174 0l-193 -0.000976562c-64 191.333 -110.667 318 -140 380c-37.333 78 -79.666 128.333 -126.999 151c-37.333 18 -104.333 27 -201 27c-56.667 0 -107 -0.666992 -151 -2c0 -215.333 4 -400.666 12 -555.999h-186c10 206.667 15 434.667 15 684
c0 234.667 -5 440.667 -15 618h141c30 0 68 1 114 3s98.667 3 158 3c292 0 438 -100.667 438 -302c0 -167.333 -82 -285 -246 -353v-10c73.333 -22 132.666 -73 177.999 -153c38 -66.667 105.667 -230 203 -490zM868 937.999c0 158.667 -107.333 238 -322 238
c-76.667 0 -141 -4.33301 -193 -13c4.66699 -116 7 -273.667 7 -473c40 -1.33301 78.333 -2 115 -2c262 0 393 83.333 393 250zM904 1690c0 -8.66699 -31.5 -53.834 -94.5 -135.501s-96.167 -127.834 -99.5 -138.501h-194c-3.33301 10.667 -36.5 56.834 -99.5 138.501
s-94.5 126.834 -94.5 135.501h114c6.66699 -8.66699 65.667 -61.334 177 -158.001c111.333 96.667 170.333 149.334 177 158.001h114z" />
    <glyph glyph-name="rcaron" unicode="&#x159;" horiz-adv-x="726" 
d="M736 950l-45.002 -159c-52 20.667 -100.333 31 -145 31c-125.333 0 -206.666 -59.667 -243.999 -179c0 -306.667 2 -521 6 -643h-177c10.667 211.333 16 375.333 16 492c0 158 -15.667 309.333 -47 454l175 25c12.667 -73.333 19 -122.333 19 -147h8
c72 106 156 159 252 159c50.667 0 111.334 -11 182.001 -33zM738.998 1410c0 -8.66699 -31.5 -62.167 -94.5 -160.5s-96.167 -152.833 -99.5 -163.5h-194c-3.33301 10.667 -36.5 65.167 -99.5 163.5s-94.5 151.833 -94.5 160.5h104c0 -8.66699 62.333 -78 187 -208
c124.667 130 187 199.333 187 208h104z" />
    <glyph glyph-name="Sacute" unicode="&#x15a;" horiz-adv-x="1047" 
d="M948 337c0 -246.667 -171.67 -370.003 -515.003 -370.003c-125.333 0 -236.666 14.333 -333.999 43l35 157c112 -38.667 218.333 -58 319 -58c226.667 0 340 64 340 192c0 64.667 -29.333 120 -88 166c-39.333 30.667 -116.666 71.667 -231.999 123
c-121.333 54 -206.333 103.667 -255 149c-67.333 62.667 -101 141.334 -101 236.001c0 98.667 34.333 179 103 241c76.667 69.333 185 104 325 104c158.667 0 267.334 -10.333 326.001 -31l-24 -159c-101.333 32 -209 48 -323 48c-171.333 0 -257 -57.333 -257 -172
c0 -55.333 24.667 -101.666 74 -138.999c32 -23.333 102.667 -58.666 212 -105.999c124.667 -54 214.667 -105.333 270 -154c83.333 -73.333 125 -163.333 125 -270zM877.997 1690c0 -8 -44.332 -52.999 -132.999 -134.999s-136.334 -128.333 -143.001 -139h-120
c0 10.667 30 57.167 90 139.5s90 127.166 90 134.499h216z" />
    <glyph glyph-name="sacute" unicode="&#x15b;" horiz-adv-x="858" 
d="M767 271c0 -194.667 -124.331 -292 -372.998 -292c-110 0 -212.667 11 -308 33l31 147c86.667 -33.333 180.667 -50 282 -50c145.333 0 218 41.333 218 124c0 40 -16.167 71.833 -48.5 95.5s-85.833 50.167 -160.5 79.5c-94.667 37.333 -163.334 73.333 -206.001 108
c-62.667 51.333 -94 113.333 -94 186c0 76 28.667 141.167 86 195.5s144.666 81.5 261.999 81.5c114.667 0 206.667 -9.66699 276 -29l-31 -144c-72 28.667 -155.333 43 -250 43c-128 0 -192 -37 -192 -111c0 -37.333 14.333 -67.5 43 -90.5s84.667 -50.833 168 -83.5
c90 -35.333 156.667 -70 200 -104c64.667 -52.667 97 -115.667 97 -189zM806.002 1410c0 -8 -46 -61.332 -138 -159.999s-138 -153.334 -138 -164.001h-120c0 10.667 30 65.5 90 164.5s90 152.167 90 159.5h216z" />
    <glyph glyph-name="Scircumflex" unicode="&#x15c;" horiz-adv-x="1047" 
d="M948 337c0 -246.667 -171.67 -370.003 -515.003 -370.003c-125.333 0 -236.666 14.333 -333.999 43l35 157c112 -38.667 218.333 -58 319 -58c226.667 0 340 64 340 192c0 64.667 -29.333 120 -88 166c-39.333 30.667 -116.666 71.667 -231.999 123
c-121.333 54 -206.333 103.667 -255 149c-67.333 62.667 -101 141.334 -101 236.001c0 98.667 34.333 179 103 241c76.667 69.333 185 104 325 104c158.667 0 267.334 -10.333 326.001 -31l-24 -159c-101.333 32 -209 48 -323 48c-171.333 0 -257 -57.333 -257 -172
c0 -55.333 24.667 -101.666 74 -138.999c32 -23.333 102.667 -58.666 212 -105.999c124.667 -54 214.667 -105.333 270 -154c83.333 -73.333 125 -163.333 125 -270zM820.997 1416h-114c-6.66699 8.66699 -65.667 61.334 -177 158.001
c-111.333 -96.667 -170.333 -149.334 -177 -158.001h-114c0 8.66699 31.5 53.834 94.5 135.501s96.167 127.834 99.5 138.501h194c3.33301 -10.667 36.5 -56.834 99.5 -138.501s94.5 -126.834 94.5 -135.501z" />
    <glyph glyph-name="scircumflex" unicode="&#x15d;" horiz-adv-x="858" 
d="M767 271c0 -194.667 -124.331 -292 -372.998 -292c-110 0 -212.667 11 -308 33l31 147c86.667 -33.333 180.667 -50 282 -50c145.333 0 218 41.333 218 124c0 40 -16.167 71.833 -48.5 95.5s-85.833 50.167 -160.5 79.5c-94.667 37.333 -163.334 73.333 -206.001 108
c-62.667 51.333 -94 113.333 -94 186c0 76 28.667 141.167 86 195.5s144.666 81.5 261.999 81.5c114.667 0 206.667 -9.66699 276 -29l-31 -144c-72 28.667 -155.333 43 -250 43c-128 0 -192 -37 -192 -111c0 -37.333 14.333 -67.5 43 -90.5s84.667 -50.833 168 -83.5
c90 -35.333 156.667 -70 200 -104c64.667 -52.667 97 -115.667 97 -189zM732.002 1086h-104c0 8.66699 -62.333 78 -187 208c-124.667 -130 -187 -199.333 -187 -208h-104c0 8.66699 31.5 62.167 94.5 160.5s96.167 152.833 99.5 163.5h194
c3.33301 -10.667 36.5 -65.167 99.5 -163.5s94.5 -151.833 94.5 -160.5z" />
    <glyph glyph-name="Scedilla" unicode="&#x15e;" horiz-adv-x="1047" 
d="M948 337c0 -236 -157.669 -359.001 -473.002 -369.001l-10 -68c130.667 -31.333 196 -95.333 196 -192c0 -148 -80 -222 -240 -222l-14 92c31.333 0 56.833 10.667 76.5 32s29.5 46.666 29.5 75.999c0 75.333 -50.667 122.666 -152 141.999l28 140
c-108 2.66699 -206.667 16.667 -296 42l39 157c113.333 -38.667 220.333 -58 321 -58c226.667 0 340 64 340 192c0 64.667 -29.333 120 -88 166c-39.333 30.667 -116.666 71.667 -231.999 123c-121.333 54 -206.333 103.667 -255 149
c-67.333 62.667 -101 141.334 -101 236.001c0 98.667 34.333 179 103 241c76.667 69.333 185 104 325 104c158.667 0 267.334 -10.333 326.001 -31l-24 -159c-101.333 32 -209 48 -323 48c-171.333 0 -257 -57.333 -257 -172c0 -55.333 24.667 -101.666 74 -138.999
c32 -23.333 102.667 -58.666 212 -105.999c124.667 -54 214.667 -105.333 270 -154c83.333 -73.333 125 -163.333 125 -270z" />
    <glyph glyph-name="scedilla" unicode="&#x15f;" horiz-adv-x="858" 
d="M767 271c0 -185.333 -112.665 -282.332 -337.998 -290.999l-9 -80c130.667 -31.333 196 -95.333 196 -192c0 -148 -80 -222 -240 -222l-14 92c31.333 0 56.833 10.667 76.5 32s29.5 46.666 29.5 75.999c0 75.333 -50.667 122.666 -152 141.999l31 152
c-92.667 2.66699 -179.667 13.334 -261 32.001l31 147c86.667 -33.333 180.667 -50 282 -50c145.333 0 218 41.333 218 124c0 40 -16.167 71.833 -48.5 95.5s-85.833 50.167 -160.5 79.5c-94.667 37.333 -163.334 73.333 -206.001 108c-62.667 51.333 -94 113.333 -94 186
c0 76 28.667 141.167 86 195.5s144.666 81.5 261.999 81.5c114.667 0 206.667 -9.66699 276 -29l-31 -144c-72 28.667 -155.333 43 -250 43c-128 0 -192 -37 -192 -111c0 -37.333 14.333 -67.5 43 -90.5s84.667 -50.833 168 -83.5c90 -35.333 156.667 -70 200 -104
c64.667 -52.667 97 -115.667 97 -189z" />
    <glyph glyph-name="Scaron" unicode="&#x160;" horiz-adv-x="1047" 
d="M948 337c0 -246.667 -171.67 -370.003 -515.003 -370.003c-125.333 0 -236.666 14.333 -333.999 43l35 157c112 -38.667 218.333 -58 319 -58c226.667 0 340 64 340 192c0 64.667 -29.333 120 -88 166c-39.333 30.667 -116.666 71.667 -231.999 123
c-121.333 54 -206.333 103.667 -255 149c-67.333 62.667 -101 141.334 -101 236.001c0 98.667 34.333 179 103 241c76.667 69.333 185 104 325 104c158.667 0 267.334 -10.333 326.001 -31l-24 -159c-101.333 32 -209 48 -323 48c-171.333 0 -257 -57.333 -257 -172
c0 -55.333 24.667 -101.666 74 -138.999c32 -23.333 102.667 -58.666 212 -105.999c124.667 -54 214.667 -105.333 270 -154c83.333 -73.333 125 -163.333 125 -270zM845.997 1690c0 -8.66699 -31.5 -53.834 -94.5 -135.501s-96.167 -127.834 -99.5 -138.501h-194
c-3.33301 10.667 -36.5 56.834 -99.5 138.501s-94.5 126.834 -94.5 135.501h114c6.66699 -8.66699 65.667 -61.334 177 -158.001c111.333 96.667 170.333 149.334 177 158.001h114z" />
    <glyph glyph-name="scaron" unicode="&#x161;" horiz-adv-x="858" 
d="M767 271c0 -194.667 -124.331 -292 -372.998 -292c-110 0 -212.667 11 -308 33l31 147c86.667 -33.333 180.667 -50 282 -50c145.333 0 218 41.333 218 124c0 40 -16.167 71.833 -48.5 95.5s-85.833 50.167 -160.5 79.5c-94.667 37.333 -163.334 73.333 -206.001 108
c-62.667 51.333 -94 113.333 -94 186c0 76 28.667 141.167 86 195.5s144.666 81.5 261.999 81.5c114.667 0 206.667 -9.66699 276 -29l-31 -144c-72 28.667 -155.333 43 -250 43c-128 0 -192 -37 -192 -111c0 -37.333 14.333 -67.5 43 -90.5s84.667 -50.833 168 -83.5
c90 -35.333 156.667 -70 200 -104c64.667 -52.667 97 -115.667 97 -189zM743.002 1410c0 -8.66699 -31.5 -62.167 -94.5 -160.5s-96.167 -152.833 -99.5 -163.5h-194c-3.33301 10.667 -36.5 65.167 -99.5 163.5s-94.5 151.833 -94.5 160.5h104
c0 -8.66699 62.333 -78 187 -208c124.667 130 187 199.333 187 208h104z" />
    <glyph glyph-name="Tcommaaccent" unicode="&#x162;" horiz-adv-x="1043" 
d="M1021 1302l-4.99902 -141c-132 6.66699 -268.333 10 -409 10c-1.33301 -128 -2 -290.333 -2 -487c0 -217.333 3.33301 -445.333 10 -684h-183c8 227.333 12 455.333 12 684c0 194 -2 356.333 -6 487c-98.667 0 -237.334 -4 -416.001 -12l5 143h994zM657.001 -248
c0 -51.333 -17.666 -104.501 -52.999 -159.501s-72.333 -94.5 -111 -118.5l-39 40c49.333 62 74 115.667 74 161c-67.333 18 -101 50.667 -101 98c0 32.667 9.16699 60.834 27.5 84.501s45.833 35.5 82.5 35.5c39.333 0 69.166 -13 89.499 -39s30.5 -60 30.5 -102z" />
    <glyph glyph-name="Tcommaaccent" unicode="&#x21a;" horiz-adv-x="1043" 
d="M1021 1302l-4.99902 -141c-132 6.66699 -268.333 10 -409 10c-1.33301 -128 -2 -290.333 -2 -487c0 -217.333 3.33301 -445.333 10 -684h-183c8 227.333 12 455.333 12 684c0 194 -2 356.333 -6 487c-98.667 0 -237.334 -4 -416.001 -12l5 143h994zM657.001 -248
c0 -51.333 -17.666 -104.501 -52.999 -159.501s-72.333 -94.5 -111 -118.5l-39 40c49.333 62 74 115.667 74 161c-67.333 18 -101 50.667 -101 98c0 32.667 9.16699 60.834 27.5 84.501s45.833 35.5 82.5 35.5c39.333 0 69.166 -13 89.499 -39s30.5 -60 30.5 -102z" />
    <glyph glyph-name="tcommaaccent" unicode="&#x163;" horiz-adv-x="735" 
d="M680 138l-11.999 -130.001c-52.667 -19.333 -102.334 -29 -149.001 -29c-120 0 -202 30.5 -246 91.5s-66 170.167 -66 327.5c0 102 0.666992 235 2 399c-37.333 0 -92.333 -2 -165 -6l6 145c63.333 -4 120 -6 170 -6c0 40 3.33301 135 10 285l157 16
c-11.333 -140 -17 -240.333 -17 -301c65.333 0 161.333 3.33301 288 10l-7 -149c-120 4 -216.333 6 -289 6c-1.33301 -100.667 -2 -214 -2 -340c0 -137.333 14.5 -228.166 43.5 -272.499s82.833 -66.5 161.5 -66.5c26 0 64.333 6.66699 115 20zM536.001 -248.001
c0 -51.333 -17.666 -104.501 -52.999 -159.501s-72.333 -94.5 -111 -118.5l-39 40c49.333 62 74 115.667 74 161c-67.333 18 -101 50.667 -101 98c0 32.667 9.16699 60.834 27.5 84.501s45.833 35.5 82.5 35.5c39.333 0 69.166 -13 89.499 -39s30.5 -60 30.5 -102z" />
    <glyph glyph-name="tcommaaccent" unicode="&#x21b;" horiz-adv-x="735" 
d="M680 138l-11.999 -130.001c-52.667 -19.333 -102.334 -29 -149.001 -29c-120 0 -202 30.5 -246 91.5s-66 170.167 -66 327.5c0 102 0.666992 235 2 399c-37.333 0 -92.333 -2 -165 -6l6 145c63.333 -4 120 -6 170 -6c0 40 3.33301 135 10 285l157 16
c-11.333 -140 -17 -240.333 -17 -301c65.333 0 161.333 3.33301 288 10l-7 -149c-120 4 -216.333 6 -289 6c-1.33301 -100.667 -2 -214 -2 -340c0 -137.333 14.5 -228.166 43.5 -272.499s82.833 -66.5 161.5 -66.5c26 0 64.333 6.66699 115 20zM536.001 -248.001
c0 -51.333 -17.666 -104.501 -52.999 -159.501s-72.333 -94.5 -111 -118.5l-39 40c49.333 62 74 115.667 74 161c-67.333 18 -101 50.667 -101 98c0 32.667 9.16699 60.834 27.5 84.501s45.833 35.5 82.5 35.5c39.333 0 69.166 -13 89.499 -39s30.5 -60 30.5 -102z" />
    <glyph glyph-name="Tcaron" unicode="&#x164;" horiz-adv-x="1043" 
d="M1021 1302l-4.99902 -141c-132 6.66699 -268.333 10 -409 10c-1.33301 -128 -2 -290.333 -2 -487c0 -217.333 3.33301 -445.333 10 -684h-183c8 227.333 12 455.333 12 684c0 194 -2 356.333 -6 487c-98.667 0 -237.334 -4 -416.001 -12l5 143h994zM819.001 1690
c0 -8.66699 -31.5 -53.834 -94.5 -135.501s-96.167 -127.834 -99.5 -138.501h-194c-3.33301 10.667 -36.5 56.834 -99.5 138.501s-94.5 126.834 -94.5 135.501h114c6.66699 -8.66699 65.667 -61.334 177 -158.001c111.333 96.667 170.333 149.334 177 158.001h114z" />
    <glyph glyph-name="tcaron" unicode="&#x165;" horiz-adv-x="913" 
d="M680 138l-11.999 -130.001c-52.667 -19.333 -102.334 -29 -149.001 -29c-120 0 -202 30.5 -246 91.5s-66 170.167 -66 327.5c0 102 0.666992 235 2 399c-37.333 0 -92.333 -2 -165 -6l6 145c63.333 -4 120 -6 170 -6c0 40 3.33301 135 10 285l157 16
c-11.333 -140 -17 -240.333 -17 -301c65.333 0 161.333 3.33301 288 10l-7 -149c-120 4 -216.333 6 -289 6c-1.33301 -100.667 -2 -214 -2 -340c0 -137.333 14.5 -228.166 43.5 -272.499s82.833 -66.5 161.5 -66.5c26 0 64.333 6.66699 115 20zM947.001 1174
c0 -56.667 -19.5 -115.167 -58.5 -175.5s-79.833 -103.833 -122.5 -130.5l-43 44c54.667 68 82 127 82 177c-74.667 20 -112 56 -112 108c0 36 10.167 67 30.5 93s50.5 39 90.5 39c43.333 0 76.333 -14.333 99 -43s34 -66 34 -112z" />
    <glyph glyph-name="Tbar" unicode="&#x166;" horiz-adv-x="1043" 
d="M1021 1302l-4.99902 -141c-132 6.66699 -268.333 10 -409 10c-1.33301 -114 -2 -256 -2 -426h349l-10 -108h-339c0 -203.333 3.33301 -415.666 10 -636.999h-183c7.33301 211.333 11.333 423.666 12 636.999h-349l10 108h339c-0.666992 167.333 -2.66699 309.333 -6 426
c-98.667 0 -237.334 -4 -416.001 -12l5 143h994z" />
    <glyph glyph-name="tbar" unicode="&#x167;" horiz-adv-x="735" 
d="M680 138l-12.001 -130.001c-52.667 -19.333 -101 -29 -145 -29c-108.667 0 -188.5 26 -239.5 78s-76.5 162.333 -76.5 331v74h-159l6 102h153c0.666992 69.333 1.33398 147 2.00098 233c-37.333 0 -92.333 -2 -165 -6l6 145c63.333 -4 120 -6 170 -6
c0 40 3.33301 135 10 285l157 16c-11.333 -140 -17 -240.333 -17 -301c65.333 0 161.333 3.33301 288 10l-7 -149c-120 4 -216.333 6 -289 6c-1.33301 -71.333 -2 -149 -2 -233h272l-6 -102h-266v-5c0 -137.333 14.5 -228.166 43.5 -272.499s82.833 -66.5 161.5 -66.5
c26 0 64.333 6.66699 115 20z" />
    </font>
</defs>
</svg>
